<svg xmlns="http://www.w3.org/2000/svg" viewBox="382 940.8 309.6 263.5">
  <path d="M382 1073.7C382 1073.7 382.2 1073.8 382.2 1073.8L385.2 1076.3C385.2 1076.3 389.7 1078.3 392.7 1079.3 394.2 1079.8 395.7 1080 397.1 1080.4 397.7 1080.6 398.4 1080.8 399 1081.1 399.6 1081.4 400.2 1081.8 400.7 1082.3 401.7 1083.3 402.8 1083.9 404.2 1084.5 405.6 1085 407.2 1085.5 409.2 1086.3 411.2 1087 412.2 1087.8 413.1 1088.5 413.9 1089.2 414.7 1089.8 416.2 1090.3 416.9 1090.5 417.5 1090.7 417.9 1090.8 418.3 1090.9 418.6 1091 418.8 1091.3 419.2 1091.8 419.2 1092.8 419.2 1095.3 419.2 1100.3 419.7 1107.3 419.7 1107.3L413.7 1109.3 411.2 1115.8C411.2 1115.8 410.7 1121.8 410.2 1123.8 409.9 1124.8 409.2 1126.2 408.5 1127.3 407.8 1128.4 407.2 1129.3 407.2 1129.3 407.2 1129.3 405.7 1130.5 404.7 1131.8 404.3 1132.4 404 1133 404 1133.5 404.1 1133.7 404.2 1133.9 404.5 1134.1 404.7 1134.2 405.1 1134.3 405.7 1134.3 407.9 1134.3 409.9 1134.3 411.7 1134.4 413.4 1134.4 414.9 1134.5 416.2 1134.8 417.4 1135 418.6 1135.4 419.6 1135.5 420.2 1135.5 420.7 1135.5 421.2 1135.3 421.7 1135.1 422.2 1134.8 422.7 1134.3 423.7 1133.3 424.5 1132 425.4 1131 425.8 1130.5 426.3 1130.1 426.9 1129.9 427.4 1129.7 428.1 1129.7 428.8 1129.9 430.3 1130.4 431.5 1130.7 432.7 1130.8 433.8 1130.9 434.8 1130.8 435.9 1130.8 437.4 1130.7 438.6 1130.7 439.7 1130.8 440.9 1130.8 442.1 1130.9 443.3 1131.2 445.8 1131.7 451.7 1132.8 451.7 1132.8L451.7 1132.8 451.7 1132.7C451.8 1132.7 451.9 1132.7 452 1132.7L452.3 1132.6 452.3 1132.8C454.2 1133 456 1133.2 457.8 1133.3 459.6 1133.4 461.5 1133.4 463.3 1133.3 464.7 1133.3 466.1 1133.1 467.4 1132.9 468.6 1132.8 470 1132.7 471.3 1132.8 472.5 1132.9 475.1 1133.4 477.6 1134 478.8 1134.4 480 1134.7 481.1 1135.1 482.2 1135.5 483.1 1136 483.6 1136.4 484 1136.7 484.4 1137.1 484.7 1137.6 484.9 1138.1 485.1 1138.6 485.2 1139.1 485.4 1140.2 485.3 1141.4 485.2 1142.7 484.8 1145.1 483.9 1147.7 483.8 1149.5 483.6 1151.3 483.5 1152.9 483.6 1154.4 483.7 1156.1 484.1 1157.6 484.7 1159.1 485.2 1160.6 485.9 1162.2 486.7 1163.9L488.7 1164.3C488.7 1164.3 492.2 1164.3 494.7 1164.8 495.3 1164.9 495.8 1165.1 496.1 1165.4 496.5 1165.6 496.7 1166 496.9 1166.2 497.2 1166.8 497.2 1167.3 497.2 1167.3 497.2 1167.3 499.3 1166.7 501.3 1165.7 503.3 1164.7 506.9 1162.7 506.9 1162.7 506.9 1162.7 509.2 1162.3 511.7 1162.3 512.3 1162.3 512.8 1162.4 513.3 1162.6 513.8 1162.9 514.2 1163.2 514.6 1163.5 515.3 1164.3 515.9 1165.3 516.7 1166.3 517.4 1167.3 517.9 1168.2 518.2 1169 518.4 1169.9 518.4 1170.8 518.2 1171.8 518.1 1172.3 518.1 1172.8 518.2 1173.3 518.4 1173.8 518.7 1174.4 519.1 1175 519.8 1176.2 520.9 1177.5 522.2 1179.3 522.8 1180.2 523.3 1180.9 523.7 1181.6 524.1 1182.3 524.3 1182.9 524.4 1183.5 524.5 1184.2 524.4 1184.8 524.2 1185.5 524 1186.2 523.7 1186.9 523.2 1187.8 522.7 1188.7 522.5 1189.6 522.6 1190.5 522.7 1191.4 523 1192.2 523.4 1193 523.9 1193.9 524.4 1194.6 525 1195.3 525.6 1195.9 526.2 1196.4 526.7 1196.8 527.7 1197.5 529.6 1199.4 531.2 1201.1 532.8 1202.8 534.2 1204.3 534.2 1204.3L537.7 1201.3 541.2 1199.3 544.7 1195.3C544.7 1195.3 544.7 1190.8 544.7 1188.8 544.7 1188.3 544.6 1187.8 544.3 1187.2 544.1 1186.7 543.8 1186.1 543.5 1185.5 542.8 1184.4 541.9 1183.3 541.2 1182.3 540.4 1181.3 540.1 1180.5 539.9 1179.6 539.8 1178.7 539.9 1177.5 540.2 1175.8 540.3 1174.9 540.5 1174.2 540.8 1173.6 541.1 1173 541.5 1172.5 541.9 1172.1 542.7 1171.3 543.7 1170.8 544.7 1170.3 545.2 1170 545.5 1169.6 545.7 1169 546 1168.4 546 1167.7 546 1166.9 546 1166.2 545.8 1165.4 545.6 1164.7 545.4 1164 545.1 1163.3 544.7 1162.8 544.3 1162.3 544 1161.7 543.8 1161.1 543.6 1160.5 543.5 1159.9 543.4 1159.3 543.2 1158.2 543.2 1157.3 543.2 1157.3 543.2 1157.3 543.3 1156 543.6 1154.5 543.9 1152.9 544.4 1151 545.2 1149.8 545.6 1149.2 546.4 1148.3 547.4 1147.4 548.4 1146.5 549.6 1145.5 550.7 1144.6 553.1 1142.8 555.2 1141.3 555.2 1141.3 555.2 1141.3 560.2 1140.3 562.2 1140.3 562.7 1140.3 563.3 1140.1 564 1139.8 564.7 1139.5 565.5 1139.2 566.2 1138.8 567.6 1138 568.7 1137.3 568.7 1137.3L567.7 1131.8 568.2 1124.3 572.7 1122.8C572.7 1122.8 576.2 1121.8 578.2 1120.8 580.2 1119.8 588.2 1116.3 588.2 1116.3 588.2 1116.3 589.1 1116 590.3 1115.8 591.6 1115.5 593.2 1115.3 594.7 1115.3 595.4 1115.3 596 1115.2 596.3 1115 596.7 1114.7 596.9 1114.4 597 1114 597.2 1113.3 596.9 1112.3 596.7 1111.3 596.6 1110.8 596.5 1110.3 596.6 1109.9 596.6 1109.5 596.8 1109.1 597 1108.7 597.2 1108.4 597.5 1108.1 597.9 1107.9 598.2 1107.6 598.7 1107.4 599.2 1107.3 600.2 1107 600.8 1107 601.3 1106.9 601.8 1106.7 602.2 1106.3 602.7 1105.3 603.2 1104.3 603.2 1103.2 603.5 1102.3 603.7 1101.9 603.9 1101.5 604.3 1101.2 604.7 1101 605.3 1100.8 606.2 1100.8 607.1 1100.8 607.8 1100.7 608.4 1100.4 609 1100.1 609.4 1099.6 609.7 1099 610.1 1098.5 610.3 1097.8 610.5 1097 610.6 1096.2 610.7 1095.3 610.7 1094.3 610.7 1093.3 610.8 1092.4 611.1 1091.7 611.4 1090.9 611.7 1090.3 612.2 1089.7 612.6 1089.2 613.1 1088.8 613.6 1088.5 614.1 1088.1 614.7 1087.9 615.2 1087.8 616.2 1087.5 617.1 1087.2 617.9 1086.9 618.8 1086.5 619.7 1086.3 620.7 1086.3 622.7 1086.3 626.2 1086.3 628.2 1086.3 628.7 1086.3 629.1 1086.2 629.4 1086 629.8 1085.7 630.1 1085.4 630.3 1085 630.8 1084.3 631.2 1083.3 631.7 1082.3 631.9 1081.8 632.4 1081.2 633 1080.6 633.6 1080 634.4 1079.4 635.1 1078.8 636.4 1077.7 637.7 1076.8 637.7 1076.8L637.7 1073.8C637.7 1073.8 637.7 1072.9 637.9 1071.7 638.1 1070.5 638.4 1069 639.2 1067.8 639.6 1067.2 639.8 1066.6 639.8 1066.1 639.9 1065.5 639.8 1065 639.6 1064.5 639.3 1063.4 638.7 1062.3 638.2 1060.8 637.9 1060 637.9 1059.3 638 1058.5 638.1 1057.8 638.3 1057 638.5 1056.2 638.7 1055.5 638.9 1054.6 639.1 1053.8 639.2 1053 639.3 1052.2 639.2 1051.3 639.1 1050.4 639.2 1049.4 639.4 1048.3 639.7 1047.2 640.1 1046 640.5 1045 641.3 1042.9 642.2 1041.3 642.2 1041.3 642.2 1041.3 642.7 1040.3 643.6 1039.1 644.1 1038.5 644.7 1037.9 645.3 1037.3 646 1036.7 646.8 1036.2 647.7 1035.8 648.6 1035.4 649.3 1034.9 649.8 1034.2 650.4 1033.5 650.8 1032.8 651.1 1032 651.8 1030.4 652.2 1028.8 652.7 1027.8 653.2 1026.8 653.2 1025.7 653.5 1024.4 653.7 1023.7 653.9 1023 654.3 1022.2 654.7 1021.5 655.3 1020.7 656.2 1019.8 657.1 1018.9 657.5 1018.1 657.7 1017.2 657.8 1016.4 657.7 1015.6 657.5 1015 657.1 1013.7 656.2 1012.8 656.2 1012.8L652.7 1009.8C652.7 1009.8 650.7 1006.3 649.7 1004.3 649.4 1003.8 649.4 1003.2 649.5 1002.6 649.6 1001.9 649.8 1001.3 650.1 1000.6 650.5 1000 650.9 999.3 651.4 998.7 652 998.2 652.6 997.7 653.2 997.3 653.8 996.9 654.2 996.5 654.4 996.1 654.6 995.6 654.7 995.2 654.6 994.7 654.6 993.7 654.2 992.5 654.2 991.3 654.2 990.7 654.5 990.1 654.9 989.6 655.3 989.1 655.9 988.7 656.4 988.4 657.6 987.7 658.7 987.3 658.7 987.3L665.7 986.3 674.2 983.8C674.2 983.8 681.2 982.3 684.2 981.8 684.9 981.7 685.7 981.4 686.5 981 687.3 980.7 688.1 980.3 688.8 979.9 690.2 979 691.2 978.3 691.2 978.3 691.2 978.3 691.4 976.9 691.6 975.2 691.6 974.4 691.6 973.5 691.6 972.6 691.5 971.7 691.4 970.9 691.2 970.3 690.7 969 690.3 968.3 689.7 967.8 689.1 967.3 688.2 967 686.7 966.8 685.2 966.5 684.4 966.3 684 965.9 683.6 965.4 683.4 964.8 683.2 963.8 683.1 963.3 682.6 963 682 962.7 681.3 962.5 680.5 962.4 679.7 962.3 678.2 962.2 676.7 962.3 676.7 962.3L671.7 963.8C671.7 963.8 671.1 964.7 670.4 965.9 670.1 966.5 669.8 967.3 669.6 968 669.3 968.8 669.2 969.5 669.2 970.3 669.2 971 669.1 971.6 668.9 972 668.7 972.4 668.5 972.7 668.1 972.9 667.4 973.3 666.4 973.3 665.2 973.3 664.6 973.3 664 973.2 663.6 973 663.1 972.7 662.7 972.4 662.4 972 661.7 971.3 661.2 970.3 660.7 969.3 660.4 968.8 660.3 968.1 660.2 967.4 660.2 966.6 660.2 965.8 660.3 965 660.4 963.5 660.7 962.3 660.7 962.3L663.7 957.3C663.7 957.3 663.7 956.5 663.4 956 663.2 955.8 663 955.6 662.6 955.6 662.3 955.6 661.8 955.8 661.2 956.3 659.9 957.3 657.9 958.2 656.2 958.8 654.6 959.4 653.2 959.8 653.2 959.8 653.2 959.8 649.2 960.8 646.7 961.8 646.1 962 645.7 962.3 645.6 962.6 645.4 963 645.4 963.3 645.6 963.7 645.8 964.5 646.4 965.5 646.7 966.8 646.8 967.4 646.7 967.9 646.5 968.3 646.3 968.7 646 969 645.6 969.3 644.7 969.8 643.4 970 642.2 970.3 641.6 970.4 641.1 970.6 640.6 971 640.2 971.3 639.8 971.6 639.4 972.1 638.6 973 637.7 974.3 636.2 975.8 635.4 976.5 634.7 977 634.1 977.2 633.5 977.5 632.9 977.6 632.3 977.7 631.7 977.7 631.2 977.8 630.7 977.9 630.2 978.1 629.7 978.3 629.2 978.8 628.7 979.3 628.1 979.6 627.6 979.9 627 980.1 626.5 980.3 625.9 980.4 624.8 980.7 623.7 980.8 622.7 981.3 622.2 981.5 621.7 981.6 621.2 981.6 620.8 981.6 620.3 981.4 619.9 981.2 618.9 980.7 617.9 979.8 616.7 978.8 616.4 978.5 616 978.4 615.7 978.4 615.3 978.3 614.9 978.3 614.5 978.4 613.8 978.6 613 979 612.2 979.5 610.8 980.5 609.7 981.8 609.7 981.8 609.7 981.8 607.7 984.8 606.2 986.8 605.4 987.8 605.2 988.4 605.2 989.2 605.2 990 605.4 991 605.7 992.8 605.8 993.7 605.8 994.5 605.7 995.3 605.7 996.1 605.5 996.9 605.4 997.7 605.1 999.2 604.7 1000.5 604.7 1001.8 604.7 1003 604.7 1003.9 604.4 1004.7 604.1 1005.4 603.4 1006 602.2 1006.8 601.6 1007.2 601.2 1007.5 601 1007.9 600.8 1008.2 600.7 1008.6 600.7 1009 600.8 1009.8 601.2 1010.8 601.2 1012.3 601.2 1013 601 1013.6 600.7 1014 600.5 1014.4 600.1 1014.7 599.7 1014.9 598.8 1015.3 597.7 1015.3 596.7 1015.3 594.7 1015.3 593.7 1015.3 589.2 1015.3 588.1 1015.3 586.9 1015.4 585.8 1015.7 584.8 1015.9 583.7 1016.2 582.8 1016.5 581 1017.1 579.8 1017.7 579.8 1017.7 579.8 1017.7 579.3 1018 578.7 1018.4 578.1 1018.7 577.5 1019 577.3 1018.9 576.8 1018.5 576.2 1018.3 575.6 1018.2 575 1018.1 574.5 1018.1 574 1018 573.5 1018 573 1017.8 572.7 1017.5 572.4 1017.2 572.2 1016.7 572.2 1015.8 572.2 1014 572.4 1012.5 572.6 1011.2 572.6 1010.6 572.6 1010 572.6 1009.4 572.5 1008.8 572.4 1008.3 572.2 1007.8 571.2 1005.8 569.2 1001.8 569.2 1001.8L564.7 997.3C564.7 997.3 563.3 997.4 561.9 997.1 561.2 997 560.5 996.7 560 996.2 559.8 996 559.6 995.7 559.4 995.4 559.3 995.1 559.2 994.7 559.2 994.3 559.2 993.4 559 992.7 558.7 992.2 558.4 991.6 558 991.1 557.6 990.7 557.2 990.3 556.8 990 556.4 989.6 556.1 989.2 555.8 988.8 555.7 988.3 555.2 986.3 554.7 985.3 553.7 983.3 553.2 982.3 552.8 981.7 552.2 981.4 551.6 981 550.7 981 549.2 981.3 548.4 981.4 547.7 981.6 547.1 981.9 546.5 982.2 546 982.6 545.5 983 545 983.4 544.6 983.8 544.3 984.3 544 984.8 543.8 985.3 543.7 985.8 543.4 986.8 543.4 988.3 543.1 989.5 542.9 990.2 542.6 990.7 542.1 991.1 541.7 991.5 541.1 991.8 540.2 991.8 538.4 991.8 537.2 991.8 536.1 991.6 535.1 991.4 534.2 991 533.2 990.3 532.7 989.9 532.1 989.6 531.6 989.3 531 989 530.4 988.7 529.9 988.7 529.4 988.6 529 988.7 528.7 989 528.4 989.4 528.2 989.9 528.2 990.8 528.2 991.7 528 992.4 527.6 993.1 527.3 993.7 526.8 994.2 526.2 994.5 525.7 994.9 525.1 995 524.6 994.9 524.1 994.8 523.6 994.4 523.2 993.8 522.8 993.2 522.2 992.4 521.5 991.6 520.8 990.8 520 990 519.1 989.4 518.3 988.8 517.4 988.3 516.7 988.2 516.3 988.1 515.9 988.1 515.6 988.2 515.2 988.3 514.9 988.5 514.7 988.8 514.2 989.4 513.6 989.9 512.9 990.2 512.2 990.5 511.6 990.6 510.9 990.7 509.7 990.9 508.7 990.8 508.7 990.8 508.7 990.8 508.3 989.9 507.7 988.8 507.2 987.7 506.4 986.3 505.7 985.3 504.9 984.3 504.4 983.3 504.1 982.3 503.8 981.3 503.7 980.3 503.7 979.3 503.7 978.3 503.8 976.2 503.9 973.9 503.9 971.5 503.9 969 503.7 967.3 503.4 965.5 503.1 964 502.7 962.7 502.4 961.4 502.2 960.3 502.2 959.3 502.2 958.3 502.3 957 502 956 501.8 955.5 501.6 955.1 501.1 954.8 500.7 954.5 500.1 954.3 499.2 954.3 498.3 954.3 497.6 954.2 497 953.9 496.4 953.7 496 953.4 495.6 953 494.9 952.4 494.7 951.8 494.7 951.8 494.7 951.8 494.1 951.3 493.2 950.8 492.3 950.3 491.2 949.8 490.2 949.8 488.2 949.8 482.7 949.8 482.7 949.8L472.2 952.3 472.7 947.3 471.2 940.8 461.8 950.4 456 953.9 443.8 965.4 418.3 994.1 402.8 1034.9 382 1073.7z" stroke="black" stroke-width="1" fill="transparent"/>
</svg>