<svg xmlns="http://www.w3.org/2000/svg" viewBox="467.9 618.8 128.30000000000007 244.5">
  <path d="M591.2 627.3L581.7 624.3 576.7 624.3C576.7 624.3 576.2 624.9 575.6 625.9 574.9 626.8 574.2 628 573.7 629.3 573.4 629.9 573 630.4 572.5 630.8 572 631.2 571.4 631.5 570.8 631.7 569.7 632.2 568.7 632.3 568.7 632.3 568.7 632.3 567.6 632.5 566.1 632.7 565.3 632.7 564.5 632.7 563.6 632.7 562.8 632.7 561.9 632.5 561.2 632.3 559.7 631.8 558.2 631.2 556.6 630.4 555.1 629.7 553.4 628.8 551.7 627.8 549.9 626.8 548.3 625.5 546.9 624.4 545.4 623.2 544.2 622 543.2 621.3 542.2 620.5 541.3 619.9 540.4 619.5 539.6 619 538.7 618.8 537.7 618.8 535.7 618.8 528.2 620.3 522.2 620.8 520.7 620.9 519.1 621.2 517.7 621.5 516.2 621.9 514.9 622.3 513.7 622.7 511.3 623.5 509.7 624.3 509.7 624.3 509.7 624.3 509.2 624.7 508.6 625.3 507.9 625.9 507.2 626.8 506.7 627.8 506.2 628.8 505.7 629.7 505 630.4 504.3 631.2 503.4 631.8 502.2 632.3 501.6 632.5 500.7 632.7 499.8 632.7 498.9 632.7 497.9 632.7 497 632.7 495.2 632.5 493.7 632.3 493.7 632.3 493.7 632.3 492.3 632.4 490.6 632.7 488.8 632.9 486.7 633.3 485.2 633.8 484.4 634 483.9 634.4 483.4 634.8 483 635.2 482.7 635.7 482.6 636.2 482.2 637 482.2 637.8 482.2 637.8 482.2 637.8 478.2 643.3 477.2 645.3 476.7 646.3 475.8 647.5 474.6 648.9 473.3 650.3 471.7 651.8 469.7 653.3 468.7 654 468.1 654.8 467.9 655.4 467.7 656.1 467.7 656.7 467.9 657.2 468.3 658.2 469.2 658.8 469.2 658.8 469.2 658.8 473.2 658.8 475.2 658.3 475.7 658.2 476.1 657.9 476.5 657.6 476.8 657.3 477.2 657 477.5 656.6 477.8 656.3 478.2 655.9 478.6 655.7 479.1 655.5 479.6 655.3 480.2 655.3 480.8 655.3 481.4 655.5 481.9 655.8 482.4 656.2 482.8 656.6 483.1 657 483.8 657.9 484.2 658.8 484.2 658.8 484.2 658.8 484.6 659.9 485 661.5 485.4 663 485.9 665 486.2 666.8 486.4 668.5 486.8 670.3 486.7 671.7 486.7 672.5 486.6 673.1 486.2 673.6 485.9 674.1 485.4 674.5 484.7 674.8 483.9 675 483.5 675.4 483.3 675.9 483.1 676.3 483 676.9 483.1 677.5 483.3 678.7 483.9 680 484.2 681.3 484.3 681.9 484.3 682.5 484.3 683.1 484.2 683.7 484.1 684.2 483.9 684.8 483.4 685.9 482.7 687 481.7 688.3 481.2 688.9 481 689.6 481 690.3 481 691 481.2 691.7 481.4 692.4 481.7 693.2 482 694 482.2 694.8 482.5 695.6 482.7 696.4 482.7 697.3 482.7 698.2 482.9 698.8 483.3 699.4 483.7 699.9 484.2 700.4 484.8 700.8 485.4 701.2 486 701.7 486.5 702.2 487 702.7 487.4 703.4 487.7 704.3 487.9 705.2 488.4 705.7 489 706.1 489.5 706.4 490.2 706.6 490.8 706.6 492.1 706.7 493.2 706.3 493.2 706.3 493.2 706.3 498.7 709.3 501.7 710.8 502.4 711.2 502.9 711.6 503.2 712 503.5 712.4 503.6 712.8 503.6 713.1 503.6 713.8 503.2 714.3 503.2 714.3 503.2 714.3 502.1 715.5 500.8 717 499.6 718.5 498.2 720.3 497.7 721.3 497.2 722.3 496.4 723.2 495.4 723.9 494.3 724.5 492.9 725 491.2 725.3 490.3 725.4 489.7 725.8 489.1 726.2 488.5 726.7 488.1 727.3 487.6 728 487.1 728.6 486.5 729.3 485.8 730 485.2 730.7 484.3 731.3 483.2 731.8 482.1 732.3 481.5 732.8 481.3 733.3 481.2 733.7 481.4 734.2 481.9 734.7 482.3 735.1 483 735.5 483.8 735.9 484.6 736.2 485.4 736.5 486.2 736.8 487.7 737.3 488.4 737.3 489.2 737.4 490.1 737.4 490.9 737.5 492.7 738.3 493.6 738.7 494.2 739.1 494.6 739.6 495 740.1 495.2 740.6 495.2 741.1 495.4 742 495.2 742.8 495.2 742.8 495.2 742.8 496.1 743.5 497 744.5 497.5 745 497.9 745.6 498.3 746.2 498.7 746.7 499.1 747.3 499.2 747.8 499.7 749.8 500.7 752.3 501.2 754.8 501.3 755.4 501.5 756 501.8 756.4 502.2 756.9 502.6 757.3 503.1 757.6 504.2 758.3 505.7 758.8 507.7 759.3 508.7 759.5 509.2 759.9 509.4 760.3 509.6 760.6 509.4 761 509.2 761.4 508.7 762.2 507.7 762.8 507.7 762.8 507.7 762.8 505.7 764.8 503.2 767.3 502.6 767.9 502.3 768.7 502.2 769.5 502.1 770.3 502.3 771.2 502.5 772 502.9 773.5 503.7 774.8 503.7 774.8 503.7 774.8 503.7 775.9 503.8 777.3 503.9 778.7 504.2 780.3 504.7 781.3 505.2 782.3 505.6 783.5 505.6 784.8 505.6 785.4 505.5 786 505.2 786.6 505 787.2 504.7 787.8 504.2 788.3 503.7 788.8 503.4 789.4 503.2 790.1 503 790.8 502.9 791.6 502.9 792.4 502.9 794 503.2 795.8 503.2 797.3 503.2 798.8 503.3 800.2 503.1 801.5 503 802.1 502.9 802.8 502.6 803.4 502.3 804.1 501.8 804.7 501.2 805.3 500.6 805.9 500.1 806.5 499.8 807.1 499.6 807.6 499.4 808.2 499.4 808.7 499.4 809.3 499.6 809.8 499.8 810.3 500 810.8 500.3 811.3 500.7 811.8 502.2 813.8 503.2 815.8 503.2 815.8 503.2 815.8 502.6 816.7 502.2 817.9 502.1 818.5 502 819.1 502.1 819.8 502.2 820.5 502.6 821.2 503.2 821.8 504.4 823 505.3 823.4 505.9 823.9 506.2 824.2 506.4 824.5 506.5 824.9 506.6 825.3 506.7 825.9 506.7 826.8 506.7 828.5 506.7 829.5 507 830.4 507.3 831.2 507.9 831.8 509.2 832.8 510.4 833.8 511.7 834.4 512.4 835.1 512.7 835.5 512.9 835.8 512.9 836.2 512.9 836.7 512.7 837.2 512.2 837.8 511.2 839 510.2 839.8 509.7 840.5 509.4 840.8 509.3 841.1 509.4 841.5 509.4 841.9 509.7 842.3 510.2 842.8 510.7 843.3 511 844 511.2 844.7 511.5 845.5 511.6 846.3 511.7 847 511.8 848.5 511.7 849.8 511.7 849.8 511.7 849.8 514.2 851.4 516.9 852.6 518.2 853.2 519.6 853.7 520.7 853.8 521.3 853.9 521.8 853.8 522.2 853.7 522.7 853.5 523 853.2 523.2 852.8 523.9 851 524.4 850.2 525.1 849.7 525.7 849.2 526.4 849 527.7 848.8 528.3 848.7 529 848.7 529.7 848.7 530.4 848.8 531 849 531.6 849.1 532.8 849.4 533.7 849.8 533.7 849.8 533.7 849.8 534.9 850.5 535.7 851.5 536.2 852 536.5 852.6 536.4 853.2 536.4 853.5 536.3 853.7 536.1 854 535.9 854.3 535.6 854.5 535.2 854.8 534.3 855.3 533.6 855.8 533 856.3 532.4 856.8 532 857.4 531.6 857.8 530.9 858.7 530.7 859.3 530.7 859.3 530.7 859.3 531.1 859.9 531.7 860.5 532.1 860.9 532.5 861.2 533 861.4 533.5 861.6 534.1 861.8 534.7 861.8 535.3 861.8 535.8 861.9 536.1 862 536.5 862.2 536.7 862.4 536.9 862.5 537.2 862.9 537.2 863.3 537.2 863.3L542.7 860.8C542.7 860.8 543.3 860.2 544.1 859.2 544.9 858.2 545.9 856.8 546.7 855.3 547.4 853.8 548.6 852.4 549.5 851.4 550.4 850.4 551.2 849.8 551.2 849.8 551.2 849.8 551.6 849.4 552 848.7 552.4 847.9 552.9 846.8 553.2 845.3 553.4 843.8 554.2 842.3 554.5 840.9 554.7 840.1 554.7 839.4 554.5 838.8 554.3 838.1 553.9 837.4 553.2 836.8 552.4 836.2 551.9 835.7 551.5 835.4 551.1 835 550.8 834.7 550.7 834.3 550.7 833.9 550.7 833.5 550.9 832.9 551 832.2 551.3 831.4 551.7 830.3 553.2 825.8 555.2 819.3 555.2 819.3 555.2 819.3 555.7 813.3 556.2 811.3 556.4 810.3 556.8 809.2 557.1 807.9 557.4 806.5 557.7 805 557.7 803.3 557.7 799.8 556.2 789.8 556.2 786.8 556.2 783.8 556.2 780.8 556.7 776.8 556.8 775.8 557 774.8 557.4 773.7 557.7 772.7 558.2 771.7 558.7 770.7 559.3 769.8 560.1 768.8 561 768 561.9 767.2 562.9 766.4 564.2 765.8 566.7 764.5 568.1 763.8 569.2 763.4 569.8 763.2 570.4 763.1 571 763.1 571.6 763.1 572.3 763.2 573.2 763.3 574.9 763.5 576.8 764.3 578.5 764.6 579.3 764.8 580.1 764.8 580.8 764.6 581.6 764.5 582.2 764 582.7 763.3 584.7 760.3 588.2 756.3 588.2 756.3 588.2 756.3 590.2 748.8 590.7 746.8 590.9 745.8 591.1 745 591.4 744.4 591.8 743.8 592.4 743.3 593.7 742.8 594.3 742.5 594.9 742.3 595.3 742 595.8 741.7 596.1 741.4 596.2 741 596.4 740.7 596.4 740.2 596.2 739.7 595.9 739.2 595.4 738.5 594.7 737.8 593.9 737 593.4 736.3 593.1 735.6 592.8 735 592.6 734.3 592.6 733.7 592.4 732.4 592.7 731.3 592.7 730.3 592.7 729.8 592.6 729.3 592.5 728.9 592.4 728.5 592.2 728.1 591.9 727.8 591.6 727.5 591.2 727.2 590.8 727 590.3 726.9 589.8 726.8 589.2 726.8 588.6 726.8 587.9 726.6 587.2 726.3 586.6 726 586 725.5 585.5 725 585 724.5 584.7 724 584.6 723.4 584.5 722.9 584.7 722.3 585.2 721.8 586.2 720.8 586.9 720.2 587.4 719.4 587.7 719 587.9 718.6 588 718.1 588.1 717.6 588.2 717 588.2 716.3 588.2 714.8 588.1 713.4 588.1 712.2 588.2 711.5 588.2 711 588.4 710.4 588.6 709.8 588.8 709.3 589.2 708.8 589.9 707.8 590.7 706.8 591.1 705.8 591.3 705.3 591.5 704.8 591.5 704.3 591.5 703.8 591.4 703.3 591.2 702.8 590.7 701.8 590.4 699.9 590.3 698.3 590.2 696.7 590.2 695.3 590.2 695.3L587.2 687.8 582.7 682.8 577.7 675.8 577.2 670.8 576.2 663.8C576.2 663.8 576.8 662.9 577.8 661.8 578.8 660.7 580.2 659.3 581.7 658.3 582.4 657.8 583 657.1 583.3 656.3 583.7 655.5 583.9 654.6 584.1 653.8 584.3 652.2 584.2 650.8 584.2 650.8 584.2 650.8 583.9 649.8 583.9 648.7 583.9 648.1 584 647.5 584.2 647 584.4 646.5 584.7 646 585.2 645.8 586.2 645.3 587.1 644.8 587.6 644 587.8 643.7 588 643.2 588 642.7 588 642.2 587.9 641.5 587.7 640.8 587.2 639.3 586.4 637.9 586 636.7 585.8 636 585.6 635.5 585.7 634.9 585.7 634.3 585.8 633.8 586.2 633.3 587.7 631.3 591.2 627.3 591.2 627.3z" stroke="black" stroke-width="1" fill="transparent"/>
</svg>