<svg xmlns="http://www.w3.org/2000/svg" viewBox="436.5 875.8 246.20000000000005 143.10000000000002">
  <path d="M663.7 957.3L674.7 957.3 678.7 953.8C678.7 953.8 679.3 953 680.1 952 680.8 950.9 681.7 949.5 682.2 948.3 682.4 947.7 682.5 946.9 682.6 946.1 682.6 945.4 682.6 944.6 682.6 943.9 682.4 942.4 682.2 941.3 682.2 941.3L681.2 934.8 680.2 927.8C680.2 927.8 680.1 926.9 680.1 925.7 680.2 925.1 680.2 924.5 680.4 923.8 680.6 923.1 680.8 922.4 681.2 921.8 681.9 920.5 682.3 919.5 682.5 918.6 682.7 917.7 682.7 916.8 682.7 915.8 682.7 915.3 682.5 914.7 682.3 914.2 682 913.6 681.7 913 681.4 912.5 680.8 911.5 680.2 910.8 680.2 910.8 680.2 910.8 678.7 910.7 677.1 910.2 676.3 909.9 675.5 909.6 674.9 909.1 674.3 908.6 673.8 908 673.7 907.3 673.4 905.8 673.3 905.2 673 904.7 672.7 904.2 672.2 903.8 671.2 902.8 670.2 901.8 669.3 900.7 668.7 899.8 668.1 898.9 667.7 898.3 667.7 898.3 667.7 898.3 667.4 897.9 667.1 897.5 666.8 897 666.6 896.3 666.6 895.7L665.6 896.2C665.6 896.2 656.2 897.3 654.2 897.3 653.2 897.3 651.8 897.3 650.3 897.2 648.8 897 647.2 896.8 645.7 896.3 644.9 896 644.4 896 643.9 896 643.5 896.1 643.1 896.3 642.8 896.5 642.2 897 641.7 897.8 640.7 898.3 639.7 898.8 638.7 899.2 637.7 899.2 637.2 899.3 636.7 899.2 636.2 899.1 635.7 898.9 635.2 898.7 634.7 898.3 633.7 897.5 632.8 897.2 631.8 897 630.8 896.8 629.7 896.8 628.2 896.8 627.4 896.8 626.7 896.9 626.1 897.2 625.4 897.4 624.8 897.7 624.3 898 623.3 898.7 622.7 899.3 622.7 899.3L617.7 903.3C617.7 903.3 616.6 903.9 615.1 904.7 613.6 905.4 611.7 906.3 610.2 906.8 608.7 907.3 607.4 907.9 606.6 908.4 605.7 908.9 605.2 909.3 605.2 909.3L601.7 913.8 597.2 915.8C597.2 915.8 593.2 915.8 591.2 915.8 590.7 915.8 590.2 916 589.7 916.4 589.2 916.8 588.8 917.3 588.4 917.8 587.7 918.8 587.2 919.8 587.2 919.8 587.2 919.8 586.3 920.2 585.2 920.4 584.6 920.5 584 920.5 583.4 920.4 582.8 920.3 582.2 920.2 581.7 919.8 580.7 919 579.6 918.5 578.4 918.2 577.2 917.9 575.9 917.8 574.7 917.8 574.1 917.8 573.2 917.6 572.4 917.2 571.5 916.9 570.6 916.5 569.7 916 568.1 915.2 566.7 914.3 566.7 914.3 566.7 914.3 563.2 911.3 560.2 909.3 558.7 908.3 557.1 906.7 555.8 905.3 554.6 903.9 553.7 902.8 553.7 902.8L551.7 897.3 545.2 891.8 541.7 887.8C541.7 887.8 540.5 887.9 539.4 887.5 538.9 887.3 538.4 887.1 538.1 886.6 537.8 886.2 537.7 885.7 538 884.9 538.3 884.1 538.5 883.4 538.5 882.8 538.5 882.1 538.4 881.6 538.2 881 538 880.5 537.7 880.1 537.3 879.7 536.9 879.4 536.3 879 535.7 878.8 533.2 877.8 529.2 875.8 529.2 875.8L526.2 878.3C526.2 878.3 525.3 879.3 524.4 880.5 523.4 881.8 522.4 883.3 522.2 884.3 521.7 886.3 519.7 890.3 519.7 890.3 519.7 890.3 518.4 891 516.7 891.9 515.9 892.3 515 892.7 514 893 513 893.4 512.1 893.7 511.2 893.8 510.3 893.9 509.5 893.9 508.8 893.9 508.1 893.8 507.4 893.6 506.9 893.5 505.8 893.2 505.2 892.8 505.2 892.8L499.7 892.8C499.7 892.8 498.3 893 496.7 893.4 495.1 893.8 493.2 894.3 492.2 894.8 491.2 895.3 490.1 895.8 488.9 896.4 487.7 897 486.4 897.8 485.2 898.8 484.6 899.3 483.7 899.8 482.7 900.2 481.7 900.6 480.6 901 479.5 901.4 477.3 902 475.2 902.5 474.2 902.8 473.2 903 472.3 903 471.2 902.7 470.1 902.4 468.7 901.8 466.7 900.8 465.7 900.3 464.8 900.2 464 900.3 463.2 900.4 462.5 900.8 461.9 901.4 461.3 901.9 460.8 902.6 460.4 903.3 460.1 904 459.8 904.7 459.7 905.3 459.4 906.5 459.4 907.8 459.5 908.7 459.6 909.7 459.7 910.3 459.7 910.3L457.7 915.3C457.7 915.3 453.7 920.3 451.2 922.8 448.7 925.3 442.2 931.3 442.2 931.3L437.2 933.3C437.2 933.3 436.7 934 436.5 935 436.4 935.5 436.4 936.1 436.6 936.7 436.7 937.2 437.1 937.8 437.7 938.3 438.9 939.3 440.2 940.5 441.1 941.5 442.1 942.5 442.7 943.3 442.7 943.3L447.7 940.3C447.7 940.3 448.3 939.5 449.6 938.7 450.2 938.3 451 937.9 451.9 937.5 452.8 937.2 453.9 936.9 455.2 936.8 460.2 936.3 462.7 936.3 462.7 936.3L467.7 937.3 471.2 940.8 471.3 941.2 472.7 947.3 472.2 952.3 482.7 949.8C482.7 949.8 488.2 949.8 490.2 949.8 491.2 949.8 492.3 950.3 493.2 950.8 494.1 951.3 494.7 951.8 494.7 951.8 494.7 951.8 494.9 952.4 495.6 953 496 953.4 496.4 953.7 497 953.9 497.6 954.2 498.3 954.3 499.2 954.3 500.1 954.3 500.7 954.5 501.1 954.8 501.6 955.1 501.8 955.5 502 956 502.3 957 502.2 958.3 502.2 959.3 502.2 960.3 502.4 961.4 502.7 962.7 503.1 964 503.4 965.5 503.7 967.3 503.9 969 503.9 971.5 503.9 973.9 503.8 976.2 503.7 978.3 503.7 979.3 503.7 980.3 503.8 981.3 504.1 982.3 504.4 983.3 504.9 984.3 505.7 985.3 506.4 986.3 507.2 987.7 507.7 988.8 508.3 989.9 508.7 990.8 508.7 990.8 508.7 990.8 509.7 990.9 510.9 990.7 511.6 990.6 512.2 990.5 512.9 990.2 513.6 989.9 514.2 989.4 514.7 988.8 514.9 988.5 515.2 988.3 515.6 988.2 515.9 988.1 516.3 988.1 516.7 988.2 517.4 988.3 518.3 988.8 519.1 989.4 520 990 520.8 990.8 521.5 991.6 522.2 992.4 522.8 993.2 523.2 993.8 523.6 994.4 524.1 994.8 524.6 994.9 525.1 995 525.7 994.9 526.2 994.5 526.8 994.2 527.3 993.7 527.6 993.1 528 992.4 528.2 991.7 528.2 990.8 528.2 989.9 528.4 989.4 528.7 989 529 988.7 529.4 988.6 529.9 988.7 530.4 988.7 531 989 531.6 989.3 532.1 989.6 532.7 989.9 533.2 990.3 534.2 991 535.1 991.4 536.1 991.6 537.2 991.8 538.4 991.8 540.2 991.8 541.1 991.8 541.7 991.5 542.1 991.1 542.6 990.7 542.9 990.2 543.1 989.5 543.4 988.3 543.4 986.8 543.7 985.8 543.8 985.3 544 984.8 544.3 984.3 544.6 983.8 545 983.4 545.5 983 546 982.6 546.5 982.2 547.1 981.9 547.7 981.6 548.4 981.4 549.2 981.3 550.7 981 551.6 981 552.2 981.4 552.8 981.7 553.2 982.3 553.7 983.3 554.7 985.3 555.2 986.3 555.7 988.3 555.8 988.8 556.1 989.2 556.4 989.6 556.8 990 557.2 990.3 557.6 990.7 558 991.1 558.4 991.6 558.7 992.2 559 992.7 559.2 993.4 559.2 994.3 559.2 994.7 559.3 995.1 559.4 995.4 559.6 995.7 559.8 996 560 996.2 560.5 996.7 561.2 997 561.9 997.1 563.3 997.4 564.7 997.3 564.7 997.3L569.2 1001.8C569.2 1001.8 571.2 1005.8 572.2 1007.8 572.4 1008.3 572.5 1008.8 572.6 1009.4 572.6 1010 572.6 1010.6 572.6 1011.2 572.4 1012.5 572.2 1014 572.2 1015.8 572.2 1016.7 572.4 1017.2 572.7 1017.5 573 1017.8 573.5 1018 574 1018 574.5 1018.1 575 1018.1 575.6 1018.2 576.2 1018.3 576.8 1018.5 577.3 1018.9 577.5 1019 578.1 1018.7 578.7 1018.4 579.3 1018 579.8 1017.7 579.8 1017.7 579.8 1017.7 581 1017.1 582.8 1016.5 583.7 1016.2 584.8 1015.9 585.8 1015.7 586.9 1015.4 588.1 1015.3 589.2 1015.3 593.7 1015.3 594.7 1015.3 596.7 1015.3 597.7 1015.3 598.8 1015.3 599.7 1014.9 600.1 1014.7 600.5 1014.4 600.7 1014 601 1013.6 601.2 1013 601.2 1012.3 601.2 1010.8 600.8 1009.8 600.7 1009 600.7 1008.6 600.8 1008.2 601 1007.9 601.2 1007.5 601.6 1007.2 602.2 1006.8 603.4 1006 604.1 1005.4 604.4 1004.7 604.7 1003.9 604.7 1003 604.7 1001.8 604.7 1000.5 605.1 999.2 605.4 997.7 605.5 996.9 605.7 996.1 605.7 995.3 605.8 994.5 605.8 993.7 605.7 992.8 605.4 991 605.2 990 605.2 989.2 605.2 988.4 605.4 987.8 606.2 986.8 607.7 984.8 609.7 981.8 609.7 981.8 609.7 981.8 610.8 980.5 612.2 979.5 613 979 613.8 978.6 614.5 978.4 614.9 978.3 615.3 978.3 615.7 978.4 616 978.4 616.4 978.5 616.7 978.8 617.9 979.8 618.9 980.7 619.9 981.2 620.3 981.4 620.8 981.6 621.2 981.6 621.7 981.6 622.2 981.5 622.7 981.3 623.7 980.8 624.8 980.7 625.9 980.4 626.5 980.3 627 980.1 627.6 979.9 628.1 979.6 628.7 979.3 629.2 978.8 629.7 978.3 630.2 978.1 630.7 977.9 631.2 977.8 631.7 977.7 632.3 977.7 632.9 977.6 633.5 977.5 634.1 977.2 634.7 977 635.4 976.5 636.2 975.8 637.7 974.3 638.6 973 639.4 972.1 639.8 971.6 640.2 971.3 640.6 971 641.1 970.6 641.6 970.4 642.2 970.3 643.4 970 644.7 969.8 645.6 969.3 646 969 646.3 968.7 646.5 968.3 646.7 967.9 646.8 967.4 646.7 966.8 646.4 965.5 645.8 964.5 645.6 963.7 645.4 963.3 645.4 963 645.6 962.6 645.7 962.3 646.1 962 646.7 961.8 649.2 960.8 653.2 959.8 653.2 959.8 653.2 959.8 654.6 959.4 656.2 958.8 657.9 958.2 659.9 957.3 661.2 956.3 661.8 955.8 662.3 955.6 662.6 955.6 663 955.6 663.2 955.8 663.4 956 663.7 956.5 663.7 957.3 663.7 957.3z" stroke="black" stroke-width="1" fill="transparent"/>
</svg>