<svg xmlns="http://www.w3.org/2000/svg" viewBox="664.9 66 230.39999999999998 195.8">
  <path d="M675.2 66L676.2 74.3C676.2 74.3 676.2 78.8 676.2 80.8 676.2 81.8 675.8 83.4 675.4 84.8 675.1 86.2 674.7 87.3 674.7 87.3L667.7 92.3 667.8 92.8C667.9 94.3 667.7 95.9 667.3 98.4 667 101.2 666.5 104 666.2 105.8 665.9 108.4 666.2 111.1 666 113.7 665.8 115.9 665.1 118 664.9 120 664.8 121 664.7 122 664.9 123 665.1 124.1 665.5 125 666.3 126.1 667 126.9 667.6 127.6 668.3 128.2 669.1 128.8 669.8 129.3 670.6 129.7 671.4 130.1 672.2 130.4 673.1 130.6 674 130.8 675 130.9 676.1 130.9 677.1 130.9 678 130.8 678.9 130.8 679.8 130.8 680.4 130.9 681 131 681.6 131.2 682.1 131.4 682.6 131.7 683.5 132.2 684.3 133 685.4 134 686.1 134.6 686.4 135.2 686.7 135.7 687 136.2 687.2 136.7 687.7 137.1L687.3 137.6 688.2 137.6C688.4 137.7 688.6 137.8 688.9 138 690 138.5 691.1 139 692.1 139.8 693.1 140.5 694.2 141.1 695.4 141.5 696.6 142 697.9 142.4 699.2 142.7 701.8 143.3 704.6 143.5 707 143.8 708.5 143.9 709.7 144.1 710.7 144.4 711.8 144.7 712.7 145.1 713.5 145.6 714.3 146.1 715 146.7 715.8 147.5 716.6 148.2 717.4 149.1 718.3 150.2 719.1 151.1 719.9 151.6 720.7 151.9 721.5 152.2 722.2 152.2 723.1 152.4 723.9 152.5 724.8 152.7 725.8 153.1 726.8 153.6 728 154.2 729.3 155.4 731 156.9 732.5 158.6 733.7 160.5 735 162.3 736.1 164.2 737.1 166.3 737.4 166.9 737.9 167.3 738.6 167.5 739.3 167.8 740.1 168 740.9 168.4 741.8 168.8 742.6 169.3 743.4 170.2 743.8 170.7 744.1 171.3 744.4 172 744.8 172.8 745.1 173.6 745.3 174.7 745.7 176.3 746 177.7 746.2 179 746.5 180.2 746.8 181.3 747.2 182.2 747.7 183.2 748.3 184 749.3 184.8 750.2 185.6 751.5 186.3 753.3 187 754.2 187.3 754.9 187.9 755.7 188.6 756.4 189.3 757 190.1 757.7 191 758.9 192.8 759.9 194.8 760.7 196.3 761.4 197.7 762.3 200.5 763.1 203.3 763.8 206.1 764.4 208.9 764.6 210.4 764.8 212.7 764.4 214.1 764.5 215.4 764.5 216 764.6 216.6 765 217.3 765.3 217.9 765.9 218.6 766.8 219.4 767.4 219.8 768 220.3 768.5 220.9 769 221.5 769.5 222.1 769.5 222.9L769.6 223.3 769.6 223.7C769.7 224.2 770.1 225 770.7 225.8 771.2 226.5 771.9 227.3 772.4 227.5 774.3 228.2 775.4 228.7 776.7 229.1 777.9 229.4 779.3 229.6 781.9 229.5 783.9 229.4 785.5 229.4 786.8 229.4 788.1 229.5 789.1 229.7 790 230.1 790.9 230.5 791.7 231.1 792.6 232.1 793.5 233.1 794.5 234.4 795.8 236.1 796.4 237 797 237.6 797.7 238 798.3 238.5 798.9 238.7 799.5 238.9 800.7 239.3 801.9 239.3 803.2 239.5 803.9 239.5 804.5 239.6 805.2 239.9 805.9 240.1 806.6 240.5 807.3 241 808.1 241.5 808.8 242.3 809.6 243.2 810.3 244.2 811.2 245.4 812 247 812.3 247.6 812.6 248.3 812.9 249.1 813.2 249.3 813.6 249.4 814 249.5 814.5 249.5 814.9 249.5 815.5 249.5 816 249.6 816.6 249.7 817.3 250 818 250.3 818.7 250.8 819.5 251.6 820.3 252.3 820.9 252.6 821.5 252.7 822.1 252.8 822.6 252.8 823.2 252.7 823.8 252.7 824.4 252.7 825.1 253 825.8 253.3 826.6 253.8 827.6 254.9L828.2 255.5C828.6 255.9 829.6 258.2 830.1 258.9L837.2 261.8C837.2 261.8 838.7 261.8 840.5 261.5 841.4 261.3 842.4 261.1 843.3 260.7 844.2 260.4 845.1 259.9 845.7 259.3 846.3 258.7 846.7 258 846.9 257.4 847.1 256.8 847.1 256.2 846.9 255.6 846.7 255.1 846.3 254.5 845.7 254 845.1 253.5 844.3 253 843.3 252.5 842.8 252.3 842.5 252 842.3 251.6 842.1 251.2 842 250.7 842 250.1 842 249 842.3 247.7 842.8 246.5 843.8 244 845.2 241.8 845.2 241.8L850.7 234.8 859.7 222.8C859.7 222.8 860.2 222 860.9 221.2 861.7 220.3 862.7 219.3 863.7 218.8 864.7 218.3 866.6 217.3 868.5 216 869.5 215.4 870.4 214.7 871.3 214 872.2 213.3 873.1 212.5 873.7 211.8 874.9 210.3 876.6 208.3 877.4 206.7 877.9 205.9 878.1 205.1 878 204.6 878 204.3 877.9 204.2 877.7 204 877.4 203.9 877.1 203.8 876.7 203.8 875.8 203.8 875.1 203.7 874.5 203.5 873.9 203.3 873.5 203 873.1 202.6 872.8 202.2 872.6 201.7 872.4 201 872.3 200.4 872.2 199.7 872.2 198.8 872.2 197 872.2 195.7 872.5 194.7 872.7 194.3 872.9 193.9 873.2 193.7 873.6 193.4 874.1 193.3 874.7 193.3 877.2 193.3 882.2 194.3 882.2 194.3L890.2 194.8 894.7 192.3 895.3 191C894.1 190.5 892.9 190 891.8 189.5 891.5 189.3 890.8 189.1 890.5 188.9 888.1 186.9 886.7 185.7 884.6 183.4 882.7 181.4 880.8 178.8 878.4 177.4 876.7 176.3 874.4 176.9 872.5 176.8 871.5 176.7 870.4 176.4 869.4 176.2 867.8 175.2 866.6 172.6 866.5 170.7 867.3 167.7 869.9 167.3 872.2 165.6 874.1 164.3 875.7 162.7 877.7 161.5 878.1 160.9 878.6 159.4 878.4 158.6L877.6 157.2C876.6 156.2 875.2 155.3 874.2 154.4 873.8 154.1 873.5 153.7 873.2 153.5 872.4 152.9 871.5 152.5 870.7 152 869.3 151.1 866.1 148.7 864.6 148.2L863.4 148.1C861.7 148.3 860 150.1 858.8 150.4 858.7 150.4 853.6 150.5 853.4 150.5 852.9 150.5 852.4 150.1 852 150.1 850.5 150 849.5 151 848.2 151.5 846.7 152 844.7 151.3 843.3 152.3 842.4 153.1 841.9 154.7 841.1 155.4 840.8 155.7 840.5 155.8 840.1 156 837.6 157.4 836.4 157.8 833.6 158.2 833.1 158.3 832.9 158.4 832.5 158.4 830.9 158.3 829.1 157.6 827.5 157.4L819.9 156.6C814.7 156.1 809 156.2 804 154.2 802.1 153.5 800.3 151.9 798.9 150.5 798 149.7 797.3 148.5 796.4 147.7 795.4 146.8 793.7 145.5 792.5 144.8 789.4 142.9 785.7 142.3 782.4 140.9 780.2 139.9 778.5 138.1 776.6 136.7 773.8 134.7 769.8 132.7 767.3 130.6 765.1 128.8 760.9 125.1 759 123.2L755.7 119.4 754.1 117.4 754.1 116.8C752.2 114.4 749.4 111.8 746.6 110.5 745 109.9 743.3 109.4 741.7 108.8 740.2 108.1 738.8 107.2 737.3 106.6 736.1 106.1 734.2 105.9 733 105.6 729.3 104.8 725.5 104.2 721.8 103.3 720.3 102.9 718.8 101.8 717.4 101.1 716.3 100.6 715.1 100.2 714.1 99.7 712.4 98.8 711.5 97.6 710 96.5 709.4 96 708.4 95.7 707.9 95.2 706 93.6 704.2 90.8 702.3 88.9 701.4 88 700.1 87.3 699.2 86.4 698.6 85.7 697.8 82.2 697.4 81.2 697.1 80.4 694.8 76.8 694.2 76.1 692.9 74.5 690.5 74 688.8 73 688.2 72.6 688 72.3 687.4 71.9 685.2 70.1 681.5 66.9 678.7 66.4L677.8 66.6C677 66.4 676.1 66.2 675.2 66z" stroke="black" stroke-width="1" fill="transparent"/>
</svg>