<svg xmlns="http://www.w3.org/2000/svg" viewBox="528.2 684.9 187 235.5">
  <path d="M590.2 695.3C590.2 695.3 590.2 696.7 590.3 698.3 590.4 699.9 590.7 701.8 591.2 702.8 591.4 703.3 591.5 703.8 591.5 704.3 591.5 704.8 591.3 705.3 591.1 705.8 590.7 706.8 589.9 707.8 589.2 708.8 588.8 709.3 588.6 709.8 588.4 710.4 588.2 711 588.2 711.5 588.1 712.2 588.1 713.4 588.2 714.8 588.2 716.3 588.2 717 588.1 717.6 588 718.1 587.9 718.6 587.7 719 587.4 719.4 586.9 720.2 586.2 720.8 585.2 721.8 584.7 722.3 584.5 722.9 584.6 723.4 584.7 724 585 724.5 585.5 725 586 725.5 586.6 726 587.2 726.3 587.9 726.6 588.6 726.8 589.2 726.8 589.8 726.8 590.3 726.9 590.8 727 591.2 727.2 591.6 727.5 591.9 727.8 592.2 728.1 592.4 728.5 592.5 728.9 592.6 729.3 592.7 729.8 592.7 730.3 592.7 731.3 592.4 732.4 592.6 733.7 592.6 734.3 592.8 735 593.1 735.6 593.4 736.3 593.9 737 594.7 737.8 595.4 738.5 595.9 739.2 596.2 739.7 596.4 740.2 596.4 740.7 596.2 741 596.1 741.4 595.8 741.7 595.3 742 594.9 742.3 594.3 742.5 593.7 742.8 592.4 743.3 591.8 743.8 591.4 744.4 591.1 745 590.9 745.8 590.7 746.8 590.2 748.8 588.2 756.3 588.2 756.3 588.2 756.3 584.7 760.3 582.7 763.3 582.2 764 581.6 764.5 580.8 764.6 580.1 764.8 579.3 764.8 578.5 764.6 576.8 764.3 574.9 763.5 573.2 763.3 572.3 763.2 571.6 763.1 571 763.1 570.4 763.1 569.8 763.2 569.2 763.4 568.1 763.8 566.7 764.5 564.2 765.8 562.9 766.4 561.9 767.2 561 768 560.1 768.8 559.3 769.8 558.7 770.7 558.2 771.7 557.7 772.7 557.4 773.7 557 774.8 556.8 775.8 556.7 776.8 556.2 780.8 556.2 783.8 556.2 786.8 556.2 789.8 557.7 799.8 557.7 803.3 557.7 805 557.4 806.5 557.1 807.9 556.8 809.2 556.4 810.3 556.2 811.3 555.7 813.3 555.2 819.3 555.2 819.3 555.2 819.3 553.2 825.8 551.7 830.3 551.3 831.4 551 832.2 550.9 832.9 550.7 833.5 550.7 833.9 550.7 834.3 550.8 834.7 551.1 835 551.5 835.4 551.9 835.7 552.4 836.2 553.2 836.8 553.9 837.4 554.3 838.1 554.5 838.8 554.7 839.4 554.7 840.1 554.5 840.9 554.2 842.3 553.4 843.8 553.2 845.3 552.9 846.8 552.4 847.9 552 848.7 551.6 849.4 551.2 849.8 551.2 849.8 551.2 849.8 550.4 850.4 549.5 851.4 548.6 852.4 547.4 853.8 546.7 855.3 545.9 856.8 544.9 858.2 544.1 859.2 543.3 860.2 542.7 860.8 542.7 860.8L537.2 863.3 532.2 867.3C532.2 867.3 531.2 867.5 530.2 868 529.7 868.3 529.2 868.6 528.8 869 528.4 869.4 528.2 869.8 528.2 870.3 528.2 871.3 528.4 872.7 528.7 873.8 528.9 874.9 529.2 875.8 529.2 875.8 529.2 875.8 533.2 877.8 535.7 878.8 536.3 879 536.9 879.4 537.3 879.7 537.7 880.1 538 880.5 538.2 881 538.4 881.6 538.5 882.1 538.5 882.8 538.5 883.4 538.3 884.1 538 884.9 537.7 885.7 537.8 886.2 538.1 886.6 538.4 887.1 538.9 887.3 539.4 887.5 540.5 887.9 541.7 887.8 541.7 887.8L545.2 891.8 551.7 897.3 553.7 902.8C553.7 902.8 554.6 903.9 555.8 905.3 557.1 906.7 558.7 908.3 560.2 909.3 563.2 911.3 566.7 914.3 566.7 914.3 566.7 914.3 568.1 915.2 569.7 916 570.6 916.5 571.5 916.9 572.4 917.2 573.2 917.6 574.1 917.8 574.7 917.8 575.9 917.8 577.2 917.9 578.4 918.2 579.6 918.5 580.7 919 581.7 919.8 582.2 920.2 582.8 920.3 583.4 920.4 584 920.5 584.6 920.5 585.2 920.4 586.3 920.2 587.2 919.8 587.2 919.8 587.2 919.8 587.7 918.8 588.4 917.8 588.8 917.3 589.2 916.8 589.7 916.4 590.2 916 590.7 915.8 591.2 915.8 593.2 915.8 597.2 915.8 597.2 915.8L601.7 913.8 605.2 909.3C605.2 909.3 605.7 908.9 606.6 908.4 607.4 907.9 608.7 907.3 610.2 906.8 611.7 906.3 613.6 905.4 615.1 904.7 616.6 903.9 617.7 903.3 617.7 903.3L622.7 899.3C622.7 899.3 623.3 898.7 624.3 898 624.8 897.7 625.4 897.4 626.1 897.2 626.7 896.9 627.4 896.8 628.2 896.8 629.7 896.8 630.8 896.8 631.8 897 632.8 897.2 633.7 897.5 634.7 898.3 635.2 898.7 635.7 898.9 636.2 899.1 636.7 899.2 637.2 899.3 637.7 899.2 638.7 899.2 639.7 898.8 640.7 898.3 641.7 897.8 642.2 897 642.8 896.5 643.1 896.3 643.5 896.1 643.9 896 644.4 896 644.9 896 645.7 896.3 647.2 896.8 648.8 897 650.3 897.2 651.8 897.3 653.2 897.3 654.2 897.3 656.2 897.3 665.6 896.2 665.6 896.2L666.6 895.7 666.6 895.7C666.6 895.3 666.8 894.9 667.1 894.6 667.4 894.2 667.9 894 668.7 893.8 670.7 893.3 671.9 892.9 672.8 892.4 673.7 891.9 674.2 891.3 674.7 890.3 674.7 890.3 675.3 889.5 675.9 888.4 676.2 887.8 676.4 887.1 676.6 886.3 676.8 885.5 676.8 884.7 676.7 883.8 676.6 882.9 676.5 882.2 676.6 881.6 676.7 881 676.8 880.5 677.1 880.2 677.4 879.8 677.8 879.5 678.3 879.3 678.8 879.1 679.4 878.9 680.2 878.8 680.9 878.7 681.5 878.5 681.9 878.2 682.4 878 682.7 877.7 682.9 877.3 683.3 876.5 683.4 875.5 683.7 874.3 683.9 873 684.2 871.8 684.3 870.5 684.4 869.3 684.4 868 684.2 866.8 683.9 865.5 683.6 864.3 682.9 863.2 682.6 862.6 682.2 862.1 681.8 861.6 681.3 861.1 680.8 860.7 680.2 860.3 678.9 859.5 678.1 858.9 677.5 858.1 677.2 857.7 677 857.2 676.9 856.7 676.7 856.2 676.7 855.5 676.7 854.8 676.7 853.3 676.6 852 676.9 851.4 677 851 677.3 850.8 677.7 850.8 678.2 850.8 678.8 850.9 679.7 851.3 680.6 851.7 681.4 851.8 682.1 851.9 682.8 851.9 683.5 851.8 684 851.6 685.1 851.3 685.7 850.8 685.7 850.8 685.7 850.8 685.9 850.2 686.5 849.5 686.8 849.2 687.1 848.9 687.6 848.7 688 848.4 688.6 848.3 689.2 848.3 689.8 848.3 690.4 848.1 690.9 847.7 691.5 847.3 692 846.9 692.4 846.3 693.3 845.2 693.9 843.8 694.2 842.8 694.4 841.8 694.7 840.9 694.6 840.1 694.6 839.7 694.5 839.3 694.2 838.9 694 838.5 693.7 838.2 693.2 837.8 692.7 837.4 692.2 836.9 691.9 836.3 691.5 835.7 691.2 835.1 690.9 834.5 690.4 833.3 690.2 832.3 690.2 832.3 690.2 832.3 690.2 830.8 690.4 829.2 690.6 828.4 690.7 827.5 691 826.8 691.3 826.1 691.7 825.5 692.2 825.3 692.7 825 693 824.6 693.2 824 693.4 823.5 693.4 822.8 693.4 822.2 693.4 820.9 693.2 819.8 693.2 819.8 693.2 819.8 692.6 819.4 691.6 819 690.7 818.7 689.4 818.3 688.2 818.3 685.7 818.3 682.2 818.3 682.2 818.3 682.2 818.3 681.4 816.2 681.2 814 681.1 812.9 681.1 811.8 681.3 810.9 681.5 810.5 681.7 810.1 682 809.8 682.3 809.5 682.7 809.4 683.2 809.3 685.2 809 686.7 808.9 687.7 808.5 688.3 808.3 688.7 808 689 807.5 689.3 807.1 689.6 806.5 689.7 805.8 689.9 804.3 691.1 801.7 692.1 799.4 693.2 797.2 694.2 795.3 694.2 795.3 694.2 795.3 694.7 794.5 695.4 793.6 696.2 792.7 697.2 791.5 698.2 790.8 698.7 790.4 699.3 789.9 699.8 789.2 700.4 788.6 701 787.9 701.4 787 701.9 786.2 702.2 785.3 702.2 784.5 702.3 783.6 702.2 782.7 701.7 781.8 700.7 780 700.1 778.3 699.6 776.7 699.1 775.2 698.7 773.8 698.2 772.8 697.7 771.8 697.7 770.8 697.4 769.9 697.3 769.4 697.1 768.9 696.8 768.5 696.4 768.1 695.9 767.7 695.2 767.3 694.4 766.9 693.6 766.4 692.8 765.9 692 765.3 691.3 764.7 690.7 764 690.2 763.4 689.9 762.6 689.9 761.8 689.9 761.4 690 761 690.2 760.6 690.4 760.2 690.7 759.7 691.2 759.3 692.1 758.4 692.8 757.5 693.4 756.6 694 755.7 694.4 754.8 694.7 754 695.4 752.4 695.7 751.3 695.7 751.3L699.7 747.8C699.7 747.8 705.2 745.8 707.2 744.8 707.7 744.5 708.3 744 708.9 743.3 709.5 742.6 710.1 741.7 710.7 740.9 711.8 739.3 712.7 737.8 712.7 737.8L715.2 732.3C715.2 732.3 714.9 731.4 714.7 730.2 714.4 729 714.2 727.5 714.2 726.3 714.2 723.8 713.7 719.3 713.2 717.3 712.9 716.3 712.4 715 712.2 713.7 712.1 713.1 712 712.4 712.1 711.7 712.1 711.1 712.3 710.4 712.7 709.8 713.4 708.5 713.9 707.2 714.2 706.1 714.6 705 714.7 704.3 714.7 704.3L714.7 701.3C714.7 701.3 713.7 700.8 712.3 700.5 711.6 700.3 710.8 700.2 710 700.2 709.1 700.2 708.3 700.3 707.5 700.7 706.7 701.1 706.2 701.1 705.7 701.1 705.2 701 704.7 700.7 704.4 700.5 704 700.2 703.6 699.8 703.2 699.5 702.8 699.2 702.3 698.9 701.7 698.8 700.4 698.5 699.2 698.3 698 697.7 697.5 697.4 696.9 697 696.4 696.5 695.9 696 695.4 695.4 695 694.6 694.2 693 693.9 692.3 693.3 692.1 692.7 691.8 691.9 692 690.2 692.3 689.3 692.4 688.5 692.4 687.8 692.2 687.2 692 686.6 691.8 686.1 691.5 685.2 690.9 684.7 690.3 684.7 690.3 683.8 689.3 683.1 688.7 682.6 688.4 682 688.1 681.6 688.1 681.2 688.3 680.8 688.5 680.5 688.8 680.2 689.3 679.9 689.7 679.6 690.3 679.2 690.8 678.8 691.3 678.3 691.7 677.8 692.1 677.2 692.5 676.7 692.8 676.1 693 675.1 693.5 674.2 693.8 674.2 693.8 674.2 693.8 672.7 694.4 670.9 695 669.2 695.7 667.2 696.3 666.2 696.3 665.7 696.3 665.1 696.4 664.6 696.7 664.1 696.9 663.6 697.2 663.2 697.5 662.3 698.2 661.7 698.8 661.7 698.8L656.7 700.8C656.7 700.8 655.6 701.4 654.2 701.8 653.5 702 652.7 702.1 652 702 651.3 702 650.7 701.8 650.2 701.3 649.7 700.8 649.2 700.4 648.7 700.1 648.3 699.8 647.8 699.6 647.4 699.5 646.9 699.4 646.4 699.4 645.9 699.5 645.4 699.7 644.8 699.9 644.2 700.3 643.6 700.7 642.9 700.8 642.3 700.9 641.6 701 641 701 640.2 700.9 638.8 700.7 637.2 700.3 635.2 700.3 634.2 700.3 633.2 700.1 632.3 699.7 631.4 699.3 630.6 698.9 629.8 698.3 629.1 697.7 628.4 697.1 627.9 696.5 627.3 695.9 626.9 695.3 626.7 694.8 626.2 693.8 625.4 692.5 624.5 691.4 624 690.9 623.5 690.3 623 689.9 622.4 689.4 621.8 689 621.2 688.8 619.9 688.3 616.9 687.5 614.2 686.9 611.6 686.3 609.2 685.8 609.2 685.8 609.2 685.8 608.4 685.2 607.4 684.9 606.8 684.8 606.2 684.8 605.6 685 605 685.1 604.3 685.5 603.7 686.3 602.4 687.8 601.7 688.8 601 689.4 600.7 689.7 600.3 689.9 600 690.1 599.6 690.2 599.2 690.3 598.7 690.3 598.2 690.3 597.8 690.5 597.4 690.9 597.1 691.3 596.9 691.8 596.7 692.3 596.3 693.3 596.2 694.3 596.2 694.3L590.5 695.2 590.2 695.7 590.2 695.3z" stroke="black" stroke-width="1" fill="transparent"/>
</svg>