<svg xmlns="http://www.w3.org/2000/svg" viewBox="470.7 423.8 239.00000000000006 208.90000000000003">
  <path d="M704.7 583.8C704.7 583.8 704.1 583.2 703.2 582.7 702.7 582.4 702.2 582.2 701.6 582 701 581.8 700.3 581.7 699.7 581.8 699 581.9 698.6 581.7 698.5 581.3 698.3 580.9 698.3 580.4 698.5 579.9 698.7 579.4 699 578.8 699.5 578.4 700 578 700.5 577.7 701.1 577.6 701.7 577.6 702.2 577.3 702.5 576.9 702.9 576.5 703 575.9 703.1 575.3 703.1 574.7 703 574 702.8 573.3 702.5 572.6 702.2 571.9 701.7 571.3 701.2 570.7 700.9 570.2 700.7 569.7 700.5 569.3 700.5 568.9 700.6 568.5 700.7 567.8 701.2 567 701.7 565.8 702.2 564.5 702.4 563.8 702.6 562.9 702.7 562 702.7 561 702.7 559.3 702.7 557.5 702.8 555.8 703.2 554.4 703.5 553.7 703.8 553.1 704.2 552.7 704.6 552.2 705.1 551.9 705.7 551.8 706.3 551.7 706.9 551.3 707.4 550.9 707.9 550.4 708.3 549.8 708.6 549.1 709.3 547.8 709.7 546.3 709.7 545.3 709.7 544.3 709.3 542.3 708.9 540.5 708.6 538.8 708.2 537.3 708.2 537.3 708.2 537.3 707.6 536.5 706.9 535.5 706.2 534.5 705.4 533.3 705.2 532.3 704.9 531.3 705.1 529.2 705.2 527.3 705.4 525.4 705.7 523.8 705.7 523.8L703.7 519.3 700.7 514.9 700.9 514.6 700.7 514.8C699.9 514.9 699.2 514.8 698.5 514.5 697.8 514.1 697.1 513.7 696.6 513.2 695.4 512.3 694.7 511.3 694.7 511.3 694.7 511.3 692.2 507.8 690.7 504.8 690.3 504 689.6 503.3 688.7 502.6 687.8 501.9 686.8 501.2 685.9 500.7 683.9 499.5 682.2 498.8 682.2 498.8L680.2 497.8C679.4 497.7 679 497.3 678.7 496.8 678.4 496.3 678.3 495.7 678.2 495 678.2 493.5 678.4 491.8 678.2 490.3 678.1 489.5 677.8 488.8 677.5 488.2 677.2 487.6 676.8 487.1 676.4 486.7 675.9 486.2 675.4 485.9 674.7 485.6 674.1 485.4 673.4 485.3 672.7 485.3 671.2 485.3 669.7 485.7 668 486.3 666.3 486.9 664.4 487.8 662.2 488.8 661.1 489.3 660 489.5 659.1 489.6 658.1 489.7 657.2 489.6 656.4 489.4 654.7 488.9 653.2 488 651.7 487.3 650.9 486.9 650.2 486.9 649.6 487.1 649 487.3 648.5 487.8 648.1 488.4 647.6 489 647.3 489.7 647 490.5 646.8 491.2 646.7 492 646.7 492.8 646.7 493.5 646.5 494.2 646.2 494.7 645.9 495.2 645.4 495.7 644.9 496.2 643.9 497 642.7 497.8 641.7 498.8 641.2 499.3 640.7 499.6 640.2 499.9 639.8 500.1 639.3 500.3 638.7 500.4 637.7 500.7 636.4 500.8 634.7 501.3 632.9 501.8 631.7 502.3 630.6 502.4 630.1 502.5 629.6 502.4 629.1 502.3 628.6 502.1 628.2 501.8 627.7 501.3 626.7 500.3 625.8 499.5 625.2 498.7 624.9 498.3 624.6 497.9 624.4 497.4 624.3 496.9 624.2 496.4 624.2 495.8 624.2 494.5 623.9 493 623.9 491.2 623.9 490.3 624 489.3 624.2 488.3 624.4 487.2 624.7 486 625.2 484.8 625.4 484.2 625.6 483.6 625.6 483 625.7 482.5 625.6 481.9 625.5 481.4 625.2 480.4 624.7 479.6 623.9 478.9 623.2 478.1 622.2 477.6 621.2 477.1 620.2 476.7 619.2 476.4 618.2 476.3 616.2 476 613.7 475.4 611.4 474.8 609.1 474.2 606.9 473.5 605.7 473.3 604.4 473 603.4 472.7 602.4 472.2 601.4 471.7 600.4 471 599.2 470.3 598.6 469.9 598.2 469.5 598 469 597.8 468.6 597.7 468.1 597.8 467.5 597.9 466.4 598.4 465 598.7 463.3 598.8 462.4 598.9 461.7 598.8 461 598.8 460.4 598.7 459.8 598.5 459.4 598.3 458.9 598 458.5 597.5 458.2 597 457.8 596.4 457.5 595.7 457.3 594.9 457 594.3 456.6 593.9 456 593.4 455.5 593.1 454.8 592.8 454.2 592.3 452.9 592.2 451.8 592.2 451.8 592.2 451.8 592.4 450.5 592.1 449 592 448.2 591.7 447.4 591.2 446.6 590.7 445.9 590 445.3 588.9 444.9 587.8 444.5 587 444 586.2 443.5 585.5 442.9 584.9 442.3 584.3 441.7 583.3 440.4 582.7 439 582.2 437.8 581.9 437.2 581.8 436.3 581.7 435.3 581.6 434.3 581.5 433.2 581.5 432.1 581.4 429.9 581.4 427.8 581.2 426.8 581.1 426.3 580.6 425.9 580 425.5 579.4 425.1 578.7 424.8 578 424.5 576.6 424 575.2 423.8 575.2 423.8L573.7 429.8C573.7 429.8 570.7 431.3 568.2 432.3 567.6 432.5 567.2 432.9 567 433.3 566.8 433.7 566.7 434.2 566.7 434.7 566.8 435.7 567.2 436.8 567.2 437.8 567.2 438.3 567.1 438.7 566.9 439.1 566.7 439.5 566.5 439.9 566.2 440.2 565.6 440.8 564.7 441.3 563.7 441.8 562.7 442.3 560.9 442.8 559.4 443.2 557.9 443.5 556.7 443.8 556.7 443.8 556.7 443.8 556.7 447.3 556.7 450.3 556.7 451.8 556.7 452.8 556.3 453.7 555.9 454.7 555.2 455.5 553.7 456.8 553.3 457.1 553.1 457.4 553 457.8 552.9 458.1 552.9 458.4 553 458.7 553.2 459.4 553.8 460 554.6 460.7 556.1 461.9 558.2 463 559.2 463.8 559.7 464.2 560 464.5 560.3 464.9 560.5 465.3 560.7 465.7 560.7 466.2 560.9 467 560.9 468 561.2 469.3 561.3 469.9 561.1 470.4 560.7 470.9 560.3 471.4 559.7 471.8 559.1 472.2 557.7 473 555.9 473.8 554.7 474.8 553.4 475.8 552.3 476.5 551.7 477.4 551.5 477.8 551.3 478.2 551.4 478.7 551.4 479.1 551.7 479.7 552.2 480.3 553.2 481.5 554.1 482.7 554.3 483.5 554.4 484 554.4 484.3 554.2 484.6 553.9 484.9 553.4 485.2 552.7 485.3 551.2 485.5 549.6 485.4 548.3 485.2 547.1 485 546.2 484.8 546.2 484.8L541.7 480.3 537.2 488.3C537.2 488.3 536.7 489.2 535.9 490.3 535.1 491.4 533.9 492.8 532.7 493.8 532.1 494.3 531.6 494.9 531.3 495.7 531 496.5 530.8 497.4 530.7 498.3 530.6 500.2 530.7 502.3 530.7 504.3 530.7 505.3 530.4 506.6 530 507.9 529.5 509.3 529 510.7 528.4 512 527.3 514.7 526.2 516.8 526.2 516.8 526.2 516.8 525.3 518 524.2 519.4 523.6 520.1 523 520.8 522.4 521.4 521.8 522 521.2 522.5 520.7 522.8 520.2 523 519.8 523.3 519.6 523.6 519.3 523.9 519.2 524.2 519.1 524.5 519.1 525.3 519.4 526.3 520.2 527.8 520.4 528.2 520.5 528.6 520.4 528.9 520.4 529.3 520.3 529.6 520.1 530 519.8 530.7 519.2 531.4 518.5 531.9 517.2 533 515.7 533.8 515.7 533.8 515.7 533.8 512.7 534.8 509.2 535.8 508.7 535.9 508.4 536.1 508.1 536.4 507.8 536.7 507.6 537 507.4 537.4 507.1 538.2 506.9 539.2 506.9 540.3 506.8 542.4 507.2 544.8 507.2 546.3 507.2 547 507.1 547.6 506.9 548 506.7 548.4 506.5 548.6 506.1 548.9 505.4 549.3 504.4 549.5 503.2 550.3 501.9 551 500.8 551.7 499.9 552.5 499.5 552.9 499.1 553.3 498.8 553.9 498.5 554.4 498.3 555 498.2 555.8 498.1 556.5 497.7 557.5 497.2 558.5 496.7 559.6 496.1 560.7 495.5 561.7 494.3 563.7 493.2 565.3 493.2 565.3 493.2 565.3 492.9 565.9 492.4 566.7 491.8 567.5 490.9 568.5 489.7 569.3 488.4 570 487.4 570.8 486.4 571.5 485.3 572.3 484.2 573 482.7 573.8 481.2 574.5 480.3 575.2 479.5 575.9 478.7 576.7 477.9 577.5 476.7 578.8 474.2 581.3 471.2 585.3 471.2 585.3 471.2 585.3 470.9 586.4 470.8 587.9 470.7 588.6 470.7 589.4 470.7 590.1 470.8 590.9 470.9 591.7 471.2 592.3 471.7 593.5 472.1 594.7 472.3 595.7 472.6 596.8 472.7 597.8 472.7 598.8 472.7 600.8 474.2 610.8 474.2 610.8 474.2 610.8 474.3 612.8 474.7 614.9 474.9 616 475.1 617.1 475.4 618 475.8 618.8 476.2 619.5 476.7 619.8 477.2 620 477.7 620.1 478.3 620.2 478.9 620.2 479.6 620.1 480.2 620.1 480.9 620.1 481.6 620.1 482.2 620.1 482.9 620.2 483.6 620.4 484.2 620.8 486.7 622.3 489.2 623.8 489.2 623.8L493.7 632.3 493.7 632 493.7 632.3C493.7 632.3 495.2 632.5 497 632.7 497.9 632.7 498.9 632.7 499.8 632.7 500.7 632.7 501.6 632.5 502.2 632.3 503.4 631.8 504.3 631.2 505 630.4 505.7 629.7 506.2 628.8 506.7 627.8 507.2 626.8 507.9 625.9 508.6 625.3 509.2 624.7 509.7 624.3 509.7 624.3 509.7 624.3 511.3 623.5 513.7 622.7 514.9 622.3 516.2 621.9 517.7 621.5 519.1 621.2 520.7 620.9 522.2 620.8 528.2 620.3 535.7 618.8 537.7 618.8 538.7 618.8 539.6 619 540.4 619.5 541.3 619.9 542.2 620.5 543.2 621.3 544.2 622 545.4 623.2 546.9 624.4 548.3 625.5 549.9 626.8 551.7 627.8 553.4 628.8 555.1 629.7 556.6 630.4 558.2 631.2 559.7 631.8 561.2 632.3 561.9 632.5 562.8 632.7 563.6 632.7 564.5 632.7 565.3 632.7 566.1 632.7 567.6 632.5 568.7 632.3 568.7 632.3 568.7 632.3 569.7 632.2 570.8 631.7 571.4 631.5 572 631.2 572.5 630.8 573 630.4 573.4 629.9 573.7 629.3 574.2 628 574.9 626.8 575.6 625.9 576.2 624.9 576.7 624.3 576.7 624.3L581.7 624.3 591.2 627.3C591.2 627.3 593.1 626.8 595.2 626.2 597.3 625.5 599.7 624.8 600.7 624.3 601.2 624 601.6 623.7 601.8 623.2 602.1 622.7 602.3 622.2 602.4 621.5 602.7 620.3 602.7 618.8 602.7 617.3 602.7 616.5 602.9 616.1 603.3 615.9 603.8 615.6 604.3 615.6 605 615.7 606.3 615.8 607.9 616.3 609.2 616.3 610.4 616.3 611.4 616.3 612.4 616.2 613.3 616 614.2 615.8 615.2 615.3 617.2 614.3 619.2 613.8 619.2 613.8 619.2 613.8 619.8 613.5 620.7 613.6 621.1 613.6 621.6 613.8 622.1 614 622.6 614.3 623.2 614.7 623.7 615.3 624.7 616.5 625.3 617.4 626.1 617.9 626.4 618.2 626.8 618.3 627.3 618.4 627.8 618.5 628.4 618.4 629.2 618.3 630.7 618 631.9 617.7 633.1 617.6 633.6 617.6 634.1 617.6 634.7 617.8 635.2 618 635.7 618.3 636.2 618.8 636.7 619.3 637.3 619.5 637.8 619.6 638.4 619.7 639 619.5 639.6 619.3 640.2 619 640.8 618.7 641.3 618.2 641.8 617.8 642.3 617.3 642.7 616.8 643.4 615.8 644.2 614.7 645.1 613.8 645.5 613.4 646 613 646.5 612.7 647 612.4 647.6 612.3 648.2 612.3 649.4 612.3 650.7 611.9 651.6 611.5 652.6 611.2 653.2 610.8 653.2 610.8L660.2 611.3C660.2 611.3 661.2 611.3 662.2 610.9 662.7 610.7 663.2 610.4 663.6 610 663.9 609.6 664.2 609 664.2 608.3 664.2 605.3 664.2 604.3 664.2 602.3 664.2 601.3 663.7 600.2 663.6 599.3 663.6 598.9 663.7 598.5 664 598.2 664.3 597.9 664.8 597.8 665.7 597.8 667.4 597.8 668.7 597.9 669.7 598 670.8 598 671.7 598 672.7 597.8 673.2 597.7 673.7 597.6 674.2 597.7 674.8 597.8 675.3 597.9 675.8 598.2 676.3 598.4 676.8 598.8 677.2 599.2 677.6 599.6 677.9 600.2 678.2 600.8 678.7 602 679.3 603.2 680.1 604.1 680.8 605 681.7 605.8 682.7 606.3 683.2 606.5 683.7 606.7 684.2 606.7 684.7 606.7 685.2 606.7 685.7 606.5 686.7 606.3 687.7 605.8 688.7 605.3 689.7 604.8 690.7 604.3 691.6 603.7 692.4 603 693.2 602.3 693.7 601.3 694.2 600.3 694.8 598.9 695.6 597.6 696.3 596.3 697.2 595 698.2 594.3 699.2 593.5 700.4 592.3 701.4 591.2 702.4 590.2 703.2 589.3 703.2 589.3L704.7 583.8z" stroke="black" stroke-width="1" fill="transparent"/>
</svg>