<svg xmlns="http://www.w3.org/2000/svg" viewBox="267.1 1066.8 207.79999999999995 199.9000000000001">
  <path d="M451.7 1132.8C451.7 1132.8 445.8 1131.7 443.3 1131.2 442.1 1130.9 440.9 1130.8 439.7 1130.8 438.6 1130.7 437.4 1130.7 435.9 1130.8 434.8 1130.8 433.8 1130.9 432.7 1130.8 431.5 1130.7 430.3 1130.4 428.8 1129.9 428.1 1129.7 427.4 1129.7 426.9 1129.9 426.3 1130.1 425.8 1130.5 425.4 1131 424.5 1132 423.7 1133.3 422.7 1134.3 422.2 1134.8 421.7 1135.1 421.2 1135.3 420.7 1135.5 420.2 1135.5 419.6 1135.5 418.6 1135.4 417.4 1135 416.2 1134.8 414.9 1134.5 413.4 1134.4 411.7 1134.4 409.9 1134.3 407.9 1134.3 405.7 1134.3 405.1 1134.3 404.7 1134.2 404.5 1134.1 404.2 1133.9 404.1 1133.7 404 1133.5 404 1133 404.3 1132.4 404.7 1131.8 405.7 1130.5 407.2 1129.3 407.2 1129.3 407.2 1129.3 407.8 1128.4 408.5 1127.3 409.2 1126.2 409.9 1124.8 410.2 1123.8 410.7 1121.8 411.2 1115.8 411.2 1115.8L413.7 1109.3 419.7 1107.3C419.7 1107.3 419.2 1100.3 419.2 1095.3 419.2 1092.8 419.2 1091.8 418.8 1091.3 418.6 1091 418.3 1090.9 417.9 1090.8 417.5 1090.7 416.9 1090.5 416.2 1090.3 414.7 1089.8 413.9 1089.2 413.1 1088.5 412.2 1087.8 411.2 1087 409.2 1086.3 407.2 1085.5 405.6 1085 404.2 1084.5 402.8 1083.9 401.7 1083.3 400.7 1082.3 400.2 1081.8 399.6 1081.4 399 1081.1 398.4 1080.8 397.7 1080.6 397.1 1080.4 395.7 1080 394.2 1079.8 392.7 1079.3 389.7 1078.3 385.2 1076.3 385.2 1076.3L382.2 1073.8C382.2 1073.8 375.2 1069.8 372.7 1068.8 371.4 1068.3 370.4 1068.2 369.4 1068.2 368.3 1068.2 367.2 1068.3 365.7 1068.3 364.2 1068.3 361.7 1067.9 359.6 1067.5 357.4 1067.2 355.7 1066.8 355.7 1066.8L355.5 1066.8C355.3 1067.1 355.1 1067.4 355 1067.6L354 1069.1C353.7 1069.6 353.4 1071.2 353.7 1071.8L353 1071.9 351.9 1073 350.3 1073.2C348.9 1074.6 347.3 1080.2 347.1 1082.1 346.9 1084.1 346.4 1090.4 346 1092 346 1092 343.5 1096.8 343.5 1096.8 343.5 1096.8 341.1 1098.4 341.1 1098.4 339.5 1099.1 337.5 1097.7 336.2 1098.3L336.1 1099 336.9 1100.5 336.7 1101C336.5 1101 334.8 1100.8 334.7 1100.8 333.8 1101 331.4 1102.2 330.7 1102.8L330 1104.9C328.6 1105.9 326.9 1106.9 325.6 1108 324.6 1108.8 323.7 1110.1 322.9 1111.1 322.2 1112.8 323 1114.7 323.1 1116.4 323.1 1116.5 322.8 1120.5 322.8 1120.5 322.8 1120.6 321.2 1123.8 321.2 1123.9L319.1 1125.8 318 1126.8 318.9 1128 317.7 1129 319.1 1130.5 318.9 1131 317.8 1130.9C317.4 1131 316.6 1131.4 316.4 1131.9 316.6 1132.6 316.2 1133.8 315.8 1134.4 316.3 1135.7 316.7 1137.2 317.3 1138.4 317.6 1138.9 318.4 1139 318.5 1139.9 317.8 1139.8 316.7 1140.2 316.2 1140.8L315 1143.7C313.6 1144.3 312 1145.3 310.9 1146.4 310.6 1147.5 310.1 1148.7 309.8 1149.8 309.7 1150.3 309.9 1151 309.7 1151.6 309.1 1154.6 300.8 1155.3 298.5 1155.3 297 1155.3 295.2 1154.9 293.7 1154.8 293.3 1154.4 292.8 1154 292.2 1153.7 291.2 1153.4 289.1 1153.9 288.2 1154.5 286.3 1155.8 287.5 1156.1 284.6 1157.1L283.8 1157.3C283.8 1157.8 283.3 1158.2 282.9 1158.5L281.8 1159.3C280.5 1160 277.8 1159.9 276.3 1159.5L275.6 1158.1 274.8 1157.9 274 1158.5C273.3 1158.5 272.7 1158.6 272 1158.5 272 1158.9 271.6 1159.3 271.5 1159.5 270.7 1160.9 270.3 1161.4 268.7 1161.8L267.1 1165.1 268.4 1170.3C269.4 1170.8 270.4 1172.3 270.7 1173.4L272.2 1173.2 272.9 1174C273.2 1175.8 273.3 1177.9 272.9 1179.6 273.6 1180.2 273.9 1181.4 274.1 1182.2L274.7 1184.9C274.7 1186.3 273.2 1189.7 272.6 1191 272.9 1192.1 273.3 1194.3 274.3 1195L277 1195.5 278.2 1196.6C278.8 1197.6 277.7 1200.9 277.2 1201.8L277.5 1202.6C277.6 1202.7 278.7 1203.6 278.7 1203.7 279.2 1204.4 279.5 1205.7 279.8 1206.6L279.6 1207.4C278.9 1209.6 279 1208.6 279.4 1210.9 279.5 1211.3 279.6 1211.5 279.6 1211.8 279.6 1214.1 277.1 1216.3 277.4 1218.7 277.5 1219.4 278 1220.2 278.1 1220.9 278.2 1221.6 277.8 1222.1 278.2 1223.2L280.2 1224.8C281.1 1226.1 281.1 1229.1 280.8 1230.6L280.2 1231.2 280.4 1232 279.1 1232.1 278.9 1232.5C279 1233.1 279.2 1233.9 279.2 1234.5 279.2 1235.4 278.5 1237.7 279.2 1238.4L280.6 1238.9C280.9 1239.5 282.1 1243 282.7 1243.2L284.3 1243.5C284.6 1244 285.2 1245.2 285.3 1245.8 285.6 1248.7 285.4 1251.7 285.3 1254.7 285.3 1257.6 285.4 1260.4 285.6 1263.3 285.6 1264 286.3 1265.3 286.8 1266.7 287 1266.7 288 1266.3 289.4 1265.9 290.9 1265.5 292.7 1265 293.7 1265 295.7 1265 300.2 1264.3 301.7 1264.3 302.4 1264.3 304.2 1263.9 306.1 1263.4 307.9 1263 309.8 1262.5 310.7 1262.5 311.6 1262.5 313.8 1262.1 316.1 1261.4 317.3 1261.1 318.4 1260.7 319.5 1260.2 320.5 1259.8 321.4 1259.3 321.9 1258.8 324.2 1256.8 327.7 1253.8 327.7 1253.8 327.7 1253.8 329.2 1253.1 331 1252.4 332.8 1251.7 334.8 1251 335.7 1251 336.6 1251 337.6 1250.9 338.6 1250.6 339.6 1250.4 340.4 1250 340.9 1249.8 341.4 1249.5 342.4 1249.4 343.3 1249.3 344.2 1249.3 345.2 1249.4 345.7 1249.8 346.2 1250.2 346.9 1250.6 347.7 1250.7 348.1 1250.8 348.5 1250.8 349 1250.6 349.5 1250.5 349.9 1250.2 350.4 1249.8 350.9 1249.4 351.5 1249.1 352 1248.9 352.5 1248.7 353.1 1248.7 353.6 1248.6 354.6 1248.6 355.6 1248.8 356.2 1248.8 356.8 1248.8 357.4 1248.8 358.2 1248.9 358.9 1249 359.7 1249.3 360.7 1249.8 362.7 1250.8 364.9 1251.5 366.7 1251.8 367.6 1251.9 368.6 1252.2 369.7 1252.5 370.7 1252.7 371.9 1252.8 373.2 1252.5 375.7 1252 379.2 1251 380.7 1251 382.2 1251 386.7 1250.3 388.4 1250.3 389.3 1250.3 390 1250.2 390.8 1249.8 391.6 1249.4 392.4 1248.8 393.7 1247.8 394.9 1246.8 396.5 1245 397.8 1243.3 399.1 1241.6 400.1 1240 400.2 1239.5 400.3 1239 400.9 1238.1 401.7 1237.3 402.1 1236.8 402.6 1236.4 403.2 1236.1 403.7 1235.8 404.3 1235.6 404.9 1235.5 406.2 1235.4 406.9 1235.5 407.8 1235.4 408.6 1235.3 409.6 1234.9 411.2 1233.8 412.8 1232.7 414.4 1231.2 415.6 1230.3 416.2 1229.9 416.8 1229.6 417.2 1229.6 417.4 1229.6 417.6 1229.6 417.8 1229.8 418 1230 418.1 1230.2 418.2 1230.5 418.6 1231.9 418.9 1232.9 419.3 1233.8 419.7 1234.6 420.2 1235.3 420.9 1236 422.4 1237.5 425.2 1240.3 425.2 1240.3 425.2 1240.3 425.9 1240.8 427 1241.2 427.6 1241.5 428.3 1241.6 429.1 1241.8 429.9 1241.9 430.7 1241.9 431.7 1241.8 435.4 1241.3 437.9 1240.8 439.4 1240.5 440.2 1240.4 441.1 1240.3 442.1 1240.5 442.6 1240.5 443.1 1240.7 443.7 1240.9 444.2 1241.2 444.7 1241.5 445.2 1242 445.7 1242.5 446.1 1242.9 446.6 1243.1 447 1243.3 447.5 1243.4 447.9 1243.5 448.8 1243.5 449.7 1243.4 450.7 1243.5 451.7 1243.7 452.6 1244.1 453.5 1244.5 454.4 1244.9 455.2 1245.3 455.9 1245.3 456.7 1245.3 457.6 1245 458.5 1244.6 459.3 1244.2 460.1 1243.7 460.4 1243 460.6 1242.7 461 1242.5 461.4 1242.3 461.8 1242.1 462.3 1242 462.8 1241.9 463.4 1241.7 463.9 1241.5 464.3 1241.3 464.8 1241.1 465.2 1240.7 465.4 1240.3 465.9 1239.4 466.1 1238.4 466.3 1237.4 466.4 1236.4 466.6 1235.4 466.9 1234.8 467.3 1234.2 467.7 1233.3 467.9 1232.4 468 1232 468.1 1231.5 468 1231.1 467.9 1230.7 467.7 1230.4 467.4 1230 466.8 1229.4 466.4 1228.4 466.1 1227.3 465.8 1226.3 465.7 1225.3 465.7 1224.8 465.7 1224.3 465.7 1223.7 465.9 1223 466.1 1222.4 466.4 1221.8 466.9 1221.3 467.9 1220.3 469.4 1218.8 470.2 1217.8 470.6 1217.3 470.9 1216.2 471.5 1214.8 472 1213.4 472.7 1211.8 473.7 1210.3 474.2 1209.5 474.5 1208.7 474.7 1207.9 474.9 1207.1 475 1206.3 474.9 1205.5 474.9 1204.7 474.7 1204 474.4 1203.3 474.1 1202.7 473.7 1202.2 473.2 1201.8 471.2 1200.3 466.7 1197.3 466.7 1197.3L463.2 1193.3C463.2 1193.3 462.1 1192.8 460.9 1192.5 460.3 1192.4 459.7 1192.4 459.2 1192.5 458.7 1192.5 458.3 1192.8 458.2 1193.3 458.1 1193.8 457.6 1194.5 456.9 1195.2 456.2 1196 455.3 1196.8 454.5 1197.5 452.8 1199 451.2 1200.3 451.2 1200.3 451.2 1200.3 449.3 1200.7 447.7 1200.7 446.9 1200.7 446.1 1200.6 445.7 1200.3 445.5 1200.2 445.4 1200 445.3 1199.7 445.3 1199.5 445.4 1199.2 445.7 1198.8 446.7 1197.3 447.4 1195.8 448 1194.4 448.6 1192.9 448.9 1191.5 449.2 1190.3 449.4 1189 449.8 1187.2 450.1 1185.2 450.3 1183.3 450.4 1181.3 450.2 1179.8 449.7 1176.8 449.7 1173.3 449.7 1173.3 449.7 1173.3 451.7 1172.9 453.8 1172.2 454.9 1171.9 456 1171.5 456.8 1171 457.7 1170.5 458.4 1169.9 458.7 1169.3 459.2 1168 460.1 1166.9 460.8 1165.7 461.2 1165.1 461.5 1164.5 461.8 1163.9 462 1163.2 462.2 1162.5 462.2 1161.8 462.2 1160.3 462.2 1159 461.9 1158.1 461.8 1157.6 461.6 1157.3 461.3 1157 461.1 1156.6 460.7 1156.4 460.2 1156.3 458.2 1155.8 453.7 1154.8 453.7 1154.8 453.7 1154.8 452.8 1154.9 451.9 1154.6 451.5 1154.5 451 1154.2 450.7 1153.7 450.4 1153.3 450.2 1152.7 450.2 1151.8 450.2 1148.3 449.7 1145.8 449.7 1143.8 449.7 1141.8 450.7 1137.8 450.7 1137.8L451.7 1132.8z" stroke="black" stroke-width="1" fill="transparent"/>
</svg>