<svg xmlns="http://www.w3.org/2000/svg" viewBox="300.7 11.3 397.09999999999997 317.7">
  <path d="M425.2 319.3L429.2 319.3C429.2 319.3 435.2 321.3 437.2 321.8 437.7 321.9 438.2 322.1 438.6 322.4 439 322.7 439.4 323.1 439.8 323.5 440.6 324.4 441.2 325.5 441.7 326.8 441.9 327.4 442.3 327.7 442.7 327.9 443.2 328 443.7 328 444.3 327.8 445.4 327.4 446.7 326.5 447.7 325.8 449.7 324.3 452.2 322.8 452.2 322.8 452.2 322.8 453.7 323.2 455.4 323.9 456.2 324.2 457.1 324.6 457.9 325.1 458.6 325.6 459.3 326.2 459.7 326.8 460.1 327.4 460.6 327.9 461.4 328.3 462.1 328.7 463 328.9 463.9 329 464.9 329.2 465.9 329.2 466.8 329 467.8 328.9 468.8 328.7 469.7 328.3 470.6 327.9 471.5 327.7 472.3 327.6 473.2 327.5 474 327.5 474.7 327.5 476.2 327.5 477.2 327.8 477.2 327.8L481.7 317.8C481.7 317.8 482.1 317.2 482.4 316.3 482.8 315.4 483.2 314.3 483.2 313.3 483.2 311.3 483.7 307.8 483.7 307.8 483.7 307.8 484.1 307 484.8 305.9 485.6 304.7 486.7 303 488.2 301.3 488.6 300.9 488.8 300.5 488.9 300.1 489 299.7 489 299.4 488.9 299 488.7 298.4 488.2 297.9 487.6 297.5 486.3 296.7 484.7 296.3 484.7 296.3 484.7 296.3 483.2 295.9 481.7 295.1 480.9 294.7 480.2 294.2 479.6 293.5 479.3 293.2 479.1 292.9 478.9 292.5 478.8 292.1 478.7 291.7 478.7 291.3 478.7 290.4 478.5 289.7 478.3 289 478.1 288.4 477.9 287.8 477.9 287.4 477.8 286.9 478 286.5 478.5 286.2 479 285.8 479.8 285.5 481.2 285.3 482.6 285 483.8 284.7 484.9 284.4 486.1 284 487.1 283.6 487.9 283.2 488.8 282.7 489.6 282.2 490.2 281.8 490.8 281.3 491.3 280.8 491.7 280.3 492.4 279.3 493.3 278.5 494.1 277.8 494.4 277.4 494.8 277 495.1 276.6 495.3 276.2 495.6 275.8 495.7 275.3 496.2 273.3 496.7 271.3 496.7 271.3 496.7 271.3 496.1 270 495.8 268.8 495.7 268.2 495.7 267.5 495.8 267.1 495.9 266.8 496.1 266.7 496.3 266.5 496.5 266.4 496.8 266.3 497.2 266.3 500.2 266.3 505.7 265.8 505.7 265.8L512.2 263.3C512.2 263.3 517.2 263.3 519.2 263.3 521.2 263.3 526.2 264.3 528.7 264.3 529.9 264.3 531.9 264.7 533.9 265.2 535.8 265.8 537.7 266.5 538.7 267.3 539.2 267.7 539.9 267.8 540.8 267.9 541.8 268 542.8 268 544 267.9 546.3 267.7 548.9 267.3 551.2 267.3 552.3 267.3 554.1 267 556.1 266.7 558.1 266.3 560.3 265.8 562.4 265.3 566.6 264.3 570.2 263.3 570.2 263.3 570.2 263.3 571.7 262.5 573.5 261.8 574.4 261.4 575.4 261 576.3 260.8 577.2 260.5 578.1 260.3 578.7 260.3 581.2 260.3 585.2 260.3 589.2 260.3 590.2 260.3 591.1 260.4 592 260.6 592.8 260.8 593.6 261 594.2 261.3 595.4 261.8 596.2 262.3 596.2 262.3 596.2 262.3 598.2 262.3 600.2 261.7 601.2 261.5 602.2 261 602.9 260.4 603.3 260.1 603.6 259.7 603.8 259.3 604.1 258.9 604.2 258.4 604.2 257.8 604.2 256.7 604.4 255.7 604.8 255 605.2 254.3 605.8 253.7 606.4 253.3 607.1 252.9 607.7 252.5 608.4 252.3 609.1 252.1 609.7 251.9 610.2 251.8 612.2 251.3 615.7 250.3 617.7 249.8 618.7 249.5 619.2 249.3 620.4 249.5 621.7 249.7 623.7 250.3 627.7 251.8 629.7 252.5 631.2 253.3 632.3 254.1 633.4 254.8 634.2 255.5 634.7 256.2 635.2 256.8 635.4 257.3 635.6 257.7 635.7 258.1 635.7 258.3 635.7 258.3 635.7 258.3 636.4 258.7 637.5 258.8 638 258.9 638.6 258.8 639.3 258.7 639.9 258.6 640.6 258.3 641.2 257.8 642.4 256.8 643.4 255.7 644.4 254.6 645.4 253.5 646.4 252.5 647.7 251.8 648.3 251.4 649.1 250.7 650 249.8 650.9 248.9 651.8 247.8 652.7 246.7 654.4 244.5 655.9 242.3 656.2 241.3 656.4 240.3 657.1 238.9 657.9 237.7 658.4 237.1 658.9 236.6 659.4 236.2 660 235.7 660.6 235.4 661.2 235.3 661.8 235.2 662.5 234.8 663.1 234.3 663.7 233.7 664.3 233.1 664.9 232.4 665.4 231.6 665.9 230.9 666.2 230.2 666.5 229.5 666.7 228.8 666.7 228.3 666.7 227.8 666.8 227.1 667.1 226.4 667.4 225.7 667.8 225 668.2 224.2 668.7 223.5 669.3 222.8 669.8 222.3 670.4 221.8 671.1 221.4 671.7 221.3 674.2 220.8 678.7 219.3 678.7 219.3 678.7 219.3 679.9 219 681.6 218.8 683.3 218.5 685.4 218.3 687.2 218.3 688.1 218.3 688.7 218.2 689.3 218 689.9 217.8 690.3 217.5 690.7 217.2 691.4 216.4 691.9 215.3 692.7 213.8 693.4 212.3 693.7 210.5 694.1 208.9 694.2 208.1 694.5 207.3 694.8 206.6 695.1 205.9 695.6 205.3 696.2 204.8 696.8 204.3 697.2 203.8 697.5 203.4 697.7 202.9 697.8 202.5 697.8 202 697.8 201 697.4 200 697.2 198.8 697.1 198.2 696.7 197.2 696.2 196.2 695.7 195.1 695.1 194 694.3 192.9 693.6 191.8 692.7 190.8 691.8 190 691.4 189.6 690.9 189.3 690.5 189.1 690.1 188.9 689.6 188.8 689.2 188.8 687.4 188.8 686.2 188.9 685.1 188.6 684.6 188.5 684.1 188.2 683.6 187.7 683.1 187.3 682.7 186.7 682.2 185.8 681.2 184 680.3 182.9 679.9 181.9 679.7 181.4 679.6 181 679.6 180.5 679.6 180 679.8 179.4 680.2 178.8 680.9 177.5 681.4 176.5 681.5 175.6 681.5 175.1 681.5 174.7 681.2 174.2 681 173.8 680.7 173.3 680.2 172.8 679.7 172.3 679.3 171.7 679 171.1 678.7 170.5 678.5 169.9 678.4 169.3 678.1 168 677.9 166.8 677.7 165.8 677.6 165.3 677.6 164.8 677.6 164.3 677.7 163.9 677.8 163.4 678 163 678.3 162.3 678.7 161.8 678.7 161.8 678.7 161.8 679.9 162 681.6 162 682.4 162 683.3 161.8 684.2 161.6 685 161.3 685.9 160.9 686.7 160.3 687.4 159.7 688.1 159 688.6 158.2 689.1 157.4 689.5 156.6 689.7 155.9 690 155.1 690.2 154.3 690.3 153.6 690.3 152.9 690.3 152.3 690.2 151.8 689.7 149.8 688.2 146.3 688.2 146.3L687.7 137.6 687.3 137.6 687.7 137.1C687.2 136.7 687 136.2 686.7 135.7 686.4 135.2 686.1 134.6 685.4 134 684.3 133 683.5 132.2 682.6 131.7 682.1 131.4 681.6 131.2 681 131 680.4 130.9 679.8 130.8 678.9 130.8 678 130.8 677.1 130.9 676.1 130.9 675 130.9 674 130.8 673.1 130.6 672.2 130.4 671.4 130.1 670.6 129.7 669.8 129.3 669.1 128.8 668.3 128.2 667.6 127.6 667 126.9 666.3 126.1 665.5 125 665.1 124.1 664.9 123 664.7 122 664.8 121 664.9 120 665.1 118 665.8 115.9 666 113.7 666.2 111.1 665.9 108.4 666.2 105.8 666.5 104 667 101.2 667.3 98.4 667.7 95.9 667.9 94.3 667.8 92.8L667.7 92.3 674.7 87.3C674.7 87.3 675.1 86.2 675.4 84.8 675.8 83.4 676.2 81.8 676.2 80.8 676.2 78.8 676.2 74.3 676.2 74.3L675.2 66C674.9 66 674.7 66 674.4 65.9 673.7 65.7 673.1 65.1 672.4 64.9 670.9 64.4 668.7 64 667.2 64.7 664.9 64.4 664.6 61.5 663.8 60.7 662.3 59.2 659.7 56.9 657.9 55.9 656.2 55 654.1 54.6 652.3 53.7 650.8 52.9 649.2 50.4 648.2 49.6 647.1 48.8 645.5 48.4 644.3 47.6 643 46.8 641.4 45.3 640.3 44.3 640.1 44.1 636.9 40.7 636.9 40.7 636.5 40 636.5 39.5 636.2 38.8 635.4 36.4 634.3 32.8 633.2 30.6L631.8 29C630.1 27.7 625.8 27.6 624.7 26.2L624.1 24.5 622.7 21.3C622.5 20.9 622.2 20.8 621.8 20.5L620.1 19C619.3 18.6 618.3 18.3 617.5 17.9 615.8 16.9 614 15.5 612.8 14L611.6 15.2C610.1 15 609.3 13.1 608.3 12.3L606.9 11.6C606.6 11.5 606.5 11.4 606.2 11.3L603.3 11.4C602.7 11.4 601.4 11.4 600.8 12L600.4 13.1 602.3 20.8 602.1 22 601.3 22.5 599.8 23.4C598 25.1 595.5 29.1 593.1 29.9 591.6 32 591.1 35.2 590.6 37.8 590.6 37.8 590.7 39.5 590.8 40 590.9 40.5 592.1 41.7 593.3 42.5 594.6 43.4 597.7 43.4 599.2 43.5 600.7 43.7 603.2 45.8 605.4 46.5 607.7 47.3 607.9 48.7 606.9 48.5 605.9 48.4 602.3 47.7 602.3 47.7 602.3 47.7 598.1 45.7 596.1 45.2 594.1 44.7 593.6 46.3 593.1 46.8 592.6 47.3 591.2 50.2 590.3 51 589.4 51.9 589.3 52.9 589.7 55.5 590.1 58.2 586.9 59.5 585.4 60.3 583.9 61 581.6 59.9 580.8 58.8 580.1 57.7 578.9 58.9 578.7 59.5 578.4 60.2 577.7 61 575.7 62 573.7 63 573.8 64.5 573.8 65 573.8 65.5 573.9 74.4 574.1 75.9 574.2 77.4 572.8 80.5 572.2 81 571.6 81.5 570.6 82.9 568.9 85.4 567.3 87.9 565.1 86.2 565.3 85.3 565.5 84.4 564.6 81.7 564.4 80.9 564.3 80.2 563.7 77.2 563.3 75.9 562.9 74.7 558.4 70.3 558.4 70.3 557.5 69.3 556.6 68.2 555.6 67.2 554.9 66.5 553.9 65.9 553.2 65.2 551.2 63.1 550.4 61.2 547.7 59.6 547.1 59.4 546.1 59.5 545.5 59.8 543 62.8 542 66.7 540 70 536.6 76 530.7 81.5 526 86.5 525.7 86.7 525.4 86.9 525.1 87.1 523.3 88.6 518.3 93.6 515.6 93.2L514.2 92C514 92 512.9 92 512.9 92 511.5 92.5 510.2 93.5 508.8 94 507 94.7 501.2 97 499.3 95.5 498.9 95.1 498.6 92.7 498.5 92.1L497.6 91.4C496.3 91.2 494.3 92.9 493.2 93.5 492 94.1 490.4 94.4 489.3 95 488.2 95.7 486.6 99 486.2 100.1 486.2 100 486.1 98.1 486.1 98.1 486.4 96.8 487.1 95.3 487.6 94L486.8 93.9C485.3 94.9 483.6 95 481.9 95.3 477.8 95.9 473 97 468.9 96.9L467.8 95.2 467 95.1 466.6 92.9 464.3 93.5C462.7 94.6 464.5 98.5 463.5 99.5L463 99.7 462.3 96.8 459.5 95 458.5 95.1C454.5 97.9 450.5 100.9 446.4 103.7 444.1 105.2 441.6 105.9 439.6 107.9L439.5 108.6 439.1 108.4C438 109.4 436.9 110.9 435.7 111.8 434.3 112.8 432.4 113.7 430.9 114.5L430.1 114.5 428.3 114.5C426.7 114.8 424.5 116.2 422.9 116.4 422.7 116.5 419.4 115.9 418.9 115.9 417.4 115.8 416.9 117.3 414.5 115.3L413.6 115.3 412.8 115.9 411.8 120.8C411 120.1 408.7 118.8 407.5 119 407.3 118 407.2 116.5 407.6 115.5L406.7 114.2C405.8 114 399.8 117.9 398.7 118.5 397.4 119.3 396.8 119.2 395.2 119.1 393.5 119 389.4 118.6 387.8 118.9 386.7 119.2 384.6 120.6 383.9 121.5 383.1 122.5 382.4 123.6 381.5 124.7L375.1 131.5C373.9 132.8 373.3 133.7 371.9 134.9 370.5 136.1 369.5 136.5 367.9 137.6L359.9 143 359.2 143.2C357.9 143.6 356.5 144.1 355.2 144.6 354.5 144.3 351.8 143.6 351 143.9 347.3 145.4 343.4 146.6 340.2 149 339.3 149.7 338.6 150.8 337.7 151.4 337.6 151.4 335.8 152.1 335.5 152.2 332.9 153.2 330.3 154.3 327.7 155.4 327 155.6 324.7 154.7 324.2 154.4L321.3 155C320.3 154.6 315.9 152.4 315 153L313.9 152.4C313.5 152.8 309.7 156 309.5 156.2 308.5 157.5 308 158.4 307.1 159.8L302.2 167.2C302 167.6 301.4 168.9 301.3 169.5 301.2 169.7 300.7 171.9 300.7 171.9 301 174.5 302.4 177.1 302.2 179.8 302.1 181.6 301.6 183.5 301.4 185.4 301.2 187.6 304.2 193.8 306.5 194.7 307.1 194.9 308 194.9 308.7 195.1 310.1 195.5 311.5 196 312.8 196.6L314.9 197.6C316.2 198.4 317.5 199.8 319.2 199.6L320.1 200.7 319.5 201.3 318 201.3 317.1 202.5C317.1 202.6 317.3 203.3 317.3 203.4 317.9 204.3 318.7 205.2 319.2 206.2 319.4 206.7 319.4 207.4 319.6 207.9 320.2 209.1 321.7 210.6 321.7 212.1 321.8 213.9 321.9 215.8 321.8 217.6 321.8 219.8 320.4 223.8 318.5 225.2L317.2 225C316.7 225.7 314.6 228 313.7 228.1L313.4 229.6C312.5 230.1 311.5 233 311.2 233.9 310.6 234.1 309.3 234.7 308.8 235.4 308.6 235.8 308.5 236.7 308.6 237.2 309.8 238.8 312.1 239.2 313.3 240.8 313.7 241.4 313.9 242.2 314.3 242.8 315 243.9 315.9 244.9 316.7 245.9L315.2 245.6 315 246.1C315.8 247 316.6 248.1 317.4 248.9 318.4 249.7 321.5 251.3 321.6 252.5L321 254.9 319.9 254.6 318 252.2 317.2 252 315.1 253.7 314.8 254.5 315.1 255.1C316.8 256.7 318.6 258.2 319.9 260.2 319.3 260.5 318.8 262.2 318.8 262.9L319.7 262.3C319.7 262.3 320.4 262.9 321.3 263.8 322.2 264.7 323.2 265.8 323.7 266.8 324.2 267.8 324.4 269.5 324.6 271 324.7 272.5 324.7 273.8 324.7 273.8 324.7 273.8 324.4 275.4 324.2 277.5 323.9 279.5 323.7 282 323.7 283.8 323.7 284.7 323.9 285.2 324.3 285.6 324.7 285.9 325.2 286 325.9 286 327.3 286 329.2 285.5 331.2 285.3 332.2 285.2 333 285.2 333.6 285.3 334.2 285.4 334.7 285.5 335.2 285.8 336.1 286.3 336.7 287 337.7 287.8 337.9 288 338.2 288.1 338.4 288.1 338.6 288.1 338.8 288 339 287.9 339.3 287.6 339.7 287.1 340 286.5 340.3 285.9 340.7 285.2 341.1 284.6 341.6 284.1 342.1 283.5 342.7 283.3 343.3 283 343.7 282.7 344.1 282.4 344.4 282 344.6 281.5 344.7 281 345.1 279.9 345.2 278.5 345.7 276.8 345.9 275.9 346.5 275.2 347.3 274.6 348 274 348.9 273.6 349.8 273.2 351.6 272.5 353.2 272.3 353.2 272.3L358.7 271.3C358.7 271.3 359.7 271.4 361 271.7 362.3 272 363.9 272.5 365.2 273.3 365.5 273.5 365.8 273.6 366.2 273.5 366.5 273.5 366.8 273.4 367.1 273.3 367.7 273 368.3 272.5 368.9 271.9 369.9 270.7 370.7 269.3 370.7 269.3 370.7 269.3 370.7 263.8 370.2 260.8 370.1 260 370 259.4 370.1 258.7 370.2 258.1 370.4 257.5 370.7 257 371 256.5 371.4 256 372 255.5 372.6 255.1 373.3 254.7 374.2 254.3 375.9 253.5 376.7 253.3 377.3 253.3 377.9 253.3 378.4 253.5 379.7 253.8 380.9 254 382.8 254.5 384.7 255.3 385.6 255.7 386.5 256.1 387.4 256.6 388.3 257.1 389.1 257.7 389.7 258.3 390.3 258.9 390.8 259.7 391.1 260.5 391.4 261.3 391.6 262.3 391.6 263.2 391.7 264.2 391.6 265.2 391.3 266.2 391.1 267.3 390.7 268.3 390.2 269.3 389.7 270.3 389.6 271.2 389.7 272.1 389.7 273 390.1 273.9 390.4 274.5 391.2 275.9 392.2 276.8 392.2 276.8 392.2 276.8 395.2 279.8 397.2 281.8 397.7 282.3 398.2 282.9 398.6 283.6 399.1 284.4 399.4 285.2 399.6 286 399.8 286.9 399.9 287.9 399.8 288.8 399.6 289.8 399.3 290.8 398.7 291.8 397.4 293.8 396.1 295.4 394.9 296.8 393.8 298.2 392.9 299.3 392.7 300.3 392.4 301.3 391.8 302 391.6 302.9 391.5 303.4 391.6 303.8 391.8 304.4 392 304.9 392.4 305.5 393.2 306.3 393.9 307 394.5 307.6 395 308 395.5 308.4 396 308.6 396.4 308.7 396.8 308.7 397.2 308.6 397.6 308.4 398.1 308.2 398.6 307.8 399.2 307.3 399.8 306.8 400.4 306.5 401 306.3 401.6 306.2 402.2 306.2 402.6 306.4 403.1 306.6 403.5 306.9 403.7 307.4 404 307.9 404.2 308.5 404.2 309.3 404.2 310 404.2 310.7 404.4 311.2 404.5 311.8 404.7 312.2 405 312.5 405.3 312.8 405.6 312.9 406.1 312.9 406.5 312.9 407.1 312.7 407.7 312.3 408.9 311.5 409.7 310.5 410.4 310.2 410.7 310 411 309.9 411.4 310.2 411.8 310.4 412.2 310.9 412.7 311.8 413.7 313.5 414.2 315 414.7 316.1 414.9 316.6 415.2 317.1 415.5 317.4 415.8 317.6 416.2 317.8 416.7 317.8 417.7 317.8 419.1 318 420.2 318.3 421.4 318.5 422.3 318.8 422.3 318.8L425.2 319.3z" stroke="black" stroke-width="1" fill="transparent"/>
</svg>