<svg xmlns="http://www.w3.org/2000/svg" viewBox="1041.3 1390.8 138.10000000000014 174.29999999999995">
  <path d="M1084.8 1390.8L1084.1 1391.2 1083.6 1392.2 1081.2 1395.1 1081 1395.1 1080 1396.5 1078.8 1396.3 1077.1 1397.4 1076.2 1397.2 1072.8 1398.9 1071.2 1398.4 1069.2 1399.1 1068.3 1398.9 1065.9 1400.1 1065.2 1402 1065.7 1403.2 1064.7 1403.9 1064.7 1404.9 1063.5 1405.3 1063.3 1406.8 1062.1 1407.7 1061.4 1409.2 1056.8 1411.8 1054.2 1412.3 1053.5 1413.2 1052 1413.5 1051.3 1415.1 1051.1 1415.8 1053.2 1417.5 1054.7 1421.3 1055.6 1422.1 1056.3 1421.3 1057.5 1421.6 1059.9 1419.9 1062.8 1419.7 1068.3 1416.6 1073.3 1416.8 1075.9 1418.5 1076.2 1418.7 1077.4 1420.6 1078.1 1423.2 1078.1 1423.5 1077.6 1424 1078.3 1431.1 1077.8 1433.8 1078.1 1437.3 1078.1 1437.8 1079 1439 1079.5 1440 1081 1441.6 1081.4 1443.8 1080 1444.5 1080 1446.2 1079.5 1446.4 1080.7 1449.5 1080.5 1451.7 1081.4 1452.9 1083.1 1451.7 1082.9 1452.9 1083.6 1453.3 1084.1 1456 1085 1456.5 1084.8 1457.4 1088.6 1462.4 1090 1463.4 1094.3 1464.6 1094.8 1465.1 1095.5 1464.8 1096 1465.5 1095.8 1466 1097.2 1467.2 1097.2 1467.7 1097.9 1467.7 1098.6 1469.1 1100.1 1469.1 1101.7 1470.1 1102.2 1471 1103.6 1470.5 1103.4 1479.4 1104.6 1482.7 1107.5 1485.8 1111.1 1487.7 1117.3 1494 1121.6 1496.1 1122.3 1498.5 1123.2 1498 1124.4 1498.5 1124.2 1499.5 1124.7 1499.5 1124.7 1499.7 1125.6 1499.7 1124.7 1500.6 1125.9 1502.6 1124.7 1502.8 1124.7 1503 1123.2 1504.5 1123.7 1505.7 1122.5 1505.9 1122.8 1506.6 1120.8 1506.1 1120.6 1505.4 1119.4 1505.7 1118.9 1507.6 1115.6 1508.1 1115.1 1509.5 1116.1 1509.2 1115.8 1509.7 1113.2 1511.9 1112.2 1511.9 1111.8 1512.8 1110.3 1512.8 1109.6 1513.3 1108.9 1511.6 1107 1511.6 1107 1510.9 1105.8 1510.9 1105.1 1510 1101 1511.2 1100.3 1512.8 1099.3 1513.3 1099.3 1512.8 1097.9 1512.8 1097.4 1513.5 1094.6 1513.3 1092.9 1514 1090.3 1513.3 1088.8 1514.5 1089.3 1516.2 1088.8 1517.1 1088.4 1516.9 1087.6 1517.4 1087.6 1517.6 1087.2 1517.6 1086 1518.3 1084.8 1520 1083.3 1520.5 1083.1 1522.1 1081.9 1522.4 1081.2 1523.3 1078.1 1524.3 1076.2 1526.7 1074 1527.2 1074 1528.4 1070.9 1531.9 1068.5 1533.4 1067.6 1534.6 1066.1 1535.5 1065.2 1537.2 1064.5 1537.9 1063 1540.5 1062.8 1544.6 1064.2 1547 1066.4 1548.9 1070.9 1550.3 1072.1 1551.3 1072.1 1555.8 1072.1 1556.1 1073.1 1557.5 1075.2 1558.2 1075.9 1559.2 1077.6 1559.2 1078.6 1560.1 1081.4 1560.8 1086 1559.7 1087.9 1560.1 1090.5 1559.9 1101.3 1561.6 1101.7 1562.3 1103.4 1561.8 1105.8 1564.2 1109.9 1564 1111.8 1565.1 1112.7 1564.9 1113.2 1563.2 1116.5 1562 1120.1 1559.7 1121.3 1559.7 1124 1558.7 1127.3 1559.4 1127.3 1557.7 1128.5 1557.3 1129 1557.7 1131.1 1556.1 1133.5 1555.8 1134.2 1554.9 1135.4 1554.4 1135.4 1553.9 1136.4 1553.4 1136.9 1551.8 1137.6 1552 1138.3 1551.3 1140.4 1551.5 1141.6 1552.2 1143.3 1551.8 1144.3 1552.5 1144.5 1552.5 1146.2 1552.2 1146.6 1551.8 1149.5 1551.1 1149.5 1550.8 1152.9 1545.3 1156 1545.8 1157.6 1545.3 1157.6 1545.1 1158.1 1544.8 1157.9 1543.9 1158.1 1543.4 1157.4 1540.8 1158.4 1540.3 1158.1 1538.2 1159.3 1537.4 1159.3 1537.2 1159.1 1534.1 1160.5 1533.1 1160.5 1531.5 1161.2 1530.7 1160.7 1529.8 1161.7 1527.6 1165.3 1526.4 1165.8 1524.5 1166.5 1524.8 1167.4 1524.1 1167.4 1523.8 1167.4 1522.9 1167.4 1522.6 1166.2 1521.7 1166.7 1521 1166.7 1520.7 1166.5 1520.7 1166 1520.2 1165 1520.7 1164.8 1520.7 1164.6 1519.5 1164.1 1520.5 1164.1 1519.8 1162.9 1519.8 1164.1 1519.3 1163.8 1518.1 1160.7 1518.3 1160.5 1517.4 1161.7 1516.7 1160.7 1515.2 1159.5 1515 1158.6 1515.5 1157.4 1514.5 1158.8 1512.4 1157.6 1512.4 1157.4 1511.2 1156.2 1510.4 1156.9 1508.8 1156 1507.8 1155 1507.8 1155.5 1507.1 1154.3 1507.6 1152.9 1506.4 1153.1 1504.2 1151.4 1503.5 1151.2 1501.4 1150.2 1502.1 1149.8 1501.8 1147.4 1504 1145.9 1503.8 1145.5 1504.2 1144.3 1502.6 1143.1 1502.8 1142.3 1501.8 1142.6 1501.1 1141.9 1500.6 1142.8 1497.5 1141.9 1496.6 1138.8 1496.8 1141.2 1494.9 1142.3 1494.7 1143.3 1492.5 1143.5 1488.2 1142.8 1488.2 1144.3 1486.6 1143.8 1484.9 1144.3 1482 1144 1480.3 1142.3 1478.9 1143.1 1478 1142.6 1476.5 1143.3 1476.3 1143.5 1475.3 1142.8 1474.8 1141.2 1475.8 1140.4 1474.1 1139 1473.2 1136.6 1470.1 1136.1 1469.1 1134.9 1467.9 1133.5 1466.5 1129.9 1463.6 1128.5 1463.4 1124.7 1460.8 1124.7 1461 1120.4 1458.4 1121.8 1457.9 1121.6 1457.2 1120.1 1456.5 1119.4 1453.6 1116.8 1451.9 1113.2 1447.9 1110.8 1446.2 1109.6 1443.3 1108.9 1437.1 1108.4 1435.9 1108.4 1435.7 1109.1 1434 1109.6 1427.5 1107.7 1417.5 1106.8 1416.8 1105.6 1417 1104.6 1414.4 1102.2 1413.5 1100.8 1411.1 1099.3 1410.8 1095.8 1405.8 1094.6 1405.6 1095 1404.9 1093.4 1402 1093.4 1401.7 1092.7 1397.4 1091 1394.8 1089.8 1394.8 1089.3 1394.6 1088.8 1394.1 1088.8 1393.9 1088.1 1391.2 1086.2 1391 1085.7 1391.7 1084.8 1390.8zM1166 1435.2L1164.6 1435.7 1163.8 1435.9 1162.4 1436.6 1161.5 1438.1 1160.7 1437.6 1161 1438.8 1159.3 1439.7 1160.5 1443.8 1158.4 1445.9 1156.9 1448.8 1155 1449.3 1155.2 1451.2 1154.5 1452.2 1154.8 1452.9 1156 1453.6 1156.9 1453.1 1157.9 1453.6 1158.6 1454.8 1158.4 1456 1160 1456.7 1160.3 1461.9 1161.9 1461 1164.6 1462.2 1165.3 1461.2 1166.2 1461.2 1167 1462.7 1168.6 1462.2 1170.3 1464.1 1173.2 1466 1174.4 1466 1175.6 1465.1 1176.3 1465.5 1176.3 1440 1178.9 1440 1178.7 1439 1173.4 1437.8 1172 1435.9 1169.6 1436.1 1167.4 1435.2 1166.7 1435.4 1166 1435.2zM1070.2 1451.7L1066.1 1452.4 1063.3 1454.8 1059.7 1455 1055.9 1456.9 1047.5 1456.7 1043.7 1457.4 1043.4 1457.4 1042.5 1457.6 1042 1458.4 1041.8 1458.4 1041.8 1458.6 1041.3 1459.1 1041.3 1460.3 1042.7 1463.1 1042.7 1470.5 1043.4 1472.9 1045.4 1475.6 1046.6 1478.9 1047.3 1479.6 1048.7 1481.5 1048.5 1483 1049.9 1483.9 1056.8 1484.6 1061.4 1485.8 1062.3 1486.6 1065.2 1486.8 1072.6 1485.1 1075 1485.1 1078.6 1482.3 1078.8 1481.1 1080.5 1479.6 1080.2 1476.8 1079.5 1476.5 1081 1474.4 1081.2 1471.5 1082.1 1470.8 1081.4 1468.6 1081.7 1464.3 1080.5 1463.9 1081 1462.2 1079.5 1461.5 1079.5 1460.3 1077.6 1457.4 1077.6 1456 1073.3 1453.6 1072.4 1452.2 1070.2 1451.7zM1178.4 1471.3L1176.3 1473.2 1177 1475.3 1178.4 1475.6 1178.2 1474.8 1179.4 1474.1 1179.1 1472.5 1178.2 1472 1178.4 1471.3zM1162.9 1535.5L1162.9 1536.2 1163.4 1536.2 1162.9 1535.5zM1164.6 1535.5L1164.3 1536.2 1165.3 1535.8 1164.6 1535.5zM1168.4 1537.4L1167.4 1537.7 1167.4 1538.6 1167.7 1538.2 1168.9 1538.4 1168.4 1537.4zM1154.1 1558.7L1153.1 1558.9 1152.6 1560.4 1153.8 1559.2 1155.2 1559.4 1155.7 1560.8 1156 1559.9 1155.5 1559.2 1154.1 1558.7z" stroke="black" stroke-width="1" fill="transparent"/>
</svg>