<svg xmlns="http://www.w3.org/2000/svg" viewBox="185.7 544.8 351.50000000000006 528.9000000000001">
  <path d="M419.2 549.8L419.3 550.6 418.9 550.2 416.7 553.3C416.7 553.3 416.4 553.7 415.7 554.1 414.9 554.5 413.7 555 411.7 555.3 410.7 555.4 409.8 555.8 409.1 556.4 408.3 556.9 407.7 557.6 407.2 558.2 406.2 559.5 405.7 560.8 405.7 560.8 405.3 561.2 404.9 561.4 404.5 561.5 404.1 561.5 403.7 561.4 403.2 561.3 402.4 560.9 401.5 560.1 400.6 559.2 399.6 558.3 398.6 557.3 397.7 556.4 396.7 555.4 395.7 554.7 394.7 554.3L391.3 552.2C390.9 552.4 388.4 554 388.1 554.1 386.8 554.7 385.6 555.5 384.7 556.3 383.8 557.1 383.1 557.9 382.5 558.8 381.9 559.7 381.4 560.6 381 561.6 380.6 562.5 380.4 563.6 380.1 564.5 379.6 566.5 379.1 568.5 378.3 570.4 378 571.3 377.5 572.2 376.9 573.1 376.3 573.9 375.6 574.7 374.7 575.4 373.6 576.2 372.8 577 372.1 577.8 371.5 578.6 371 579.3 370.6 580.2 369.8 581.8 369.3 583.7 368.4 586.1 368 587.2 366.8 589.2 365.6 591 364.4 592.9 363.2 594.6 362.5 595 361.9 595.4 361.7 595.8 361.5 596.2 361.3 596.6 361.1 597 360.6 597.4L360.2 597.8C358.7 599.1 357.6 600.7 356.4 602.3 355.8 603.1 355.2 604 354.5 604.7 353.8 605.5 353.1 606.3 352.2 607 349.9 608.6 348 609.7 346.6 611 345.9 611.6 345.3 612.3 344.8 613.1 344.4 613.9 344.1 614.8 344 616 344 616 342.4 616.3 340.5 616.5 339.5 616.6 338.4 616.7 337.4 616.7 336.4 616.6 335.4 616.5 334.7 616.3 333.2 615.8 331.3 615.4 329.8 615.2 328.3 614.9 327.2 614.8 327.2 614.8 327.2 614.8 327.7 620.3 327.7 622.8 327.7 623.4 327.6 623.9 327.4 624.4 327.2 624.9 327 625.3 326.7 625.7 326.1 626.5 325.2 627.3 324.2 628.3 323.7 628.8 323.4 629.3 323.2 630 323 630.6 322.9 631.2 322.9 631.9 322.9 633.3 323.2 634.8 323.2 636.3 323.2 637 323.1 637.7 322.9 638.2 322.7 638.7 322.5 639.2 322.1 639.5 321.4 640.3 320.4 640.8 319.2 641.3 318.6 641.5 318 641.9 317.6 642.2 317.1 642.6 316.7 643 316.4 643.5 315.7 644.4 315.2 645.5 314.7 646.8 314.4 647.4 313.9 647.9 313.1 648.5 312.3 649 311.4 649.5 310.3 650 309.3 650.5 308.2 651 307.2 651.6 306.1 652.2 305.1 652.9 304.2 653.7 303.4 654.5 302.4 655.1 301.4 655.5 300.3 655.8 299.2 656 298.2 656.1 296 656.2 293.9 656 292.7 656.2 292 656.2 291.5 656.6 290.9 657.2 290.4 657.8 290 658.6 289.5 659.5 288.7 661.3 288 663.5 287.4 665 287.2 665.7 287.2 666.6 287.3 667.5 287.5 668.3 287.8 669.3 288.2 670.2 288.5 671.1 288.9 671.9 289.2 672.8 289.4 673.6 289.5 674.3 289.4 675 289.2 675.6 288.7 676.2 288 676.7 287.3 677.3 286.4 677.8 285.4 678.3 283.4 679.4 281.2 680.3 280 681.3 279.4 681.7 279 682.3 278.7 683 278.4 683.7 278.3 684.5 278.2 685.4 278.1 687.1 278.3 689.1 278.3 691.2 278.3 693.3 278.3 694.8 278 696.1 277.7 697.5 277.2 698.7 276.4 700 276 700.7 275.9 701.4 276 702 276.2 702.6 276.5 703.2 277 703.7 278 704.8 279.4 705.7 280.5 706.4 281.1 706.7 281.3 707.2 281.2 707.7 281.2 708.3 281 709 280.6 709.6 279.8 710.9 278.6 712.3 277.7 713.3 276.9 714.2 275.4 715.3 274.1 716.1 272.8 716.9 271.7 717.4 271.7 717.4 271.7 717.4 271.4 718 271.2 719 270.9 720 270.7 721.3 270.7 722.8 270.7 725.8 271.2 730.3 271.2 730.3L271.7 736.8C271.7 736.8 272.3 738.5 272.7 740.3 272.9 741.2 273 742 272.9 742.7 272.9 743 272.9 743.3 272.7 743.5 272.6 743.7 272.4 743.8 272.2 743.8 271.2 743.8 269.4 743.5 267.7 743.4 265.9 743.2 264.2 743 263.2 743.3 262.2 743.5 260.9 744.3 259.9 745 258.9 745.7 258.2 746.3 258.2 746.3 258.2 746.3 256.7 746.4 254.9 746.3 254.1 746.2 253.1 746.1 252.3 745.9 251.4 745.6 250.7 745.3 250.2 744.8 249.7 744.3 249.1 743.9 248.6 743.5 248 743.2 247.5 743 246.9 742.8 245.7 742.4 244.4 742.3 243.2 742.3 241.9 742.3 240.9 742 239.9 741.9 238.8 741.7 237.7 741.5 236.2 741.8 233.2 742.3 225.7 743.8 223.7 743.8 222.7 743.8 220.4 743.8 218.1 743.9 215.8 743.9 213.4 744 212.2 744.3 210.9 744.5 209.9 745 208.9 745.3 208.3 745.4 207.8 745.5 207.2 745.4 206.6 745.4 205.9 745.2 205.2 744.8 203.7 744 202.2 743 201.1 742.2 199.9 741.4 199.2 740.8 199.2 740.8 199.2 740.8 192.2 740.3 189.2 740.3 188.2 740.3 187 740.3 185.7 740.3L185.7 740.3C185.7 740.3 185.7 740.4 185.7 740.4 185.7 740.4 186.7 746.8 187.2 750.3 187.4 752 187.8 752.8 187.9 754.2 188.1 755.5 187.9 757.5 187.2 761.8 186.8 763.9 186.7 765.6 186.8 766.8 186.8 768 187.1 768.9 187.4 769.5 187.7 770.1 188 770.4 188.2 770.6 188.5 770.8 188.7 770.8 188.7 770.8 188.7 770.8 189.4 773.4 190.4 776.4 190.9 777.9 191.5 779.5 192.1 780.9 192.6 782.3 193.2 783.5 193.7 784.3 195.7 787.3 198.2 791.8 199.2 794.3 199.7 795.5 199.9 796.5 200.5 797.3 200.8 797.7 201.1 798 201.7 798.2 202.2 798.5 202.8 798.7 203.7 798.8 207.2 799.3 208.7 799.3 210.7 799.8 211.7 800 213.1 800.4 214.4 801 215.8 801.5 217.2 802.3 218.2 803.3 219.2 804.3 220.2 805 221.1 805.8 221.9 806.5 222.7 807.3 223.2 808.3 223.7 809.3 224.7 810.4 225.6 811.3 226.4 812.2 227.2 812.8 227.2 812.8 227.2 812.8 230.7 813.3 233.2 813.8 234.4 814 236.3 814.5 237.9 815.2 238.7 815.6 239.4 816 239.9 816.4 240.4 816.8 240.7 817.3 240.7 817.8 240.7 818.8 241.2 820.3 241.9 821.8 242.7 823.3 243.7 824.8 244.7 825.8 245.7 826.8 246.7 827.8 247.5 828.8 248.3 829.8 248.9 830.8 249.2 831.8 249.4 832.8 249.8 833.9 250.5 834.8 250.8 835.2 251.3 835.6 251.8 835.9 252.3 836.1 252.9 836.3 253.7 836.3 255.2 836.3 257.1 836.4 258.7 836.9 259.6 837.1 260.4 837.4 261.1 837.8 261.7 838.2 262.3 838.7 262.7 839.3 263.1 839.9 263.3 840.8 263.4 841.8 263.6 842.9 263.7 844.1 263.9 845.6 264 847.1 264.2 848.7 264.6 850.6 264.9 852.5 265.4 854.5 266.2 856.8 267.7 861.3 268.4 864 268.8 865.9 269.2 867.8 269.2 868.8 269.2 869.8 269.2 870.3 269.1 870.8 269 871.3 268.8 871.7 268.6 872.2 268.2 872.5 267.8 872.9 267.3 873.2 266.7 873.5 266 873.7 265.2 873.8 264.2 873.8 263.7 873.8 263.3 873.9 262.9 874 262.6 874.2 262.3 874.3 262.1 874.6 261.7 875.1 261.6 875.7 261.7 876.4 261.7 877.1 262 877.8 262.3 878.4 262.7 879 263.2 879.5 263.7 879.8 264.2 880 264.8 880.6 265.5 881.3 266.2 882 266.9 882.9 267.4 883.8 268 884.7 268.4 885.5 268.6 886.3 268.7 886.6 268.7 886.9 268.7 887.2 268.6 887.5 268.4 887.7 268.2 887.8 267.2 888.3 266.1 889.5 265.2 890.7 264.3 891.8 263.7 892.8 263.7 892.8L258.2 898.3C258.2 898.3 257.3 898.5 256.2 898.6 255.6 898.6 255 898.6 254.4 898.5 253.8 898.4 253.2 898.2 252.7 897.8 252.2 897.4 251.5 897.1 250.7 896.9 249.9 896.7 249 896.6 248.1 896.7 247.2 896.8 246.3 897.1 245.4 897.6 244.6 898.1 243.8 898.8 243.2 899.8 242.6 900.8 241.9 901.6 241.4 902.3 240.8 902.9 240.2 903.4 239.7 903.8 239.1 904.2 238.5 904.4 238 904.6 237.4 904.7 236.8 904.8 236.2 904.8 234.9 904.8 233.7 904.4 232.5 904 231.3 903.7 230.2 903.3 229.2 903.3 228.7 903.3 228.3 903.4 228 903.5 227.6 903.7 227.3 904 227 904.3 226.3 904.9 225.4 905.8 223.7 906.8 221.9 907.8 220.1 908.4 218.7 909.4 218 909.9 217.4 910.5 217.1 911.3 216.7 912.1 216.6 913 216.7 914.3 216.9 916.8 217.1 919.3 216.9 921.5 216.9 922.7 216.7 923.7 216.5 924.7 216.3 925.7 216.1 926.5 215.7 927.3 214.9 928.8 214.2 930.2 213.4 931.2 213 931.8 212.5 932.2 212.1 932.6 211.6 932.9 211.2 933.2 210.7 933.3 209.7 933.5 208.9 933.4 208.1 933.2 207.2 932.9 206.2 932.5 204.7 932.3 203.2 932 201.9 931.4 200.8 931.2 200.2 931 199.7 931 199.2 931.2 198.7 931.3 198.2 931.7 197.7 932.3 196.7 933.5 194.8 934.9 193.2 936 191.6 937 190.2 937.8 190.2 937.8L189.8 938C190.2 938.3 190.5 938.7 190.9 939L204 952.2C204.8 953 205.9 953.7 206.7 954.5 208.5 956.3 210.1 958.3 211.8 960.2 213.4 962 214.6 964.4 216.4 966L217.1 966.1 217.8 967.9C219 968.5 220.4 969.6 221.2 970.7 222.6 971.2 224.2 971.8 225.7 972 227.5 972.4 229.6 970 231.4 970.3 233.5 971.7 234.6 974.2 236.3 976 237 976.7 237.4 977.1 238.1 977.8 240.1 979.8 242 982 244.4 983.6 245.3 984.2 246.3 984.6 247.2 985.2 248.8 986.3 250.2 987.8 251.8 988.8 253.6 989.9 255.9 990.7 257.8 991.6 258.9 992.1 264.1 994.1 264.9 993.7 265.5 993 267 990.9 267.1 990 267.3 988.9 266.7 988.4 267.5 987 267.4 985.7 266 983.4 265.3 982.2 265.7 981 264.7 979.8 264.4 978.7 264 976.8 263.8 974.8 263.5 972.9 263.2 971.2 263.9 969.6 264.7 968.2L264.4 967.3C263 966.2 261.4 965.4 259.6 965.5L258.2 964.4C257 963.5 257.2 963.2 257.1 961.7 257.1 961.3 257.1 960.6 257.5 960.2L258.3 960.6 258.1 962 259.7 963.9C262.5 964.1 264.3 965 266.5 966.6 267 967 267.9 967.6 268 968.3L267.7 969.1 265.8 969.5 265.1 970.4 266.6 971.8C267.4 971.9 268.2 970.7 268.8 970.4 269.4 970.1 270.5 970.1 271 969.7 272.4 968.8 273.8 967.5 273.8 965.7L273 963.7 273.6 963C275.6 963.2 276.7 961.5 278.2 961.1 279.2 960.8 281.2 960.8 282.2 960.7 283.1 960.2 285.9 954.3 286.5 953.1L285.4 950.8 281.5 949.1 282.2 948.2C283.7 947.9 287 949.6 287.9 950.8L288.3 953.9 289.2 954.1C289.7 953.6 290.5 953.1 291 952.6L299.2 943.6C299.8 942.9 300.4 939.2 300.5 938.3L301.7 938.9C302.2 938.1 303.8 935.2 303.7 934.3L302.5 931.3C302.6 930 303.8 928.1 304.6 927.2L303.1 925.5C302.8 925.1 302.6 925 302.3 924.6 301.6 923.6 302.8 921.5 303.3 920.6 303.7 920.1 304 919.3 304.4 918.9 305.5 917.6 305.3 918.6 306.2 916.8L306 915.9 305.6 915.8C305.1 915.3 304.9 914.4 304.9 913.8 305.6 913.7 306.6 913.9 307 914.4L307.6 915.3C307.8 917.3 303.8 920.8 303.3 923.4L303.6 924.4 305.3 926.1 305.4 927.2 304.5 929.1 304.6 929.8 306.1 930.2C306.2 930.1 306.7 929.6 306.8 929.6 307.3 928.7 310.4 922.6 310.5 922.1 311.1 920.5 311.1 918.4 311.5 916.7 311.5 916.6 312.4 914.5 312.4 914.5 313.2 913.4 315.4 912.2 315.8 910.9 316.3 909.3 316.4 907.6 316.9 906.1L318.2 903.8 318.8 902.6C318.6 902.1 318.1 900.4 318.5 899.9 319.9 901 322 901 323.7 901 325.3 901 327.2 901.3 328.9 901.1L330.4 900.3C330.6 900.1 332.8 897.5 333.1 897.1 333.4 896.5 333.7 895.7 334 895L332.4 892.9 333.3 892.5 335.2 892.9 337.8 891.4C339.4 890.5 339.6 890.3 341.4 890.8L343.3 891.2 344.6 889.5 345.1 890.1C345.2 891.1 345 893 344.3 893.7L342.4 894.1 340.5 893.3 338.8 893.8C337.8 894.6 336.8 896.5 336.5 897.7L335 898.5C334.3 900.1 332.9 900.5 331.8 901.6 330.7 902.8 329.6 904.2 328.6 905.5 327.9 906 325.6 905.5 324.9 905.3L323.8 905.6 323.7 905.9C323.6 906.1 322.6 907.3 322.6 907.3 322.2 908.3 322.2 909.4 321.9 910.4 321.9 910.7 321.4 911.1 321.3 911.4 321.3 911.5 320.9 913.2 320.9 913.3 320.9 913.8 321.1 914.5 321 915 321 915.2 320.5 916 320.4 916.2 320.2 917 320.3 918.3 320.8 918.9L322.6 920 323.7 919.3 322.5 915.6 323 914.8 323.7 914.5C325.1 914.8 327.2 915.6 328.6 915 329.4 913.9 330.8 912.9 332 912.3L331.4 914.4C330.6 915.1 329.7 915.8 328.8 916.4L325.9 916.6 324.7 915.9C324.4 916 323.9 916.2 323.7 916.5L325.1 918.3C325.3 919.3 324.3 920.9 323.7 921.6 323.2 921.8 321.7 921.6 321.3 921.5L320 920.5 318.7 920.3C318.7 920.7 318.5 924.9 318.5 925.1 317.6 927.7 316.4 930.4 315.7 933.1 315.4 934 315 937.4 315.6 938.3L316.2 938.7 317.1 938.7C318.4 937.9 318.4 936.8 319.3 935.7 320.2 934.7 321.3 933.7 322.3 932.8 322.3 932.7 322.9 932.6 323 932.5 323.2 932.4 324 931.5 324.2 931.4 325.3 930.8 327.1 930.2 328.4 930.7 329.3 931.1 331.5 931.7 332 932.6L335.6 938.9 337.2 939 338.3 937.4C338.3 935.9 337.8 935.2 337.6 933.9 337.2 932.3 339.6 929.7 340.6 928.7 341 927.8 339.9 925.2 339.4 924.5L340.1 922.5 338.9 919.8C339.8 917.6 339.2 916.4 338.5 914.3L340.8 915.2 341.4 916.3C341.4 917.2 341.1 918.4 340.7 919.2L341 920.1 342.2 921.1 342.4 921.9 341.1 924.4 341.4 927C342.1 928.5 344.6 929.7 346.2 929.1L348.1 925.9C349.5 926.4 349.8 929.9 349.2 931L348.3 931.6 346.3 930.6 345.6 931.3C343.9 932 341.3 931.1 339.9 932.5L339.7 933.5C340.5 934.4 339.7 936.5 340.4 937.7L339.4 940.5C337.9 942.1 334.4 941.6 332.9 940.3 332 940.2 330.4 940.6 329.6 941.1L329.2 941.8 330.7 946.4 335.7 946.8 336.6 947.4C336.7 947.8 336.8 948.1 337 948.5 338.8 951 338 950 338.7 952.9 338.8 953.3 339.1 953.8 339.2 954.3 339.3 955 339.2 955.9 339.4 956.6 339.8 958.5 342 959.1 343.6 959.4 344.6 959.1 347.1 957.5 347.7 956.9 349.8 954.9 351.2 946.2 351.7 943.7 351.8 943.3 352 942.9 352.1 942.5 352.9 940.1 353.8 937.6 354.4 935.2 355 933 354.9 930.6 355.5 928.5 356.1 926.4 357.3 923.1 357.7 921.1 357.8 920 357.4 918.5 357.5 917.4 357.6 915 358 912.5 358.2 910.2 358.2 909.7 358.2 909.2 358.3 908.7 358.9 906.1 359.7 903.3 360 900.6 360.1 900.4 360 899.6 360 899.4 360.2 898.9 360.5 898.3 360.7 897.9 360.2 896.9 360.9 895.7 360.9 894.7 360.9 893.7 360.6 892.5 360.4 891.5 360.4 891.5 360.9 885.8 357.4 881.3 353.9 876.8 349.4 872.8 350.4 869.5 351.4 866.3 352.2 850.3 353.2 847.5 354.2 844.8 355.2 840.5 359.4 841.5 363.7 842.5 365.4 842.8 365.4 839.3 365.4 835.8 363.7 833.3 368.2 831.8 372.7 830.3 378.7 828.8 379.7 827.8 380.7 826.8 385.1 824 383.2 826.9 381.2 829.8 380.2 833 376.4 833 372.7 833 371.9 835.3 371.9 837 371.9 838.8 372.7 843.8 369.9 844 367.2 844.3 365.4 845.3 363.4 845.3 361.4 845.3 359.9 846 360.2 848.3 360.4 850.5 360.9 854.5 359.4 856.3 357.9 858 355.7 861.5 357.9 863.8 360.2 866 364.2 870.3 363.7 874.3 363.2 878.3 362.7 882.8 363.2 885.3 363.7 887.8 365.2 894.5 365.2 894.5 365.9 895.6 366.4 898.1 366.1 899.3 365.7 901.4 364.6 903.4 364.1 905.4L363.6 908.5C363.4 909.7 363.2 911.1 363.4 912.3 364.3 913.9 365.1 914.1 366 915.1 366.2 915.4 366.3 916 366.6 916.3 367.2 917.1 368.2 917.7 368.8 918.5 368.9 918.6 369.2 919.3 369.3 919.5 369.7 920 370.2 920.5 370.8 921.2 372.8 925.4 372.3 926 372.4 931.1 372.5 932.1 372.3 932.7 372.5 933.7 372.6 934.9 378 941.4 378.8 942.4L381.4 942.1C381.8 941.6 382.5 940.9 382.8 940.4 382.9 940.4 383.3 938.3 383.3 938.1 383.4 937.9 383.5 937.9 383.4 937.7 383.4 937.3 382.7 935.5 382.7 935.3 382.6 933.9 383 932.1 383.2 930.7 383.2 930.7 382.9 929.9 382.9 929.8 382 928.8 381.2 928.9 380.2 928.4 380.1 928.3 377.7 926.7 377.7 926.7L376.8 925.2C376.5 924.7 376.2 924.2 376 923.6 375.9 922.7 376.5 921.1 377.2 920.4L377.8 920.1 378.7 920.5C378.1 921.7 377.8 922.5 377.7 923.9 377.8 924.4 378.2 924.9 378.5 925.3 380.1 927.2 381.6 928.2 384 928.9L384.6 930C384.2 931 383.6 933.7 384.1 934.8L385.3 936.6 385.9 937.5 387 937.5 386.9 934.4 387.3 933.8 389.8 933.7 390.7 932.7 390.7 932 391.4 932.2C391.8 932.5 392.2 933.3 392.1 933.8L391 935.2 388.9 935.2 388.5 936.4 389 938.3C388.6 939.2 388.6 941 388.9 941.9 389.4 943 391.3 945 391.3 946.3L391.1 950.5C391 951.7 390.9 953.3 390.3 954.5 389.1 956 388.1 955.8 387 956.6 386.6 956.9 385.5 958.7 385.6 959.1L386.1 965.6C386.2 966.9 385 968 384.7 969.1 384.4 970.1 384.3 971.4 384.1 972.5 383.3 972.8 380.8 974.1 381.1 975.3L382.6 976.8 381.8 977.5 380 976.2 378.2 976.1 377 976.9C376.7 977.4 376.6 977.8 376.5 978.3 376.5 979.2 376.3 980.2 376.3 981.1 376.3 981.5 376.5 981.9 376.5 982.3 376.5 982.8 376.3 983.4 376.3 984 376.3 984 376.6 985.3 376.7 985.5L377.6 986.3 377.8 987.3C377.3 989.2 375.2 990 374.6 991.8 374.4 992.4 374.6 993.4 374.5 994L372.7 1001.6C372.3 1003.1 372.2 1004 371.7 1005.5 371.3 1006.8 369.9 1008.1 369.4 1009.4 368.7 1011.1 368.3 1015.3 368.1 1017.1 368 1018.1 367.6 1020.7 367 1021.6 364.6 1025.2 360.2 1029 359.5 1033.5 359.2 1035.4 358.8 1038.8 358.8 1040.6 358.8 1042 359.1 1045.5 359.3 1046.9 359.4 1047.7 360 1048.7 360.3 1049.4 360.8 1050.9 361 1052.2 361.2 1053.7 361.2 1054.1 361.3 1054.3 361.3 1054.6 361.3 1054.8 359.7 1060.4 359.7 1060.5 359.1 1061.7 356.8 1065 355.5 1066.8L355.7 1066.8C355.7 1066.8 357.4 1067.2 359.6 1067.5 361.7 1067.9 364.2 1068.3 365.7 1068.3 367.2 1068.3 368.3 1068.2 369.4 1068.2 370.4 1068.2 371.4 1068.3 372.7 1068.8 375.1 1069.8 381.7 1073.5 382 1073.7L402.8 1034.9 418.3 994.1 443.8 965.4 456 953.9 461.8 950.4 471.2 940.8 467.7 937.3 462.7 936.3C462.7 936.3 460.2 936.3 455.2 936.8 453.9 936.9 452.8 937.2 451.9 937.5 451 937.9 450.2 938.3 449.6 938.7 448.3 939.5 447.7 940.3 447.7 940.3L442.7 943.3C442.7 943.3 442.1 942.5 441.1 941.5 440.2 940.5 438.9 939.3 437.7 938.3 437.1 937.8 436.7 937.2 436.6 936.7 436.4 936.1 436.4 935.5 436.5 935 436.7 934 437.2 933.3 437.2 933.3L442.2 931.3C442.2 931.3 448.7 925.3 451.2 922.8 453.7 920.3 457.7 915.3 457.7 915.3L459.7 910.3C459.7 910.3 459.6 909.7 459.5 908.7 459.4 907.8 459.4 906.5 459.7 905.3 459.8 904.7 460.1 904 460.4 903.3 460.8 902.6 461.3 901.9 461.9 901.4 462.5 900.8 463.2 900.4 464 900.3 464.8 900.2 465.7 900.3 466.7 900.8 468.7 901.8 470.1 902.4 471.2 902.7 472.3 903 473.2 903 474.2 902.8 475.2 902.5 477.3 902 479.5 901.4 480.6 901 481.7 900.6 482.7 900.2 483.7 899.8 484.6 899.3 485.2 898.8 486.4 897.8 487.7 897 488.9 896.4 490.1 895.8 491.2 895.3 492.2 894.8 493.2 894.3 495.1 893.8 496.7 893.4 498.3 893 499.7 892.8 499.7 892.8L505.2 892.8C505.2 892.8 505.8 893.2 506.9 893.5 507.4 893.6 508.1 893.8 508.8 893.9 509.5 893.9 510.3 893.9 511.2 893.8 512.1 893.7 513 893.4 514 893 515 892.7 515.9 892.3 516.7 891.9 518.4 891 519.7 890.3 519.7 890.3 519.7 890.3 521.7 886.3 522.2 884.3 522.4 883.3 523.4 881.8 524.4 880.5 525.3 879.3 526.2 878.3 526.2 878.3L529.2 875.8C529.2 875.8 528.9 874.9 528.7 873.8 528.4 872.7 528.2 871.3 528.2 870.3 528.2 869.8 528.4 869.4 528.8 869 529.2 868.6 529.7 868.3 530.2 868 531.2 867.5 532.2 867.3 532.2 867.3L537.2 863.3 535.4 862.9 536.8 862.6 537.2 863.3C537.2 863.3 537.2 862.9 536.9 862.5 536.7 862.4 536.5 862.2 536.1 862 535.8 861.9 535.3 861.8 534.7 861.8 534.1 861.8 533.5 861.6 533 861.4 532.5 861.2 532.1 860.9 531.7 860.5 531.1 859.9 530.7 859.3 530.7 859.3 530.7 859.3 530.9 858.7 531.6 857.8 532 857.4 532.4 856.8 533 856.3 533.6 855.8 534.3 855.3 535.2 854.8 535.6 854.5 535.9 854.3 536.1 854 536.3 853.7 536.4 853.5 536.4 853.2 536.5 852.6 536.2 852 535.7 851.5 534.9 850.5 533.7 849.8 533.7 849.8 533.7 849.8 532.8 849.4 531.6 849.1 531 849 530.4 848.8 529.7 848.7 529 848.7 528.3 848.7 527.7 848.8 526.4 849 525.7 849.2 525.1 849.7 524.4 850.2 523.9 851 523.2 852.8 523 853.2 522.7 853.5 522.2 853.7 521.8 853.8 521.3 853.9 520.7 853.8 519.6 853.7 518.2 853.2 516.9 852.6 514.2 851.4 511.7 849.8 511.7 849.8L511.2 850 511.3 849.6 511.7 849.8 505.2 844.8 501.7 840.8C501.7 840.8 501.1 840.3 500.1 840 499.7 839.9 499.1 839.9 498.5 840 497.9 840 497.3 840.3 496.7 840.8 496.1 841.3 495.6 841.6 495.2 841.7 494.8 841.8 494.5 841.8 494.2 841.7 493.7 841.4 493.2 840.8 492.2 840.3 491.2 839.8 489.7 838.7 488.2 837.5 486.8 836.4 485.4 835.2 484.7 834.6 483.9 834 482.8 831.9 481.8 830 480.8 828.1 480.1 826.3 480.1 826.3L477.2 819.8C477.2 819.8 476.8 819 476.2 818 475.6 816.9 474.7 815.5 473.7 814.3 472.7 813 472.2 811.9 471.6 811.1 471.2 810.7 470.9 810.4 470.4 810.1 470 809.9 469.4 809.8 468.7 809.8 467.2 809.8 465.9 809.8 465 809.5 464.5 809.3 464.1 809.1 463.8 808.7 463.5 808.4 463.3 807.9 463.2 807.3 463.1 806.7 463 806.1 462.9 805.5 462.8 805 462.6 804.5 462.3 804.1 462 803.7 461.5 803.4 460.8 803.1 460 802.9 459.1 802.8 457.7 802.8 456.3 802.8 455.3 802.7 454.6 802.5 453.8 802.3 453.3 802.1 452.9 801.8 452.2 801.2 451.9 800.3 451.2 799.3 450.4 798.3 449.1 796.7 447.4 795 445.7 793.3 443.7 791.5 441.7 790.3 440.7 789.7 439.6 789.2 438.6 789 437.6 788.8 436.6 788.7 435.6 788.8 434.7 788.9 433.7 789 432.9 789.3 432.1 789.6 431.3 789.9 430.7 790.3 430.1 790.7 429 791 427.7 791.4 426.3 791.8 424.7 792.2 423.1 792.7 421.4 793.1 419.6 793.6 417.9 794.1 416.2 794.6 414.6 795.2 413.2 795.8 412.5 796.1 411.8 796.3 411.2 796.4 410.5 796.5 409.8 796.5 409.2 796.5 408 796.3 406.8 796 405.9 795.5 403.9 794.5 402.7 793.3 402.7 793.3 402.7 793.3 401.9 791.8 400.4 789.9 399.7 789 398.7 787.9 397.6 787 396.5 786 395.2 785 393.7 784.3 392.9 783.9 392.3 783.4 391.7 782.8 391 782.1 390.5 781.4 390 780.6 389 779 388.2 777.2 387.7 775.4 386.6 771.9 386.2 768.8 386.2 768.8 386.2 768.8 384.2 765.8 383.2 763.3 382.7 762 381.7 760.5 380.6 759.2 379.4 757.9 378.2 756.8 377.2 756.3 376.2 755.8 374.4 754.5 372.6 753.4 371.6 752.9 370.6 752.3 369.7 751.9 368.8 751.5 367.9 751.3 367.2 751.3 366.4 751.3 365.7 751.2 364.9 751 364.2 750.8 363.5 750.5 363 750.1 362.5 749.7 362.1 749.2 361.9 748.5 361.7 747.9 361.8 747.2 362.2 746.3 362.6 745.4 362.6 744.5 362.4 743.6 362.3 742.7 361.9 741.8 361.3 741 360.7 740.1 360 739.3 359.2 738.6 358.4 737.9 357.6 737.3 356.7 736.8 355.8 736.3 355.2 735.6 354.7 734.7 354.3 733.9 354 733 353.9 732 353.6 730.2 353.7 728.3 353.7 727.3 353.7 726.3 353.4 725.4 353.4 724.7 353.4 724.3 353.5 724 353.7 723.6 353.9 723.3 354.2 723 354.7 722.8 355.2 722.5 355.6 722.2 355.9 721.8 356.3 721.4 356.5 721 356.6 720.4 356.6 719.9 356.5 719.2 356.2 718.4 355.9 717.7 355.4 716.8 354.7 715.8 353.9 714.8 353.4 713.9 353 713.1 352.7 712.3 352.5 711.6 352.4 710.9 352.2 709.5 352.4 708.3 352.7 706.8 352.9 705.3 352.9 702.2 353.1 698.9 353.1 697.3 353.2 695.6 353.4 694.1 353.5 692.6 353.8 691.3 354.2 690.3 354.9 688.3 356.9 683.3 359 678.4 361.1 673.5 363.2 668.8 364.2 667.3 366.2 664.3 368.2 659.3 370.2 656.3 372.2 653.3 378.7 641.3 380.2 639.3 380.6 638.8 380.8 638.3 381 637.7 381.2 637.1 381.3 636.6 381.4 636 381.6 634.8 381.7 633.5 382.2 632.3 382.7 631 382.9 629.8 383.6 628.7 383.9 628.2 384.3 627.7 384.8 627.3 385.4 626.9 386.2 626.5 387.2 626.3 389.2 625.8 390.8 625.4 392 624.9 392.6 624.6 393.1 624.2 393.4 623.8 393.8 623.4 394.1 622.9 394.2 622.3 394.4 621 394.4 620.2 394.7 619.5 394.9 619.1 395.1 618.8 395.5 618.6 395.9 618.3 396.4 618 397.2 617.8 397.9 617.5 398.5 617.1 398.9 616.6 399.3 616.2 399.7 615.6 400.1 615 400.4 614.5 400.8 613.9 401.4 613.4 402 612.9 402.7 612.5 403.7 612.3 404.7 612 405.6 611.5 406.5 610.9 407.4 610.2 408.2 609.4 408.9 608.7 410.3 607.2 411.2 605.8 411.2 605.8 411.2 605.8 412.7 604.2 414.7 602.5 415.7 601.7 416.8 600.9 417.9 600.3 419.1 599.7 420.2 599.3 421.2 599.3 423.2 599.3 424.9 599.3 426.5 599.2 428.1 599 429.4 598.8 430.7 598.3 431.9 597.8 433.9 596.9 435.6 595.7 436.5 595 437.2 594.3 437.8 593.5 438.3 592.7 438.7 591.8 438.7 590.8 438.7 588.8 438.4 586.9 438.5 585.2 438.5 584.4 438.6 583.6 438.9 582.9 439.2 582.1 439.6 581.4 440.2 580.8 440.8 580.2 441.4 579.5 441.8 578.7 442.3 578 442.7 577.2 443 576.4 443.3 575.6 443.5 574.7 443.5 573.9 443.5 573 443.4 572.2 443.2 571.3 442.9 570.4 442.6 569.7 442.2 569 441.8 568.3 441.3 567.7 441 567 440.7 566.4 440.4 565.8 440.3 565.1 440.2 564.4 440.3 563.7 440.7 562.8L444.2 552.8C444.2 552.8 444.7 551.7 444.9 550.4 445 549.7 445 549 444.8 548.4 444.6 547.7 444.3 547.2 443.7 546.8 442.4 546 440.8 545.5 439.2 545.2 437.7 544.9 436.2 544.8 435.2 544.8 434.7 544.8 434.2 544.9 433.7 545.2 433.2 545.4 432.8 545.7 432.4 546 431.7 546.7 431.2 547.3 431.2 547.3L426.7 548.8 419.2 549.8z" stroke="black" stroke-width="1" fill="transparent"/>
</svg>