<svg xmlns="http://www.w3.org/2000/svg" viewBox="505.7 137.6 331.50000000000006 179.70000000000002">
  <path d="M505.7 265.8L506.7 270.3C508.6 270.4 510.4 270.8 512.3 271.1 514.1 271.5 516 271.9 518 271.8 520.2 271.6 523 271.6 525.7 271.9 527 272.1 528.3 272.3 529.5 272.7 530.7 273 531.8 273.5 532.8 274.2 533.8 274.9 534.8 275.3 535.7 275.6 536.7 275.9 537.8 276.1 539 276.4 539.7 276.5 540.2 276.6 540.7 276.6 541.2 276.6 541.5 276.5 541.9 276.3 542.6 276.1 543.1 275.7 543.6 275.4 543.8 275.3 544.1 275.1 544.3 275.1 544.6 275.1 544.9 275.1 545.3 275.2 546.1 275.5 547 276.2 548.4 277.6 548.8 278 549.2 278.4 549.6 278.6 549.9 278.9 550.3 279.2 550.9 279.3L551.8 279.6C552.7 279.8 553.4 280.3 553.9 280.7 554.4 281.2 554.8 281.6 555.2 282.1 555.5 282.5 555.9 282.9 556.2 283.1 556.6 283.3 557.1 283.3 557.6 283.1L558.2 287.8C558.2 287.8 558.3 288.2 558.7 288.8 559 289.3 559.5 290.1 560.1 290.8 560.8 291.5 561.6 292.1 562.6 292.4 563.1 292.6 563.7 292.7 564.2 292.7 564.8 292.7 565.5 292.5 566.2 292.3 567.6 291.8 568.6 291.5 569.4 291.3 570.2 291.2 570.8 291.1 571.3 291.2 572.3 291.4 572.9 292 574.2 292.8 575.4 293.5 576.4 294.2 577.4 294.4 577.9 294.5 578.4 294.6 579 294.5 579.5 294.4 580.1 294.2 580.7 293.8 581.3 293.4 582 293.3 582.8 293.2 583.6 293.1 584.4 293.2 585.2 293.2 586.1 293.3 586.9 293.3 587.8 293.2 588.6 293.1 589.4 292.8 590.2 292.3 591.7 291.3 593.2 290.4 594.7 289.9 595.5 289.7 596.3 289.5 597.2 289.5 598 289.5 598.8 289.5 599.7 289.8 601.4 290.3 603.4 290.5 605.2 290.5 607.1 290.5 608.7 290.3 609.7 289.8 610.2 289.5 610.9 289.4 611.7 289.3 612.5 289.3 613.5 289.3 614.5 289.5 615.5 289.6 616.6 289.9 617.8 290.3 618.9 290.7 620.1 291.2 621.2 291.8 623.4 293 624.9 293.7 626.4 294.2 627.9 294.7 629.4 295 631.7 295.8 632.8 296.2 633.9 296.4 635 296.6 636 296.7 637 296.8 638 296.9 639.9 296.9 641.7 296.8 643.2 296.8 644.7 296.8 646.3 296.7 647.9 296.4 649.6 296.2 651.2 295.8 652.7 295.3 654.2 294.8 657.1 294.3 660.2 293.9 663.3 293.4 666.7 293 669.2 292.8 671.7 292.5 673.6 292 675.2 291.4 676.9 290.8 678.4 290 680.2 289.3 681.9 288.5 683.3 287.8 684.6 287.4 685.2 287.1 685.8 287 686.4 287 687 287 687.6 287 688.2 287.3 689.4 287.8 690.6 288.5 691.7 289 692.2 289.2 692.8 289.3 693.4 289.3 694 289.3 694.6 289.2 695.2 288.8 695.8 288.4 696.7 288 697.8 287.5 698.9 287.1 700.2 286.7 701.4 286.4 702.7 286.2 703.9 286.1 705 286.3 705.6 286.4 706.1 286.5 706.5 286.8 707 287 707.4 287.4 707.7 287.8 710.2 291.3 712.7 294.3 712.7 294.3 712.7 294.3 713.1 294.9 713.2 295.9 713.3 296.3 713.4 296.9 713.3 297.5 713.2 298 713.1 298.7 712.7 299.3 711.9 300.5 711.3 302 710.9 303.2 710.4 304.4 710.2 305.3 710.2 305.3 710.2 305.3 710.9 305.7 711.9 305.7 712.4 305.8 713 305.7 713.6 305.5 714.1 305.3 714.7 304.9 715.2 304.3 716.2 303 717.3 302 718.4 301.4 719 301.1 719.5 300.9 720.1 300.8 720.6 300.7 721.2 300.7 721.7 300.8 722.7 301 723.7 301.5 724.5 302.2 724.9 302.6 725.3 303 725.6 303.4 725.8 303.8 726.1 304.3 726.2 304.8 726.4 305.8 726.9 307.2 727.7 308.5 728.1 309.2 728.5 309.9 729 310.5 729.5 311.2 730.1 311.8 730.7 312.3 731.9 313.3 732.3 313.5 733.1 313.9 733.8 314.2 734.9 314.5 737.7 315.8 739.1 316.4 740.4 316.8 741.7 317 743 317.3 744.2 317.4 745.3 317.3 746.4 317.2 747.5 317 748.4 316.8 749.3 316.5 750.1 316.2 750.7 315.8 751.9 315 752.8 314.4 753.7 314 754.7 313.5 755.7 313.3 757.2 313.3 757.9 313.3 758.8 313 759.8 312.5 760.7 312 761.7 311.4 762.6 310.8 764.3 309.5 765.7 308.3 765.7 308.3 765.7 308.3 767.8 308.2 770.1 307.8 771.2 307.6 772.3 307.3 773.3 307 774.2 306.7 774.9 306.3 775.2 305.8 775.4 305.3 776 304.9 776.7 304.6 777.5 304.4 778.4 304.2 779.4 304 781.4 303.8 783.7 303.8 785.2 303.8 786.7 303.8 787.9 304.2 788.9 304.2 789.4 304.3 789.9 304.2 790.2 304 790.6 303.8 790.9 303.4 791.2 302.8 791.4 302.2 791.7 301.6 792 301.2 792.3 300.7 792.7 300.4 793 300.2 793.3 300.1 793.7 300.1 794.1 300.3 794.4 300.6 794.8 301 795.2 301.8 795.6 302.5 796 303.1 796.5 303.5 797 303.9 797.5 304.2 798 304.4 798.9 304.8 799.7 304.8 799.7 304.8L805.6 304.8 806.3 305.6 807.2 304.8C807.2 304.8 808.9 303.3 810.9 301.5 812.8 299.8 814.9 297.8 815.7 296.8 816.1 296.3 816.5 295.9 816.9 295.6 817.4 295.3 817.9 295.1 818.4 295 819.6 294.7 820.9 294.5 822.7 294.3 823.6 294.2 824.2 294 824.8 293.7 825.3 293.4 825.7 293.1 826 292.9 826.6 292.3 826.7 291.8 826.7 291.8L831.7 282.3C831.7 282.3 831.3 281.3 831.1 280 831 279.3 831 278.6 831.1 277.9 831.1 277.1 831.3 276.4 831.7 275.8 833.2 273.3 834.7 269.8 834.7 269.8L837.2 261.8 830.1 258.9C829.6 258.2 828.6 255.9 828.2 255.5L827.6 254.9C826.6 253.8 825.8 253.3 825.1 253 824.4 252.7 823.8 252.7 823.2 252.7 822.6 252.8 822.1 252.8 821.5 252.7 820.9 252.6 820.3 252.3 819.5 251.6 818.7 250.8 818 250.3 817.3 250 816.6 249.7 816 249.6 815.5 249.5 814.9 249.5 814.5 249.5 814 249.5 813.6 249.4 813.2 249.3 812.9 249.1 812.6 248.3 812.3 247.6 812 247 811.2 245.4 810.3 244.2 809.6 243.2 808.8 242.3 808.1 241.5 807.3 241 806.6 240.5 805.9 240.1 805.2 239.9 804.5 239.6 803.9 239.5 803.2 239.5 801.9 239.3 800.7 239.3 799.5 238.9 798.9 238.7 798.3 238.5 797.7 238 797 237.6 796.4 237 795.8 236.1 794.5 234.4 793.5 233.1 792.6 232.1 791.7 231.1 790.9 230.5 790 230.1 789.1 229.7 788.1 229.5 786.8 229.4 785.5 229.4 783.9 229.4 781.9 229.5 779.3 229.6 777.9 229.4 776.7 229.1 775.4 228.7 774.3 228.2 772.4 227.5 771.9 227.3 771.2 226.5 770.7 225.8 770.1 225 769.7 224.2 769.6 223.7L769.6 223.3 769.5 222.9C769.5 222.1 769 221.5 768.5 220.9 768 220.3 767.4 219.8 766.8 219.4 765.9 218.6 765.3 217.9 765 217.3 764.6 216.6 764.5 216 764.5 215.4 764.4 214.1 764.8 212.7 764.6 210.4 764.4 208.9 763.8 206.1 763.1 203.3 762.3 200.5 761.4 197.7 760.7 196.3 759.9 194.8 758.9 192.8 757.7 191 757 190.1 756.4 189.3 755.7 188.6 754.9 187.9 754.2 187.3 753.3 187 751.5 186.3 750.2 185.6 749.3 184.8 748.3 184 747.7 183.2 747.2 182.2 746.8 181.3 746.5 180.2 746.2 179 746 177.7 745.7 176.3 745.3 174.7 745.1 173.6 744.8 172.8 744.4 172 744.1 171.3 743.8 170.7 743.4 170.2 742.6 169.3 741.8 168.8 740.9 168.4 740.1 168 739.3 167.8 738.6 167.5 737.9 167.3 737.4 166.9 737.1 166.3 736.1 164.2 735 162.3 733.7 160.5 732.5 158.6 731 156.9 729.3 155.4 728 154.2 726.8 153.6 725.8 153.1 724.8 152.7 723.9 152.5 723.1 152.4 722.2 152.2 721.5 152.2 720.7 151.9 719.9 151.6 719.1 151.1 718.3 150.2 717.4 149.1 716.6 148.2 715.8 147.5 715 146.7 714.3 146.1 713.5 145.6 712.7 145.1 711.8 144.7 710.7 144.4 709.7 144.1 708.5 143.9 707 143.8 704.6 143.5 701.8 143.3 699.2 142.7 697.9 142.4 696.6 142 695.4 141.5 694.2 141.1 693.1 140.5 692.1 139.8 691.1 139 690 138.5 688.9 138 688.6 137.8 688.4 137.7 688.2 137.6L687.7 137.6 688.2 146.3C688.2 146.3 689.7 149.8 690.2 151.8 690.3 152.3 690.3 152.9 690.3 153.6 690.2 154.3 690 155.1 689.7 155.9 689.5 156.6 689.1 157.4 688.6 158.2 688.1 159 687.4 159.7 686.7 160.3 685.9 160.9 685 161.3 684.2 161.6 683.3 161.8 682.4 162 681.6 162 679.9 162 678.7 161.8 678.7 161.8 678.7 161.8 678.3 162.3 678 163 677.8 163.4 677.7 163.9 677.6 164.3 677.6 164.8 677.6 165.3 677.7 165.8 677.9 166.8 678.1 168 678.4 169.3 678.5 169.9 678.7 170.5 679 171.1 679.3 171.7 679.7 172.3 680.2 172.8 680.7 173.3 681 173.8 681.2 174.2 681.5 174.7 681.5 175.1 681.5 175.6 681.4 176.5 680.9 177.5 680.2 178.8 679.8 179.4 679.6 180 679.6 180.5 679.6 181 679.7 181.4 679.9 181.9 680.3 182.9 681.2 184 682.2 185.8 682.7 186.7 683.1 187.3 683.6 187.7 684.1 188.2 684.6 188.5 685.1 188.6 686.2 188.9 687.4 188.8 689.2 188.8 689.6 188.8 690.1 188.9 690.5 189.1 690.9 189.3 691.4 189.6 691.8 190 692.7 190.8 693.6 191.8 694.3 192.9 695.1 194 695.7 195.1 696.2 196.2 696.7 197.2 697.1 198.2 697.2 198.8 697.4 200 697.8 201 697.8 202 697.8 202.5 697.7 202.9 697.5 203.4 697.2 203.8 696.8 204.3 696.2 204.8 695.6 205.3 695.1 205.9 694.8 206.6 694.5 207.3 694.2 208.1 694.1 208.9 693.7 210.5 693.4 212.3 692.7 213.8 691.9 215.3 691.4 216.4 690.7 217.2 690.3 217.5 689.9 217.8 689.3 218 688.7 218.2 688.1 218.3 687.2 218.3 685.4 218.3 683.3 218.5 681.6 218.8 679.9 219 678.7 219.3 678.7 219.3 678.7 219.3 674.2 220.8 671.7 221.3 671.1 221.4 670.4 221.8 669.8 222.3 669.3 222.8 668.7 223.5 668.2 224.2 667.8 225 667.4 225.7 667.1 226.4 666.8 227.1 666.7 227.8 666.7 228.3 666.7 228.8 666.5 229.5 666.2 230.2 665.9 230.9 665.4 231.6 664.9 232.4 664.3 233.1 663.7 233.7 663.1 234.3 662.5 234.8 661.8 235.2 661.2 235.3 660.6 235.4 660 235.7 659.4 236.2 658.9 236.6 658.4 237.1 657.9 237.7 657.1 238.9 656.4 240.3 656.2 241.3 655.9 242.3 654.4 244.5 652.7 246.7 651.8 247.8 650.9 248.9 650 249.8 649.1 250.7 648.3 251.4 647.7 251.8 646.4 252.5 645.4 253.5 644.4 254.6 643.4 255.7 642.4 256.8 641.2 257.8 640.6 258.3 639.9 258.6 639.3 258.7 638.6 258.8 638 258.9 637.5 258.8 636.4 258.7 635.7 258.3 635.7 258.3 635.7 258.3 635.7 258.1 635.6 257.7 635.4 257.3 635.2 256.8 634.7 256.2 634.2 255.5 633.4 254.8 632.3 254.1 631.2 253.3 629.7 252.5 627.7 251.8 623.7 250.3 621.7 249.7 620.4 249.5 619.2 249.3 618.7 249.5 617.7 249.8 615.7 250.3 612.2 251.3 610.2 251.8 609.7 251.9 609.1 252.1 608.4 252.3 607.7 252.5 607.1 252.9 606.4 253.3 605.8 253.7 605.2 254.3 604.8 255 604.4 255.7 604.2 256.7 604.2 257.8 604.2 258.4 604.1 258.9 603.8 259.3 603.6 259.7 603.3 260.1 602.9 260.4 602.2 261 601.2 261.5 600.2 261.7 598.2 262.3 596.2 262.3 596.2 262.3 596.2 262.3 595.4 261.8 594.2 261.3 593.6 261 592.8 260.8 592 260.6 591.1 260.4 590.2 260.3 589.2 260.3 585.2 260.3 581.2 260.3 578.7 260.3 578.1 260.3 577.2 260.5 576.3 260.8 575.4 261 574.4 261.4 573.5 261.8 571.7 262.5 570.2 263.3 570.2 263.3 570.2 263.3 566.6 264.3 562.4 265.3 560.3 265.8 558.1 266.3 556.1 266.7 554.1 267 552.3 267.3 551.2 267.3 548.9 267.3 546.3 267.7 544 267.9 542.8 268 541.8 268 540.8 267.9 539.9 267.8 539.2 267.7 538.7 267.3 537.7 266.5 535.8 265.8 533.9 265.2 531.9 264.7 529.9 264.3 528.7 264.3 526.2 264.3 521.2 263.3 519.2 263.3 517.2 263.3 512.2 263.3 512.2 263.3L505.7 265.8z" stroke="black" stroke-width="1" fill="transparent"/>
</svg>