<svg xmlns="http://www.w3.org/2000/svg" viewBox="209.9 1132.6 326.6 336">
  <path d="M459.7 1468.6L461.7 1461.8C461.7 1461.8 462.9 1461.7 464.2 1461 464.8 1460.7 465.4 1460.3 465.9 1459.7 466.4 1459.1 466.7 1458.3 466.7 1457.3 466.7 1456.3 466.7 1455.3 466.9 1454.4 467 1453.5 467.2 1452.6 467.6 1451.9 467.9 1451.1 468.3 1450.4 468.8 1449.8 469.3 1449.2 469.9 1448.7 470.7 1448.3 472.2 1447.5 473.6 1446.4 474.7 1445.2 475.8 1444 476.7 1442.8 477.2 1441.8 477.7 1440.8 478.1 1439.4 478.7 1438 479 1437.4 479.4 1436.7 479.8 1436 480.3 1435.4 480.9 1434.8 481.7 1434.3 482.4 1433.8 482.9 1433.2 483.2 1432.5 483.6 1431.7 483.7 1431 483.6 1430.1 483.6 1429.3 483.4 1428.4 483.2 1427.5 482.9 1426.6 482.6 1425.7 482.2 1424.8 481.8 1423.9 481.6 1423.1 481.4 1422.4 481.3 1421.7 481.2 1421.1 481.2 1420.5 481.3 1419.3 481.7 1418.3 482.2 1417.3 482.7 1416.3 482.7 1414.8 482.9 1413.5 483.1 1412.9 483.2 1412.4 483.6 1412 483.9 1411.5 484.4 1411.3 485.2 1411.3 485.9 1411.3 486.6 1411.2 487.1 1411 487.6 1410.9 488.1 1410.6 488.4 1410.3 489.2 1409.7 489.7 1408.8 490.2 1407.8 490.7 1406.8 491.3 1405.8 492.2 1405.1 492.6 1404.8 493.1 1404.5 493.7 1404.4 494.3 1404.2 494.9 1404.2 495.7 1404.3 498.7 1404.8 504.2 1405.8 504.2 1405.8 504.2 1405.8 504.9 1405.8 505.7 1406.2 506.1 1406.4 506.4 1406.7 506.7 1407.1 507 1407.5 507.2 1408 507.2 1408.8 507.2 1409.5 507.5 1410.1 508 1410.5 508.4 1410.8 509.1 1411 509.7 1411 510.4 1411 511.1 1410.7 511.6 1410.3 512.2 1409.8 512.6 1409.2 512.7 1408.3 512.8 1407.4 513.1 1406.6 513.4 1405.9 513.7 1405.2 514.2 1404.5 514.7 1404 515.2 1403.5 515.7 1403 516.3 1402.7 516.9 1402.4 517.6 1402.3 518.2 1402.3 518.8 1402.3 519.4 1402.2 520 1402 520.6 1401.8 521.2 1401.6 521.7 1401.2 522.2 1400.9 522.6 1400.5 523 1400 523.3 1399.5 523.6 1398.9 523.7 1398.3 523.8 1397.7 524 1397 524.4 1396.4 524.8 1395.7 525.2 1395.1 525.8 1394.5 526.4 1394 527 1393.5 527.7 1393.1 528.5 1392.7 529.3 1392.4 530.2 1392.3 531.1 1392.2 531.8 1392 532.4 1391.7 533.1 1391.5 533.6 1391.1 534 1390.7 534.4 1390.3 534.7 1389.8 534.9 1389.3 535.1 1388.7 535.2 1388 535.2 1387.3 535.2 1384.3 534.2 1369.8 534.2 1369.8 534.2 1369.8 533.9 1368.7 533.9 1367.3 533.8 1366.6 533.8 1365.8 534 1365.1 534.1 1364.4 534.3 1363.8 534.7 1363.3 535.1 1362.8 535.2 1362.2 535.2 1361.6 535.3 1361 535.2 1360.4 535.2 1359.7 535.1 1359.1 535 1358.4 535.1 1357.7 535.1 1357.1 535.3 1356.4 535.7 1355.8 536.1 1355.2 536.3 1354.5 536.4 1353.9 536.5 1353.2 536.5 1352.5 536.5 1351.8 536.4 1350.4 536.2 1349 536.2 1347.8 536.2 1345.3 536.2 1337.3 536.2 1337.3 536.2 1337.3 534.2 1335.3 532.2 1333.8 530.2 1332.3 527.2 1329.8 527.2 1329.8 527.2 1329.8 526.1 1329 525 1327.5 524.5 1326.8 523.9 1325.9 523.6 1324.7 523.2 1323.6 523.1 1322.3 523.2 1320.8 523.4 1317.8 523.4 1315.7 523.7 1314 523.9 1313.2 524.1 1312.5 524.5 1311.9 524.9 1311.3 525.4 1310.8 526.2 1310.3 526.9 1309.8 527.5 1309.1 528 1308.4 528.5 1307.6 528.8 1306.8 529.1 1306 529.6 1304.5 529.7 1303.3 529.7 1303.3 529.7 1303.3 529.9 1302.4 529.9 1301.2 529.9 1300.6 529.9 1300 529.7 1299.3 529.5 1298.6 529.2 1297.9 528.7 1297.3 528.2 1296.7 527.8 1296 527.6 1295.2 527.4 1294.5 527.2 1293.8 527.2 1293.1 527.1 1291.8 527.2 1290.8 527.2 1290.8 527.2 1290.8 527.2 1277.8 527.2 1275.8 527.2 1274.8 526.9 1273.7 527 1272.5 527 1272 527.1 1271.4 527.4 1270.9 527.7 1270.3 528.1 1269.8 528.7 1269.3 529.3 1268.8 529.9 1268.3 530.3 1267.9 530.8 1267.4 531.1 1266.9 531.2 1266.3 531.4 1265.7 531.4 1265.1 531.2 1264.4 530.9 1263.6 530.4 1262.8 529.7 1261.8 528.9 1260.8 528.4 1259.9 528 1259.1 527.6 1258.4 527.4 1257.7 527.3 1257 527.2 1256.4 527.3 1255.9 527.6 1255.3 527.8 1254.8 528.2 1254.3 528.7 1253.8 529.2 1253.3 529.5 1252.8 529.6 1252.2 529.7 1251.6 529.7 1251.1 529.5 1250.5 529.2 1249.3 528.4 1248 527.7 1246.8 526.9 1245.5 525.7 1244.4 524.6 1243.6 523.6 1242.8 522.7 1242.3 522.7 1242.3 522.7 1242.3 522.1 1241.7 521.4 1240.8 520.7 1239.9 519.9 1238.8 519.7 1237.8 519.4 1236.8 518.8 1234.5 518.1 1232.2 517.3 1229.9 516.4 1227.5 515.7 1226.3 514.9 1225 514.4 1224 514.4 1223.4 514.4 1223 514.6 1222.8 514.8 1222.6 515.1 1222.4 515.6 1222.3 516.2 1222.3 518.7 1222.3 521.7 1222.3 521.7 1222.3 521.7 1222.3 522.3 1221.9 522.8 1221.2 523.1 1220.8 523.3 1220.3 523.4 1219.8 523.5 1219.2 523.4 1218.5 523.2 1217.8 522.7 1216.3 522.1 1214.4 522.1 1213 522.1 1212.4 522.2 1211.8 522.6 1211.5 523 1211.2 523.7 1211 524.7 1211.3 525.7 1211.5 526.6 1211.6 527.5 1211.6 528.3 1211.5 529.1 1211.4 529.7 1211.2 530.9 1210.8 531.7 1210.3 531.7 1210.3L534.2 1204.3C534.2 1204.3 532.8 1202.8 531.2 1201.1 529.6 1199.4 527.7 1197.5 526.7 1196.8 526.2 1196.4 525.6 1195.9 525 1195.3 524.4 1194.6 523.9 1193.9 523.4 1193 523 1192.2 522.7 1191.4 522.6 1190.5 522.5 1189.6 522.7 1188.7 523.2 1187.8 523.7 1186.9 524 1186.2 524.2 1185.5 524.4 1184.8 524.5 1184.2 524.4 1183.5 524.3 1182.9 524.1 1182.3 523.7 1181.6 523.3 1180.9 522.8 1180.2 522.2 1179.3 520.9 1177.5 519.8 1176.2 519.1 1175 518.7 1174.4 518.4 1173.8 518.2 1173.3 518.1 1172.8 518.1 1172.3 518.2 1171.8 518.4 1170.8 518.4 1169.9 518.2 1169 517.9 1168.2 517.4 1167.3 516.7 1166.3 515.9 1165.3 515.3 1164.3 514.6 1163.5 514.2 1163.2 513.8 1162.9 513.3 1162.6 512.8 1162.4 512.3 1162.3 511.7 1162.3 509.2 1162.3 506.9 1162.7 506.9 1162.7 506.9 1162.7 503.3 1164.7 501.3 1165.7 499.3 1166.7 497.2 1167.3 497.2 1167.3 497.2 1167.3 497.2 1166.8 496.9 1166.2 496.7 1166 496.5 1165.6 496.1 1165.4 495.8 1165.1 495.3 1164.9 494.7 1164.8 492.2 1164.3 488.7 1164.3 488.7 1164.3L486.7 1163.9C485.9 1162.2 485.2 1160.6 484.7 1159.1 484.1 1157.6 483.7 1156.1 483.6 1154.4 483.5 1152.9 483.6 1151.3 483.8 1149.5 483.9 1147.7 484.8 1145.1 485.2 1142.7 485.3 1141.4 485.4 1140.2 485.2 1139.1 485.1 1138.6 484.9 1138.1 484.7 1137.6 484.4 1137.1 484 1136.7 483.6 1136.4 483.1 1136 482.2 1135.5 481.1 1135.1 480 1134.7 478.8 1134.4 477.6 1134 475.1 1133.4 472.5 1132.9 471.3 1132.8 470 1132.7 468.6 1132.8 467.4 1132.9 466.1 1133.1 464.7 1133.3 463.3 1133.3 461.5 1133.4 459.6 1133.4 457.8 1133.3 456 1133.2 454.2 1133 452.3 1132.8L452.3 1132.6 452 1132.7C451.9 1132.7 451.8 1132.7 451.7 1132.7L451.7 1132.8 451.7 1132.8 450.7 1137.8C450.7 1137.8 449.7 1141.8 449.7 1143.8 449.7 1145.8 450.2 1148.3 450.2 1151.8 450.2 1152.7 450.4 1153.3 450.7 1153.7 451 1154.2 451.5 1154.5 451.9 1154.6 452.8 1154.9 453.7 1154.8 453.7 1154.8 453.7 1154.8 458.2 1155.8 460.2 1156.3 460.7 1156.4 461.1 1156.6 461.3 1157 461.6 1157.3 461.8 1157.6 461.9 1158.1 462.2 1159 462.2 1160.3 462.2 1161.8 462.2 1162.5 462 1163.2 461.8 1163.9 461.5 1164.5 461.2 1165.1 460.8 1165.7 460.1 1166.9 459.2 1168 458.7 1169.3 458.4 1169.9 457.7 1170.5 456.8 1171 456 1171.5 454.9 1171.9 453.8 1172.2 451.7 1172.9 449.7 1173.3 449.7 1173.3 449.7 1173.3 449.7 1176.8 450.2 1179.8 450.4 1181.3 450.3 1183.3 450.1 1185.2 449.8 1187.2 449.4 1189 449.2 1190.3 448.9 1191.5 448.6 1192.9 448 1194.4 447.4 1195.8 446.7 1197.3 445.7 1198.8 445.4 1199.2 445.3 1199.5 445.3 1199.7 445.4 1200 445.5 1200.2 445.7 1200.3 446.1 1200.6 446.9 1200.7 447.7 1200.7 449.3 1200.7 451.2 1200.3 451.2 1200.3 451.2 1200.3 452.8 1199 454.5 1197.5 455.3 1196.8 456.2 1196 456.9 1195.2 457.6 1194.5 458.1 1193.8 458.2 1193.3 458.3 1192.8 458.7 1192.5 459.2 1192.5 459.7 1192.4 460.3 1192.4 460.9 1192.5 462.1 1192.8 463.2 1193.3 463.2 1193.3L466.7 1197.3C466.7 1197.3 471.2 1200.3 473.2 1201.8 473.7 1202.2 474.1 1202.7 474.4 1203.3 474.7 1204 474.9 1204.7 474.9 1205.5 475 1206.3 474.9 1207.1 474.7 1207.9 474.5 1208.7 474.2 1209.5 473.7 1210.3 472.7 1211.8 472 1213.4 471.5 1214.8 470.9 1216.2 470.6 1217.3 470.2 1217.8 469.4 1218.8 467.9 1220.3 466.9 1221.3 466.4 1221.8 466.1 1222.4 465.9 1223 465.7 1223.7 465.7 1224.3 465.7 1224.8 465.7 1225.3 465.8 1226.3 466.1 1227.3 466.4 1228.4 466.8 1229.4 467.4 1230 467.7 1230.4 467.9 1230.7 468 1231.1 468.1 1231.5 468 1232 467.9 1232.4 467.7 1233.3 467.3 1234.2 466.9 1234.8 466.6 1235.4 466.4 1236.4 466.3 1237.4 466.1 1238.4 465.9 1239.4 465.4 1240.3 465.2 1240.7 464.8 1241.1 464.3 1241.3 463.9 1241.5 463.4 1241.7 462.8 1241.9 462.3 1242 461.8 1242.1 461.4 1242.3 461 1242.5 460.6 1242.7 460.4 1243 460.1 1243.7 459.3 1244.2 458.5 1244.6 457.6 1245 456.7 1245.3 455.9 1245.3 455.2 1245.3 454.4 1244.9 453.5 1244.5 452.6 1244.1 451.7 1243.7 450.7 1243.5 449.7 1243.4 448.8 1243.5 447.9 1243.5 447.5 1243.4 447 1243.3 446.6 1243.1 446.1 1242.9 445.7 1242.5 445.2 1242 444.7 1241.5 444.2 1241.2 443.7 1240.9 443.1 1240.7 442.6 1240.5 442.1 1240.5 441.1 1240.3 440.2 1240.4 439.4 1240.5 437.9 1240.8 435.4 1241.3 431.7 1241.8 430.7 1241.9 429.9 1241.9 429.1 1241.8 428.3 1241.6 427.6 1241.5 427 1241.2 425.9 1240.8 425.2 1240.3 425.2 1240.3 425.2 1240.3 422.4 1237.5 420.9 1236 420.2 1235.3 419.7 1234.6 419.3 1233.8 418.9 1232.9 418.6 1231.9 418.2 1230.5 418.1 1230.2 418 1230 417.8 1229.8 417.6 1229.6 417.4 1229.6 417.2 1229.6 416.8 1229.6 416.2 1229.9 415.6 1230.3 414.4 1231.2 412.8 1232.7 411.2 1233.8 409.6 1234.9 408.6 1235.3 407.8 1235.4 406.9 1235.5 406.2 1235.4 404.9 1235.5 404.3 1235.6 403.7 1235.8 403.2 1236.1 402.6 1236.4 402.1 1236.8 401.7 1237.3 400.9 1238.1 400.3 1239 400.2 1239.5 400.1 1240 399.1 1241.6 397.8 1243.3 396.5 1245 394.9 1246.8 393.7 1247.8 392.4 1248.8 391.6 1249.4 390.8 1249.8 390 1250.2 389.3 1250.3 388.4 1250.3 386.7 1250.3 382.2 1251 380.7 1251 379.2 1251 375.7 1252 373.2 1252.5 371.9 1252.8 370.7 1252.7 369.7 1252.5 368.6 1252.2 367.6 1251.9 366.7 1251.8 364.9 1251.5 362.7 1250.8 360.7 1249.8 359.7 1249.3 358.9 1249 358.2 1248.9 357.4 1248.8 356.8 1248.8 356.2 1248.8 355.6 1248.8 354.6 1248.6 353.6 1248.6 353.1 1248.7 352.5 1248.7 352 1248.9 351.5 1249.1 350.9 1249.4 350.4 1249.8 349.9 1250.2 349.5 1250.5 349 1250.6 348.5 1250.8 348.1 1250.8 347.7 1250.7 346.9 1250.6 346.2 1250.2 345.7 1249.8 345.2 1249.4 344.2 1249.3 343.3 1249.3 342.4 1249.4 341.4 1249.5 340.9 1249.8 340.4 1250 339.6 1250.4 338.6 1250.6 337.6 1250.9 336.6 1251 335.7 1251 334.8 1251 332.8 1251.7 331 1252.4 329.2 1253.1 327.7 1253.8 327.7 1253.8 327.7 1253.8 324.2 1256.8 321.9 1258.8 321.4 1259.3 320.5 1259.8 319.5 1260.2 318.4 1260.7 317.3 1261.1 316.1 1261.4 313.8 1262.1 311.6 1262.5 310.7 1262.5 309.8 1262.5 307.9 1263 306.1 1263.4 304.2 1263.9 302.4 1264.3 301.7 1264.3 300.2 1264.3 295.7 1265 293.7 1265 292.7 1265 290.9 1265.5 289.4 1265.9 288 1266.3 287 1266.7 286.8 1266.7 287.3 1267.9 287.5 1269.2 287.1 1270.2 286.7 1270.4 285.3 1272.4 284.9 1273L283.3 1273.6 280.3 1274.7C280.2 1274.7 277.4 1277.8 277.1 1278 277 1278.1 275.8 1278.4 275.6 1278.6L273.3 1280.2 269 1279.6 268.2 1280C268.1 1280.2 267.5 1282.5 267.5 1282.6 267.4 1282.7 265.2 1285.1 265 1285.4 264.8 1286.3 264.7 1287.6 264.4 1288.4 263.8 1290 261.5 1292.6 260.2 1293.6 259.2 1293.7 257 1294.2 256.3 1294.9L256.1 1295.6C253.6 1295.1 251.2 1294.6 248.7 1294 248.3 1293.1 247.2 1291.4 246.3 1290.9 246.1 1290.9 243.7 1290.8 243.7 1290.8 242.1 1290.1 239.7 1288.5 238.1 1287.6L230.7 1288.1 229.7 1287.6C228.6 1288.3 226.6 1288.7 225.3 1288.6L224.4 1289.3C222.3 1289.4 222.6 1289.1 220.6 1290.5L219.8 1291 219.9 1292 220 1294C219.9 1294.8 218.8 1296 218.1 1296.2 218.2 1296.8 218 1298.5 217.5 1298.9L214.4 1300.4C214.3 1300.6 213.4 1302.6 213.3 1302.7 213.3 1302.7 211.5 1304.1 211.3 1304.2L211.1 1304.9C211.9 1306.1 212.6 1307.2 213.1 1308.7L212.6 1309.6 210.2 1310.1 209.9 1311.2 210.4 1312.2 211.4 1314.3C212.2 1315.4 214.5 1316.1 214.7 1317.7 214.4 1318.7 214.4 1320.5 214.9 1321.4L215.6 1321.5 218.6 1319.9C218.8 1320.1 218.4 1325.1 218.4 1325.6 218.4 1329.5 218.6 1333.4 218.8 1337.3L220.5 1337.6 221.2 1337.2C223.7 1337.3 224.2 1337.3 225.9 1339.4L227.6 1341.5C228.8 1341.8 231 1339.6 232.2 1339L234.7 1339.3 237.1 1337.8 240 1341.4C241.2 1341.7 243.3 1340.1 244.1 1339.3 245.1 1339.8 247.2 1339.6 248.1 1339L248.7 1338 250.1 1337.5 250.3 1337.8 251.4 1338.1 251.6 1338.8C250.6 1340.5 249 1342.2 247.6 1343.5 246.9 1344.1 245.8 1344.8 245.2 1345.5 244.5 1346.3 244.2 1347.5 243.5 1348.3 242.8 1349.2 241.8 1350.1 240.9 1351 240.9 1351 240.2 1353.2 240.1 1353.4 237.8 1354.4 237.5 1355.3 237.1 1357.8 235.8 1359.5 234.6 1359.4 233.4 1360.3 231.7 1361.7 230 1363.4 228.4 1364.9 226.9 1366.3 225 1368.1 224.4 1370.2 224.1 1371 224.3 1372.1 224.1 1372.9 223.6 1374.7 221.5 1376 220.3 1377.2 219.8 1377.7 219.4 1378.3 219 1378.9 218.4 1379.6 218.5 1382.8 218.7 1383.7L218.1 1384.9 218.5 1386.1 218.1 1387.2C218.7 1388 218.8 1393.4 218.9 1394.6 219.6 1395.5 222 1398.4 223.1 1398.8L224.2 1398.8C224.3 1399.4 224.8 1400.4 225.3 1400.8L226.2 1399.3 227.1 1399.3C228.1 1400.3 228.9 1401.7 230.3 1402.2 230.5 1403.1 231.2 1404.9 231.9 1405.5L233.2 1407.6C233.8 1407.6 234.4 1407.4 234.8 1407 234.8 1407 236 1405.8 235.6 1406.2 236.5 1406.2 237.6 1406.4 238.4 1406.7 240.3 1407.5 241.3 1404.6 244.6 1404.5 246.1 1404.5 246.8 1402.6 247.6 1401.7 249.1 1400.8 249.1 1400.4 250.1 1399L250.8 1399.1 251.5 1399.1C252.6 1398.9 253.3 1397.9 254 1397.1L254.4 1396.5C257.2 1396.6 260.2 1393.1 258.2 1391.1 259 1390.3 259.4 1389.5 259.9 1388.5 261.8 1390 264.1 1390 265.4 1387.7 267.1 1387.8 267.7 1386.1 268.1 1384.8L268.9 1384.1 269.8 1383.4C270.5 1382.9 270.7 1382.7 271.1 1381.9L271.2 1381.6C273.5 1382.3 274.3 1380 274.6 1378.4 274.8 1377.6 274.9 1376.9 274.9 1376.9L274.9 1376.7 274.9 1376.4C275.9 1376.4 276.8 1375.9 277.3 1375 278 1375.2 279 1375.1 279.5 1374.8 286.9 1369.4 280.9 1370.5 283.4 1365.5L284 1364.2 284.2 1363.9C286.8 1367 289.8 1363.7 291.9 1361.5L292.2 1361.4 292.7 1361.6C294.7 1360.7 296.2 1360.7 298 1361.9L299 1361 299.8 1360.8C302.3 1361.9 306.7 1364.5 309.4 1363.6 309.9 1364.9 311.3 1368 312.3 1368.9L314 1369.5C314.2 1370.6 316.7 1373.4 317.5 1374 317.5 1374 320 1374.9 320.2 1375 320.9 1376.9 321.4 1377.1 322.8 1378.4 323.2 1378.8 323.7 1378.8 324.2 1379L325.6 1380.2 329.7 1380.2 332.6 1383.7C333.1 1384.3 334.9 1383.9 335.5 1383.9 337.3 1383.7 336.7 1384.1 338.1 1384.5 339.2 1384.7 342.9 1382.3 343.8 1381.5 345.2 1382.8 346.8 1383.5 348.5 1384.4 349.6 1385.1 354.5 1388 355.1 1388.6 355.9 1389.4 356.8 1390.4 357.5 1391.2 359 1393.1 358.2 1394.5 358.6 1396.5 358.7 1396.8 358.8 1396.9 359 1397.1 360.3 1399.5 360.9 1398.8 362.3 1400.3 362.5 1400.4 363 1401.8 363.2 1402 364.6 1403.5 366.5 1404.9 368.1 1406.3 369.8 1406.7 374 1406.6 375.7 1406.5 376.2 1406.4 377 1405.9 377.6 1405.9L379.2 1406 380.1 1406.1 382.1 1404.7 383.1 1404.7 385.1 1404.7C385.3 1404.6 389.2 1402.4 389.7 1402.2 390.6 1401.7 392.7 1401.9 393.7 1402.1 395 1401.5 396.2 1400.8 397.4 1400.1 397.7 1399.3 398.7 1398 399.4 1397.6 400 1397.3 400.8 1397.3 401.3 1397 402.8 1396.2 404.2 1395 405.6 1394L407.7 1394 408.4 1393.4C409.3 1394.1 410 1393.8 410.9 1394.1 412.3 1394.6 413.6 1395.3 415 1395.9 415.6 1396.7 415.9 1397.4 416.2 1398.4 416.6 1398.7 417.8 1398.8 418.4 1398.7L418.7 1400 419.3 1400.2 419.4 1401.4 420.6 1402 420.6 1403.3 423.6 1406.1 423.4 1408 423.9 1408.4 425.6 1408.8 426 1410.4 427.5 1410.9 428.2 1412.2C428.8 1411.8 430.1 1411.5 430.8 1411.7 432.2 1412.6 432.2 1414.7 432 1416 432.2 1416 433.9 1415 433.9 1415 434.9 1414.8 436.4 1414.9 437.3 1414.9L439.9 1412.6C440.9 1413 443.8 1414.2 444.5 1414.7L445.5 1415.8C445.7 1416 445.9 1416 446 1416.3L447.6 1420.7C448.5 1423.3 448.3 1422.3 448.2 1424.3L448.2 1425C447.8 1425.9 445.9 1427.1 445.1 1427.5 445 1427.6 444.7 1428.7 444.7 1428.7L446.7 1438.1C447.1 1440.1 451.5 1442.8 451.6 1444.2 451.8 1446.9 451.7 1449.9 452.2 1452.5 452.6 1454 452.8 1456.5 453.3 1457.9 453.5 1458.4 453.7 1458.6 454 1459L455.3 1461.1C456.3 1462.4 457.6 1463.5 458.5 1464.7 458.6 1464.8 459.3 1466.3 459.3 1466.5 459.4 1466.5 459.4 1466.6 459.4 1466.7L459.7 1468.6z" stroke="black" stroke-width="1" fill="transparent"/>
</svg>