<svg xmlns="http://www.w3.org/2000/svg" viewBox="352.4 471.2 189.30000000000007 378.59999999999997">
  <path d="M493.7 632.3L489.2 623.8C489.2 623.8 486.7 622.3 484.2 620.8 483.6 620.4 482.9 620.2 482.2 620.1 481.6 620.1 480.9 620.1 480.2 620.1 479.6 620.1 478.9 620.2 478.3 620.2 477.7 620.1 477.2 620 476.7 619.8 476.2 619.5 475.8 618.8 475.4 618 475.1 617.1 474.9 616 474.7 614.9 474.3 612.8 474.2 610.8 474.2 610.8 474.2 610.8 472.7 600.8 472.7 598.8 472.7 597.8 472.6 596.8 472.3 595.7 472.1 594.7 471.7 593.5 471.2 592.3 470.9 591.7 470.8 590.9 470.7 590.1 470.7 589.4 470.7 588.6 470.8 587.9 470.9 586.4 471.2 585.3 471.2 585.3 471.2 585.3 474.2 581.3 476.7 578.8 477.9 577.5 478.7 576.7 479.5 575.9 480.3 575.2 481.2 574.5 482.7 573.8 484.2 573 485.3 572.3 486.4 571.5 487.4 570.8 488.4 570 489.7 569.3 490.9 568.5 491.8 567.5 492.4 566.7 492.9 565.9 493.2 565.3 493.2 565.3 493.2 565.3 494.3 563.7 495.5 561.7 496.1 560.7 496.7 559.6 497.2 558.5 497.7 557.5 498.1 556.5 498.2 555.8 498.3 555 498.5 554.4 498.8 553.9 499.1 553.3 499.5 552.9 499.9 552.5 500.8 551.7 501.9 551 503.2 550.3 504.4 549.5 505.4 549.3 506.1 548.9 506.5 548.6 506.7 548.4 506.9 548 507.1 547.6 507.2 547 507.2 546.3 507.2 544.8 506.8 542.4 506.9 540.3 506.9 539.2 507.1 538.2 507.4 537.4 507.6 537 507.8 536.7 508.1 536.4 508.4 536.1 508.7 535.9 509.2 535.8 512.7 534.8 515.7 533.8 515.7 533.8 515.7 533.8 517.2 533 518.5 531.9 519.2 531.4 519.8 530.7 520.1 530 520.3 529.6 520.4 529.3 520.4 528.9 520.5 528.6 520.4 528.2 520.2 527.8 519.4 526.3 519.1 525.3 519.1 524.5 519.2 524.2 519.3 523.9 519.6 523.6 519.8 523.3 520.2 523 520.7 522.8 521.2 522.5 521.8 522 522.4 521.4 523 520.8 523.6 520.1 524.2 519.4 525.3 518 526.2 516.8 526.2 516.8 526.2 516.8 527.3 514.7 528.4 512 529 510.7 529.5 509.3 530 507.9 530.4 506.6 530.7 505.3 530.7 504.3 530.7 502.3 530.6 500.2 530.7 498.3 530.8 497.4 531 496.5 531.3 495.7 531.6 494.9 532.1 494.3 532.7 493.8 533.9 492.8 535.1 491.4 535.9 490.3 536.7 489.2 537.2 488.3 537.2 488.3L541.7 480.3C541.7 480.3 540.9 478.5 539.9 476.6 539.3 475.6 538.7 474.6 538.1 473.8 537.5 472.9 536.8 472.2 536.2 471.8 535.6 471.4 534.9 471.3 534.2 471.2 533.2 471.2 532.2 471.5 531.4 471.7 530.7 472 530.2 472.3 530.2 472.3 530.2 472.3 529.4 473.2 528.6 474.3 527.7 475.4 526.7 476.8 526.2 477.8 525.7 478.8 524.8 479.7 523.6 480.5 522.4 481.3 520.9 482 519.2 482.8 518.3 483.2 517.7 483.7 517.2 484.2 516.7 484.8 516.3 485.5 516.1 486.2 515.6 487.5 515.4 489 515.2 490.3 515.1 490.9 514.7 491.5 514.2 492 513.8 492.5 513.2 492.9 512.5 493.2 511.2 493.9 509.7 494.3 508.7 494.3 507.7 494.3 506.2 494.7 504.7 495.2 503.2 495.8 501.7 496.5 500.7 497.3 499.7 498 497.8 500.2 496.2 502.1 494.6 504 493.2 505.8 493.2 505.8 492.6 506.7 491.8 507.2 491.1 507.6 490.3 508 489.5 508.2 488.7 508.3 487.2 508.4 485.7 508 484.7 507.8 482.7 507.3 481.7 506.8 476.2 504.3 474.8 503.7 474 503.1 473.5 502.6 473 502.1 472.8 501.7 472.9 501.4 472.9 501 473.1 500.8 473.3 500.6 473.5 500.4 473.7 500.3 473.7 500.3 473.7 500.3 474.6 499.3 475.6 498 476.7 496.7 477.9 495 478.7 493.8 479.1 493.2 479.3 492.5 479.5 491.9 479.7 491.2 479.8 490.6 479.8 489.9 479.8 488.5 479.4 487 478.7 485.3 478.3 484.4 478.1 483.6 477.9 482.8 477.7 482 477.7 481.2 477.7 480.4 477.7 478.9 477.9 477.5 478.2 476.3 478.3 475.7 478.3 475 478.1 474.5 477.9 473.9 477.6 473.5 477.2 473.1 476.7 472.8 476.2 472.6 475.5 472.6 474.8 472.6 474.1 472.8 473.2 473.3 472.3 473.8 471.5 474.1 470.8 474.2 470.1 474.3 469.4 474.4 468.9 474.3 467.8 474.2 467.2 473.8 467.2 473.8 467.2 473.8 463.7 473.3 461.2 473.3 459.9 473.3 459.2 473.4 458.5 473.7 457.8 474 457.2 474.5 456.2 475.3 455.2 476 453.9 476.4 452.9 476.6 451.9 476.8 451.2 476.8 451.2 476.8L445.2 475.8 443.7 479.8C443.7 479.8 443.8 480.7 444.2 481.8 444.4 482.4 444.6 483 444.9 483.6 445.3 484.2 445.7 484.8 446.2 485.3 446.7 485.8 447 486.3 447.2 486.8 447.3 487.2 447.3 487.7 447.2 488.2 447.1 488.6 446.8 489 446.5 489.4 446.1 489.7 445.7 490 445.2 490.3 444.7 490.5 444.2 491 443.9 491.4 443.5 491.9 443.2 492.4 442.9 492.9 442.4 493.9 442.2 494.8 442.2 494.8 442.2 494.8 442.2 495.9 441.9 497.2 441.8 497.9 441.6 498.6 441.3 499.2 441.1 499.9 440.7 500.4 440.2 500.8 438.2 502.3 435.2 505.3 435.2 505.3 435.2 505.3 434.2 514.8 433.7 517.3 433.6 517.9 433.3 518.4 432.9 518.8 432.5 519.1 431.9 519.3 431.3 519.3 430.7 519.3 430 519.1 429.2 518.7 428.4 518.3 427.6 517.7 426.7 516.8 425.8 515.9 425.2 515.6 424.7 515.6 424.2 515.6 423.8 516 423.6 516.5 423.1 517.5 422.9 519.3 422.7 520.3 422.4 521.3 422.6 524.2 422.7 527.1 422.9 530 423.2 533 423.2 534.3 423.2 536.8 422.7 542.3 422.7 542.3L419.2 549.8 426.7 548.8 431.2 547.3C431.2 547.3 431.7 546.7 432.4 546 432.8 545.7 433.2 545.4 433.7 545.2 434.2 544.9 434.7 544.8 435.2 544.8 436.2 544.8 437.7 544.9 439.2 545.2 440.8 545.5 442.4 546 443.7 546.8 444.3 547.2 444.6 547.7 444.8 548.4 445 549 445 549.7 444.9 550.4 444.7 551.7 444.2 552.8 444.2 552.8L440.7 562.8C440.3 563.7 440.2 564.4 440.3 565.1 440.4 565.8 440.7 566.4 441 567 441.3 567.7 441.8 568.3 442.2 569 442.6 569.7 442.9 570.4 443.2 571.3 443.4 572.2 443.5 573 443.5 573.9 443.5 574.7 443.3 575.6 443 576.4 442.7 577.2 442.3 578 441.8 578.7 441.4 579.5 440.8 580.2 440.2 580.8 439.6 581.4 439.2 582.1 438.9 582.9 438.6 583.6 438.5 584.4 438.5 585.2 438.4 586.9 438.7 588.8 438.7 590.8 438.7 591.8 438.3 592.7 437.8 593.5 437.2 594.3 436.5 595 435.6 595.7 433.9 596.9 431.9 597.8 430.7 598.3 429.4 598.8 428.1 599 426.5 599.2 424.9 599.3 423.2 599.3 421.2 599.3 420.2 599.3 419.1 599.7 417.9 600.3 416.8 600.9 415.7 601.7 414.7 602.5 412.7 604.2 411.2 605.8 411.2 605.8 411.2 605.8 410.3 607.2 408.9 608.7 408.2 609.4 407.4 610.2 406.5 610.9 405.6 611.5 404.7 612 403.7 612.3 402.7 612.5 402 612.9 401.4 613.4 400.8 613.9 400.4 614.5 400.1 615 399.7 615.6 399.3 616.2 398.9 616.6 398.5 617.1 397.9 617.5 397.2 617.8 396.4 618 395.9 618.3 395.5 618.6 395.1 618.8 394.9 619.1 394.7 619.5 394.4 620.2 394.4 621 394.2 622.3 394.1 622.9 393.8 623.4 393.4 623.8 393.1 624.2 392.6 624.6 392 624.9 390.8 625.4 389.2 625.8 387.2 626.3 386.2 626.5 385.4 626.9 384.8 627.3 384.3 627.7 383.9 628.2 383.6 628.7 382.9 629.8 382.7 631 382.2 632.3 381.7 633.5 381.6 634.8 381.4 636 381.3 636.6 381.2 637.1 381 637.7 380.8 638.3 380.6 638.8 380.2 639.3 378.7 641.3 372.2 653.3 370.2 656.3 368.2 659.3 366.2 664.3 364.2 667.3 363.2 668.8 361.1 673.5 359 678.4 356.9 683.3 354.9 688.3 354.2 690.3 353.8 691.3 353.5 692.6 353.4 694.1 353.2 695.6 353.1 697.3 353.1 698.9 352.9 702.2 352.9 705.3 352.7 706.8 352.4 708.3 352.2 709.5 352.4 710.9 352.5 711.6 352.7 712.3 353 713.1 353.4 713.9 353.9 714.8 354.7 715.8 355.4 716.8 355.9 717.7 356.2 718.4 356.5 719.2 356.6 719.9 356.6 720.4 356.5 721 356.3 721.4 355.9 721.8 355.6 722.2 355.2 722.5 354.7 722.8 354.2 723 353.9 723.3 353.7 723.6 353.5 724 353.4 724.3 353.4 724.7 353.4 725.4 353.7 726.3 353.7 727.3 353.7 728.3 353.6 730.2 353.9 732 354 733 354.3 733.9 354.7 734.7 355.2 735.6 355.8 736.3 356.7 736.8 357.6 737.3 358.4 737.9 359.2 738.6 360 739.3 360.7 740.1 361.3 741 361.9 741.8 362.3 742.7 362.4 743.6 362.6 744.5 362.6 745.4 362.2 746.3 361.8 747.2 361.7 747.9 361.9 748.5 362.1 749.2 362.5 749.7 363 750.1 363.5 750.5 364.2 750.8 364.9 751 365.7 751.2 366.4 751.3 367.2 751.3 367.9 751.3 368.8 751.5 369.7 751.9 370.6 752.3 371.6 752.9 372.6 753.4 374.4 754.5 376.2 755.8 377.2 756.3 378.2 756.8 379.4 757.9 380.6 759.2 381.7 760.5 382.7 762 383.2 763.3 384.2 765.8 386.2 768.8 386.2 768.8 386.2 768.8 386.6 771.9 387.7 775.4 388.2 777.2 389 779 390 780.6 390.5 781.4 391 782.1 391.7 782.8 392.3 783.4 392.9 783.9 393.7 784.3 395.2 785 396.5 786 397.6 787 398.7 787.9 399.7 789 400.4 789.9 401.9 791.8 402.7 793.3 402.7 793.3 402.7 793.3 403.9 794.5 405.9 795.5 406.8 796 408 796.3 409.2 796.5 409.8 796.5 410.5 796.5 411.2 796.4 411.8 796.3 412.5 796.1 413.2 795.8 414.6 795.2 416.2 794.6 417.9 794.1 419.6 793.6 421.4 793.1 423.1 792.7 424.7 792.2 426.3 791.8 427.7 791.4 429 791 430.1 790.7 430.7 790.3 431.3 789.9 432.1 789.6 432.9 789.3 433.7 789 434.7 788.9 435.6 788.8 436.6 788.7 437.6 788.8 438.6 789 439.6 789.2 440.7 789.7 441.7 790.3 443.7 791.5 445.7 793.3 447.4 795 449.1 796.7 450.4 798.3 451.2 799.3 451.9 800.3 452.2 801.2 452.9 801.8 453.3 802.1 453.8 802.3 454.6 802.5 455.3 802.7 456.3 802.8 457.7 802.8 459.1 802.8 460 802.9 460.8 803.1 461.5 803.4 462 803.7 462.3 804.1 462.6 804.5 462.8 805 462.9 805.5 463 806.1 463.1 806.7 463.2 807.3 463.3 807.9 463.5 808.4 463.8 808.7 464.1 809.1 464.5 809.3 465 809.5 465.9 809.8 467.2 809.8 468.7 809.8 469.4 809.8 470 809.9 470.4 810.1 470.9 810.4 471.2 810.7 471.6 811.1 472.2 811.9 472.7 813 473.7 814.3 474.7 815.5 475.6 816.9 476.2 818 476.8 819 477.2 819.8 477.2 819.8L480.1 826.3C480.1 826.3 480.8 828.1 481.8 830 482.8 831.9 483.9 834 484.7 834.6 485.4 835.2 486.8 836.4 488.2 837.5 489.7 838.7 491.2 839.8 492.2 840.3 493.2 840.8 493.7 841.4 494.2 841.7 494.5 841.8 494.8 841.8 495.2 841.7 495.6 841.6 496.1 841.3 496.7 840.8 497.3 840.3 497.9 840 498.5 840 499.1 839.9 499.7 839.9 500.1 840 501.1 840.3 501.7 840.8 501.7 840.8L505.2 844.8 511.7 849.8C511.7 849.8 511.8 848.5 511.7 847 511.6 846.3 511.5 845.5 511.2 844.7 511 844 510.7 843.3 510.2 842.8 509.7 842.3 509.4 841.9 509.4 841.5 509.3 841.1 509.4 840.8 509.7 840.5 510.2 839.8 511.2 839 512.2 837.8 512.7 837.2 512.9 836.7 512.9 836.2 512.9 835.8 512.7 835.5 512.4 835.1 511.7 834.4 510.4 833.8 509.2 832.8 507.9 831.8 507.3 831.2 507 830.4 506.7 829.5 506.7 828.5 506.7 826.8 506.7 825.9 506.6 825.3 506.5 824.9 506.4 824.5 506.2 824.2 505.9 823.9 505.3 823.4 504.4 823 503.2 821.8 502.6 821.2 502.2 820.5 502.1 819.8 502 819.1 502.1 818.5 502.2 817.9 502.6 816.7 503.2 815.8 503.2 815.8 503.2 815.8 502.2 813.8 500.7 811.8 500.3 811.3 500 810.8 499.8 810.3 499.6 809.8 499.4 809.3 499.4 808.7 499.4 808.2 499.6 807.6 499.8 807.1 500.1 806.5 500.6 805.9 501.2 805.3 501.8 804.7 502.3 804.1 502.6 803.4 502.9 802.8 503 802.1 503.1 801.5 503.3 800.2 503.2 798.8 503.2 797.3 503.2 795.8 502.9 794 502.9 792.4 502.9 791.6 503 790.8 503.2 790.1 503.4 789.4 503.7 788.8 504.2 788.3 504.7 787.8 505 787.2 505.2 786.6 505.5 786 505.6 785.4 505.6 784.8 505.6 783.5 505.2 782.3 504.7 781.3 504.2 780.3 503.9 778.7 503.8 777.3 503.7 775.9 503.7 774.8 503.7 774.8 503.7 774.8 502.9 773.5 502.5 772 502.3 771.2 502.1 770.3 502.2 769.5 502.3 768.7 502.6 767.9 503.2 767.3 505.7 764.8 507.7 762.8 507.7 762.8 507.7 762.8 508.7 762.2 509.2 761.4 509.4 761 509.6 760.6 509.4 760.3 509.2 759.9 508.7 759.5 507.7 759.3 505.7 758.8 504.2 758.3 503.1 757.6 502.6 757.3 502.2 756.9 501.8 756.4 501.5 756 501.3 755.4 501.2 754.8 500.7 752.3 499.7 749.8 499.2 747.8 499.1 747.3 498.7 746.7 498.3 746.2 497.9 745.6 497.5 745 497 744.5 496.1 743.5 495.2 742.8 495.2 742.8 495.2 742.8 495.4 742 495.2 741.1 495.2 740.6 495 740.1 494.6 739.6 494.2 739.1 493.6 738.7 492.7 738.3 490.9 737.5 490.1 737.4 489.2 737.4 488.4 737.3 487.7 737.3 486.2 736.8 485.4 736.5 484.6 736.2 483.8 735.9 483 735.5 482.3 735.1 481.9 734.7 481.4 734.2 481.2 733.7 481.3 733.3 481.5 732.8 482.1 732.3 483.2 731.8 484.3 731.3 485.2 730.7 485.8 730 486.5 729.3 487.1 728.6 487.6 728 488.1 727.3 488.5 726.7 489.1 726.2 489.7 725.8 490.3 725.4 491.2 725.3 492.9 725 494.3 724.5 495.4 723.9 496.4 723.2 497.2 722.3 497.7 721.3 498.2 720.3 499.6 718.5 500.8 717 502.1 715.5 503.2 714.3 503.2 714.3 503.2 714.3 503.6 713.8 503.6 713.1 503.6 712.8 503.5 712.4 503.2 712 502.9 711.6 502.4 711.2 501.7 710.8 498.7 709.3 493.2 706.3 493.2 706.3 493.2 706.3 492.1 706.7 490.8 706.6 490.2 706.6 489.5 706.4 489 706.1 488.4 705.7 487.9 705.2 487.7 704.3 487.4 703.4 487 702.7 486.5 702.2 486 701.7 485.4 701.2 484.8 700.8 484.2 700.4 483.7 699.9 483.3 699.4 482.9 698.8 482.7 698.2 482.7 697.3 482.7 696.4 482.5 695.6 482.2 694.8 482 694 481.7 693.2 481.4 692.4 481.2 691.7 481 691 481 690.3 481 689.6 481.2 688.9 481.7 688.3 482.7 687 483.4 685.9 483.9 684.8 484.1 684.2 484.2 683.7 484.3 683.1 484.3 682.5 484.3 681.9 484.2 681.3 483.9 680 483.3 678.7 483.1 677.5 483 676.9 483.1 676.3 483.3 675.9 483.5 675.4 483.9 675 484.7 674.8 485.4 674.5 485.9 674.1 486.2 673.6 486.6 673.1 486.7 672.5 486.7 671.7 486.8 670.3 486.4 668.5 486.2 666.8 485.9 665 485.4 663 485 661.5 484.6 659.9 484.2 658.8 484.2 658.8 484.2 658.8 483.8 657.9 483.1 657 482.8 656.6 482.4 656.2 481.9 655.8 481.4 655.5 480.8 655.3 480.2 655.3 479.6 655.3 479.1 655.5 478.6 655.7 478.2 655.9 477.8 656.3 477.5 656.6 477.2 657 476.8 657.3 476.5 657.6 476.1 657.9 475.7 658.2 475.2 658.3 473.2 658.8 469.2 658.8 469.2 658.8 469.2 658.8 468.3 658.2 467.9 657.2 467.7 656.7 467.7 656.1 467.9 655.4 468.1 654.8 468.7 654 469.7 653.3 471.7 651.8 473.3 650.3 474.6 648.9 475.8 647.5 476.7 646.3 477.2 645.3 478.2 643.3 482.2 637.8 482.2 637.8 482.2 637.8 482.2 637 482.6 636.2 482.7 635.7 483 635.2 483.4 634.8 483.9 634.4 484.4 634 485.2 633.8 486.7 633.3 488.8 632.9 490.6 632.7 492.3 632.4 493.7 632.3 493.7 632.3z" stroke="black" stroke-width="1" fill="transparent"/>
</svg>