<svg xmlns="http://www.w3.org/2000/svg" viewBox="109 253.3 358.6 492.99999999999994">
  <path d="M377.3 253.3C376.7 253.3 375.9 253.5 374.2 254.3 373.3 254.7 372.6 255.1 372 255.5 371.4 256 371 256.5 370.7 257 370.4 257.5 370.2 258.1 370.1 258.7 370 259.4 370.1 260 370.2 260.8 370.7 263.8 370.7 269.3 370.7 269.3 370.7 269.3 369.9 270.7 368.9 271.9 368.3 272.5 367.7 273 367.1 273.3 366.8 273.4 366.5 273.5 366.2 273.5 365.8 273.6 365.5 273.5 365.2 273.3 363.9 272.5 362.3 272 361 271.7 359.7 271.4 358.7 271.3 358.7 271.3L353.2 272.3C353.2 272.3 351.6 272.5 349.8 273.2 348.9 273.6 348 274 347.3 274.6 346.5 275.2 345.9 275.9 345.7 276.8 345.2 278.5 345.1 279.9 344.7 281 344.6 281.5 344.4 282 344.1 282.4 343.7 282.7 343.3 283 342.7 283.3 342.1 283.5 341.6 284.1 341.1 284.6 340.7 285.2 340.3 285.9 340 286.5 339.7 287.1 339.3 287.6 339 287.9 338.8 288 338.6 288.1 338.4 288.1 338.2 288.1 337.9 288 337.7 287.8 336.7 287 336.1 286.3 335.2 285.8 334.7 285.5 334.2 285.4 333.6 285.3 333 285.2 332.2 285.2 331.2 285.3 329.2 285.5 327.3 286 325.9 286 325.2 286 324.7 285.9 324.3 285.6 323.9 285.2 323.7 284.7 323.7 283.8 323.7 282 323.9 279.5 324.2 277.5 324.4 275.4 324.7 273.8 324.7 273.8 324.7 273.8 324.7 272.5 324.6 271 324.4 269.5 324.2 267.8 323.7 266.8 323.2 265.8 322.2 264.7 321.3 263.8 320.4 262.9 319.7 262.3 319.7 262.3L318.8 262.9C318.8 262.9 318.7 263 318.7 263L318.7 262.9 316.3 260.3 315.4 260.2C313.6 261.7 314.9 263.2 315 265 315 265.2 314.9 265.3 314.9 265.4 314.8 266 314.6 266.7 314.6 267.4 314.6 269.3 315.1 271.1 315.2 272.9 315.2 273.8 315 274.8 315.1 275.7 315.3 277.4 316.4 279.6 316.3 281.2 316.2 284.5 315.6 288.1 315.8 291.4 316 293 316.9 294.5 317 296.2 317 297.8 316.8 299.4 316.7 301L316.2 310.5C316.1 312.4 314.7 314.4 314.3 316.3 314 317.8 314 319.4 313.6 320.9 312.6 324.1 310.9 327.7 309.7 330.8 309.2 332.2 307.8 335.4 306.8 336.3 306.1 336.3 305.3 336.4 304.6 336.5 303 336.7 302.2 341.7 301.6 342.7 300.8 344.1 299.3 345.3 298.2 346.5L295.7 350C293.3 353.4 291.1 357.1 288.1 360 286.5 361.6 284.6 363.2 282.7 364.5 281.9 365.2 280.5 365.9 279.9 366.6L271.9 375.6C270.3 377.4 269.5 378.4 267.9 380.1 266.6 381.3 262.8 384 261.2 385.2 261.1 385.3 260.8 385.4 260.7 385.5 257.3 387.3 254.1 389.3 250.8 391.3 250.1 391.7 248.1 391.3 247.5 390.9 246.8 389.9 245.8 388.6 244.8 388 243.3 391.5 240.6 398 236.6 399.6 235.4 400.1 232.4 401 231.6 402 231 403.1 231.4 404 231.1 405 230.7 406.3 229.9 407.5 229.6 408.7 228.5 412.4 228.2 416.2 226.5 419.7 226.2 420 222.5 422.7 222.4 422.8 222.3 423 221 426 220.8 426.4 219.9 428 214.4 433.7 212.6 433.8 211.7 433.9 210.6 433.6 209.7 433.5 208.4 434.3 207.9 438.3 208 439.5L208.4 442C208.8 443.2 209.8 444.4 210.1 445.6 210.3 446.5 210.9 450.9 211.7 451.4 213.3 452.6 215.8 454 216.3 456.2 218.1 463.6 220 471.1 220.9 478.7 222.2 479.9 223.8 481.1 225 482.5 225.7 483.3 227.5 486.7 227.7 487.7 227.9 488.5 227.8 489.8 227.9 490.6 228.6 491.3 229.6 492.1 230.1 492.8 231.2 494.2 231.7 497.6 233.7 498.2L234.4 498.5C240.5 497.4 243.1 496.5 248.9 499L252.5 500.7 251.5 501.8C248.8 502.7 246.7 499.7 244.2 500.3L243 501.4C243 502 242.8 503.2 242.3 503.5 241.8 502.6 241 502 240.2 501.4 238.4 500.1 237.8 501.4 236.3 502.4 236.3 502.4 235.5 502.7 235.4 502.7 235.4 502.7 235.2 502.8 235.2 502.8L233.2 502.5C233.1 502.3 231.8 501.1 231.8 501.1 231.7 501 229.7 500.6 229.5 500.5 228.7 499.9 227.8 498.7 227.5 497.7 225.6 497.1 224.5 495.2 224.4 493.3 224.3 492.3 224.9 489.1 225.1 488L224.8 487.6 222.7 487.8 222.1 488.5C220.3 490.3 220.9 489.5 219 490.5L218 491.3C217.5 491.9 217.2 492.6 216.8 493.2 216.3 493.8 215.3 494.5 214.9 495.2 213.7 497.3 211.9 501.1 210.9 503.4 210.4 504.5 210 505.9 209.7 507 208.6 510.2 207.6 514.1 206.4 517.2 206.2 517.7 205.9 518 205.6 518.5 204.6 520.1 203.5 521.8 203.1 523.6 202 528.6 200.9 533.6 199.9 538.6 199.1 542.8 198.3 546.9 196.6 550.9L195.2 553.6C192.8 558.2 189.6 562 185.4 565L183.4 566.5C182.7 566.8 182.3 567 181.6 567.3 178 568.8 174.8 570.5 171.1 568.3 170.7 567.5 169.1 565.3 168.1 565.3 165.4 565.6 163.5 567.6 161.2 568.5 159.2 569.2 157.2 569.7 155.2 570.4 155.1 570.4 154.6 570.4 154.5 570.4 153.5 568.8 151.9 567.2 149.9 567.8 149.2 568 148.6 568.5 147.9 568.7 146 569.2 143.8 569.4 141.9 570.1 140.6 570.6 139.3 571.6 138 572.2 136.9 572.7 134.2 573.3 133 573.1L131.8 572.3C131 572.2 128.1 572.4 127.6 573.2 126.4 575 125 577.6 123.6 579.3L120.9 581.8 119.5 583.1 118.5 586.8C117.2 587.9 115.8 589.1 114.4 590.1 113.9 590.4 113.1 590.7 112.6 591 112.6 591 112.4 591 112.4 591.1 112.1 591.4 111.6 591.8 111.4 592.2 110.7 593.4 110.4 594.8 109.1 595.7L109 596.6C110 599.1 111.1 601.7 112 604.2 112.7 606 112.9 607.9 113.6 609.6L115.9 615.2C117 617.8 118 620.8 119.3 623.3L122.7 629.5C123.4 630.7 123.7 631.4 124.5 632.6L128 637.1C131.8 642 135.7 646.8 139.8 651.5L144.9 657.4C145.7 658.4 147.9 662.6 148.5 663.8 148.9 664.5 149.9 667.6 149.8 668.5 149.6 671 147.3 672.9 145.7 674.8 144.7 676 148.2 682.1 147.1 684 146.2 685.5 143.8 684.7 143.5 687.3 143.8 688.6 144.3 690.1 144.4 691.3 144.4 691.4 144 692.7 144 692.8 143.3 695.9 141.3 697.6 138 696.4L137.4 696.9C137.2 697.4 137.3 698.4 137.5 698.9L137 700 135 700.2C133.5 700.9 133.5 703.4 131.5 704.2 131.5 704.3 131.3 705.3 131.3 705.4 131.7 707.9 133.3 711.8 132.3 714.4L131 715.7C130.1 715.8 128.6 715.7 127.7 716 127.1 716.2 125.4 717.5 125.2 718.3 125 719.4 125.2 720.9 124.8 722 124.8 722.1 123.1 724.8 123 725 123.8 726.2 125.4 729.8 124.6 731.2 125.3 731.5 126.1 731.9 126.6 732.6 127.2 733.5 128.2 734.6 128.6 735.6 129 736.4 129.1 736.9 129.4 737.8 130.1 739.8 130.9 741.8 131.6 743.9L131.7 743.8 138.7 741.8C138.7 741.8 139.6 741.2 141 740.8 141.7 740.6 142.6 740.5 143.5 740.5 144.5 740.6 145.6 740.8 146.7 741.3 147.2 741.5 147.8 741.7 148.4 741.8 148.9 741.8 149.5 741.8 150.1 741.8 151.2 741.6 152.3 741.3 153.4 740.9 154.5 740.5 155.5 740.1 156.6 739.9 157.6 739.6 158.7 739.5 159.7 739.8 160.7 740 161.8 740.2 162.9 740.3 164 740.4 165.2 740.5 166.2 740.4 167.3 740.3 168.4 740.1 169.3 739.7 170.2 739.4 171.1 738.9 171.7 738.3 172.3 737.7 173 737.2 173.7 736.9 174.4 736.6 175.1 736.4 175.8 736.4 176.5 736.4 177.1 736.6 177.7 736.9 178.3 737.2 178.8 737.7 179.2 738.3 179.4 738.7 179.8 739.1 180.2 739.3 180.7 739.6 181.2 739.8 181.8 739.9 183 740.2 184.3 740.3 185.7 740.3L185.7 740.3C187 740.3 188.2 740.3 189.2 740.3 192.2 740.3 199.2 740.8 199.2 740.8 199.2 740.8 199.9 741.4 201.1 742.2 202.2 743 203.7 744 205.2 744.8 205.9 745.2 206.6 745.4 207.2 745.4 207.8 745.5 208.3 745.4 208.9 745.3 209.9 745 210.9 744.5 212.2 744.3 213.4 744 215.8 743.9 218.1 743.9 220.4 743.8 222.7 743.8 223.7 743.8 225.7 743.8 233.2 742.3 236.2 741.8 237.7 741.5 238.8 741.7 239.9 741.9 240.9 742 241.9 742.3 243.2 742.3 244.4 742.3 245.7 742.4 246.9 742.8 247.5 743 248 743.2 248.6 743.5 249.1 743.9 249.7 744.3 250.2 744.8 250.7 745.3 251.4 745.6 252.3 745.9 253.1 746.1 254.1 746.2 254.9 746.3 256.7 746.4 258.2 746.3 258.2 746.3 258.2 746.3 258.9 745.7 259.9 745 260.9 744.3 262.2 743.5 263.2 743.3 264.2 743 265.9 743.2 267.7 743.4 269.4 743.5 271.2 743.8 272.2 743.8 272.4 743.8 272.6 743.7 272.7 743.5 272.9 743.3 272.9 743 272.9 742.7 273 742 272.9 741.2 272.7 740.3 272.3 738.5 271.7 736.8 271.7 736.8L271.2 730.3C271.2 730.3 270.7 725.8 270.7 722.8 270.7 721.3 270.9 720 271.2 719 271.4 718 271.7 717.4 271.7 717.4 271.7 717.4 272.8 716.9 274.1 716.1 275.4 715.3 276.9 714.2 277.7 713.3 278.6 712.3 279.8 710.9 280.6 709.6 281 709 281.2 708.3 281.2 707.7 281.3 707.2 281.1 706.7 280.5 706.4 279.4 705.7 278 704.8 277 703.7 276.5 703.2 276.2 702.6 276 702 275.9 701.4 276 700.7 276.4 700 277.2 698.7 277.7 697.5 278 696.1 278.3 694.8 278.3 693.3 278.3 691.2 278.3 689.1 278.1 687.1 278.2 685.4 278.3 684.5 278.4 683.7 278.7 683 279 682.3 279.4 681.7 280 681.3 281.2 680.3 283.4 679.4 285.4 678.3 286.4 677.8 287.3 677.3 288 676.7 288.7 676.2 289.2 675.6 289.4 675 289.5 674.3 289.4 673.6 289.2 672.8 288.9 671.9 288.5 671.1 288.2 670.2 287.8 669.3 287.5 668.3 287.3 667.5 287.2 666.6 287.2 665.7 287.4 665 288 663.5 288.7 661.3 289.5 659.5 290 658.6 290.4 657.8 290.9 657.2 291.5 656.6 292 656.2 292.7 656.2 293.9 656 296 656.2 298.2 656.1 299.2 656 300.3 655.8 301.4 655.5 302.4 655.1 303.4 654.5 304.2 653.7 305.1 652.9 306.1 652.2 307.2 651.6 308.2 651 309.3 650.5 310.3 650 311.4 649.5 312.3 649 313.1 648.5 313.9 647.9 314.4 647.4 314.7 646.8 315.2 645.5 315.7 644.4 316.4 643.5 316.7 643 317.1 642.6 317.6 642.2 318 641.9 318.6 641.5 319.2 641.3 320.4 640.8 321.4 640.3 322.1 639.5 322.5 639.2 322.7 638.7 322.9 638.2 323.1 637.7 323.2 637 323.2 636.3 323.2 634.8 322.9 633.3 322.9 631.9 322.9 631.2 323 630.6 323.2 630 323.4 629.3 323.7 628.8 324.2 628.3 325.2 627.3 326.1 626.5 326.7 625.7 327 625.3 327.2 624.9 327.4 624.4 327.6 623.9 327.7 623.4 327.7 622.8 327.7 620.3 327.2 614.8 327.2 614.8 327.2 614.8 328.3 614.9 329.8 615.2 331.3 615.4 333.2 615.8 334.7 616.3 335.4 616.5 336.4 616.6 337.4 616.7 338.4 616.7 339.5 616.6 340.5 616.5 342.4 616.3 344 616 344 616 344.1 614.8 344.4 613.9 344.8 613.1 345.3 612.3 345.9 611.6 346.6 611 348 609.7 349.9 608.6 352.2 607 353.1 606.3 353.8 605.5 354.5 604.7 355.2 604 355.8 603.1 356.4 602.3 357.6 600.7 358.7 599.1 360.2 597.8L360.6 597.4C361.1 597 361.3 596.6 361.5 596.2 361.7 595.8 361.9 595.4 362.5 595 363.2 594.6 364.4 592.9 365.6 591 366.8 589.2 368 587.2 368.4 586.1 369.3 583.7 369.8 581.8 370.6 580.2 371 579.3 371.5 578.6 372.1 577.8 372.8 577 373.6 576.2 374.7 575.4 375.6 574.7 376.3 573.9 376.9 573.1 377.5 572.2 378 571.3 378.3 570.4 379.1 568.5 379.6 566.5 380.1 564.5 380.4 563.6 380.6 562.5 381 561.6 381.4 560.6 381.9 559.7 382.5 558.8 383.1 557.9 383.8 557.1 384.7 556.3 385.6 555.5 386.8 554.7 388.1 554.1 388.4 554 390.9 552.4 391.3 552.2L394.7 554.3C395.7 554.7 396.7 555.4 397.7 556.4 398.6 557.3 399.6 558.3 400.6 559.2 401.5 560.1 402.4 560.9 403.2 561.3 403.7 561.4 404.1 561.5 404.5 561.5 404.9 561.4 405.3 561.2 405.7 560.8 405.7 560.8 406.2 559.5 407.2 558.2 407.7 557.6 408.3 556.9 409.1 556.4 409.8 555.8 410.7 555.4 411.7 555.3 413.7 555 414.9 554.5 415.7 554.1 416.4 553.7 416.7 553.3 416.7 553.3L418.9 550.2 418.5 549.6 419.2 549.8 422.7 542.3C422.7 542.3 423.2 536.8 423.2 534.3 423.2 533 422.9 530 422.7 527.1 422.6 524.2 422.4 521.3 422.7 520.3 422.9 519.3 423.1 517.5 423.6 516.5 423.8 516 424.2 515.6 424.7 515.6 425.2 515.6 425.8 515.9 426.7 516.8 427.6 517.7 428.4 518.3 429.2 518.7 430 519.1 430.7 519.3 431.3 519.3 431.9 519.3 432.5 519.1 432.9 518.8 433.3 518.4 433.6 517.9 433.7 517.3 434.2 514.8 435.2 505.3 435.2 505.3 435.2 505.3 438.2 502.3 440.2 500.8 440.7 500.4 441.1 499.9 441.3 499.2 441.6 498.6 441.8 497.9 441.9 497.2 442.2 495.9 442.2 494.8 442.2 494.8 442.2 494.8 442.4 493.9 442.9 492.9 443.2 492.4 443.5 491.9 443.9 491.4 444.2 491 444.7 490.5 445.2 490.3 445.7 490 446.1 489.7 446.5 489.4 446.8 489 447.1 488.6 447.2 488.2 447.3 487.7 447.3 487.2 447.2 486.8 447 486.3 446.7 485.8 446.2 485.3 445.7 484.8 445.3 484.2 444.9 483.6 444.6 483 444.4 482.4 444.2 481.8 443.8 480.7 443.7 479.8 443.7 479.8L445.2 475.8 452.7 465.3 454.2 458.8C454.2 458.8 453.8 457.8 453.8 456.6 453.8 456 453.9 455.4 454.2 454.8 454.5 454.2 454.9 453.7 455.7 453.3 456.4 452.9 457.1 452.5 457.7 451.9 458.4 451.4 459 450.8 459.6 450.2 460.7 448.9 461.7 447.5 462.7 446.3 463.7 445 464.7 443.9 465.4 442.9 465.8 442.3 466.1 441.8 466.3 441.3 466.6 440.8 466.7 440.3 466.7 439.8 466.7 437.8 467.2 428.8 467.2 428.8 467.2 428.8 467.6 427.3 467.6 425.2 467.6 424.2 467.5 423 467.2 421.8 466.9 420.6 466.4 419.4 465.7 418.3 464.9 417.2 464.4 416.2 464.1 415.2 463.8 414.3 463.7 413.5 463.6 412.6 463.6 410.9 463.9 409.3 464.2 407.3 464.7 403.3 464.7 396.8 464.7 396.8 464.7 396.8 464.2 395.4 463.4 393.8 463 393 462.5 392.1 461.9 391.3 461.4 390.5 460.8 389.8 460.2 389.3 458.9 388.3 458.2 387.7 457.4 387.3 456.6 386.9 455.7 386.8 454.2 386.8 452.7 386.8 451.4 386.8 450.2 386.6 448.9 386.4 447.7 386 446.2 385.3 445.4 384.9 444.6 384.6 443.8 384.4 442.9 384.1 442.1 384 441.2 383.9 440.3 383.9 439.4 383.9 438.6 384 437.7 384.2 436.9 384.4 436.2 384.8 435.4 385.2 434.7 385.5 433.9 385.7 433.2 385.9 432.4 386 431.8 386 431.2 386 430.7 385.8 430.3 385.4 429.9 385.1 429.7 384.5 429.7 383.8 429.7 383 429.6 382.4 429.4 381.9 429.2 381.3 429 380.9 428.7 380.5 428.1 379.7 427.2 379 426.2 378.3 424.2 376.8 423.7 376.8 421.2 375.3 420.6 374.9 419.8 374.5 419.2 374 418.5 373.5 417.8 372.9 417.4 372.2 416.9 371.6 416.6 370.8 416.6 370 416.6 369.2 416.9 368.3 417.7 367.3 418.4 366.3 419 365.4 419.3 364.7 419.7 364 419.8 363.3 419.8 362.7 419.8 362.1 419.7 361.6 419.4 361 419.1 360.5 418.7 359.9 418.2 359.3 417.2 358 416.3 357 415.9 356.2 415.7 355.8 415.7 355.5 415.8 355.1 415.9 354.8 416.2 354.5 416.7 354.3 417.2 354 417.6 353.8 418 353.6 418.4 353.3 418.7 353.1 418.9 352.7 419 352.4 419.1 352 418.9 351.4 418.7 350.9 418.3 350.2 417.7 349.3 416.4 347.5 415.7 346.7 415.2 345.9 414.8 345 414.7 344.3 414.7 342.8 414.7 341.3 414.2 339.9 414 338.6 413.9 338 413.9 337.3 414.1 336.7 414.2 336 414.6 335.4 415.2 334.8 416.4 333.5 417.2 333.2 417.7 332.8 417.9 332.6 418.1 332.4 418.3 332.1 418.4 331.8 418.6 331.4 418.7 330.8 418.9 329.5 419.7 328.2 420.4 327.1 421.1 326 421.7 325.3 421.7 325.3L425.2 319.3 422.3 318.8C422.3 318.8 421.4 318.5 420.2 318.3 419.1 318 417.7 317.8 416.7 317.8 416.2 317.8 415.8 317.6 415.5 317.4 415.2 317.1 414.9 316.6 414.7 316.1 414.2 315 413.7 313.5 412.7 311.8 412.2 310.9 411.8 310.4 411.4 310.2 411 309.9 410.7 310 410.4 310.2 409.7 310.5 408.9 311.5 407.7 312.3 407.1 312.7 406.5 312.9 406.1 312.9 405.6 312.9 405.3 312.8 405 312.5 404.7 312.2 404.5 311.8 404.4 311.2 404.2 310.7 404.2 310 404.2 309.3 404.2 308.5 404 307.9 403.7 307.4 403.5 306.9 403.1 306.6 402.6 306.4 402.2 306.2 401.6 306.2 401 306.3 400.4 306.5 399.8 306.8 399.2 307.3 398.6 307.8 398.1 308.2 397.6 308.4 397.2 308.6 396.8 308.7 396.4 308.7 396 308.6 395.5 308.4 395 308 394.5 307.6 393.9 307 393.2 306.3 392.4 305.5 392 304.9 391.8 304.4 391.6 303.8 391.5 303.4 391.6 302.9 391.8 302 392.4 301.3 392.7 300.3 392.9 299.3 393.8 298.2 394.9 296.8 396.1 295.4 397.4 293.8 398.7 291.8 399.3 290.8 399.6 289.8 399.8 288.8 399.9 287.9 399.8 286.9 399.6 286 399.4 285.2 399.1 284.4 398.6 283.6 398.2 282.9 397.7 282.3 397.2 281.8 395.2 279.8 392.2 276.8 392.2 276.8 392.2 276.8 391.2 275.9 390.4 274.5 390.1 273.9 389.7 273 389.7 272.1 389.6 271.2 389.7 270.3 390.2 269.3 390.7 268.3 391.1 267.3 391.3 266.2 391.6 265.2 391.7 264.2 391.6 263.2 391.6 262.3 391.4 261.3 391.1 260.5 390.8 259.7 390.3 258.9 389.7 258.3 389.1 257.7 388.3 257.1 387.4 256.6 386.5 256.1 385.6 255.7 384.7 255.3 382.8 254.5 380.9 254 379.7 253.8 378.4 253.5 377.9 253.3 377.3 253.3z" stroke="black" stroke-width="1" fill="transparent"/>
</svg>