<svg xmlns="http://www.w3.org/2000/svg" viewBox="567.7 687.1 549.3999999999999 508.69999999999993">
  <path d="M714.7 701.3L714.7 704.3C714.7 704.3 714.6 705 714.2 706.1 713.9 707.2 713.4 708.5 712.7 709.8 712.3 710.4 712.1 711.1 712.1 711.7 712 712.4 712.1 713.1 712.2 713.7 712.4 715 712.9 716.3 713.2 717.3 713.7 719.3 714.2 723.8 714.2 726.3 714.2 727.5 714.4 729 714.7 730.2 714.9 731.4 715.2 732.3 715.2 732.3L712.7 737.8C712.7 737.8 711.8 739.3 710.7 740.9 710.1 741.7 709.5 742.6 708.9 743.3 708.3 744 707.7 744.5 707.2 744.8 705.2 745.8 699.7 747.8 699.7 747.8L695.7 751.3C695.7 751.3 695.4 752.4 694.7 754 694.4 754.8 694 755.7 693.4 756.6 692.8 757.5 692.1 758.4 691.2 759.3 690.7 759.7 690.4 760.2 690.2 760.6 690 761 689.9 761.4 689.9 761.8 689.9 762.6 690.2 763.4 690.7 764 691.3 764.7 692 765.3 692.8 765.9 693.6 766.4 694.4 766.9 695.2 767.3 695.9 767.7 696.4 768.1 696.8 768.5 697.1 768.9 697.3 769.4 697.4 769.9 697.7 770.8 697.7 771.8 698.2 772.8 698.7 773.8 699.1 775.2 699.6 776.7 700.1 778.3 700.7 780 701.7 781.8 702.2 782.7 702.3 783.6 702.2 784.5 702.2 785.3 701.9 786.2 701.4 787 701 787.9 700.4 788.6 699.8 789.2 699.3 789.9 698.7 790.4 698.2 790.8 697.2 791.5 696.2 792.7 695.4 793.6 694.7 794.5 694.2 795.3 694.2 795.3 694.2 795.3 693.2 797.2 692.1 799.4 691.1 801.7 689.9 804.3 689.7 805.8 689.6 806.5 689.3 807.1 689 807.5 688.7 808 688.3 808.3 687.7 808.5 686.7 808.9 685.2 809 683.2 809.3 682.7 809.4 682.3 809.5 682 809.8 681.7 810.1 681.5 810.5 681.3 810.9 681.1 811.8 681.1 812.9 681.2 814 681.4 816.2 682.2 818.3 682.2 818.3 682.2 818.3 685.7 818.3 688.2 818.3 689.4 818.3 690.7 818.7 691.6 819 692.6 819.4 693.2 819.8 693.2 819.8 693.2 819.8 693.4 820.9 693.4 822.2 693.4 822.8 693.4 823.5 693.2 824 693 824.6 692.7 825 692.2 825.3 691.7 825.5 691.3 826.1 691 826.8 690.7 827.5 690.6 828.4 690.4 829.2 690.2 830.8 690.2 832.3 690.2 832.3 690.2 832.3 690.4 833.3 690.9 834.5 691.2 835.1 691.5 835.7 691.9 836.3 692.2 836.9 692.7 837.4 693.2 837.8 693.7 838.2 694 838.5 694.2 838.9 694.5 839.3 694.6 839.7 694.6 840.1 694.7 840.9 694.4 841.8 694.2 842.8 693.9 843.8 693.3 845.2 692.4 846.3 692 846.9 691.5 847.3 690.9 847.7 690.4 848.1 689.8 848.3 689.2 848.3 688.6 848.3 688 848.4 687.6 848.7 687.1 848.9 686.8 849.2 686.5 849.5 685.9 850.2 685.7 850.8 685.7 850.8 685.7 850.8 685.1 851.3 684 851.6 683.5 851.8 682.8 851.9 682.1 851.9 681.4 851.8 680.6 851.7 679.7 851.3 678.8 850.9 678.2 850.8 677.7 850.8 677.3 850.8 677 851 676.9 851.4 676.6 852 676.7 853.3 676.7 854.8 676.7 855.5 676.7 856.2 676.9 856.7 677 857.2 677.2 857.7 677.5 858.1 678.1 858.9 678.9 859.5 680.2 860.3 680.8 860.7 681.3 861.1 681.8 861.6 682.2 862.1 682.6 862.6 682.9 863.2 683.6 864.3 683.9 865.5 684.2 866.8 684.4 868 684.4 869.3 684.3 870.5 684.2 871.8 683.9 873 683.7 874.3 683.4 875.5 683.3 876.5 682.9 877.3 682.7 877.7 682.4 878 681.9 878.2 681.5 878.5 680.9 878.7 680.2 878.8 679.4 878.9 678.8 879.1 678.3 879.3 677.8 879.5 677.4 879.8 677.1 880.2 676.8 880.5 676.7 881 676.6 881.6 676.5 882.2 676.6 882.9 676.7 883.8 676.8 884.7 676.8 885.5 676.6 886.3 676.4 887.1 676.2 887.8 675.9 888.4 675.3 889.5 674.7 890.3 674.7 890.3 674.2 891.3 673.7 891.9 672.8 892.4 671.9 892.9 670.7 893.3 668.7 893.8 667.9 894 667.4 894.2 667.1 894.6 666.8 894.9 666.6 895.3 666.6 895.7L666.6 895.7C666.6 896.3 666.8 897 667.1 897.5 667.4 897.9 667.7 898.3 667.7 898.3 667.7 898.3 668.1 898.9 668.7 899.8 669.3 900.7 670.2 901.8 671.2 902.8 672.2 903.8 672.7 904.2 673 904.7 673.3 905.2 673.4 905.8 673.7 907.3 673.8 908 674.3 908.6 674.9 909.1 675.5 909.6 676.3 909.9 677.1 910.2 678.7 910.7 680.2 910.8 680.2 910.8 680.2 910.8 680.8 911.5 681.4 912.5 681.7 913 682 913.6 682.3 914.2 682.5 914.7 682.7 915.3 682.7 915.8 682.7 916.8 682.7 917.7 682.5 918.6 682.3 919.5 681.9 920.5 681.2 921.8 680.8 922.4 680.6 923.1 680.4 923.8 680.2 924.5 680.2 925.1 680.1 925.7 680.1 926.9 680.2 927.8 680.2 927.8L681.2 934.8 682.2 941.3C682.2 941.3 682.4 942.4 682.6 943.9 682.6 944.6 682.6 945.4 682.6 946.1 682.5 946.9 682.4 947.7 682.2 948.3 681.7 949.5 680.8 950.9 680.1 952 679.3 953 678.7 953.8 678.7 953.8L674.7 957.3 663.7 957.3 660.7 962.3C660.7 962.3 660.4 963.5 660.3 965 660.2 965.8 660.2 966.6 660.2 967.4 660.3 968.1 660.4 968.8 660.7 969.3 661.2 970.3 661.7 971.3 662.4 972 662.7 972.4 663.1 972.7 663.6 973 664 973.2 664.6 973.3 665.2 973.3 666.4 973.3 667.4 973.3 668.1 972.9 668.5 972.7 668.7 972.4 668.9 972 669.1 971.6 669.2 971 669.2 970.3 669.2 969.5 669.3 968.8 669.6 968 669.8 967.3 670.1 966.5 670.4 965.9 671.1 964.7 671.7 963.8 671.7 963.8L676.7 962.3C676.7 962.3 678.2 962.2 679.7 962.3 680.5 962.4 681.3 962.5 682 962.7 682.6 963 683.1 963.3 683.2 963.8 683.4 964.8 683.6 965.4 684 965.9 684.4 966.3 685.2 966.5 686.7 966.8 688.2 967 689.1 967.3 689.7 967.8 690.3 968.3 690.7 969 691.2 970.3 691.4 970.9 691.5 971.7 691.6 972.6 691.6 973.5 691.6 974.4 691.6 975.2 691.4 976.9 691.2 978.3 691.2 978.3 691.2 978.3 690.2 979 688.8 979.9 688.1 980.3 687.3 980.7 686.5 981 685.7 981.4 684.9 981.7 684.2 981.8 681.2 982.3 674.2 983.8 674.2 983.8L665.7 986.3 658.7 987.3C658.7 987.3 657.6 987.7 656.4 988.4 655.9 988.7 655.3 989.1 654.9 989.6 654.5 990.1 654.2 990.7 654.2 991.3 654.2 992.5 654.6 993.7 654.6 994.7 654.7 995.2 654.6 995.6 654.4 996.1 654.2 996.5 653.8 996.9 653.2 997.3 652.6 997.7 652 998.2 651.4 998.7 650.9 999.3 650.5 1000 650.1 1000.6 649.8 1001.3 649.6 1001.9 649.5 1002.6 649.4 1003.2 649.4 1003.8 649.7 1004.3 650.7 1006.3 652.7 1009.8 652.7 1009.8L656.2 1012.8C656.2 1012.8 657.1 1013.7 657.5 1015 657.7 1015.6 657.8 1016.4 657.7 1017.2 657.5 1018.1 657.1 1018.9 656.2 1019.8 655.3 1020.7 654.7 1021.5 654.3 1022.2 653.9 1023 653.7 1023.7 653.5 1024.4 653.2 1025.7 653.2 1026.8 652.7 1027.8 652.2 1028.8 651.8 1030.4 651.1 1032 650.8 1032.8 650.4 1033.5 649.8 1034.2 649.3 1034.9 648.6 1035.4 647.7 1035.8 646.8 1036.2 646 1036.7 645.3 1037.3 644.7 1037.9 644.1 1038.5 643.6 1039.1 642.7 1040.3 642.2 1041.3 642.2 1041.3 642.2 1041.3 641.3 1042.9 640.5 1045 640.1 1046 639.7 1047.2 639.4 1048.3 639.2 1049.4 639.1 1050.4 639.2 1051.3 639.3 1052.2 639.2 1053 639.1 1053.8 638.9 1054.6 638.7 1055.5 638.5 1056.2 638.3 1057 638.1 1057.8 638 1058.5 637.9 1059.3 637.9 1060 638.2 1060.8 638.7 1062.3 639.3 1063.4 639.6 1064.5 639.8 1065 639.9 1065.5 639.8 1066.1 639.8 1066.6 639.6 1067.2 639.2 1067.8 638.4 1069 638.1 1070.5 637.9 1071.7 637.7 1072.9 637.7 1073.8 637.7 1073.8L637.7 1076.8C637.7 1076.8 636.4 1077.7 635.1 1078.8 634.4 1079.4 633.6 1080 633 1080.6 632.4 1081.2 631.9 1081.8 631.7 1082.3 631.2 1083.3 630.8 1084.3 630.3 1085 630.1 1085.4 629.8 1085.7 629.4 1086 629.1 1086.2 628.7 1086.3 628.2 1086.3 626.2 1086.3 622.7 1086.3 620.7 1086.3 619.7 1086.3 618.8 1086.5 617.9 1086.9 617.1 1087.2 616.2 1087.5 615.2 1087.8 614.7 1087.9 614.1 1088.1 613.6 1088.5 613.1 1088.8 612.6 1089.2 612.2 1089.7 611.7 1090.3 611.4 1090.9 611.1 1091.7 610.8 1092.4 610.7 1093.3 610.7 1094.3 610.7 1095.3 610.6 1096.2 610.5 1097 610.3 1097.8 610.1 1098.5 609.7 1099 609.4 1099.6 609 1100.1 608.4 1100.4 607.8 1100.7 607.1 1100.8 606.2 1100.8 605.3 1100.8 604.7 1101 604.3 1101.2 603.9 1101.5 603.7 1101.9 603.5 1102.3 603.2 1103.2 603.2 1104.3 602.7 1105.3 602.2 1106.3 601.8 1106.7 601.3 1106.9 600.8 1107 600.2 1107 599.2 1107.3 598.7 1107.4 598.2 1107.6 597.9 1107.9 597.5 1108.1 597.2 1108.4 597 1108.7 596.8 1109.1 596.6 1109.5 596.6 1109.9 596.5 1110.3 596.6 1110.8 596.7 1111.3 596.9 1112.3 597.2 1113.3 597 1114 596.9 1114.4 596.7 1114.7 596.3 1115 596 1115.2 595.4 1115.3 594.7 1115.3 593.2 1115.3 591.6 1115.5 590.3 1115.8 589.1 1116 588.2 1116.3 588.2 1116.3 588.2 1116.3 580.2 1119.8 578.2 1120.8 576.2 1121.8 572.7 1122.8 572.7 1122.8L568.2 1124.3 567.7 1131.8 568.7 1137.3C568.7 1137.3 569.3 1137.6 569.4 1137.6 570 1137.9 572 1138.9 574.2 1139.8 574.8 1140 575.2 1140.5 575.5 1140.9 575.7 1141.4 575.8 1141.9 575.9 1142.4 575.9 1143.4 575.7 1144.3 575.7 1144.3 575.7 1144.3 576.2 1147.3 576.2 1149.3 576.2 1150.3 576.2 1151.4 576.4 1152.5 576.6 1153.1 576.7 1153.7 577 1154.2 577.3 1154.8 577.7 1155.3 578.2 1155.8 580.2 1157.8 584.2 1161.3 584.2 1161.3 584.2 1161.3 585.4 1162.7 586.4 1164.4 586.8 1165.3 587.2 1166.3 587.3 1167.2 587.4 1167.7 587.4 1168.1 587.3 1168.6 587.2 1169 587 1169.4 586.7 1169.8 586.1 1170.5 585.6 1171.3 585.3 1172 585 1172.7 584.8 1173.4 584.8 1174 584.8 1174.6 585 1175.1 585.3 1175.5 585.6 1175.9 586.1 1176.2 586.7 1176.3 587.9 1176.5 589.2 1176.7 590.2 1177.2 590.7 1177.4 591.1 1177.8 591.5 1178.3 591.8 1178.8 592.1 1179.4 592.2 1180.3 592.4 1182 592.7 1183.3 593.2 1184.1 593.4 1184.5 593.7 1184.8 594.2 1185 594.6 1185.2 595.1 1185.3 595.7 1185.3 598.2 1185.3 601.2 1184.8 601.2 1184.8 601.2 1184.8 602.1 1184.3 603.1 1184.2 603.6 1184.1 604.1 1184.2 604.6 1184.4 605 1184.6 605.4 1185 605.7 1185.8 605.9 1186.5 606.3 1187.2 606.7 1187.8 607.1 1188.3 607.6 1188.8 608.1 1189.2 608.9 1189.9 609.7 1190.3 609.7 1190.3L614.2 1192.3C614.2 1192.3 615.7 1191.8 617.7 1190.8 618.7 1190.3 619.7 1189.7 620.6 1189.5 621 1189.4 621.4 1189.4 621.7 1189.6 622.1 1189.8 622.4 1190.2 622.7 1190.8 622.9 1191.4 623.3 1192 623.7 1192.5 624.1 1193 624.6 1193.4 625.1 1193.8 626.1 1194.5 627.2 1195 628.2 1195.3 630.2 1195.8 632.2 1195.8 632.2 1195.8 632.2 1195.8 632.6 1194.4 633.2 1192.9 633.5 1192.1 633.9 1191.2 634.3 1190.5 634.7 1189.8 635.2 1189.2 635.7 1188.8 636.7 1188 638.1 1187.2 639.6 1186.5 640.3 1186.1 641.1 1185.8 641.9 1185.6 642.7 1185.4 643.4 1185.3 644.2 1185.3 645.7 1185.3 646.9 1185 648.1 1185 648.6 1185 649.1 1185 649.7 1185.1 650.2 1185.2 650.7 1185.4 651.2 1185.8 652.2 1186.5 653.2 1186.9 654.2 1187 655.3 1187.2 656.4 1187 657.7 1186.8 658.9 1186.5 660.6 1186.5 662.1 1186.4 662.9 1186.4 663.7 1186.3 664.4 1186.1 665.1 1185.9 665.7 1185.7 666.2 1185.3 667.2 1184.5 667.9 1183.8 668.4 1183.2 668.9 1182.7 669.2 1182.3 669.2 1182.3L713.2 1181.8 713.9 1183C714 1182.4 714 1181.9 714.1 1181.4 714.6 1175.5 715.7 1169.7 716.7 1163.9 717 1161.9 718 1160.1 719.2 1158.5L720.6 1156.6C722.3 1154.6 725.8 1152.3 728.5 1152.1 729.4 1152.1 730.5 1152.3 731.4 1152.5 732.8 1152.9 734.3 1153.5 735.5 1154.4 736.5 1155.2 738.2 1157.5 738.6 1158.7L739.1 1161C739.2 1161.5 739.3 1161.7 739.3 1162.2 739.3 1164.8 738.8 1168.2 738.6 1170.8 738.3 1174.3 737.4 1180.3 741.9 1181.5 742.9 1181.8 744 1181.9 745.1 1181.6 747 1180.9 748 1178.4 749.2 1176.9 749.5 1176.6 751 1176 751.4 1176 753.6 1176.3 754.8 1178 756.5 1179 757.4 1179.5 758.7 1179.7 759.7 1179.7 759.9 1179.7 761.8 1179.6 761.9 1179.6 763.6 1179.1 765.3 1177.3 766.2 1175.9 767.4 1174.2 767.8 1170.2 767.1 1168.4 766.3 1166.1 760.8 1160.1 759.3 1158.4 757.9 1156.7 756.7 1155 755.4 1153.4 755.1 1153.1 754.7 1152.8 754.4 1152.4 753.5 1151.3 753 1149.9 752.3 1148.7 751.9 1148.1 751.4 1147.6 751 1147 749.9 1145.3 749.8 1144.3 749.9 1142.4 749.9 1142.2 749.9 1141.2 750 1141.2 751.6 1137 756.8 1134.3 760.2 1132.1 761.2 1131.6 761.8 1131.3 762.6 1130.6 763.9 1129.7 766.7 1126.7 767.9 1125.4 768.7 1124.5 769.5 1123.3 770.2 1122.3 773.6 1117.7 773.5 1116.9 773.8 1111.4 773.9 1110 774 1108.3 774.7 1107L775.8 1106.5C777.7 1106.2 779.1 1108.3 781.4 1108.3 782.3 1108.1 783.1 1107.2 783.6 1106.5 784.8 1104.7 785.8 1102.9 787 1101 787.9 1099.6 789 1098.2 789.9 1096.8 790.4 1096 790.7 1095 791.2 1094.3 792 1093 793.1 1091.6 794 1090.4 794.3 1090 794.7 1089.8 795 1089.5 795.6 1088.8 796.2 1087.9 796.8 1087.2 801.1 1082.8 806.4 1079.4 811.2 1075.7 812.7 1074.6 814 1073.4 815.4 1072.3 818.8 1069.6 822.3 1066.9 825.8 1064.1 829.1 1061.5 832 1058.3 835.4 1055.8 837.8 1054.1 849.6 1049.9 852.6 1048.8 853 1048.7 853.5 1048.6 854 1048.5L867.2 1044C873 1042.1 878.7 1040.2 884.4 1038.4 901.5 1032.9 918.5 1027.1 935.6 1021.5 953.8 1015.5 971.9 1009.2 990.1 1003.2 990.2 1003.1 990.8 1002.6 990.9 1002.6 996.8 1000.7 1002.7 998.9 1008.6 997.1 1014.5 995.2 1020.4 993 1026.4 991 1033.1 988.7 1039.8 986.5 1046.4 984.2 1063.6 978.3 1080.7 972.4 1097.8 966.5 1099.9 965.7 1102 964.9 1104.1 964.2 1104.5 964.1 1104.9 964.1 1105.2 964 1105.4 963.9 1112.7 961.4 1116.9 959.8L1117.1 959.1C1116.7 958.7 1115.5 956.6 1114.2 954.6 1113.5 953.7 1112.8 952.7 1112.1 952 1111.3 951.2 1110.6 950.7 1110 950.7 1108.7 950.6 1107.7 950.8 1106.7 951.3 1105.8 951.7 1105 952.3 1104.2 952.9 1103.4 953.5 1102.6 954.1 1101.7 954.5 1101.2 954.7 1100.7 954.9 1100.2 955 1099.6 955 1099 955.1 1098.3 955 1097.8 954.9 1097 954.9 1096.6 954.5L1096.3 954.4C1094.9 953.6 1093.7 952.8 1092.4 952 1091.1 951.1 1090 950.5 1089 950 1088 949.6 1087.2 949.3 1086.2 949.1 1084.4 948.6 1082.6 948.5 1079.7 948 1079 947.9 1078.4 947.7 1077.9 947.4 1077.3 947.1 1076.8 946.7 1076.3 946.3 1075.3 945.5 1074.4 944.5 1073.5 943.8 1073 943.4 1072.6 943.1 1072.1 942.8 1071.5 942.6 1071 942.5 1070.4 942.5 1069.8 942.5 1069.2 942.6 1068.5 943 1067.7 943.3 1067 943.8 1066.1 944.5 1065.1 945.3 1063.9 945.5 1063 946.2 1061.3 946.4 1057.1 946 1052.9 945.5 1048.7 945 1044.6 944.3 1043.4 943.8 1042.5 943.5 1041.7 943 1041 942.4 1040.2 941.8 1039.6 941.2 1038.9 940.5 1038.3 939.8 1037.6 939.1 1036.9 938.5 1036.2 937.8 1035.5 937.2 1034.7 936.8 1032.7 935.6 1031.3 935.2 1030.4 934.6 1030 934.2 1029.7 933.8 1029.5 933.2 1029.3 932.6 1029.1 931.7 1029.1 930.5 1029.1 929.3 1029 928.3 1028.8 927.4 1028.6 926.5 1028.3 925.6 1027.9 924.8 1027.1 923.1 1026 921.6 1024.7 919.9 1024.3 919.3 1023.3 918.8 1023 918.1 1022.8 917.4 1022.2 916.7 1021.6 916 1020.9 915.3 1020.2 914.7 1019.7 914.2 1018.5 913.1 1017.4 911.9 1016.4 910.7 1015.4 909.5 1014.4 908.3 1013.4 907 1012 905.3 1010.9 903.3 1009.8 901.3 1008.7 899.3 1007.6 897.4 1006.1 895.6 1005.6 895 1005 894.2 1004.4 893.4 1003.8 892.7 1003.2 892 1002.5 891.5L1002 891.3C1000.3 890.3 999.4 889.8 998.5 889.4 997.6 889 996.6 888.8 994.8 888.6 993.7 888.5 992.7 888.2 991.8 888 991 887.7 990.2 887.3 989.5 887 988.2 886.2 987.1 885.2 986.2 884.2 985.2 883.2 984.3 882.1 983.2 881.1 982.2 880.1 981 879.2 979.4 878.5 976.9 877.3 976 877.2 975.1 876.7 974.3 876.2 973.5 875.5 971.3 873.4 970.3 872.3 969.2 871.3 968.1 870.4 966.9 869.5 965.8 868.7 964.6 867.9 962.2 866.3 959.6 864.9 957.1 863.5 956.4 863.1 956 862.6 955.5 862.2 955 861.7 954.5 861.3 953.8 861 953.1 860.8 952.4 860.4 951.7 859.9 951.1 859.4 950.4 858.9 949.8 858.4 949.2 857.8 948.5 857.3 947.8 856.9 947.2 856.5 946.4 856.1 945.6 856L945.2 855.9C944.2 855.5 943.5 854.7 942.4 854.4 941.4 854.1 940.4 853.7 939.5 853.2 938.6 852.7 937.7 852.1 936.8 851.6 935.1 850.4 933.3 849.2 931.3 848.5 929.9 847.9 928.5 847.6 927.1 847.3 925.7 847.1 924.4 846.9 923 846.6 921.7 846.4 920.3 846.1 919 845.6 917.6 845.1 916.2 844.5 914.8 843.5 912.6 842 911 840.8 909.2 839.8 907.5 838.8 905.6 838 902.9 837.3 901.7 836.9 900.4 836.8 899.1 836.5 897.9 836.3 896.6 835.9 895.6 835.2 893.9 834.1 892 833.7 890.3 832.7 888.4 831.6 886.9 830.8 885.3 830.2 883.7 829.7 882 829.4 879.7 829.3 877.7 829.1 875.4 828.9 873.2 828.5 872 828.2 871 827.9 869.9 827.6 868.9 827.2 867.9 826.8 867.1 826.3 865.9 825.6 865 824.7 864.1 823.7 863.3 822.8 862.4 821.8 861.5 820.9 860.7 820.2 860.1 819.3 859.5 818.5 858.9 817.6 858.4 816.7 857.8 815.8 856.8 814 855.8 812.1 854.5 810.4 853.8 809.5 851.8 807.6 849.7 805.9 848.6 805.1 847.5 804.3 846.5 803.7 845.5 803.1 844.6 802.7 844 802.6 843.9 802.5 843.8 802.5 843.7 802.4 842.1 801.2 840.3 800.4 838.6 799.3 837.8 798.7 837.2 798.1 836.7 797.5 836.2 796.9 835.9 796.2 835.7 795.5 835.2 794.2 835.2 792.7 835.2 791.3 835.3 789.9 835.3 788.5 835.1 787.2 834.9 786.6 834.7 786 834.3 785.4 834 784.8 833.5 784.3 832.8 783.9 831.9 783.3 831.3 782.7 830.8 782.2 830.4 781.7 830.1 781.2 829.9 780.6 829.4 779.4 829.4 778 829.2 775.8 828.9 773.2 828.9 771.4 828.5 769.7 828.2 768.9 827.9 768.1 827.4 767.3 827 766.4 826.3 765.5 825.5 764.5 824.8 763.7 824.3 763 823.9 762.3 823.5 761.6 823.2 760.9 822.9 760.3 822.5 758.9 822.4 757.7 822.4 756.4 822.4 755.2 822.6 753.9 822.7 752.5 822.7 751.2 822.7 749.8 822.3 748.2 822.1 747.1 820.9 745.1 819.6 743.1 818.3 741.2 816.8 739.2 816 738.3 815.2 737.3 814.4 736.5 813.6 736 812.7 735.4 811.9 735.1 811 734.9 810.1 734.7 809.3 734.7 808.4 734.8 807.5 734.9 806.6 735.1 805.7 735.4 803.9 736 802 736.9 800.2 737.7 798.4 738.5 796.6 739.3 794.7 739.6 793.9 739.7 793.1 739.7 792.3 739.5 791.6 739.3 791 739 790.4 738.5 789.8 738.1 789.2 737.5 788.7 736.8 788.3 736.1 787.8 735.4 787.4 734.6 786.6 733 786 731.2 785.4 729.6 784.9 727.9 784.5 726.3 784 725.2 783 722.4 782.1 719.7 781.4 716.9 780.9 715.1 780.7 713.3 780.4 711.5 780.1 709.7 779.8 707.9 779.1 706.2 778.6 704.8 778 703.5 777.4 702.5 776.8 701.4 776.2 700.5 775.5 699.6 774.1 697.8 772.4 696.3 770.2 694.3 769.3 693.4 768.5 692.4 767.7 691.4 766.9 690.4 766.1 689.4 765 688.6 765 688.6 762.4 687.5 761.5 687.1 761.5 687.1 760 687.1 758.4 687.5 757.6 687.7 756.8 688 756.2 688.3 755.5 688.7 754.9 689.2 754.7 689.8 754.2 691 753.7 692 753.1 693 752.6 693.9 751.9 694.8 751.2 695.8 750.8 696.3 750.4 696.6 750.1 696.9 749.7 697.1 749.3 697.3 748.9 697.4 748.1 697.7 747.2 697.8 746.2 698.3 744.2 699.3 741.2 701.3 739.2 702.3 738.2 702.8 736.9 703.3 735.9 703.3 735.3 703.3 734.8 703.2 734.5 702.9 734.1 702.5 733.8 702 733.7 701.3 733.6 700.5 733.4 699.9 733.1 699.3 732.9 698.8 732.6 698.4 732.2 698 731.8 697.7 731.4 697.5 730.9 697.5 730.4 697.4 729.8 697.5 729.2 697.8 727.9 698.3 726.9 699 726 699.7 725.1 700.4 724.2 701 723.2 701.3 722.2 701.5 720.1 701.5 718.2 701.5 716.3 701.4 714.7 701.3 714.7 701.3z" stroke="black" stroke-width="1" fill="transparent"/>
</svg>