<svg xmlns="http://www.w3.org/2000/svg" viewBox="698.5 337.8 324.20000000000005 308.3">
  <path d="M956.4 359.7L956.4 359.7C955.2 361.2 954.1 362.8 952.9 364.3 951.7 365.8 950.5 367.2 949.1 368.5 948 369.6 946.4 371.7 944.7 373.6 943.9 374.6 943.1 375.5 942.3 376.2 941.5 376.8 940.8 377.3 940.1 377.3 939.2 376.8 938.8 376.2 938.2 375.6 938 375.3 937.6 375 937.2 374.7 936.7 374.4 936.2 374.2 935.4 374 934.2 373.6 933.2 373.6 932.3 373.6 931.4 373.6 930.7 373.8 930 373.8 929.2 373.8 928.5 373.8 927.7 373.4 927 373.1 926.2 372.5 925.2 371.4 925 370.7 925.2 370.1 925.4 369.4 925.7 368.3 925.5 367 925.5 365.7 925.5 365.1 925.5 364.5 925.6 364 925.7 363.4 925.9 362.9 926.2 362.4 926.7 361.8 927.1 361.1 927.3 360.5 927.5 359.9 927.6 359.3 927.5 358.8 927.5 358.2 927.2 357.7 926.9 357.2 926.5 356.6 926 356.1 925.3 355.6 924.8 355.2 924.6 354.6 924.5 353.9 924.4 353.2 924.4 352.5 924.3 351.7 924.2 350.9 924 350.1 923.6 349.4 923.3 349.1 923 348.7 922.6 348.4 922.2 348.1 921.7 347.8 921.1 347.6L920.7 347.5C919.9 347.5 919.3 347.5 918.7 347.7 918.1 347.8 917.5 348.1 917 348.3 916.1 348.9 915.3 349.6 914.6 350.5 913.8 351.3 913.2 352.2 912.6 353 911.9 353.8 911.2 354.5 910.3 355 909.3 354.7 908.2 354.3 907.2 354 906.2 353.8 905.2 353.5 904.1 353.5 903.4 353.4 902.6 353.5 901.8 353.6 901.1 353.8 900.3 354 899.6 354.3 898 354.8 896.6 355.7 895.2 356.7 893.8 357.7 892.5 358.8 891.3 360 890.2 361.2 889.3 362.4 888.5 363.5 887.9 364.5 887.1 365.2 886.4 366.1L886.3 366.1C886.1 366.1 885.7 367.8 885.7 367.8L883.2 364.3 877.2 364.3C877.2 364.3 872.2 363.8 869.7 363.8 868.4 363.8 867.8 363.7 867.4 363.2 866.9 362.8 866.7 362 866.2 360.8 866.1 360.5 865.9 360.2 865.6 360.1 865.4 359.9 865.1 359.8 864.7 359.7 864.1 359.6 863.3 359.7 862.6 359.9 861.1 360.2 859.7 360.8 859.7 360.8 859.7 360.8 857.7 362.8 854.7 365.3 853.9 365.9 853.3 366.2 852.8 366.3 852.3 366.4 852 366.3 851.6 366 850.9 365.4 850.4 364.3 849.7 363.3 849.3 362.8 849 362.1 848.7 361.3 848.5 360.5 848.3 359.6 848.1 358.8 847.8 357.2 847.7 355.8 847.7 355.8 847.7 355.8 847.1 354.8 846.7 353.4 846.6 352.7 846.5 351.9 846.6 351.1 846.7 350.3 847.1 349.5 847.7 348.8 848.9 347.3 850.1 345.8 850.6 344.5 850.8 343.9 850.9 343.4 850.8 342.9 850.7 342.4 850.3 342 849.7 341.8 847.2 340.8 843.7 339.8 843.7 339.8 843.7 339.8 843.1 339.4 842.2 339 841.3 338.5 840.2 338 839.2 337.8 838.7 337.7 838.2 337.8 837.7 338 837.2 338.3 836.8 338.7 836.4 339.1 835.7 339.9 835.2 340.8 835.2 340.8 835.2 340.8 835.3 342.4 835 344 834.9 344.9 834.6 345.7 834.2 346.3 834 346.6 833.8 346.8 833.5 347 833.2 347.2 832.9 347.3 832.5 347.3 831.7 347.3 831 347.4 830.4 347.5 829.8 347.7 829.4 347.9 828.9 348.2 828 348.7 827.2 349.3 826.2 349.8 824.2 350.8 817.7 352.8 817.7 352.8 817.7 352.8 815.7 354.5 814.1 356.7 813.3 357.8 812.7 359 812.4 360.2 812.3 360.7 812.3 361.3 812.4 361.8 812.5 362.4 812.7 362.9 813.2 363.3 814.1 364.2 814.6 365.1 814.9 365.9 815.2 366.8 815.3 367.5 815.1 368.2 815 368.8 814.6 369.3 814.1 369.5 813.6 369.7 812.9 369.7 812.2 369.3 811.4 368.9 810.7 368.8 809.9 368.8 809.2 368.8 808.4 369 807.8 369.2 807.2 369.5 806.7 369.9 806.3 370.4 805.9 370.8 805.7 371.3 805.7 371.8 805.7 372.3 805.5 372.9 805.2 373.4 805 373.9 804.6 374.4 804.2 374.7 803.7 375.1 803.2 375.3 802.7 375.2 802.2 375.2 801.7 374.9 801.2 374.3 800.7 373.7 800.2 373.3 799.7 373.1 799.2 372.9 798.7 373 798.3 373.1 797.9 373.3 797.5 373.6 797.1 374 796.7 374.3 796.4 374.8 796.2 375.3 795.7 376.3 795.3 377.8 794.6 378.9 794.2 379.5 793.7 379.9 793.1 380.2 792.5 380.5 791.7 380.5 790.7 380.3 789.7 380 788.8 379.9 788.1 379.9 787.3 379.9 786.7 380.1 786.2 380.4 785.7 380.6 785.3 381.1 785.1 381.6 784.8 382.2 784.7 382.9 784.7 383.8 784.7 384.7 784.5 385.5 784.2 386.3 783.9 387.1 783.4 387.8 782.9 388.5 782.4 389.1 781.9 389.7 781.3 390.2 780.7 390.7 780.2 391 779.7 391.3 779.2 391.5 778.6 391.7 777.9 391.8 777.3 391.9 776.6 392 775.9 391.9 775.2 391.9 774.5 391.7 773.9 391.4 773.3 391.2 772.7 390.8 772.2 390.3 771.2 389.3 769.9 388.5 768.9 388 767.9 387.5 767.2 387.3 767.2 387.3 767.2 387.3 762.7 388.3 760.2 389.3 758.9 389.8 758.3 390 757.6 390.2 756.8 390.3 755.9 390.3 754.2 390.3 753.3 390.3 752.6 390.4 752.1 390.6 751.6 390.9 751.3 391.2 751.1 391.6 751 392 751 392.5 751.2 393 751.3 393.6 751.7 394.2 752.2 394.8 753.2 396 753.8 397.3 754.1 398.5 754.2 399.1 754.2 399.6 754.2 400.2 754.1 400.8 753.9 401.3 753.7 401.8 753.2 402.8 752.7 404 752.3 405.3 751.9 406.5 751.7 407.8 751.7 408.8 751.7 410.8 751.7 416.3 751.7 416.3 751.7 416.3 753.2 417.7 754.2 419.2 754.7 419.9 755.1 420.7 755.1 421.4 755.1 421.7 755 422 754.7 422.2 754.5 422.5 754.2 422.7 753.7 422.8 752.7 423 751.9 423.3 751.3 423.6 750.7 424 750.2 424.4 749.9 424.8 749.5 425.2 749.3 425.7 749.1 426.3 748.9 426.9 748.8 427.5 748.7 428.3 748.6 429 748.4 429.6 748.2 430 748 430.5 747.8 430.8 747.5 431.1 746.9 431.7 746.2 432 745.2 432.8 744.2 433.5 743.4 433.9 742.6 434.4 741.8 434.9 740.9 435.5 739.7 436.8 739.1 437.4 738.5 438.1 738.1 438.7 737.7 439.4 737.3 440.1 737.1 440.8 736.9 441.5 736.8 442.2 736.8 442.8 736.8 443.5 736.9 444.2 737.2 444.8 737.7 446 739.2 447.5 740.2 449.1 740.7 449.9 741.1 450.7 741.1 451.5 741.2 451.9 741.1 452.3 741 452.6 740.8 453 740.6 453.4 740.2 453.8 739.4 454.5 738.8 455.3 738.2 456.1 737.7 456.9 737.2 457.8 736.8 458.6 736.4 459.5 736.2 460.3 736 461.2 735.8 462 735.7 462.9 735.7 463.8 735.7 465.5 735.2 467.7 734.6 469.7 734.1 471.8 733.4 473.8 733.2 475.3 732.9 476.8 732.8 478.3 732.4 479.4 732.2 480 732 480.4 731.6 480.8 731.3 481.1 730.8 481.3 730.2 481.3 728.9 481.3 727.4 481 726.2 481 725.6 481 725 481.1 724.6 481.3 724.1 481.5 723.8 481.8 723.7 482.3 723.2 484.3 722.7 487.3 722.7 487.3L721.2 492.8C721.2 492.8 720.2 496.8 720.2 498.8 720.2 499.8 720.6 501.3 720.7 502.4 720.7 503 720.6 503.4 720.2 503.7 719.9 504 719.3 504 718.4 503.8 717.5 503.5 716.2 503.5 714.8 503.6 713.5 503.7 712 503.9 710.7 504.2 707.9 504.7 705.7 505.3 705.7 505.3L704.7 510.3C704.7 510.3 704.3 511.4 703.6 512.5 703.3 513.1 702.9 513.7 702.4 514.1 701.9 514.5 701.4 514.7 700.8 514.7L700.7 514.9 703.7 519.3 705.7 523.8C705.7 523.8 705.4 525.4 705.2 527.3 705.1 529.2 704.9 531.3 705.2 532.3 705.4 533.3 706.2 534.5 706.9 535.5 707.6 536.5 708.2 537.3 708.2 537.3 708.2 537.3 708.6 538.8 708.9 540.5 709.3 542.3 709.7 544.3 709.7 545.3 709.7 546.3 709.3 547.8 708.6 549.1 708.3 549.8 707.9 550.4 707.4 550.9 706.9 551.3 706.3 551.7 705.7 551.8 705.1 551.9 704.6 552.2 704.2 552.7 703.8 553.1 703.5 553.7 703.2 554.4 702.8 555.8 702.7 557.5 702.7 559.3 702.7 561 702.7 562 702.6 562.9 702.4 563.8 702.2 564.5 701.7 565.8 701.2 567 700.7 567.8 700.6 568.5 700.5 568.9 700.5 569.3 700.7 569.7 700.9 570.2 701.2 570.7 701.7 571.3 702.2 571.9 702.5 572.6 702.8 573.3 703 574 703.1 574.7 703.1 575.3 703 575.9 702.9 576.5 702.5 576.9 702.2 577.3 701.7 577.6 701.1 577.6 700.5 577.7 700 578 699.5 578.4 699 578.8 698.7 579.4 698.5 579.9 698.3 580.4 698.3 580.9 698.5 581.3 698.6 581.7 699 581.9 699.7 581.8 700.3 581.7 701 581.8 701.6 582 702.2 582.2 702.7 582.4 703.2 582.7 704.1 583.2 704.7 583.8 704.7 583.8L711.7 582.8 717.2 583.3C717.2 583.3 717.4 584.3 717.9 585.5 718.2 586.1 718.5 586.7 718.9 587.3 719.2 587.9 719.7 588.4 720.2 588.8 721.2 589.5 721.7 590 721.9 590.7 722.2 591.3 722.2 592 722.2 593.3 722.2 594.5 722.3 596.2 722.3 597.7 722.3 598.5 722.3 599.3 722.2 600 722.1 600.7 721.9 601.3 721.7 601.8 721.2 602.8 720.9 604.3 720.9 605.9 720.8 607.4 720.9 609 721.2 610.3 721.4 611.5 721.8 612.4 721.8 613.4 721.8 613.9 721.7 614.5 721.5 615.1 721.2 615.7 720.8 616.4 720.2 617.3 719.9 617.7 719.7 618.1 719.7 618.3 719.7 618.6 719.8 618.8 720.1 618.9 720.5 619.1 721.3 619 722.2 618.9 724.1 618.5 726.2 617.8 726.2 617.8 726.2 617.8 726.8 616.5 727.9 615.7 728.4 615.3 729.1 615 729.8 615 730.1 615.1 730.5 615.2 730.9 615.4 731.3 615.6 731.7 615.9 732.2 616.3 733.1 617.2 733.9 617.9 734.6 618.5 735.4 619.1 736.1 619.6 736.8 619.9 737.5 620.1 738.1 620.3 738.8 620.2 739.4 620.1 740.1 619.8 740.7 619.3 741.9 618.3 742.9 617.3 743.9 616.8 744.3 616.5 744.8 616.4 745.2 616.5 745.7 616.5 746.2 616.8 746.7 617.3 747.7 618.3 748.2 618.8 748.7 619 749.3 619.3 749.9 619.3 751.2 619.3 751.8 619.3 752.4 619.3 752.9 619.5 753.5 619.6 754 619.9 754.4 620.2 754.8 620.5 755.1 620.9 755.3 621.4 755.6 621.9 755.7 622.5 755.7 623.3 755.7 624 755.9 624.8 756.2 625.4 756.4 626.1 756.8 626.7 757.2 627.2 757.9 628.2 758.7 628.8 758.7 628.8L763.2 631.8 766.6 637.6 823.8 646.1 827 640.1 1002.8 606.4 1013.5 601.9 1013.3 602.7 1014.2 601.8 1011.2 589.3 1018.7 576.3 1014.2 570.3 1022.7 564.3 1020.2 560.3C1020.2 560.3 1019.3 559.9 1018.2 559.5 1017.1 559.2 1015.7 558.8 1014.7 558.8 1012.7 558.8 997.7 558.8 997.7 558.8L997.7 554.3 989.2 548.8 983.2 550.3 979.9 541.1C980.4 540.6 980.8 540.2 981.1 539.7 981.3 539.2 981.5 538.7 981.6 538.1 981.8 537.1 981.7 536 981.6 535 981.4 533.9 981.3 532.8 981.3 531.8 981.4 531.3 981.5 530.8 981.7 530.3 981.9 529.9 982.1 529.4 982.5 529 983.9 527.5 985.7 526.2 987.6 524.8 989.6 523.5 991.7 522.1 993.7 520.7 995.7 519.3 997.6 517.8 999.2 516.2 999.9 515.4 1000.6 514.5 1001.1 513.6 1001.6 512.7 1002 511.8 1002.2 510.7 1002.4 510.3 1002.2 509.7 1002 509.2 1001.8 508.7 1001.4 508.1 1001 507.5 1000.2 506.4 999.2 505.2 998.8 504L996.7 504.8 988.2 509.3C988.2 509.3 987.2 511.3 986 513.5 984.8 515.8 983.4 518.3 982.7 519.3 981.9 520.3 981.6 521.7 981 522.9 980.7 523.5 980.4 524 979.9 524.4 979.5 524.8 978.9 525.2 978.2 525.3 976.7 525.5 974.1 526.4 971.8 527.2 969.6 528 967.7 528.8 967.7 528.8 967.7 528.8 967.4 530.2 966.9 531.8 966.7 532.6 966.4 533.5 966 534.3 965.6 535.1 965.2 535.8 964.7 536.3 963.7 537.3 963.1 538.2 962.4 538.9 962 539.2 961.7 539.5 961.2 539.7 960.8 540 960.3 540.2 959.7 540.3 957.2 540.8 952.7 540.8 952.7 540.8L940.2 548.8 934.7 550.8 925.7 552.3C925.7 552.3 922.7 558.3 921.7 560.3 921.4 560.8 921 561.3 920.4 561.8 919.9 562.3 919.2 562.9 918.4 563.3 917.7 563.7 916.9 564.1 916.1 564.4 915.2 564.6 914.4 564.8 913.7 564.8 912.9 564.8 912.3 564.7 911.7 564.5 911.1 564.3 910.5 564 910 563.8 909.5 563.5 908.9 563.3 908.4 563.1 907.9 562.9 907.3 562.8 906.7 562.8 905.4 562.8 903.8 562.5 902.2 562.2 900.7 561.9 899.2 561.5 898.2 561.3 897.7 561.2 897 560.8 896.2 560.4 895.5 559.9 894.8 559.3 894.2 558.7 893.7 558 893.4 557.4 893.5 556.8 893.5 556.5 893.7 556.2 893.9 556 894.2 555.7 894.6 555.5 895.2 555.3 897.4 554.5 899.2 553.9 900.6 553.3 902.1 552.7 903.2 552 904.2 551.3 905.2 550.5 905.9 549.9 906.6 549.1 907.2 548.3 907.7 547.3 908.2 545.8 909.2 542.8 910.2 537.3 910.2 537.3L911.2 531.8C911.2 531.8 909.8 531.7 908.7 531 908.2 530.6 907.8 530.2 907.6 529.5 907.5 529.1 907.5 528.7 907.6 528.3 907.7 527.9 907.9 527.4 908.2 526.8 908.8 525.7 909.1 524.3 909.2 522.9 909.3 521.4 909.3 519.9 909.3 518.5 909.3 517.1 909.3 515.8 909.6 514.8 909.7 514.3 909.9 513.9 910.2 513.5 910.4 513.2 910.7 512.9 911.2 512.8 912.1 512.5 912.8 512.1 913.5 511.6 914.1 511 914.6 510.4 914.8 509.8 915.1 509.2 915.1 508.5 914.8 508 914.6 507.5 914.1 507 913.2 506.8 912.3 506.5 911.6 506.3 911.1 506.1 910.5 505.8 910.2 505.6 909.9 505.3 909.6 505 909.4 504.6 909.3 504.1 909.2 503.6 909.2 503 909.2 502.3 909.2 501.5 909 500.9 908.7 500.2 908.5 499.5 908.2 498.9 907.9 498.3 907.6 497.7 907.3 497 907.3 496.4 907.2 495.7 907.3 495 907.7 494.3 908.1 493.5 908.4 492.8 908.6 492.1 908.7 491.4 908.8 490.7 908.7 490.2 908.6 489.6 908.2 489.1 907.7 488.8 907.1 488.5 906.3 488.3 905.2 488.3 900.7 488.3 898.2 487.8 898.2 487.8 898.2 487.8 895.9 485.5 893.6 483 892.5 481.8 891.3 480.5 890.4 479.4 889.5 478.2 888.8 477.3 888.7 476.8 888.6 476.3 888.2 476 887.8 475.7 887.5 475.5 887 475.3 886.7 475 886.5 474.8 886.3 474.5 886.5 474 886.7 473.5 887.2 472.8 888.2 471.8 889.2 470.8 890 469.6 890.7 468.5 891.4 467.3 892 466.1 892.5 465 893 463.9 893.5 462.9 894 462.2 894.5 461.4 895.1 460.9 895.7 460.8 896.9 460.5 898.1 460.5 898.9 460.2 899.3 460.1 899.6 459.8 899.8 459.5 900.1 459.1 900.2 458.5 900.2 457.8 900.2 456.3 899.8 454.8 899.7 453.5 899.7 452.9 899.8 452.4 900 451.9 900.2 451.4 900.6 451 901.2 450.8 901.8 450.5 902.4 450.4 903 450.4 903.5 450.4 904 450.5 904.5 450.7 905 451 905.4 451.3 905.7 451.7 906.1 452.1 906.4 452.7 906.7 453.3 907.2 454.5 907.3 455.3 907.7 455.9 908.1 456.4 908.7 456.8 910.2 457.3 913.2 458.3 921.2 460.8 921.2 460.8 921.2 460.8 921.4 461.2 922 461.7 922.6 462.3 923.4 463 924.7 463.8 925.9 464.5 927.2 465.7 928.4 466.3 929.1 466.6 929.7 466.8 930.3 466.7 930.9 466.7 931.6 466.4 932.2 465.8 933.4 464.5 934.6 463.7 935.4 463.1 936.2 462.5 936.7 462.3 936.7 462.3 936.7 462.3 937.9 462.3 939.2 461.9 939.9 461.6 940.6 461.3 941.1 460.8 941.7 460.3 942.1 459.7 942.2 458.8 942.3 457.9 942.8 456.8 943.3 455.6 943.9 454.4 944.7 453.1 945.4 452 946.8 449.7 948.2 447.8 948.2 447.8 948.2 447.8 948.1 447 948.4 446.3 948.5 445.9 948.8 445.5 949.2 445.3 949.7 445 950.3 444.8 951.2 444.8 952.1 444.8 952.9 444.7 953.6 444.4 954.3 444.2 954.9 443.8 955.4 443.3 955.9 442.8 956.3 442.2 956.5 441.4 956.7 440.7 956.8 439.8 956.7 438.8 956.6 437.8 956.3 437 955.9 436.3 955.5 435.6 955.2 435 954.9 434.5 954.6 434 954.4 433.5 954.5 433 954.6 432.4 954.9 431.9 955.7 431.3 957.2 430 958.6 429.3 959.6 428.9 960.6 428.4 961.2 428.3 961.2 428.3 961.2 428.3 961.4 429.4 961.9 430.6 962.2 431.2 962.5 431.8 962.9 432.3 963.2 432.8 963.7 433.2 964.2 433.3 964.7 433.4 965.2 433.4 965.8 433.2 966.4 433 966.9 432.8 967.4 432.5 968.4 431.9 969.2 431.3 969.2 431.3L967.7 420.3C967.7 420.3 968.7 419.4 969.6 418 970 417.3 970.4 416.4 970.6 415.5 970.9 414.5 970.9 413.4 970.7 412.3 969.7 407.8 967.7 400.8 967.7 400.8L960.7 392.3C960.7 392.3 960.6 391 960.6 389.5 960.6 388.8 960.6 388 960.7 387.2 960.8 386.5 960.9 385.8 961.2 385.3 961.7 384.3 962.2 382.2 962.6 380.3 962.9 378.4 963.2 376.8 963.2 376.8L961.7 366.8 957.7 361.5 956.5 359.8 956.4 359.7z" stroke="black" stroke-width="1" fill="transparent"/>
</svg>