<svg xmlns="http://www.w3.org/2000/svg" viewBox="886.5 356.1 574.7 358.4">
  <path d="M1439.2 502.6L1439.1 502.6 1438.2 500.8C1437.6 499.5 1436.9 498.7 1436.2 498.2 1435.5 497.6 1434.9 497.4 1434.2 497.4 1433.5 497.3 1432.8 497.5 1432.1 497.8 1431.5 498 1430.8 498.4 1430.2 498.8 1429.6 499.2 1429 499.3 1428.6 499.4 1428.1 499.4 1427.7 499.3 1427.4 499.1 1427.1 498.9 1426.9 498.6 1426.7 498.2 1426.5 497.8 1426.3 497.3 1426.2 496.8 1426.1 496.3 1425.8 495.9 1425.6 495.6 1425.3 495.3 1424.9 495 1424.5 494.9 1424.1 494.8 1423.6 494.8 1423.2 494.8 1422.7 494.9 1422.2 495 1421.7 495.3 1420.7 495.8 1419.3 495.9 1418.2 495.9 1417.1 495.9 1416.2 495.8 1416.2 495.8 1416.2 495.8 1415.2 492.8 1414.7 490.3 1414.6 489.7 1414.4 489.2 1414.1 488.8 1413.9 488.4 1413.6 488.1 1413.2 487.9 1412.4 487.4 1411.4 487.3 1410.2 487.3 1408.9 487.3 1408.2 487.2 1407.4 486.9 1406.7 486.5 1405.9 486 1404.7 485.3 1404.1 484.9 1403.4 484.7 1402.7 484.6 1402 484.5 1401.3 484.5 1400.7 484.5 1399.6 484.5 1398.7 484.8 1398.7 484.8 1398.7 484.8 1397.2 484.9 1395.4 485.2 1393.6 485.4 1391.4 485.8 1390.2 486.3 1389.6 486.5 1388.5 486.6 1387.4 486.6 1386.2 486.6 1384.9 486.4 1383.6 486.2 1382.2 485.9 1381 485.6 1379.9 485.2 1378.9 484.8 1378.1 484.3 1377.7 483.8 1377.3 483.3 1377 482.7 1376.8 482.1 1376.6 481.5 1376.5 480.9 1376.4 480.2 1376.2 478.8 1376.2 477.3 1376.2 475.8 1376.2 475 1376 474.3 1375.8 473.8 1375.6 473.2 1375.2 472.7 1374.8 472.4 1374.4 472 1373.8 471.8 1373.2 471.8 1372.6 471.8 1371.9 471.9 1371.2 472.3 1370.4 472.7 1369.7 472.7 1369.1 472.5 1368.4 472.2 1367.8 471.8 1367.3 471.4 1366.3 470.4 1365.7 469.3 1365.7 469.3 1365.7 469.3 1364.1 468.7 1362.1 467.7 1361.2 467.3 1360.1 466.7 1359.2 466.1 1358.2 465.6 1357.3 464.9 1356.7 464.3 1356.1 463.7 1355.4 463.3 1354.8 463 1354.3 462.8 1353.7 462.6 1353.2 462.6 1352.3 462.5 1351.7 462.8 1351.7 462.8 1351.7 462.8 1351.1 463.3 1350.2 463.9 1349.3 464.4 1348.2 465 1347.2 465.3 1346.2 465.5 1344.6 465.5 1343.2 465.5 1341.8 465.4 1340.7 465.3 1340.7 465.3 1340.7 465.3 1340.2 463.9 1339.5 462.2 1338.8 460.5 1337.9 458.5 1337.2 457.3 1336.8 456.7 1336.2 456.3 1335.5 456.1 1334.7 455.9 1333.9 455.8 1333.1 455.9 1331.6 455.9 1330.2 456.3 1330.2 456.3 1330.2 456.3 1329.3 456.9 1328.1 457.3 1327.5 457.5 1326.9 457.6 1326.2 457.5 1325.5 457.5 1324.8 457.3 1324.2 456.8 1323.6 456.3 1323 456 1322.3 455.8 1321.7 455.7 1321.1 455.6 1320.4 455.7 1319.1 455.9 1317.4 456.5 1315.2 457.3 1314.1 457.7 1313.1 457.9 1312.3 458 1311.5 458.1 1310.8 458.1 1310.1 457.9 1309.5 457.6 1308.8 457.3 1308.2 456.7 1307.6 456.1 1306.9 455.3 1306.2 454.3 1305.4 453.3 1304.8 452.7 1304.2 452.3 1303.5 451.9 1303 451.8 1302.4 451.7 1301.2 451.7 1299.9 452 1298.2 451.8 1296.4 451.5 1295.1 451.3 1293.9 451.2 1292.7 451.2 1291.7 451.3 1290.7 451.8 1288.7 452.8 1284.2 454.8 1284.2 454.8 1284.2 454.8 1285.2 459.3 1285.7 461.3 1286.2 463.3 1287.2 466.8 1287.7 469.8 1287.8 470.5 1287.8 471.5 1287.6 472.5 1287.5 473.5 1287.3 474.5 1287 475.5 1286.5 477.3 1286 478.9 1286 478.9L1285.4 478.9C1282.7 478.5 1280 478.9 1276.9 478.5 1275.8 478.3 1273.5 477.7 1271.3 476.9 1270.2 476.5 1269.1 476 1268.2 475.5 1267.3 475.1 1266.6 474.6 1266.2 474.1L1265.8 473.7C1265.2 473 1264.5 472.3 1263.7 471.7 1263 471.1 1262.1 470.5 1261.2 469.9 1259.4 468.8 1257.4 467.9 1255.8 467.3 1254.9 467 1253.8 466.8 1252.8 466.4 1252.1 466.1 1251.6 465.8 1251.1 465.4 1250.7 465 1250.4 464.5 1250.1 464 1249.6 463 1249.4 461.7 1249.2 460.3 1248.9 458.9 1248.7 457.4 1248.2 455.9 1247.9 455.1 1247.6 454.3 1247.1 453.5 1246.7 452.8 1246.1 452 1245.4 451.2 1244.7 450.5 1244.1 449.9 1243.5 449.5 1242.9 449.1 1242.3 448.9 1241.7 448.8 1241.2 448.6 1240.7 448.7 1240.2 448.7 1239.7 448.8 1239.2 449 1238.7 449.1 1237.7 449.5 1236.8 450 1235.7 450.3 1235.2 450.5 1234.7 450.6 1234.1 450.6 1233.5 450.6 1232.9 450.5 1232.3 450.3 1229.5 449.4 1227.8 448.7 1226 448.4 1225.1 448.2 1224.1 448.1 1223 448.2 1221.9 448.2 1220.7 448.4 1219.2 448.8 1216.5 449.4 1214.1 449.7 1211.7 449.9 1209.2 450 1206.8 450 1204 450 1203.1 450 1201.5 450.1 1200.4 450.5 1199.1 451 1198.2 451.5 1197.5 452.1 1196.7 452.7 1196.1 453.3 1195.4 453.9 1194.8 454.5 1194.1 455 1193.2 455.5 1192.2 456 1191 456.4 1189.4 456.6 1187.9 456.9 1186.7 457.1 1185.8 457.5 1184.9 457.8 1184.1 458.1 1183.5 458.6 1182.1 459.6 1181 460.9 1178.9 463.1 1177.8 464.3 1176.8 465.1 1175.9 465.5 1175.1 466 1174.3 466.2 1173.6 466.2 1172.9 466.1 1172.3 465.9 1171.7 465.5 1171.1 465.1 1170.5 464.6 1169.9 464 1168.7 462.8 1167.5 461.4 1165.9 460.3 1165.1 459.8 1164.3 459.4 1163.3 459.1 1162.3 458.9 1161.2 458.8 1159.9 459 1158.7 459.2 1157.6 459.5 1156.7 459.5 1155.7 459.6 1154.8 459.6 1154 459.5 1153.1 459.4 1152.4 459.2 1151.6 458.9 1150.9 458.5 1150.1 458 1149.4 457.4 1148.6 456.7 1147.8 455.9 1146.9 454.9 1145.1 452.8 1144 451.5 1142.8 450.4 1141.5 449.4 1140.1 448.6 1137.5 447.5 1136.6 445.7 1135.7 444.5 1134.7 443.6 1133.7 442.7 1132.7 442.2 1131.6 442 1130.5 441.8 1129.4 441.9 1128.2 442.1 1126.9 442.4 1125.7 442.8 1124.3 443.3 1124 443.5 1123.6 443.6 1123.2 443.8 1123.2 443.8 1123.1 442.9 1122.6 441.9 1122.3 441.3 1122 440.7 1121.5 440.2 1121 439.7 1120.4 439.2 1119.7 438.8 1118.2 438 1116.7 437 1115.2 436 1113.8 435 1112.4 434 1111.2 433.3 1109.9 432.5 1108.6 431.9 1107.1 431.2 1105.7 430.4 1104.2 429.5 1102.7 428.3 1101.9 427.7 1101.2 426.9 1100.6 426.1 1100 425.4 1099.5 424.6 1099.1 423.9 1098.2 422.4 1097.7 421.3 1097.7 421.3 1097.7 421.3 1095.4 420.4 1092.9 419.1 1091.7 418.5 1090.4 417.7 1089.2 416.9 1088.1 416 1087.2 415.2 1086.7 414.3 1085.7 412.5 1081.8 407.8 1078.2 403.5 1074.6 399.2 1071.2 395.3 1071.2 395.3 1071.2 395.3 1066.7 386.8 1065.7 384.8 1065.2 383.8 1063.6 381.4 1061.8 379 1060.1 376.7 1058.2 374.3 1057.2 373.3 1056.7 372.8 1056.3 372.1 1056.1 371.4 1055.8 370.7 1055.6 370 1055.4 369.2 1055.2 368.5 1054.9 367.8 1054.6 367.3 1054.3 366.8 1053.8 366.4 1053.2 366.3 1051.9 366 1051.2 365.9 1050.6 365.5 1049.9 365.2 1049.4 364.5 1048.7 363.3 1048.3 362.7 1047.8 362.1 1047.3 361.6 1046.8 361.2 1046.2 360.8 1045.6 360.6 1045 360.4 1044.4 360.3 1043.8 360.4 1043.3 360.5 1042.7 360.8 1042.2 361.3 1041.2 362.3 1038.3 363.9 1035.7 365.3 1033.1 366.7 1030.7 367.8 1030.7 367.8 1030.7 367.8 1029.6 369 1027.9 370.4 1027 371 1026.1 371.7 1025 372.2 1023.9 372.8 1022.8 373.2 1021.7 373.3 1020.6 373.4 1019.6 373.4 1018.7 373.4 1017.8 373.3 1017 373.2 1016.2 373 1014.8 372.7 1013.7 372 1012.7 371.3 1011.7 370.5 1011.1 369.9 1010.4 369.4 1009.7 368.9 1008.9 368.5 1007.7 368.3 1006.4 368 1005.6 367.8 1004.7 367.6 1003.8 367.4 1002.9 367.3 1001.7 367.3 1000.4 367.3 998.2 367.7 996.2 368 994.3 368.4 992.7 368.8 992.7 368.8L992.2 368.4C991.6 368.5 988.6 367.7 988 367.6 986.2 367.2 984.8 366.8 983.7 366.4 982.6 366 981.7 365.5 980.9 365.1 979.2 364.2 977.8 363.1 975.1 361.5 974.2 361 973 360.7 972.2 360L971.9 359.7C971.8 359.5 971.6 359.4 971.5 359.2 970.2 358.2 968.9 357.4 967.6 356.9 966.3 356.4 965 356.1 963.7 356.1 962.4 356.2 961.1 356.5 959.9 357.1 958.7 357.7 957.5 358.6 956.4 359.7L957.7 361.5 961.7 366.8 963.2 376.8C963.2 376.8 962.9 378.4 962.6 380.3 962.2 382.2 961.7 384.3 961.2 385.3 960.9 385.8 960.8 386.5 960.7 387.2 960.6 388 960.6 388.8 960.6 389.5 960.6 391 960.7 392.3 960.7 392.3L967.7 400.8C967.7 400.8 969.7 407.8 970.7 412.3 970.9 413.4 970.9 414.5 970.6 415.5 970.4 416.4 970 417.3 969.6 418 968.7 419.4 967.7 420.3 967.7 420.3L969.2 431.3C969.2 431.3 968.4 431.9 967.4 432.5 966.9 432.8 966.4 433 965.8 433.2 965.2 433.4 964.7 433.4 964.2 433.3 963.7 433.2 963.2 432.8 962.9 432.3 962.5 431.8 962.2 431.2 961.9 430.6 961.4 429.4 961.2 428.3 961.2 428.3 961.2 428.3 960.6 428.4 959.6 428.9 958.6 429.3 957.2 430 955.7 431.3 954.9 431.9 954.6 432.4 954.5 433 954.4 433.5 954.6 434 954.9 434.5 955.2 435 955.6 435.6 955.9 436.3 956.3 437 956.6 437.8 956.7 438.8 956.8 439.8 956.7 440.7 956.5 441.4 956.3 442.2 955.9 442.8 955.4 443.3 954.9 443.8 954.3 444.2 953.6 444.4 952.9 444.7 952.1 444.8 951.2 444.8 950.3 444.8 949.7 445 949.2 445.3 948.8 445.5 948.5 445.9 948.4 446.3 948.1 447 948.2 447.8 948.2 447.8 948.2 447.8 946.8 449.7 945.4 452 944.7 453.1 943.9 454.4 943.3 455.6 942.8 456.8 942.3 457.9 942.2 458.8 942.1 459.7 941.7 460.3 941.1 460.8 940.6 461.3 939.9 461.6 939.2 461.9 937.9 462.3 936.7 462.3 936.7 462.3 936.7 462.3 936.2 462.5 935.4 463.1 934.6 463.7 933.4 464.5 932.2 465.8 931.6 466.4 930.9 466.7 930.3 466.7 929.7 466.8 929.1 466.6 928.4 466.3 927.2 465.7 925.9 464.5 924.7 463.8 923.4 463 922.6 462.3 922 461.7 921.4 461.2 921.2 460.8 921.2 460.8 921.2 460.8 913.2 458.3 910.2 457.3 908.7 456.8 908.1 456.4 907.7 455.9 907.3 455.3 907.2 454.5 906.7 453.3 906.4 452.7 906.1 452.1 905.7 451.7 905.4 451.3 905 451 904.5 450.7 904 450.5 903.5 450.4 903 450.4 902.4 450.4 901.8 450.5 901.2 450.8 900.6 451 900.2 451.4 900 451.9 899.8 452.4 899.7 452.9 899.7 453.5 899.8 454.8 900.2 456.3 900.2 457.8 900.2 458.5 900.1 459.1 899.8 459.5 899.6 459.8 899.3 460.1 898.9 460.2 898.1 460.5 896.9 460.5 895.7 460.8 895.1 460.9 894.5 461.4 894 462.2 893.5 462.9 893 463.9 892.5 465 892 466.1 891.4 467.3 890.7 468.5 890 469.6 889.2 470.8 888.2 471.8 887.2 472.8 886.7 473.5 886.5 474 886.3 474.5 886.5 474.8 886.7 475 887 475.3 887.5 475.5 887.8 475.7 888.2 476 888.6 476.3 888.7 476.8 888.8 477.3 889.5 478.2 890.4 479.4 891.3 480.5 892.5 481.8 893.6 483 895.9 485.5 898.2 487.8 898.2 487.8 898.2 487.8 900.7 488.3 905.2 488.3 906.3 488.3 907.1 488.5 907.7 488.8 908.2 489.1 908.6 489.6 908.7 490.2 908.8 490.7 908.7 491.4 908.6 492.1 908.4 492.8 908.1 493.5 907.7 494.3 907.3 495 907.2 495.7 907.3 496.4 907.3 497 907.6 497.7 907.9 498.3 908.2 498.9 908.5 499.5 908.7 500.2 909 500.9 909.2 501.5 909.2 502.3 909.2 503 909.2 503.6 909.3 504.1 909.4 504.6 909.6 505 909.9 505.3 910.2 505.6 910.6 505.8 911.1 506.1 911.6 506.3 912.3 506.5 913.2 506.8 914.1 507 914.6 507.5 914.8 508 915.1 508.5 915.1 509.2 914.8 509.8 914.6 510.4 914.1 511 913.5 511.6 912.8 512.1 912.1 512.5 911.2 512.8 910.7 512.9 910.4 513.2 910.2 513.5 909.9 513.9 909.7 514.3 909.6 514.8 909.3 515.8 909.3 517.1 909.3 518.5 909.3 519.9 909.3 521.4 909.2 522.9 909.1 524.3 908.8 525.7 908.2 526.8 907.9 527.4 907.7 527.9 907.6 528.3 907.5 528.7 907.5 529.1 907.6 529.5 907.8 530.2 908.2 530.6 908.7 531 909.8 531.7 911.2 531.8 911.2 531.8L910.2 537.3C910.2 537.3 909.2 542.8 908.2 545.8 907.7 547.3 907.2 548.3 906.6 549.1 905.9 549.9 905.2 550.5 904.2 551.3 903.2 552 902.1 552.7 900.6 553.3 899.2 553.9 897.4 554.5 895.2 555.3 894.6 555.5 894.2 555.7 893.9 556 893.7 556.2 893.5 556.5 893.5 556.8 893.4 557.4 893.7 558 894.2 558.7 894.8 559.3 895.5 559.9 896.2 560.4 897 560.8 897.7 561.2 898.2 561.3 899.2 561.5 900.7 561.9 902.2 562.2 903.8 562.5 905.4 562.8 906.7 562.8 907.3 562.8 907.9 562.9 908.4 563.1 908.9 563.3 909.5 563.5 910 563.8 910.5 564 911.1 564.3 911.7 564.5 912.3 564.7 912.9 564.8 913.7 564.8 914.4 564.8 915.2 564.6 916.1 564.4 916.9 564.1 917.7 563.7 918.4 563.3 919.2 562.9 919.9 562.3 920.4 561.8 921 561.3 921.4 560.8 921.7 560.3 922.7 558.3 925.7 552.3 925.7 552.3L934.7 550.8 940.2 548.8 952.7 540.8C952.7 540.8 957.2 540.8 959.7 540.3 960.3 540.2 960.8 540 961.2 539.7 961.7 539.5 962 539.2 962.4 538.9 963.1 538.2 963.7 537.3 964.7 536.3 965.2 535.8 965.6 535.1 966 534.3 966.4 533.5 966.7 532.6 966.9 531.8 967.4 530.2 967.7 528.8 967.7 528.8 967.7 528.8 969.6 528 971.8 527.2 974.1 526.4 976.7 525.5 978.2 525.3 978.9 525.2 979.5 524.8 979.9 524.4 980.4 524 980.7 523.5 981 522.9 981.6 521.7 981.9 520.3 982.7 519.3 983.4 518.3 984.8 515.8 986 513.5 987.2 511.3 988.2 509.3 988.2 509.3L996.7 504.8 998.8 504C999.2 505.2 1000.2 506.4 1001 507.5 1001.4 508.1 1001.8 508.7 1002 509.2 1002.2 509.7 1002.4 510.3 1002.2 510.7 1002 511.8 1001.6 512.7 1001.1 513.6 1000.6 514.5 999.9 515.4 999.2 516.2 997.6 517.8 995.7 519.3 993.7 520.7 991.7 522.1 989.6 523.5 987.6 524.8 985.7 526.2 983.9 527.5 982.5 529 982.1 529.4 981.9 529.9 981.7 530.3 981.5 530.8 981.4 531.3 981.3 531.8 981.3 532.8 981.4 533.9 981.6 535 981.7 536 981.8 537.1 981.6 538.1 981.5 538.7 981.3 539.2 981.1 539.7 980.8 540.2 980.4 540.6 979.9 541.1L983.2 550.3 989.2 548.8 997.7 554.3 997.7 558.8C997.7 558.8 1012.7 558.8 1014.7 558.8 1015.7 558.8 1017.1 559.2 1018.2 559.5 1019.3 559.9 1020.2 560.3 1020.2 560.3L1022.7 564.3 1014.2 570.3 1018.7 576.3 1011.2 589.3 1014.2 601.8 1016.7 615.8 1024.7 615.8C1024.7 615.8 1040.2 620.3 1043.2 621.3 1044.7 621.8 1047.4 622.9 1050.1 624.2 1051.5 624.9 1052.8 625.6 1053.9 626.3 1055.1 627 1056.1 627.7 1056.7 628.3 1057.3 628.9 1058 629.4 1058.6 629.7 1059.2 630.1 1059.8 630.3 1060.4 630.5 1061.4 630.8 1062.2 630.8 1062.2 630.8L1067.7 628.8 1068.2 619.3 1078.7 613.3 1083.2 616.3 1089.7 612.8 1100.7 612.8 1105.2 610.3 1111.2 609.8 1115.7 602.8 1126.2 603.8 1139.8 602.5C1139.5 603.4 1139.3 604.1 1139.2 604.9 1139 605.7 1139 606.7 1139 607.9 1139.5 608.4 1139.9 609.2 1140.2 610.1 1140.6 610.9 1140.8 611.8 1140.9 612.5 1140.6 613.2 1140.1 613.9 1139.6 614.6 1139.1 615.2 1138.7 615.9 1138.5 616.6 1138.2 617.6 1138.2 621.6 1138.5 622.6 1138.6 623 1138.9 623.5 1139 623.8 1139.2 625.2 1138.7 627 1138.7 628.5 1139.2 629.1 1139.9 629.7 1140.7 630.2 1141.5 630.8 1142.4 631.2 1143.4 631.7 1144.3 632.1 1145.3 632.6 1146.2 633.1 1147 633.6 1147.8 634.1 1148.3 634.7 1149.1 635.6 1149.6 636.4 1150.1 637.3 1150.5 638.2 1150.7 639.1 1151 639.9 1151.2 640.8 1151.5 641.6 1151.8 642.4 1152.1 643.1 1152.5 643.8 1153 644.4 1153.5 645 1154.6 645.5 1155.3 645.9 1156.2 646.6 1157 647 1157.8 647.3 1158.6 647.6 1159.3 647.7 1160 647.7 1160.6 647.7 1161.2 647.6 1161.8 647.5 1162.3 647.3 1162.8 647 1163.3 646.7 1164.3 646.1 1165.2 645.4 1166.1 644.8 1166.5 644.5 1166.9 644.3 1167.3 644.2 1167.8 644 1168.2 643.9 1168.7 644 1169.3 644 1169.9 644.3 1170.4 644.6 1170.9 644.9 1171.5 645.4 1172 645.8 1172.5 646.2 1172.9 646.6 1173.4 647 1173.9 647.3 1174.4 647.6 1174.9 647.7L1175.4 648.6 1176.5 648.8C1177.7 649.8 1179.6 651.1 1181.7 652.2 1182.7 652.8 1183.7 653.3 1184.7 653.6 1185.7 654 1186.6 654.2 1187.3 654.2 1189.5 654.3 1190.3 654.1 1191.2 654.1 1192.2 654.2 1193.1 654.5 1195.2 655.6 1196 655.7 1196.7 655.5 1197.2 655.3 1197.8 655.1 1198.4 654.7 1198.8 654.4 1199.3 654 1199.8 653.6 1200.3 653.3 1200.8 653 1201.4 652.7 1202 652.5 1203 652.3 1203.9 652.5 1204.9 652.4 1206.3 652.2 1207.4 651.4 1208.7 651.1 1209.9 650.9 1211.1 650.9 1212.4 651 1213.6 651.1 1214.8 651.3 1216 651.3 1217.6 651.4 1219.1 651.2 1220.7 651.3 1221.6 651.3 1222.4 651.7 1223.3 652.1 1223.7 652.2 1224.1 652.4 1224.5 652.5 1225 652.5 1225.4 652.5 1225.8 652.4 1226.6 652.2 1227.2 651.6 1227.7 651.1 1228.3 650.5 1228.7 649.9 1229.3 649.5 1230.1 648.9 1230.8 648.4 1231.6 648.1 1232.4 647.8 1233.1 647.7 1233.9 647.6 1234.7 647.6 1235.4 647.6 1236.2 647.8 1237.1 647.9 1237.9 648.1 1238.7 648.4 1239.3 648.6 1239.6 648.6 1239.9 648.7 1240.2 648.8 1240.5 649 1241 649.5 1242.2 650.5 1242.8 652 1244 652.9L1245.4 652.8C1246.2 652 1247.3 651.3 1248.4 651 1249.1 651 1249.6 651.2 1250.1 651.6 1250.5 651.9 1250.9 652.5 1251.3 653 1251.7 653.6 1252.1 654.2 1252.7 654.7 1253.2 655.2 1253.9 655.7 1254.7 656 1255.8 656.3 1256.6 656.5 1257.3 656.5 1258 656.4 1258.5 656.3 1259.1 656.1 1259.6 655.9 1260.1 655.7 1260.7 655.5 1261.2 655.3 1261.8 655.2 1262.6 655.2 1263.3 655.8 1263.9 656.2 1264.5 656.7 1265.1 657.2 1265.7 657.8 1266.2 658.6 1266.5 659 1266.5 659.2 1266.9 659.5L1267.5 659.9C1268.3 660.2 1269.2 660.3 1270.1 660.4 1270.9 660.6 1271.8 660.8 1272.6 661.5 1274 662.6 1275.1 664.4 1276.3 665.8 1277 666.6 1277.6 667.2 1278.4 667.7 1279.2 668.2 1280.1 668.5 1281.2 668.5 1281.7 668.5 1282.2 668.4 1282.6 668.2 1283.1 668 1283.5 667.8 1283.9 667.4L1285.3 667.3 1286.1 668.2 1287.5 668C1288 667.8 1288.3 667.3 1288.5 666.9 1288.8 666.4 1289 665.8 1289.1 665.3 1289.4 664.1 1289.6 662.9 1289.7 662 1290.1 661.8 1290.5 661.7 1291 661.7 1291.5 661.7 1291.9 661.8 1292.2 662 1292.9 663.3 1292.7 664.7 1293.3 666 1293.7 666.8 1294.2 667.3 1294.9 667.6 1295.6 667.9 1296.3 668 1297.1 667.9 1298.7 667.9 1300.4 667.4 1301.8 667.6 1302.1 668 1302.2 668.6 1302.2 669.1 1302.2 669.6 1302.2 670.2 1302.2 670.8 1302.3 671.3 1302.4 671.9 1302.8 672.4 1303.2 672.9 1303.8 673.4 1304.8 673.8 1305.5 674 1306.3 674.1 1307 674.1 1307.8 674.1 1308.6 674.1 1309.3 674.1 1309.7 674.3 1310 674.5 1310.2 674.8 1310.4 675.1 1310.6 675.4 1310.7 675.8 1311.1 676.5 1311.4 677.3 1312.1 677.7 1312.5 678 1312.9 678.2 1313.3 678.3 1313.8 678.3 1314.2 678.3 1314.7 678.3 1315.7 678.2 1316.6 677.9 1317.5 677.9 1318.1 678.2 1318.4 678.6 1318.8 679.1 1319.1 679.5 1319.5 680 1320.1 680.2 1320.9 680.2 1321.7 680 1322.5 679.8 1323 680 1323.4 680.2 1323.8 680.5 1324.1 680.7 1324.4 681.1 1324.7 681.5 1325.2 682.3 1325.5 683.2 1325.7 684.2 1326 685.1 1326.3 686 1326.7 686.8 1327 687.1 1327.2 687.5 1327.5 687.7 1327.8 687.9 1328.1 688.1 1328.6 688.2 1329.1 688.8 1329.3 689.6 1329.6 690.4 1329.9 691.2 1330.3 691.9 1330.9 692.3L1332.2 692.4C1332.6 691.8 1333.1 691.1 1333.6 690.5 1334.1 689.8 1334.7 689.3 1335.5 689.2L1336.5 689.9C1336.8 690.7 1336.7 691.7 1336.6 692.7 1336.5 693.2 1336.5 693.6 1336.5 694.1 1336.6 694.6 1336.7 695 1336.9 695.4 1337.8 696.1 1343.9 698.6 1345 698.8 1345.6 698.6 1346.1 698.3 1346.7 698 1347.3 697.7 1347.9 697.6 1348.6 697.6L1349.5 698.3C1349.8 699 1350.1 699.8 1350.4 700.5 1351.2 701.2 1352 701.5 1352.9 701.7 1353.7 702 1354.6 702.1 1355.4 702.2 1356.3 702.3 1357.1 702.5 1357.9 702.7 1358.7 703 1359.4 703.4 1360.1 704.1 1360.5 704.5 1360.7 705.1 1360.9 705.7 1361.1 706.2 1361.3 706.8 1361.5 707.3 1361.9 708.1 1364.8 713 1365.3 713.3L1365.5 714.5C1365.7 714.4 1365.8 714.2 1365.9 714.1 1366 714 1366.1 713.9 1366.2 713.9 1367.4 712.9 1368.8 711.7 1370.3 711.2 1372.8 710.5 1374.9 712.6 1376.9 710.1 1377.5 709.4 1378 708.6 1378.3 707.7 1379.7 702.8 1381.1 697.9 1382.5 693.1 1384.7 685.9 1386.9 678.8 1389 671.6 1390.6 666.1 1392 660.6 1393.7 655.1 1395.3 649.6 1397 644.1 1398.6 638.6 1400.5 632.2 1402.3 625.8 1404.2 619.5 1409 603.7 1413.9 588 1418.7 572.3 1418.8 571.9 1420.1 569.9 1420.6 569.7 1421.1 569.4 1423.1 569.9 1423.5 570.4 1426.2 573.1 1429.3 576.9 1433.2 577.9 1433.9 578.1 1435 578 1435.7 578.1 1437.3 578.2 1439.3 578.1 1440.9 577.6 1441 577.5 1442.1 576.7 1442.3 576.5 1444 575.7 1445.8 576.3 1447.5 576.6 1448.6 575.9 1449.8 576.7 1450.8 576.9 1451.6 577 1452.6 577.1 1453.4 577.1 1454.4 577.1 1455.3 576.9 1456.3 576.9 1456.4 576.9 1456.8 577 1456.9 577L1460 577C1460.4 576.7 1460.9 576.2 1461.2 575.8 1460.7 574.9 1459.6 574.1 1458.9 573.5 1457.9 572.5 1456.8 571.7 1455.6 571 1455.4 570.8 1454.1 570.4 1454 570.3 1452.6 569.2 1450.8 566.8 1450.9 564.9L1451.3 563.4C1451.3 563.1 1451.3 562.9 1451.5 562.6 1452 561.4 1453 560.2 1453.7 559.2L1453.7 558.6C1453.8 557.1 1454.2 553.9 1454.1 552.8 1454.1 552.7 1453.1 548.6 1453 548.6 1453 548.5 1451.2 545.5 1451.1 545.4 1450.7 544.9 1449.9 544.5 1449.5 544 1449.1 543.6 1447.5 541.5 1447.5 540.9L1447.8 539.2C1448 538.2 1448.5 536.9 1449.1 536 1449.2 535.2 1448.3 533.5 1447.9 532.9 1446.5 531.7 1444.5 531.7 1443.2 530.4 1442.3 529.3 1444.9 526 1445.5 525 1445.7 523.5 1441.6 520.7 1440.6 519.9 1439.7 519 1439.3 517.5 1439 516.3 1438.6 514.7 1438.2 513.6 1439.2 512.2L1440.1 510.7C1440.9 509.9 1442.6 509.4 1443.9 507.8L1443.8 507C1442.7 505.6 1441.3 505.3 1440.1 504.3 1439.8 504 1439.6 503.3 1439.2 502.6z" stroke="black" stroke-width="1" fill="transparent"/>
</svg>