<svg xmlns="http://www.w3.org/2000/svg" viewBox="761.5 601.8 604 358">
  <path d="M1365.5 714.5L1365.3 713.3C1364.8 713 1361.9 708.1 1361.5 707.3 1361.3 706.8 1361.1 706.2 1360.9 705.7 1360.7 705.1 1360.5 704.5 1360.1 704.1 1359.4 703.4 1358.7 703 1357.9 702.7 1357.1 702.5 1356.3 702.3 1355.4 702.2 1354.6 702.1 1353.7 702 1352.9 701.7 1352 701.5 1351.2 701.2 1350.4 700.5 1350.1 699.8 1349.8 699 1349.5 698.3L1348.6 697.6C1347.9 697.6 1347.3 697.7 1346.7 698 1346.1 698.3 1345.6 698.6 1345 698.8 1343.9 698.6 1337.8 696.1 1336.9 695.4 1336.7 695 1336.6 694.6 1336.5 694.1 1336.5 693.6 1336.5 693.2 1336.6 692.7 1336.7 691.7 1336.8 690.7 1336.5 689.9L1335.5 689.2C1334.7 689.3 1334.1 689.8 1333.6 690.5 1333.1 691.1 1332.6 691.8 1332.2 692.4L1330.9 692.3C1330.3 691.9 1329.9 691.2 1329.6 690.4 1329.3 689.6 1329.1 688.8 1328.6 688.2 1328.1 688.1 1327.8 687.9 1327.5 687.7 1327.2 687.5 1327 687.1 1326.7 686.8 1326.3 686 1326 685.1 1325.7 684.2 1325.5 683.2 1325.2 682.3 1324.7 681.5 1324.4 681.1 1324.1 680.7 1323.8 680.5 1323.4 680.2 1323 680 1322.5 679.8 1321.7 680 1320.9 680.2 1320.1 680.2 1319.5 680 1319.1 679.5 1318.8 679.1 1318.4 678.6 1318.1 678.2 1317.5 677.9 1316.6 677.9 1315.7 678.2 1314.7 678.3 1314.2 678.3 1313.8 678.3 1313.3 678.3 1312.9 678.2 1312.5 678 1312.1 677.7 1311.4 677.3 1311.1 676.5 1310.7 675.8 1310.6 675.4 1310.4 675.1 1310.2 674.8 1310 674.5 1309.7 674.3 1309.3 674.1 1308.6 674.1 1307.8 674.1 1307 674.1 1306.3 674.1 1305.5 674 1304.8 673.8 1303.8 673.4 1303.2 672.9 1302.8 672.4 1302.4 671.9 1302.3 671.3 1302.2 670.8 1302.2 670.2 1302.2 669.6 1302.2 669.1 1302.2 668.6 1302.1 668 1301.8 667.6 1300.4 667.4 1298.7 667.9 1297.1 667.9 1296.3 668 1295.6 667.9 1294.9 667.6 1294.2 667.3 1293.7 666.8 1293.3 666 1292.7 664.7 1292.9 663.3 1292.2 662 1291.9 661.8 1291.5 661.7 1291 661.7 1290.5 661.7 1290.1 661.8 1289.7 662 1289.6 662.9 1289.4 664.1 1289.1 665.3 1289 665.8 1288.8 666.4 1288.5 666.9 1288.3 667.3 1288 667.8 1287.5 668L1286.1 668.2 1285.3 667.3 1283.9 667.4C1283.5 667.8 1283.1 668 1282.6 668.2 1282.2 668.4 1281.7 668.5 1281.2 668.5 1280.1 668.5 1279.2 668.2 1278.4 667.7 1277.6 667.2 1277 666.6 1276.3 665.8 1275.1 664.4 1274 662.6 1272.6 661.5 1271.8 660.8 1270.9 660.6 1270.1 660.4 1269.2 660.3 1268.3 660.2 1267.5 659.9L1266.9 659.5C1266.5 659.2 1266.5 659 1266.2 658.6 1265.7 657.8 1265.1 657.2 1264.5 656.7 1263.9 656.2 1263.3 655.8 1262.6 655.2 1261.8 655.2 1261.2 655.3 1260.7 655.5 1260.1 655.7 1259.6 655.9 1259.1 656.1 1258.5 656.3 1258 656.4 1257.3 656.5 1256.6 656.5 1255.8 656.3 1254.7 656 1253.9 655.7 1253.2 655.2 1252.7 654.7 1252.1 654.2 1251.7 653.6 1251.3 653 1250.9 652.5 1250.5 651.9 1250.1 651.6 1249.6 651.2 1249.1 651 1248.4 651 1247.3 651.3 1246.2 652 1245.4 652.8L1244 652.9C1242.8 652 1242.2 650.5 1241 649.5 1240.5 649 1240.2 648.8 1239.9 648.7 1239.6 648.6 1239.3 648.6 1238.7 648.4 1237.9 648.1 1237.1 647.9 1236.2 647.8 1235.4 647.6 1234.7 647.6 1233.9 647.6 1233.1 647.7 1232.4 647.8 1231.6 648.1 1230.8 648.4 1230.1 648.9 1229.3 649.5 1228.7 649.9 1228.3 650.5 1227.7 651.1 1227.2 651.6 1226.6 652.2 1225.8 652.4 1225.4 652.5 1225 652.5 1224.5 652.5 1224.1 652.4 1223.7 652.2 1223.3 652.1 1222.4 651.7 1221.6 651.3 1220.7 651.3 1219.1 651.2 1217.6 651.4 1216 651.3 1214.8 651.3 1213.6 651.1 1212.4 651 1211.1 650.9 1209.9 650.9 1208.7 651.1 1207.4 651.4 1206.3 652.2 1204.9 652.4 1203.9 652.5 1203 652.3 1202 652.5 1201.4 652.7 1200.8 653 1200.3 653.3 1199.8 653.6 1199.3 654 1198.8 654.4 1198.4 654.7 1197.8 655.1 1197.2 655.3 1196.7 655.5 1196 655.7 1195.2 655.6 1193.1 654.5 1192.2 654.2 1191.2 654.1 1190.3 654.1 1189.5 654.3 1187.3 654.2 1186.6 654.2 1185.7 654 1184.7 653.6 1183.7 653.3 1182.7 652.8 1181.7 652.2 1179.6 651.1 1177.7 649.8 1176.5 648.8L1175.4 648.6 1174.9 647.7C1174.4 647.6 1173.9 647.3 1173.4 647 1172.9 646.6 1172.5 646.2 1172 645.8 1171.5 645.4 1170.9 644.9 1170.4 644.6 1169.9 644.3 1169.3 644 1168.7 644 1168.2 643.9 1167.8 644 1167.3 644.2 1166.9 644.3 1166.5 644.5 1166.1 644.8 1165.2 645.4 1164.3 646.1 1163.3 646.7 1162.8 647 1162.3 647.3 1161.8 647.5 1161.2 647.6 1160.6 647.7 1160 647.7 1159.3 647.7 1158.6 647.6 1157.8 647.3 1157 647 1156.2 646.6 1155.3 645.9 1154.6 645.5 1153.5 645 1153 644.4 1152.5 643.8 1152.1 643.1 1151.8 642.4 1151.5 641.6 1151.2 640.8 1151 639.9 1150.7 639.1 1150.5 638.2 1150.1 637.3 1149.6 636.4 1149.1 635.6 1148.3 634.7 1147.8 634.1 1147 633.6 1146.2 633.1 1145.3 632.6 1144.3 632.1 1143.4 631.7 1142.4 631.2 1141.5 630.8 1140.7 630.2 1139.9 629.7 1139.2 629.1 1138.7 628.5 1138.7 627 1139.2 625.2 1139 623.8 1138.9 623.5 1138.6 623 1138.5 622.6 1138.2 621.6 1138.2 617.6 1138.5 616.6 1138.7 615.9 1139.1 615.2 1139.6 614.6 1140.1 613.9 1140.6 613.2 1140.9 612.5 1140.8 611.8 1140.6 610.9 1140.2 610.1 1139.9 609.2 1139.5 608.4 1139 607.9 1139 606.7 1139 605.7 1139.2 604.9 1139.3 604.1 1139.5 603.4 1139.8 602.5L1126.2 603.8 1115.7 602.8 1111.2 609.8 1105.2 610.3 1100.7 612.8 1089.7 612.8 1083.2 616.3 1078.7 613.3 1068.2 619.3 1067.7 628.8 1062.2 630.8C1062.2 630.8 1061.4 630.8 1060.4 630.5 1059.8 630.3 1059.2 630.1 1058.6 629.7 1058 629.4 1057.3 628.9 1056.7 628.3 1056.1 627.7 1055.1 627 1053.9 626.3 1052.8 625.6 1051.5 624.9 1050.1 624.2 1047.4 622.9 1044.7 621.8 1043.2 621.3 1040.2 620.3 1024.7 615.8 1024.7 615.8L1016.7 615.8 1014.2 601.8 1013.3 602.7 1013.5 601.9 1002.8 606.4 827 640.1 823.8 646.1 766.5 637.6 764 644.6 764.5 652.1 768 657.6 768.5 663.1 770 666.9 768.5 672.6 768.3 674.6 764.8 675.9 762 679.9 761.8 684.1 761.5 686.9 762.1 687 761.5 687.1C762.4 687.5 765 688.6 765 688.6 766.1 689.4 766.9 690.4 767.7 691.4 768.5 692.4 769.3 693.4 770.2 694.3 772.4 696.3 774.1 697.8 775.5 699.6 776.2 700.5 776.8 701.4 777.4 702.5 778 703.5 778.6 704.8 779.1 706.2 779.8 707.9 780.1 709.7 780.4 711.5 780.7 713.3 780.9 715.1 781.4 716.9 782.1 719.7 783 722.4 784 725.2 784.5 726.3 784.9 727.9 785.4 729.6 786 731.2 786.6 733 787.4 734.6 787.8 735.4 788.3 736.1 788.7 736.8 789.2 737.5 789.8 738.1 790.4 738.5 791 739 791.6 739.3 792.3 739.5 793.1 739.7 793.9 739.7 794.7 739.6 796.6 739.3 798.4 738.5 800.2 737.7 802 736.9 803.9 736 805.7 735.4 806.6 735.1 807.5 734.9 808.4 734.8 809.3 734.7 810.1 734.7 811 734.9 811.9 735.1 812.7 735.4 813.6 736 814.4 736.5 815.2 737.3 816 738.3 816.8 739.2 818.3 741.2 819.6 743.1 820.9 745.1 822.1 747.1 822.3 748.2 822.7 749.8 822.7 751.2 822.7 752.5 822.6 753.9 822.4 755.2 822.4 756.4 822.4 757.7 822.5 758.9 822.9 760.3 823.2 760.9 823.5 761.6 823.9 762.3 824.3 763 824.8 763.7 825.5 764.5 826.3 765.5 827 766.4 827.4 767.3 827.9 768.1 828.2 768.9 828.5 769.7 828.9 771.4 828.9 773.2 829.2 775.8 829.4 778 829.4 779.4 829.9 780.6 830.1 781.2 830.4 781.7 830.8 782.2 831.3 782.7 832 783.3 832.8 783.9 833.5 784.3 834 784.8 834.3 785.4 834.7 786 834.9 786.6 835.1 787.2 835.3 788.5 835.3 789.9 835.2 791.3 835.2 792.7 835.2 794.2 835.7 795.5 835.9 796.2 836.2 796.9 836.7 797.5 837.2 798.1 837.8 798.7 838.6 799.3 840.3 800.4 842.1 801.2 843.7 802.4 843.8 802.5 843.9 802.5 844 802.6 844.6 802.7 845.5 803.1 846.5 803.7 847.5 804.3 848.6 805.1 849.7 805.9 851.8 807.6 853.8 809.5 854.5 810.4 855.8 812.1 856.8 814 857.8 815.8 858.4 816.7 858.9 817.6 859.5 818.5 860.1 819.3 860.7 820.2 861.5 820.9 862.4 821.8 863.3 822.8 864.1 823.7 865 824.7 865.9 825.6 867.1 826.3 867.9 826.8 868.9 827.2 869.9 827.6 871 827.9 872 828.2 873.2 828.5 875.4 828.9 877.7 829.1 879.7 829.3 882 829.4 883.7 829.7 885.3 830.2 886.9 830.8 888.4 831.6 890.3 832.7 892 833.7 893.9 834.1 895.6 835.2 896.6 835.9 897.9 836.3 899.1 836.5 900.4 836.8 901.7 836.9 902.9 837.3 905.6 838 907.5 838.8 909.2 839.8 911 840.8 912.6 842 914.8 843.5 916.2 844.5 917.6 845.1 919 845.6 920.3 846.1 921.7 846.4 923 846.6 924.4 846.9 925.8 847.1 927.1 847.3 928.5 847.6 929.9 847.9 931.3 848.5 933.3 849.2 935.1 850.4 936.8 851.6 937.7 852.1 938.6 852.7 939.5 853.2 940.4 853.7 941.4 854.1 942.4 854.4 943.5 854.7 944.2 855.5 945.2 855.9L945.6 856C946.4 856.1 947.2 856.5 947.8 856.9 948.5 857.3 949.2 857.8 949.8 858.4 950.4 858.9 951.1 859.4 951.7 859.9 952.4 860.4 953.1 860.8 953.8 861 954.5 861.3 955 861.7 955.5 862.2 956 862.6 956.5 863.1 957.1 863.5 959.6 864.9 962.2 866.3 964.6 867.9 965.8 868.7 966.9 869.5 968.1 870.4 969.2 871.3 970.3 872.3 971.3 873.4 973.5 875.5 974.3 876.2 975.1 876.7 976 877.2 976.9 877.3 979.4 878.5 981 879.2 982.2 880.1 983.2 881.1 984.3 882.1 985.2 883.2 986.2 884.2 987.1 885.2 988.2 886.2 989.5 887 990.2 887.3 991 887.7 991.8 888 992.7 888.2 993.7 888.5 994.8 888.6 996.6 888.8 997.6 889 998.5 889.4 999.4 889.8 1000.3 890.3 1002 891.3L1002.5 891.5C1003.2 892 1003.8 892.7 1004.4 893.4 1005 894.2 1005.6 895 1006.1 895.6 1007.6 897.4 1008.7 899.3 1009.8 901.3 1010.9 903.3 1012 905.3 1013.4 907 1014.4 908.3 1015.4 909.5 1016.4 910.7 1017.4 911.9 1018.5 913.1 1019.7 914.2 1020.2 914.7 1020.9 915.3 1021.6 916 1022.2 916.7 1022.8 917.4 1023 918.1 1023.3 918.8 1024.3 919.3 1024.7 919.9 1026 921.6 1027.1 923.2 1027.9 924.8 1028.3 925.6 1028.6 926.5 1028.8 927.4 1029 928.3 1029.1 929.3 1029.1 930.5 1029.1 931.7 1029.3 932.6 1029.5 933.2 1029.7 933.8 1030 934.2 1030.4 934.6 1031.3 935.2 1032.7 935.6 1034.7 936.8 1035.5 937.2 1036.2 937.8 1036.9 938.5 1037.6 939.1 1038.3 939.8 1038.9 940.5 1039.6 941.2 1040.2 941.8 1041 942.4 1041.7 943 1042.5 943.5 1043.4 943.8 1044.6 944.3 1048.7 945 1052.9 945.5 1057.1 946 1061.3 946.4 1063 946.2 1063.9 945.5 1065.1 945.3 1066.1 944.5 1067 943.8 1067.8 943.3 1068.5 943 1069.2 942.6 1069.8 942.5 1070.4 942.5 1071 942.5 1071.6 942.6 1072.1 942.8 1072.6 943.1 1073 943.4 1073.5 943.8 1074.4 944.5 1075.3 945.5 1076.3 946.3 1076.8 946.7 1077.3 947.1 1077.9 947.4 1078.4 947.7 1079 947.9 1079.7 948 1082.6 948.5 1084.4 948.6 1086.2 949.1 1087.2 949.3 1088 949.6 1089 950 1090 950.5 1091.1 951.1 1092.4 952 1093.7 952.8 1094.9 953.6 1096.3 954.4L1096.6 954.5C1097 954.9 1097.8 954.9 1098.3 955 1099 955.1 1099.6 955 1100.2 955 1100.7 954.9 1101.2 954.7 1101.7 954.5 1102.6 954.1 1103.4 953.5 1104.2 952.9 1105 952.3 1105.8 951.7 1106.7 951.3 1107.7 950.8 1108.7 950.6 1110 950.7 1110.6 950.7 1111.3 951.2 1112.1 952 1112.8 952.7 1113.5 953.7 1114.2 954.6 1115.5 956.6 1116.7 958.7 1117.1 959.1L1116.9 959.8C1118.1 959.3 1120.1 958.7 1120.3 958.5L1129.8 950.9C1132.4 948.8 1135 946.5 1137.7 944.4 1138.4 943.9 1139.1 943.5 1139.8 943L1157 929.4C1161.8 925.6 1166.5 921.8 1171.2 918 1178.2 912.6 1185.1 907.1 1192 901.5 1208.1 888.7 1224.4 876 1240.7 863.3 1244.9 860 1249.1 856.7 1253.3 853.3 1253.6 853 1257.5 849.8 1258 849.2 1264.1 841.3 1270.3 833.6 1276.5 825.7 1286.5 812.9 1296.5 800.1 1306.6 787.3 1311.3 781.4 1315.9 775.3 1320.6 769.3 1324.8 764 1329.1 758.8 1333.3 753.5 1338.9 746.3 1344.5 739.1 1350.1 732L1351.7 729.9C1354.7 726.1 1357.6 721.8 1361 718.4 1361.4 718.1 1363.4 716.1 1363.9 715.8 1364 715.7 1364.5 715.6 1364.7 715.5 1365 715.2 1365.2 714.9 1365.5 714.5z" stroke="black" stroke-width="1" fill="transparent"/>
</svg>