<svg xmlns="http://www.w3.org/2000/svg" viewBox="477.2 265.8 358.00000000000006 248.99999999999994">
  <path d="M700.8 514.7C701.4 514.7 701.9 514.5 702.4 514.1 702.9 513.7 703.3 513.1 703.6 512.5 704.3 511.4 704.7 510.3 704.7 510.3L705.7 505.3C705.7 505.3 707.9 504.7 710.7 504.2 712 503.9 713.5 503.7 714.8 503.6 716.2 503.5 717.5 503.5 718.4 503.8 719.3 504 719.9 504 720.2 503.7 720.6 503.4 720.7 503 720.7 502.4 720.6 501.3 720.2 499.8 720.2 498.8 720.2 496.8 721.2 492.8 721.2 492.8L722.7 487.3C722.7 487.3 723.2 484.3 723.7 482.3 723.8 481.8 724.1 481.5 724.6 481.3 725 481.1 725.6 481 726.2 481 727.4 481 728.9 481.3 730.2 481.3 730.8 481.3 731.3 481.1 731.6 480.8 732 480.4 732.2 480 732.4 479.4 732.8 478.3 732.9 476.8 733.2 475.3 733.4 473.8 734.1 471.8 734.6 469.7 735.2 467.7 735.7 465.5 735.7 463.8 735.7 462.9 735.8 462 736 461.2 736.2 460.3 736.4 459.5 736.8 458.6 737.2 457.8 737.7 456.9 738.2 456.1 738.8 455.3 739.4 454.5 740.2 453.8 740.6 453.4 740.8 453 741 452.6 741.1 452.3 741.2 451.9 741.1 451.5 741.1 450.7 740.7 449.9 740.2 449.1 739.2 447.5 737.7 446 737.2 444.8 736.9 444.2 736.8 443.5 736.8 442.8 736.8 442.2 736.9 441.5 737.1 440.8 737.3 440.1 737.7 439.4 738.1 438.7 738.5 438.1 739.1 437.4 739.7 436.8 740.9 435.5 741.8 434.9 742.6 434.4 743.4 433.9 744.2 433.5 745.2 432.8 746.2 432 746.9 431.7 747.5 431.1 747.8 430.8 748 430.5 748.2 430 748.4 429.6 748.6 429 748.7 428.3 748.8 427.5 748.9 426.9 749.1 426.3 749.3 425.7 749.5 425.2 749.9 424.8 750.2 424.4 750.7 424 751.3 423.6 751.9 423.3 752.7 423 753.7 422.8 754.2 422.7 754.5 422.5 754.7 422.2 755 422 755.1 421.7 755.1 421.4 755.1 420.7 754.7 419.9 754.2 419.2 753.2 417.7 751.7 416.3 751.7 416.3 751.7 416.3 751.7 410.8 751.7 408.8 751.7 407.8 751.9 406.5 752.3 405.3 752.7 404 753.2 402.8 753.7 401.8 753.9 401.3 754.1 400.8 754.2 400.2 754.2 399.6 754.2 399.1 754.1 398.5 753.8 397.3 753.2 396 752.2 394.8 751.7 394.2 751.3 393.6 751.2 393 751 392.5 751 392 751.1 391.6 751.3 391.2 751.6 390.9 752.1 390.6 752.6 390.4 753.3 390.3 754.2 390.3 755.9 390.3 756.8 390.3 757.6 390.2 758.3 390 758.9 389.8 760.2 389.3 762.7 388.3 767.2 387.3 767.2 387.3 767.2 387.3 767.9 387.5 768.9 388 769.9 388.5 771.2 389.3 772.2 390.3 772.7 390.8 773.3 391.2 773.9 391.4 774.5 391.7 775.2 391.9 775.9 391.9 776.6 392 777.3 391.9 777.9 391.8 778.6 391.7 779.2 391.5 779.7 391.3 780.2 391 780.7 390.7 781.3 390.2 781.9 389.7 782.4 389.1 782.9 388.5 783.4 387.8 783.9 387.1 784.2 386.3 784.5 385.5 784.7 384.7 784.7 383.8 784.7 382.9 784.8 382.2 785.1 381.6 785.3 381.1 785.7 380.6 786.2 380.4 786.7 380.1 787.3 379.9 788.1 379.9 788.8 379.9 789.7 380 790.7 380.3 791.7 380.5 792.5 380.5 793.1 380.2 793.7 379.9 794.2 379.5 794.6 378.9 795.3 377.8 795.7 376.3 796.2 375.3 796.4 374.8 796.7 374.3 797.1 374 797.5 373.6 797.9 373.3 798.3 373.1 798.7 373 799.2 372.9 799.7 373.1 800.2 373.3 800.7 373.7 801.2 374.3 801.7 374.9 802.2 375.2 802.7 375.2 803.2 375.3 803.7 375.1 804.2 374.7 804.6 374.4 805 373.9 805.2 373.4 805.5 372.9 805.7 372.3 805.7 371.8 805.7 371.3 805.9 370.8 806.3 370.4 806.7 369.9 807.2 369.5 807.8 369.2 808.4 369 809.2 368.8 809.9 368.8 810.7 368.8 811.4 368.9 812.2 369.3 812.9 369.7 813.6 369.7 814.1 369.5 814.6 369.3 815 368.8 815.1 368.2 815.3 367.5 815.2 366.8 814.9 365.9 814.6 365.1 814.1 364.2 813.2 363.3 812.7 362.9 812.5 362.4 812.4 361.8 812.3 361.3 812.3 360.7 812.4 360.2 812.7 359 813.3 357.8 814.1 356.7 815.7 354.5 817.7 352.8 817.7 352.8 817.7 352.8 824.2 350.8 826.2 349.8 827.2 349.3 828 348.7 828.9 348.2 829.4 347.9 829.8 347.7 830.4 347.5 831 347.4 831.7 347.3 832.5 347.3 832.9 347.3 833.2 347.2 833.5 347 833.8 346.8 834 346.6 834.2 346.3 834.6 345.7 834.9 344.9 835 344 835.3 342.4 835.2 340.8 835.2 340.8L831.2 337.3C831.2 337.3 831.2 334.8 830.7 331.3 830.6 330.4 830.4 329.8 830.2 329.3 830 328.9 829.7 328.6 829.4 328.4 828.7 327.9 827.7 327.8 826.2 327.3 824.7 326.8 823.2 326.4 821.7 326.2 820.2 326 818.7 326 817.2 326.3 816.4 326.4 815.7 326.3 815.1 326 814.5 325.8 814 325.4 813.6 325 812.7 324.2 812.2 323.3 812.2 323.3 812.2 323.3 807.2 321.8 804.7 320.8 804.1 320.5 803.5 319.8 803.1 318.9 802.6 318 802.3 316.8 802.2 315.7 802 314.6 802.1 313.5 802.4 312.7 802.5 312.3 802.7 311.9 803 311.7 803.2 311.5 803.6 311.3 804 311.3 804.4 311.3 804.7 311.2 805 311 805.3 310.9 805.6 310.6 805.8 310.3 806.3 309.7 806.6 308.9 806.8 308 807.2 306.4 807.2 304.8 807.2 304.8L806.3 305.6 805.6 304.8 799.7 304.8C799.7 304.8 798.9 304.8 798 304.4 797.5 304.2 797 303.9 796.5 303.5 796 303.1 795.6 302.5 795.2 301.8 794.8 301 794.4 300.6 794.1 300.3 793.7 300.1 793.3 300.1 793 300.2 792.7 300.4 792.3 300.7 792 301.2 791.7 301.6 791.4 302.2 791.2 302.8 790.9 303.4 790.6 303.8 790.2 304 789.9 304.2 789.4 304.3 788.9 304.2 787.9 304.2 786.7 303.8 785.2 303.8 783.7 303.8 781.4 303.8 779.4 304 778.4 304.2 777.5 304.4 776.7 304.6 776 304.9 775.4 305.3 775.2 305.8 774.9 306.3 774.2 306.7 773.3 307 772.3 307.3 771.2 307.6 770.1 307.8 767.8 308.2 765.7 308.3 765.7 308.3 765.7 308.3 764.3 309.5 762.6 310.8 761.7 311.4 760.7 312 759.8 312.5 758.8 313 757.9 313.3 757.2 313.3 755.7 313.3 754.7 313.5 753.7 314 752.8 314.4 751.9 315 750.7 315.8 750.1 316.2 749.3 316.5 748.4 316.8 747.5 317 746.4 317.2 745.3 317.3 744.2 317.4 743 317.3 741.7 317 740.4 316.8 739.1 316.4 737.7 315.8 734.9 314.5 733.8 314.2 733.1 313.9 732.3 313.5 731.9 313.3 730.7 312.3 730.1 311.8 729.5 311.2 729 310.5 728.5 309.9 728.1 309.2 727.7 308.5 726.9 307.2 726.4 305.8 726.2 304.8 726.1 304.3 725.8 303.8 725.6 303.4 725.3 303 724.9 302.6 724.5 302.2 723.7 301.5 722.7 301 721.7 300.8 721.2 300.7 720.6 300.7 720.1 300.8 719.5 300.9 719 301.1 718.4 301.4 717.3 302 716.2 303 715.2 304.3 714.7 304.9 714.1 305.3 713.6 305.5 713 305.7 712.4 305.8 711.9 305.7 710.9 305.7 710.2 305.3 710.2 305.3 710.2 305.3 710.4 304.4 710.9 303.2 711.3 302 711.9 300.5 712.7 299.3 713.1 298.7 713.2 298 713.3 297.5 713.4 296.9 713.3 296.3 713.2 295.9 713.1 294.9 712.7 294.3 712.7 294.3 712.7 294.3 710.2 291.3 707.7 287.8 707.4 287.4 707 287 706.5 286.8 706.1 286.5 705.6 286.4 705 286.3 703.9 286.1 702.7 286.2 701.4 286.4 700.2 286.7 698.9 287.1 697.8 287.5 696.7 288 695.8 288.4 695.2 288.8 694.6 289.2 693.9 289.3 693.4 289.3 692.8 289.3 692.2 289.2 691.7 289 690.6 288.5 689.4 287.8 688.2 287.3 687.6 287 687 287 686.4 287 685.8 287 685.2 287.1 684.6 287.4 683.3 287.8 681.9 288.5 680.2 289.3 678.4 290 676.9 290.8 675.2 291.4 673.6 292 671.7 292.5 669.2 292.8 666.7 293 663.3 293.4 660.2 293.9 657.1 294.3 654.2 294.8 652.7 295.3 651.2 295.8 649.6 296.2 647.9 296.4 646.3 296.7 644.7 296.8 643.2 296.8 641.7 296.8 639.9 296.9 638 296.9 637 296.8 636 296.7 635 296.6 633.9 296.4 632.8 296.2 631.7 295.8 629.4 295 627.9 294.7 626.4 294.2 624.9 293.7 623.4 293 621.2 291.8 620.1 291.2 618.9 290.7 617.8 290.3 616.6 289.9 615.5 289.6 614.5 289.5 613.5 289.3 612.5 289.3 611.7 289.3 610.9 289.4 610.2 289.5 609.7 289.8 608.7 290.3 607.1 290.5 605.2 290.5 603.4 290.5 601.4 290.3 599.7 289.8 598.8 289.5 598 289.5 597.2 289.5 596.3 289.5 595.5 289.7 594.7 289.9 593.2 290.4 591.7 291.3 590.2 292.3 589.4 292.8 588.6 293.1 587.8 293.2 586.9 293.3 586.1 293.3 585.2 293.2 584.4 293.2 583.6 293.1 582.8 293.2 582 293.3 581.3 293.4 580.7 293.8 580.1 294.2 579.5 294.4 579 294.5 578.4 294.6 577.9 294.5 577.4 294.4 576.4 294.2 575.4 293.5 574.2 292.8 572.9 292 572.3 291.4 571.3 291.2 570.8 291.1 570.2 291.2 569.4 291.3 568.6 291.5 567.6 291.8 566.2 292.3 565.5 292.5 564.8 292.7 564.2 292.7 563.7 292.7 563.1 292.6 562.6 292.4 561.6 292.1 560.8 291.5 560.1 290.8 559.5 290.1 559 289.3 558.7 288.8 558.3 288.2 558.2 287.8 558.2 287.8L557.6 283.1C557.1 283.3 556.6 283.3 556.2 283.1 555.9 282.9 555.5 282.5 555.2 282.1 554.8 281.6 554.4 281.2 553.9 280.7 553.4 280.3 552.7 279.8 551.8 279.6L550.9 279.3C550.3 279.2 549.9 278.9 549.6 278.6 549.2 278.4 548.8 278 548.4 277.6 547 276.2 546.1 275.5 545.3 275.2 544.9 275.1 544.6 275.1 544.3 275.1 544.1 275.1 543.8 275.3 543.6 275.4 543.1 275.7 542.6 276.1 541.9 276.3 541.5 276.5 541.2 276.6 540.7 276.6 540.2 276.6 539.7 276.5 539 276.4 537.8 276.1 536.7 275.9 535.7 275.6 534.8 275.3 533.8 274.9 532.8 274.2 531.8 273.5 530.7 273 529.5 272.7 528.3 272.3 527 272.1 525.7 271.9 523 271.6 520.2 271.6 518 271.8 516 271.9 514.1 271.5 512.3 271.1 510.4 270.8 508.6 270.4 506.7 270.3L505.7 265.8C505.7 265.8 500.2 266.3 497.2 266.3 496.8 266.3 496.5 266.4 496.3 266.5 496.1 266.7 495.9 266.8 495.8 267.1 495.7 267.5 495.7 268.2 495.8 268.8 496.1 270 496.7 271.3 496.7 271.3 496.7 271.3 496.2 273.3 495.7 275.3 495.6 275.8 495.3 276.2 495.1 276.6 494.8 277 494.4 277.4 494.1 277.8 493.3 278.5 492.4 279.3 491.7 280.3 491.3 280.8 490.8 281.3 490.2 281.8 489.6 282.2 488.8 282.7 487.9 283.2 487.1 283.6 486.1 284 484.9 284.4 483.8 284.7 482.6 285 481.2 285.3 479.8 285.5 479 285.8 478.5 286.2 478 286.5 477.8 286.9 477.9 287.4 477.9 287.8 478.1 288.4 478.3 289 478.5 289.7 478.7 290.4 478.7 291.3 478.7 291.7 478.8 292.1 478.9 292.5 479.1 292.9 479.3 293.2 479.6 293.5 480.2 294.2 480.9 294.7 481.7 295.1 483.2 295.9 484.7 296.3 484.7 296.3 484.7 296.3 486.3 296.7 487.6 297.5 488.2 297.9 488.7 298.4 488.9 299 489 299.4 489 299.7 488.9 300.1 488.8 300.5 488.6 300.9 488.2 301.3 486.7 303 485.6 304.7 484.8 305.9 484.1 307 483.7 307.8 483.7 307.8 483.7 307.8 483.2 311.3 483.2 313.3 483.2 314.3 482.8 315.4 482.4 316.3 482.1 317.2 481.7 317.8 481.7 317.8L477.2 327.8C477.2 327.8 478.2 328.2 479.5 328.5 480.8 328.9 482.4 329.3 483.7 329.3 486.2 329.3 495.2 330.3 495.2 330.3 495.2 330.3 501.7 331.8 504.2 332.3 505.4 332.5 507.7 332.8 509.8 333.3 510.9 333.5 511.9 333.9 512.7 334.3 513.6 334.7 514.3 335.2 514.7 335.8 515.1 336.4 515.8 336.9 516.7 337.3 517.5 337.7 518.5 338 519.5 338.2 521.4 338.7 523.2 338.8 523.2 338.8 523.2 338.8 524.1 338.7 525.1 338.2 525.7 338 526.2 337.7 526.8 337.3 527.3 336.9 527.8 336.4 528.2 335.8 528.6 335.2 529 334.8 529.4 334.7 529.8 334.5 530.3 334.5 530.7 334.7 531.7 334.9 532.7 335.5 533.7 335.8 534.7 336 535.7 336.2 536.7 336.4 537.7 336.7 538.7 337 539.7 337.8 540.2 338.2 540.5 338.6 540.7 339.1 540.9 339.6 540.9 340.1 540.9 340.6 540.9 341.5 540.7 342.3 540.7 342.3 540.7 342.3 540.7 343.4 540.4 344.9 540.3 345.7 540.1 346.5 539.8 347.4 539.6 348.2 539.2 349 538.7 349.8 538.2 350.5 537.9 351.2 537.7 351.9 537.5 352.5 537.5 353.2 537.5 353.8 537.6 355 537.9 356.3 538.2 357.8 538.3 358.5 538.2 359.3 538 360.1 537.8 360.8 537.5 361.5 537.1 362.2 536.4 363.4 535.7 364.3 535.7 364.3 535.7 364.3 537.7 364.8 539.7 364.8 541.7 364.8 547.7 365.8 547.7 365.8 547.7 365.8 551.7 368.3 553.7 369.8 554.2 370.2 554.7 370.3 555.2 370.4 555.8 370.5 556.3 370.5 557 370.4 558.3 370.2 559.9 369.8 562.2 369.8 566.7 369.8 570.2 369.3 570.2 369.3 570.2 369.3 571.3 369.8 572.7 370.5 574.1 371.2 575.7 372 576.7 372.8 577.7 373.5 578.7 374.2 579.6 375 580.6 375.8 581.4 376.8 582.2 378.3 582.6 379 583.2 379.5 583.9 379.8 584.6 380 585.4 380.1 586.2 380 587.1 380 587.9 379.8 588.7 379.5 589.5 379.3 590.2 379 590.7 378.8 591.7 378.3 592.8 377.9 594.1 377.6 595.3 377.3 596.7 377 598.2 376.8 598.9 376.7 599.5 376.8 599.8 377.2 600.2 377.6 600.4 378.1 600.6 378.6 600.8 379.7 600.7 380.8 600.7 380.8 600.7 380.8 600.2 385.3 600.2 387.8 600.2 388.4 600.4 389 600.8 389.6 601.2 390.2 601.7 390.9 602.3 391.4 603.6 392.5 605.2 393.5 606.7 394.3 609.7 395.8 615.2 399.3 615.2 399.3 615.2 399.3 616.1 400 617.1 401.2 618.2 402.3 619.4 403.8 620.2 405.3 620.6 406 620.8 406.8 620.9 407.5 621.1 408.2 621.1 408.9 621 409.5 620.9 410.1 620.7 410.6 620.4 411 620.1 411.4 619.7 411.7 619.2 411.8 618.2 412 616.8 412.9 615.4 414 614.1 415.2 612.7 416.5 611.7 417.8 610.7 419 609.8 420 608.7 421.2 607.6 422.3 606.2 423.5 604.2 425.3 603.7 425.7 603.1 426 602.5 426.2 601.9 426.4 601.2 426.5 600.5 426.5 599.2 426.6 597.7 426.3 596.4 425.9 593.8 425 591.7 423.8 591.7 423.8 591.7 423.8 588.7 423.3 586.2 422.3 583.7 421.3 582.2 420.3 579.7 418.8 578.4 418 577.1 417.2 575.9 416.8 575.3 416.6 574.7 416.5 574.3 416.7 573.8 416.8 573.4 417.2 573.2 417.8 572.9 418.4 572.9 419.1 573.1 419.8 573.2 420.5 573.5 421.1 573.8 421.7 574.4 422.9 575.2 423.8 575.2 423.8 575.2 423.8 576.6 424 578 424.5 578.7 424.8 579.4 425.1 580 425.5 580.6 425.9 581.1 426.3 581.2 426.8 581.4 427.8 581.4 429.9 581.5 432.1 581.5 433.2 581.6 434.3 581.7 435.3 581.8 436.3 581.9 437.2 582.2 437.8 582.7 439 583.3 440.4 584.3 441.7 584.9 442.3 585.5 442.9 586.2 443.5 587 444 587.8 444.5 588.9 444.9 590 445.3 590.7 445.9 591.2 446.6 591.7 447.4 592 448.2 592.1 449 592.4 450.5 592.2 451.8 592.2 451.8 592.2 451.8 592.3 452.9 592.8 454.2 593.1 454.8 593.4 455.5 593.9 456 594.3 456.6 594.9 457 595.7 457.3 596.4 457.5 597 457.8 597.5 458.2 598 458.5 598.3 458.9 598.5 459.4 598.7 459.8 598.8 460.4 598.8 461 598.9 461.7 598.8 462.4 598.7 463.3 598.4 465 597.9 466.4 597.8 467.5 597.7 468.1 597.8 468.6 598 469 598.2 469.5 598.6 469.9 599.2 470.3 600.4 471 601.4 471.7 602.4 472.2 603.4 472.7 604.4 473 605.7 473.3 606.9 473.5 609.1 474.2 611.4 474.8 613.7 475.4 616.2 476 618.2 476.3 619.2 476.4 620.2 476.7 621.2 477.1 622.2 477.6 623.2 478.1 623.9 478.9 624.7 479.6 625.2 480.4 625.5 481.4 625.6 481.9 625.7 482.5 625.6 483 625.6 483.6 625.4 484.2 625.2 484.8 624.7 486 624.4 487.2 624.2 488.3 624 489.3 623.9 490.3 623.9 491.2 623.9 493 624.2 494.5 624.2 495.8 624.2 496.4 624.3 496.9 624.4 497.4 624.6 497.9 624.9 498.3 625.2 498.7 625.8 499.5 626.7 500.3 627.7 501.3 628.2 501.8 628.6 502.1 629.1 502.3 629.6 502.4 630.1 502.5 630.6 502.4 631.7 502.3 632.9 501.8 634.7 501.3 636.4 500.8 637.7 500.7 638.7 500.4 639.3 500.3 639.8 500.1 640.2 499.9 640.7 499.6 641.2 499.3 641.7 498.8 642.7 497.8 643.9 497 644.9 496.2 645.4 495.7 645.9 495.2 646.2 494.7 646.5 494.2 646.7 493.5 646.7 492.8 646.7 492 646.8 491.2 647 490.5 647.3 489.7 647.6 489 648.1 488.4 648.5 487.8 649 487.3 649.6 487.1 650.2 486.9 650.9 486.9 651.7 487.3 653.2 488 654.7 488.9 656.4 489.4 657.2 489.6 658.1 489.7 659.1 489.6 660 489.5 661.1 489.3 662.2 488.8 664.4 487.8 666.3 486.9 668 486.3 669.7 485.7 671.2 485.3 672.7 485.3 673.4 485.3 674.1 485.4 674.7 485.6 675.4 485.9 675.9 486.2 676.4 486.7 676.8 487.1 677.2 487.6 677.5 488.2 677.8 488.8 678.1 489.5 678.2 490.3 678.4 491.8 678.2 493.5 678.2 495 678.3 495.7 678.4 496.3 678.7 496.8 679 497.3 679.4 497.7 680.2 497.8L682.2 498.8C682.2 498.8 683.9 499.5 685.9 500.7 686.8 501.2 687.8 501.9 688.7 502.6 689.6 503.3 690.3 504 690.7 504.8 692.2 507.8 694.7 511.3 694.7 511.3 694.7 511.3 695.4 512.3 696.6 513.2 697.1 513.7 697.8 514.1 698.5 514.5 699.2 514.8 699.9 514.9 700.7 514.8L700.9 514.6 700.8 514.7z" stroke="black" stroke-width="1" fill="transparent"/>
</svg>