<svg xmlns="http://www.w3.org/2000/svg" viewBox="85.8 736.4 183.39999999999998 201.60000000000002">
  <path d="M189.8 938L190.2 937.8C190.2 937.8 191.6 937 193.2 936 194.8 934.9 196.7 933.5 197.7 932.3 198.2 931.7 198.7 931.3 199.2 931.2 199.7 931 200.2 931 200.8 931.2 201.9 931.4 203.2 932 204.7 932.3 206.2 932.5 207.2 932.9 208.1 933.2 208.9 933.4 209.7 933.5 210.7 933.3 211.2 933.2 211.6 932.9 212.1 932.6 212.5 932.2 213 931.8 213.4 931.2 214.2 930.2 214.9 928.8 215.7 927.3 216.1 926.5 216.3 925.7 216.5 924.7 216.7 923.7 216.9 922.7 216.9 921.5 217.1 919.3 216.9 916.8 216.7 914.3 216.6 913 216.7 912.1 217.1 911.3 217.4 910.5 218 909.9 218.7 909.4 220.1 908.4 221.9 907.8 223.7 906.8 225.4 905.8 226.3 904.9 227 904.3 227.3 904 227.6 903.7 228 903.5 228.3 903.4 228.7 903.3 229.2 903.3 230.2 903.3 231.3 903.7 232.5 904 233.7 904.4 234.9 904.8 236.2 904.8 236.8 904.8 237.4 904.7 238 904.6 238.5 904.4 239.1 904.2 239.7 903.8 240.2 903.4 240.8 902.9 241.4 902.3 242 901.6 242.6 900.8 243.2 899.8 243.8 898.8 244.6 898.1 245.4 897.6 246.3 897.1 247.2 896.8 248.1 896.7 249 896.6 249.9 896.7 250.7 896.9 251.5 897.1 252.2 897.4 252.7 897.8 253.2 898.2 253.8 898.4 254.4 898.5 255 898.6 255.6 898.6 256.2 898.6 257.3 898.5 258.2 898.3 258.2 898.3L263.7 892.8C263.7 892.8 264.3 891.8 265.2 890.7 266.1 889.5 267.2 888.3 268.2 887.8 268.4 887.7 268.6 887.5 268.7 887.2 268.7 886.9 268.7 886.6 268.6 886.3 268.4 885.5 268 884.7 267.4 883.8 266.9 882.9 266.2 882 265.5 881.3 264.8 880.6 264.2 880 263.7 879.8 263.2 879.5 262.7 879 262.3 878.4 262 877.8 261.7 877.1 261.7 876.4 261.6 875.7 261.7 875.1 262.1 874.6 262.3 874.3 262.6 874.2 262.9 874 263.3 873.9 263.7 873.8 264.2 873.8 265.2 873.8 266 873.7 266.7 873.5 267.3 873.2 267.8 872.9 268.2 872.5 268.6 872.2 268.8 871.7 269 871.3 269.1 870.8 269.2 870.3 269.2 869.8 269.2 868.8 269.2 867.8 268.8 865.9 268.4 864 267.7 861.3 266.2 856.8 265.4 854.5 264.9 852.5 264.6 850.6 264.2 848.7 264 847.1 263.9 845.6 263.7 844.1 263.6 842.9 263.4 841.8 263.3 840.8 263.1 839.9 262.7 839.3 262.3 838.7 261.7 838.2 261.1 837.8 260.4 837.4 259.6 837.1 258.7 836.9 257.1 836.4 255.2 836.3 253.7 836.3 252.9 836.3 252.3 836.1 251.8 835.9 251.3 835.6 250.8 835.2 250.5 834.8 249.8 833.9 249.4 832.8 249.2 831.8 248.9 830.8 248.3 829.8 247.5 828.8 246.7 827.8 245.7 826.8 244.7 825.8 243.7 824.8 242.7 823.3 241.9 821.8 241.2 820.3 240.7 818.8 240.7 817.8 240.7 817.3 240.4 816.8 239.9 816.4 239.4 816 238.7 815.6 237.9 815.2 236.3 814.5 234.4 814 233.2 813.8 230.7 813.3 227.2 812.8 227.2 812.8 227.2 812.8 226.4 812.2 225.6 811.3 224.7 810.4 223.7 809.3 223.2 808.3 222.7 807.3 221.9 806.5 221.1 805.8 220.2 805 219.2 804.3 218.2 803.3 217.2 802.3 215.8 801.5 214.4 801 213.1 800.4 211.7 800 210.7 799.8 208.7 799.3 207.2 799.3 203.7 798.8 202.8 798.7 202.2 798.5 201.7 798.2 201.1 798 200.8 797.7 200.5 797.3 199.9 796.5 199.7 795.5 199.2 794.3 198.2 791.8 195.7 787.3 193.7 784.3 193.2 783.5 192.6 782.3 192.1 780.9 191.5 779.5 190.9 777.9 190.4 776.4 189.4 773.4 188.7 770.8 188.7 770.8 188.7 770.8 188.5 770.8 188.2 770.6 188 770.4 187.7 770.1 187.4 769.5 187.1 768.9 186.8 768 186.8 766.8 186.7 765.6 186.8 763.9 187.2 761.8 187.9 757.5 188.1 755.5 187.9 754.2 187.8 752.8 187.4 752 187.2 750.3 186.7 746.8 185.7 740.3 185.7 740.3 184.3 740.3 183 740.2 181.8 739.9 181.2 739.8 180.7 739.6 180.2 739.3 179.8 739.1 179.4 738.7 179.2 738.3 178.8 737.7 178.3 737.2 177.7 736.9 177.1 736.6 176.5 736.4 175.8 736.4 175.1 736.4 174.4 736.6 173.7 736.9 173 737.2 172.3 737.7 171.7 738.3 171.1 738.9 170.2 739.4 169.3 739.7 168.4 740.1 167.3 740.3 166.2 740.4 165.2 740.5 164 740.4 162.9 740.3 161.8 740.2 160.7 740 159.7 739.8 158.7 739.5 157.6 739.6 156.6 739.9 155.5 740.1 154.5 740.5 153.4 740.9 152.3 741.3 151.2 741.6 150.1 741.8 149.5 741.8 148.9 741.8 148.4 741.8 147.8 741.7 147.2 741.5 146.7 741.3 145.6 740.8 144.5 740.6 143.5 740.5 142.6 740.5 141.7 740.6 141 740.8 139.6 741.2 138.7 741.8 138.7 741.8L131.7 743.8 131.6 743.9C132 744.8 132.3 745.7 132.6 746.6L134.4 751.1C134.5 751.3 136.4 752.8 136.7 753.1L138 755.2C140.9 759.5 143 765.9 144.2 770.9 144.9 774 145.9 779.1 146.8 781.9 147.7 784.8 149.4 788 150.5 790.8 151.1 792.5 151.4 794.5 151.7 796.2 152.3 799.1 153.3 803 152.2 806L151.1 808.2C150.9 808.6 150.8 808.8 150.5 809.2 149.4 810.9 146 810.8 144.7 812.3L144.2 813.3 145.5 815.4C146.1 816.4 145.6 817.1 146.9 818.5 146.5 820.5 147 821.7 148.3 823.2L149.7 823.6 150 825.1 150.6 828.1C150.6 828.9 150.5 829.4 150.4 830.2L150.1 834.4C149.6 837.2 148.1 841.6 146.7 844.1L144.4 847.5C143.5 848.8 142.3 850.5 141.1 851.5 138.9 853.3 135.4 855.1 133 856.3L131.1 856C131 856 130.3 856.3 130.3 856.3 128.1 858.6 126 861 123.7 863.2 122.1 864.7 120.4 864.9 118.8 865.9 118.1 866.3 117.5 867.1 116.8 867.5 116.4 867.7 109.3 870.6 109.3 870.6 107.9 870.9 105 870.9 103.5 871 102.3 871.1 100.6 868.2 99.8 867.5 99 866.7 96 867.2 95 867.3 94.9 867.3 94.5 867.1 94.5 867.1L94.4 864.8 93.7 864C92.7 864.1 90.4 863.7 89.7 862.8 87.8 862.7 87.7 862.9 85.8 863.7L86 864.4 97.4 874.4C98.2 875.1 98.7 876.2 99.5 876.9 100.2 877.5 101.1 877.9 101.8 878.5 103 879.5 104.1 880.8 105.3 882.1 106.2 883.4 107.2 884.7 107.9 886.1 108.3 886.8 108.3 887.8 108.6 888.4 109.4 889.8 112.1 892.4 112.2 894 112.2 894.4 112.1 894.6 112 895L111.7 897 112.7 898.5 114.9 895.9C115.5 895.5 117.4 895.4 117.9 895.7L124.7 899.8C125.4 900.2 126.3 901 127 901.5 129.6 903.5 131.8 905.7 134.2 907.9 134.9 908.6 136.1 908.2 136.8 908.5 137.8 908.9 138.7 909.8 139.7 910.4 141.1 911.1 142.9 910.4 144.4 910.6 144.7 910.6 146.3 911.5 146.6 911.5L150.2 911.5C154.2 911.4 156 912.4 159.4 914.8L162.2 914.5C165.7 916.3 168.7 918.8 171.7 921.3 175.6 924.5 179.6 927.9 183.3 931.4 185.5 933.5 187.7 935.7 189.8 938z" stroke="black" stroke-width="1" fill="transparent"/>
</svg>