<svg xmlns="http://www.w3.org/2000/svg" viewBox="414 319.3 207 189">
  <path d="M575.2 423.8C575.2 423.8 574.4 422.9 573.8 421.7 573.5 421.1 573.2 420.5 573.1 419.8 572.9 419.1 572.9 418.4 573.2 417.8 573.4 417.2 573.8 416.8 574.3 416.7 574.7 416.5 575.3 416.6 575.9 416.8 577.1 417.2 578.4 418 579.7 418.8 582.2 420.3 583.7 421.3 586.2 422.3 588.7 423.3 591.7 423.8 591.7 423.8 591.7 423.8 593.8 425 596.4 425.9 597.7 426.3 599.2 426.6 600.5 426.5 601.2 426.5 601.9 426.4 602.5 426.2 603.1 426 603.7 425.7 604.2 425.3 606.2 423.5 607.6 422.3 608.7 421.2 609.8 420 610.7 419 611.7 417.8 612.7 416.5 614.1 415.2 615.4 414 616.8 412.9 618.2 412 619.2 411.8 619.7 411.7 620.1 411.4 620.4 411 620.7 410.6 620.9 410.1 621 409.5 621.1 408.9 621.1 408.2 620.9 407.5 620.8 406.8 620.6 406 620.2 405.3 619.4 403.8 618.2 402.3 617.1 401.2 616.1 400 615.2 399.3 615.2 399.3 615.2 399.3 609.7 395.8 606.7 394.3 605.2 393.5 603.6 392.5 602.3 391.4 601.7 390.9 601.2 390.2 600.8 389.6 600.4 389 600.2 388.4 600.2 387.8 600.2 385.3 600.7 380.8 600.7 380.8 600.7 380.8 600.8 379.7 600.6 378.6 600.4 378.1 600.2 377.6 599.8 377.2 599.5 376.8 598.9 376.7 598.2 376.8 596.7 377 595.3 377.3 594.1 377.6 592.8 377.9 591.7 378.3 590.7 378.8 590.2 379 589.5 379.3 588.7 379.5 587.9 379.8 587.1 380 586.2 380 585.4 380.1 584.6 380 583.9 379.8 583.2 379.5 582.6 379 582.2 378.3 581.4 376.8 580.6 375.8 579.6 375 578.7 374.2 577.7 373.5 576.7 372.8 575.7 372 574.1 371.2 572.7 370.5 571.3 369.8 570.2 369.3 570.2 369.3 570.2 369.3 566.7 369.8 562.2 369.8 559.9 369.8 558.3 370.2 557 370.4 556.3 370.5 555.8 370.5 555.2 370.4 554.7 370.3 554.2 370.2 553.7 369.8 551.7 368.3 547.7 365.8 547.7 365.8 547.7 365.8 541.7 364.8 539.7 364.8 537.7 364.8 535.7 364.3 535.7 364.3 535.7 364.3 536.4 363.4 537.1 362.2 537.5 361.5 537.8 360.8 538 360.1 538.2 359.3 538.3 358.5 538.2 357.8 537.9 356.3 537.6 355 537.5 353.8 537.5 353.2 537.5 352.5 537.7 351.9 537.9 351.2 538.2 350.5 538.7 349.8 539.2 349 539.6 348.2 539.8 347.4 540.1 346.5 540.3 345.7 540.4 344.9 540.7 343.4 540.7 342.3 540.7 342.3 540.7 342.3 540.9 341.5 540.9 340.6 540.9 340.1 540.9 339.6 540.7 339.1 540.5 338.6 540.2 338.2 539.7 337.8 538.7 337 537.7 336.7 536.7 336.4 535.7 336.2 534.7 336 533.7 335.8 532.7 335.5 531.7 334.9 530.7 334.7 530.3 334.5 529.8 334.5 529.4 334.7 529 334.8 528.6 335.2 528.2 335.8 527.8 336.4 527.3 336.9 526.8 337.3 526.2 337.7 525.7 338 525.1 338.2 524.1 338.7 523.2 338.8 523.2 338.8 523.2 338.8 521.4 338.7 519.5 338.2 518.5 338 517.5 337.7 516.7 337.3 515.8 336.9 515.1 336.4 514.7 335.8 514.3 335.2 513.6 334.7 512.7 334.3 511.9 333.9 510.9 333.5 509.8 333.3 507.7 332.8 505.4 332.5 504.2 332.3 501.7 331.8 495.2 330.3 495.2 330.3 495.2 330.3 486.2 329.3 483.7 329.3 482.4 329.3 480.8 328.9 479.5 328.5 478.2 328.2 477.2 327.8 477.2 327.8 477.2 327.8 476.2 327.5 474.7 327.5 474 327.5 473.2 327.5 472.3 327.6 471.5 327.7 470.6 327.9 469.7 328.3 468.8 328.7 467.8 328.9 466.8 329 465.9 329.2 464.9 329.2 463.9 329 463 328.9 462.1 328.7 461.4 328.3 460.6 327.9 460.1 327.4 459.7 326.8 459.3 326.2 458.6 325.6 457.9 325.1 457.1 324.6 456.2 324.2 455.4 323.9 453.7 323.2 452.2 322.8 452.2 322.8 452.2 322.8 449.7 324.3 447.7 325.8 446.7 326.5 445.4 327.4 444.3 327.8 443.7 328 443.2 328 442.7 327.9 442.3 327.7 441.9 327.4 441.7 326.8 441.2 325.5 440.6 324.4 439.8 323.5 439.4 323.1 439 322.7 438.6 322.4 438.2 322.1 437.7 321.9 437.2 321.8 435.2 321.3 429.2 319.3 429.2 319.3L425.2 319.3 421.7 325.3C421.7 325.3 421.1 326 420.4 327.1 419.7 328.2 418.9 329.5 418.7 330.8 418.6 331.4 418.4 331.8 418.3 332.1 418.1 332.4 417.9 332.6 417.7 332.8 417.2 333.2 416.4 333.5 415.2 334.8 414.6 335.4 414.2 336 414.1 336.7 413.9 337.3 413.9 338 414 338.6 414.2 339.9 414.7 341.3 414.7 342.8 414.7 344.3 414.8 345 415.2 345.9 415.7 346.7 416.4 347.5 417.7 349.3 418.3 350.2 418.7 350.9 418.9 351.4 419.1 352 419 352.4 418.9 352.7 418.7 353.1 418.4 353.3 418 353.6 417.6 353.8 417.2 354 416.7 354.3 416.2 354.5 415.9 354.8 415.8 355.1 415.7 355.5 415.7 355.8 415.9 356.2 416.3 357 417.2 358 418.2 359.3 418.7 359.9 419.1 360.5 419.4 361 419.7 361.6 419.8 362.1 419.8 362.7 419.8 363.3 419.7 364 419.3 364.7 419 365.4 418.4 366.3 417.7 367.3 416.9 368.3 416.6 369.2 416.6 370 416.6 370.8 416.9 371.6 417.4 372.2 417.8 372.9 418.5 373.5 419.2 374 419.8 374.5 420.6 374.9 421.2 375.3 423.7 376.8 424.2 376.8 426.2 378.3 427.2 379 428.1 379.7 428.7 380.5 429 380.9 429.2 381.3 429.4 381.9 429.6 382.4 429.7 383 429.7 383.8 429.7 384.5 429.9 385.1 430.3 385.4 430.7 385.8 431.2 386 431.8 386 432.4 386 433.2 385.9 433.9 385.7 434.7 385.5 435.4 385.2 436.2 384.8 436.9 384.4 437.7 384.2 438.6 384 439.4 383.9 440.3 383.9 441.2 383.9 442.1 384 442.9 384.1 443.8 384.4 444.6 384.6 445.4 384.9 446.2 385.3 447.7 386 448.9 386.4 450.2 386.6 451.4 386.8 452.7 386.8 454.2 386.8 455.7 386.8 456.6 386.9 457.4 387.3 458.2 387.7 458.9 388.3 460.2 389.3 460.8 389.8 461.4 390.5 461.9 391.3 462.5 392.1 463 393 463.4 393.8 464.2 395.4 464.7 396.8 464.7 396.8 464.7 396.8 464.7 403.3 464.2 407.3 463.9 409.3 463.6 410.9 463.6 412.6 463.7 413.5 463.8 414.3 464.1 415.2 464.4 416.2 464.9 417.2 465.7 418.3 466.4 419.4 466.9 420.6 467.2 421.8 467.5 423 467.6 424.2 467.6 425.2 467.6 427.3 467.2 428.8 467.2 428.8 467.2 428.8 466.7 437.8 466.7 439.8 466.7 440.3 466.6 440.8 466.3 441.3 466.1 441.8 465.8 442.3 465.4 442.9 464.7 443.9 463.7 445 462.7 446.3 461.7 447.5 460.7 448.9 459.6 450.2 459 450.8 458.4 451.4 457.7 451.9 457.1 452.5 456.4 452.9 455.7 453.3 454.9 453.7 454.5 454.2 454.2 454.8 453.9 455.4 453.8 456 453.8 456.6 453.8 457.8 454.2 458.8 454.2 458.8L452.7 465.3 445.2 475.8 451.2 476.8C451.2 476.8 451.9 476.8 452.9 476.6 453.9 476.4 455.2 476 456.2 475.3 457.2 474.5 457.8 474 458.5 473.7 459.2 473.4 459.9 473.3 461.2 473.3 463.7 473.3 467.2 473.8 467.2 473.8 467.2 473.8 467.8 474.2 468.9 474.3 469.4 474.4 470.1 474.3 470.8 474.2 471.5 474.1 472.3 473.8 473.2 473.3 474.1 472.8 474.8 472.6 475.5 472.6 476.2 472.6 476.7 472.8 477.2 473.1 477.6 473.5 477.9 473.9 478.1 474.5 478.3 475 478.3 475.7 478.2 476.3 477.9 477.5 477.7 478.9 477.7 480.4 477.7 481.2 477.7 482 477.9 482.8 478.1 483.6 478.3 484.4 478.7 485.3 479.4 487 479.8 488.5 479.8 489.9 479.8 490.6 479.7 491.2 479.5 491.9 479.3 492.5 479.1 493.2 478.7 493.8 477.9 495 476.7 496.7 475.6 498 474.6 499.3 473.7 500.3 473.7 500.3 473.7 500.3 473.5 500.4 473.3 500.6 473.1 500.8 472.9 501 472.9 501.4 472.8 501.7 473 502.1 473.5 502.6 474 503.1 474.8 503.7 476.2 504.3 481.7 506.8 482.7 507.3 484.7 507.8 485.7 508 487.2 508.4 488.7 508.3 489.5 508.2 490.3 508 491.1 507.6 491.8 507.2 492.6 506.7 493.2 505.8 493.2 505.8 494.6 504 496.2 502.1 497.8 500.2 499.7 498 500.7 497.3 501.7 496.5 503.2 495.8 504.7 495.2 506.2 494.7 507.7 494.3 508.7 494.3 509.7 494.3 511.2 493.9 512.5 493.2 513.2 492.9 513.8 492.5 514.2 492 514.7 491.5 515.1 490.9 515.2 490.3 515.4 489 515.6 487.5 516.1 486.2 516.3 485.5 516.7 484.8 517.2 484.2 517.7 483.7 518.3 483.2 519.2 482.8 520.9 482 522.4 481.3 523.6 480.5 524.8 479.7 525.7 478.8 526.2 477.8 526.7 476.8 527.7 475.4 528.6 474.3 529.4 473.2 530.2 472.3 530.2 472.3 530.2 472.3 530.7 472 531.4 471.7 532.2 471.5 533.2 471.2 534.2 471.2 534.9 471.3 535.6 471.4 536.2 471.8 536.8 472.2 537.5 472.9 538.1 473.8 538.7 474.6 539.3 475.6 539.9 476.6 540.9 478.5 541.7 480.3 541.7 480.3L546.2 484.8C546.2 484.8 547.1 485 548.3 485.2 549.6 485.4 551.2 485.5 552.7 485.3 553.4 485.2 553.9 484.9 554.2 484.6 554.4 484.3 554.4 484 554.3 483.5 554.1 482.7 553.2 481.5 552.2 480.3 551.7 479.7 551.4 479.1 551.4 478.7 551.3 478.2 551.5 477.8 551.7 477.4 552.3 476.5 553.4 475.8 554.7 474.8 555.9 473.8 557.7 473 559.1 472.2 559.7 471.8 560.3 471.4 560.7 470.9 561.1 470.4 561.3 469.9 561.2 469.3 560.9 468 560.9 467 560.7 466.2 560.7 465.7 560.5 465.3 560.3 464.9 560 464.5 559.7 464.2 559.2 463.8 558.2 463 556.1 461.9 554.6 460.7 553.8 460 553.2 459.4 553 458.7 552.9 458.4 552.9 458.1 553 457.8 553.1 457.4 553.3 457.1 553.7 456.8 555.2 455.5 555.9 454.7 556.3 453.7 556.7 452.8 556.7 451.8 556.7 450.3 556.7 447.3 556.7 443.8 556.7 443.8 556.7 443.8 557.9 443.5 559.4 443.2 560.9 442.8 562.7 442.3 563.7 441.8 564.7 441.3 565.6 440.8 566.2 440.2 566.5 439.9 566.7 439.5 566.9 439.1 567.1 438.7 567.2 438.3 567.2 437.8 567.2 436.8 566.8 435.7 566.7 434.7 566.7 434.2 566.8 433.7 567 433.3 567.2 432.9 567.6 432.5 568.2 432.3 570.7 431.3 573.7 429.8 573.7 429.8L575.2 423.8z" stroke="black" stroke-width="1" fill="transparent"/>
</svg>