<svg xmlns="http://www.w3.org/2000/svg" viewBox="802.2 191 647 311.6">
  <path d="M895.3 191L894.7 192.3 890.2 194.8 882.2 194.3C882.2 194.3 877.2 193.3 874.7 193.3 874.1 193.3 873.6 193.4 873.2 193.7 872.9 193.9 872.7 194.3 872.5 194.7 872.2 195.7 872.2 197 872.2 198.8 872.2 199.7 872.3 200.4 872.4 201 872.6 201.7 872.8 202.2 873.1 202.6 873.5 203 873.9 203.3 874.5 203.5 875.1 203.7 875.8 203.8 876.7 203.8 877.1 203.8 877.4 203.9 877.7 204 877.9 204.2 878 204.3 878 204.6 878.1 205.1 877.9 205.9 877.4 206.7 876.6 208.3 874.9 210.3 873.7 211.8 873.1 212.5 872.2 213.3 871.3 214 870.4 214.7 869.5 215.4 868.5 216 866.6 217.3 864.7 218.3 863.7 218.8 862.7 219.3 861.7 220.3 860.9 221.2 860.2 222 859.7 222.8 859.7 222.8L850.7 234.8 845.2 241.8C845.2 241.8 843.8 244 842.8 246.5 842.3 247.7 842 249 842 250.1 842 250.7 842.1 251.2 842.3 251.6 842.5 252 842.8 252.3 843.3 252.5 844.3 253 845.1 253.5 845.7 254 846.3 254.5 846.7 255.1 846.9 255.6 847.1 256.2 847.1 256.8 846.9 257.4 846.7 258 846.3 258.7 845.7 259.3 845.1 259.9 844.2 260.4 843.3 260.7 842.4 261.1 841.4 261.3 840.5 261.5 838.7 261.8 837.2 261.8 837.2 261.8L834.7 269.8C834.7 269.8 833.2 273.3 831.7 275.8 831.3 276.4 831.1 277.1 831.1 277.9 831 278.6 831 279.3 831.1 280 831.3 281.3 831.7 282.3 831.7 282.3L826.7 291.8C826.7 291.8 826.6 292.3 826 292.9 825.7 293.1 825.3 293.4 824.8 293.7 824.2 294 823.6 294.2 822.7 294.3 820.9 294.5 819.6 294.7 818.4 295 817.9 295.1 817.4 295.3 816.9 295.6 816.4 295.9 816.1 296.3 815.7 296.8 814.9 297.8 812.8 299.8 810.9 301.5 808.9 303.3 807.2 304.8 807.2 304.8 807.2 304.8 807.2 306.4 806.8 308 806.6 308.9 806.3 309.7 805.8 310.3 805.6 310.6 805.3 310.9 805 311 804.7 311.2 804.4 311.3 804 311.3 803.6 311.3 803.2 311.5 803 311.7 802.7 311.9 802.5 312.3 802.4 312.7 802.1 313.5 802 314.6 802.2 315.7 802.3 316.8 802.6 318 803.1 318.9 803.5 319.8 804.1 320.5 804.7 320.8 807.2 321.8 812.2 323.3 812.2 323.3 812.2 323.3 812.7 324.2 813.6 325 814 325.4 814.5 325.8 815.1 326 815.7 326.3 816.4 326.4 817.2 326.3 818.7 326 820.2 326 821.7 326.2 823.2 326.4 824.7 326.8 826.2 327.3 827.7 327.8 828.7 327.9 829.4 328.4 829.7 328.6 830 328.9 830.2 329.3 830.4 329.8 830.6 330.4 830.7 331.3 831.2 334.8 831.2 337.3 831.2 337.3L835.2 340.8C835.2 340.8 835.7 339.9 836.4 339.1 836.8 338.7 837.2 338.3 837.7 338 838.2 337.8 838.7 337.7 839.2 337.8 840.2 338 841.3 338.5 842.2 339 843.1 339.4 843.7 339.8 843.7 339.8 843.7 339.8 847.2 340.8 849.7 341.8 850.3 342 850.7 342.4 850.8 342.9 850.9 343.4 850.8 343.9 850.6 344.5 850.1 345.8 848.9 347.3 847.7 348.8 847.1 349.5 846.7 350.3 846.6 351.1 846.5 351.9 846.6 352.7 846.7 353.4 847.1 354.8 847.7 355.8 847.7 355.8 847.7 355.8 847.8 357.2 848.1 358.8 848.3 359.6 848.5 360.5 848.7 361.3 849 362.1 849.3 362.8 849.7 363.3 850.4 364.3 850.9 365.4 851.6 366 852 366.3 852.3 366.4 852.8 366.3 853.3 366.2 853.9 365.9 854.7 365.3 857.7 362.8 859.7 360.8 859.7 360.8 859.7 360.8 861.1 360.2 862.6 359.9 863.3 359.7 864.1 359.6 864.7 359.7 865.1 359.8 865.4 359.9 865.6 360.1 865.9 360.2 866.1 360.5 866.2 360.8 866.7 362 866.9 362.8 867.4 363.2 867.8 363.7 868.4 363.8 869.7 363.8 872.2 363.8 877.2 364.3 877.2 364.3L883.2 364.3 885.7 367.8C885.7 367.8 886.1 366.1 886.3 366.1L886.4 366.1C887.1 365.2 887.9 364.5 888.5 363.5 889.3 362.4 890.2 361.2 891.3 360 892.5 358.8 893.8 357.7 895.2 356.7 896.6 355.7 898 354.8 899.6 354.3 900.3 354 901.1 353.8 901.8 353.6 902.6 353.5 903.4 353.4 904.1 353.5 905.2 353.5 906.2 353.8 907.2 354 908.2 354.3 909.3 354.7 910.3 355 911.2 354.5 911.9 353.8 912.6 353 913.2 352.2 913.8 351.3 914.6 350.5 915.3 349.6 916.1 348.9 917 348.3 917.5 348.1 918.1 347.8 918.7 347.7 919.3 347.5 919.9 347.5 920.7 347.5L921.1 347.6C921.7 347.8 922.2 348.1 922.6 348.4 923 348.7 923.3 349.1 923.6 349.4 924 350.1 924.2 350.9 924.3 351.7 924.4 352.5 924.4 353.2 924.5 353.9 924.6 354.6 924.8 355.2 925.3 355.6 926 356.1 926.5 356.6 926.9 357.2 927.2 357.7 927.5 358.2 927.5 358.8 927.6 359.3 927.5 359.9 927.3 360.5 927.1 361.1 926.7 361.8 926.2 362.4 925.9 362.9 925.7 363.4 925.6 364 925.5 364.5 925.5 365.1 925.5 365.7 925.5 367 925.7 368.3 925.4 369.4 925.2 370.1 925 370.7 925.2 371.4 926.2 372.5 927 373.1 927.7 373.4 928.5 373.8 929.2 373.8 930 373.8 930.7 373.8 931.4 373.6 932.3 373.6 933.2 373.6 934.2 373.6 935.4 374 936.2 374.2 936.7 374.4 937.2 374.7 937.6 375 938 375.3 938.2 375.6 938.8 376.2 939.2 376.8 940.1 377.3 940.8 377.3 941.5 376.8 942.3 376.2 943.1 375.5 943.9 374.6 944.7 373.6 946.4 371.7 948 369.6 949.1 368.5 950.5 367.2 951.7 365.8 952.9 364.3 954.1 362.8 955.2 361.2 956.4 359.7L956.4 359.7C957.5 358.6 958.7 357.7 959.9 357.1 961.1 356.5 962.4 356.2 963.7 356.1 965 356.1 966.3 356.4 967.6 356.9 968.9 357.4 970.2 358.2 971.5 359.2 971.6 359.4 971.8 359.5 971.9 359.7L972.2 360C973 360.7 974.2 361 975.1 361.5 977.8 363.1 979.2 364.2 980.9 365.1 981.7 365.5 982.6 366 983.7 366.4 984.8 366.8 986.2 367.2 988 367.6 988.6 367.7 991.6 368.5 992.2 368.4L992.7 368.8C992.7 368.8 994.3 368.4 996.2 368 998.2 367.7 1000.4 367.3 1001.7 367.3 1002.9 367.3 1003.8 367.4 1004.7 367.6 1005.6 367.8 1006.4 368 1007.7 368.3 1008.9 368.5 1009.7 368.9 1010.4 369.4 1011.1 369.9 1011.7 370.5 1012.7 371.3 1013.7 372 1014.8 372.7 1016.2 373 1017 373.2 1017.8 373.3 1018.7 373.4 1019.5 373.4 1020.6 373.4 1021.7 373.3 1022.8 373.2 1023.9 372.8 1025 372.2 1026 371.7 1027 371 1027.9 370.4 1029.6 369 1030.7 367.8 1030.7 367.8 1030.7 367.8 1033.1 366.7 1035.7 365.3 1038.3 363.9 1041.2 362.3 1042.2 361.3 1042.7 360.8 1043.3 360.5 1043.8 360.4 1044.4 360.3 1045 360.4 1045.6 360.6 1046.2 360.8 1046.8 361.2 1047.3 361.6 1047.8 362.1 1048.3 362.7 1048.7 363.3 1049.4 364.5 1049.9 365.2 1050.6 365.5 1051.2 365.9 1051.9 366 1053.2 366.3 1053.8 366.4 1054.3 366.8 1054.6 367.3 1054.9 367.8 1055.2 368.5 1055.4 369.2 1055.6 370 1055.8 370.7 1056.1 371.4 1056.3 372.1 1056.7 372.8 1057.2 373.3 1058.2 374.3 1060.1 376.7 1061.8 379 1063.6 381.4 1065.2 383.8 1065.7 384.8 1066.7 386.8 1071.2 395.3 1071.2 395.3 1071.2 395.3 1074.6 399.2 1078.2 403.5 1081.8 407.8 1085.7 412.5 1086.7 414.3 1087.2 415.2 1088.1 416 1089.2 416.9 1090.4 417.7 1091.7 418.5 1092.9 419.1 1095.4 420.4 1097.7 421.3 1097.7 421.3 1097.7 421.3 1098.2 422.4 1099.1 423.9 1099.5 424.6 1100 425.4 1100.6 426.1 1101.2 426.9 1101.9 427.7 1102.7 428.3 1104.2 429.5 1105.7 430.4 1107.1 431.2 1108.6 431.9 1109.9 432.5 1111.2 433.3 1112.4 434 1113.8 435 1115.2 436 1116.7 437 1118.2 438 1119.7 438.8 1120.4 439.2 1121 439.7 1121.5 440.2 1122 440.7 1122.3 441.3 1122.6 441.9 1123.1 442.9 1123.2 443.8 1123.2 443.8 1123.6 443.6 1124 443.5 1124.3 443.3 1125.7 442.8 1126.9 442.4 1128.2 442.1 1129.4 441.9 1130.5 441.8 1131.6 442 1132.7 442.2 1133.7 442.7 1134.7 443.6 1135.7 444.5 1136.6 445.7 1137.5 447.5 1140.1 448.6 1141.5 449.4 1142.8 450.4 1144 451.5 1145.1 452.8 1146.9 454.9 1147.8 455.9 1148.6 456.7 1149.4 457.4 1150.1 458 1150.9 458.5 1151.6 458.9 1152.4 459.2 1153.1 459.4 1154 459.5 1154.8 459.6 1155.7 459.6 1156.7 459.5 1157.6 459.5 1158.7 459.2 1159.9 459 1161.2 458.8 1162.3 458.9 1163.3 459.1 1164.3 459.4 1165.2 459.8 1165.9 460.3 1167.5 461.4 1168.7 462.8 1169.9 464 1170.5 464.6 1171.1 465.1 1171.7 465.5 1172.3 465.9 1172.9 466.1 1173.6 466.2 1174.3 466.2 1175.1 466 1175.9 465.5 1176.8 465.1 1177.8 464.3 1178.9 463.1 1181 460.9 1182.1 459.6 1183.5 458.6 1184.1 458.1 1184.9 457.8 1185.8 457.5 1186.7 457.1 1187.9 456.9 1189.4 456.6 1191 456.4 1192.2 456 1193.2 455.5 1194.1 455 1194.8 454.5 1195.4 453.9 1196.1 453.3 1196.7 452.7 1197.5 452.1 1198.2 451.5 1199.1 451 1200.4 450.5 1201.5 450.1 1203.1 450 1204 450 1206.8 450 1209.2 450 1211.7 449.9 1214.1 449.7 1216.5 449.4 1219.2 448.8 1220.7 448.4 1221.9 448.2 1223 448.2 1224.1 448.1 1225.1 448.2 1226 448.4 1227.8 448.7 1229.5 449.4 1232.3 450.3 1232.9 450.5 1233.5 450.6 1234.1 450.6 1234.7 450.6 1235.2 450.5 1235.7 450.3 1236.8 450 1237.7 449.5 1238.7 449.1 1239.2 449 1239.7 448.8 1240.2 448.7 1240.7 448.7 1241.2 448.6 1241.7 448.8 1242.3 448.9 1242.9 449.1 1243.5 449.5 1244.1 449.9 1244.7 450.5 1245.4 451.2 1246.1 452 1246.7 452.8 1247.1 453.5 1247.6 454.3 1247.9 455.1 1248.2 455.9 1248.7 457.4 1248.9 458.9 1249.2 460.3 1249.4 461.7 1249.6 463 1250.1 464 1250.4 464.5 1250.7 465 1251.1 465.4 1251.6 465.8 1252.1 466.1 1252.8 466.4 1253.8 466.8 1254.9 467 1255.8 467.3 1257.4 467.9 1259.4 468.8 1261.2 469.9 1262.1 470.5 1263 471.1 1263.7 471.7 1264.5 472.3 1265.3 473 1265.8 473.7L1266.2 474.1C1266.5 474.6 1267.3 475.1 1268.2 475.5 1269.1 476 1270.2 476.5 1271.3 476.9 1273.5 477.7 1275.8 478.3 1276.9 478.5 1280 478.9 1282.7 478.5 1285.4 478.9L1286 478.9C1286 478.9 1286.5 477.3 1287 475.5 1287.3 474.5 1287.5 473.5 1287.6 472.5 1287.8 471.5 1287.8 470.5 1287.7 469.8 1287.2 466.8 1286.2 463.3 1285.7 461.3 1285.2 459.3 1284.2 454.8 1284.2 454.8 1284.2 454.8 1288.7 452.8 1290.7 451.8 1291.7 451.3 1292.7 451.2 1293.9 451.2 1295.1 451.3 1296.4 451.5 1298.2 451.8 1299.9 452 1301.2 451.7 1302.4 451.7 1303 451.8 1303.5 451.9 1304.2 452.3 1304.8 452.7 1305.4 453.3 1306.2 454.3 1306.9 455.3 1307.6 456.1 1308.2 456.7 1308.8 457.3 1309.5 457.6 1310.1 457.9 1310.8 458.1 1311.5 458.1 1312.3 458 1313.1 457.9 1314.1 457.7 1315.2 457.3 1317.4 456.5 1319.1 455.9 1320.4 455.7 1321.1 455.6 1321.7 455.7 1322.3 455.8 1322.9 456 1323.6 456.3 1324.2 456.8 1324.8 457.3 1325.5 457.5 1326.2 457.5 1326.9 457.6 1327.5 457.5 1328.1 457.3 1329.3 456.9 1330.2 456.3 1330.2 456.3 1330.2 456.3 1331.6 455.9 1333.1 455.9 1333.9 455.8 1334.7 455.9 1335.5 456.1 1336.2 456.3 1336.8 456.7 1337.2 457.3 1337.9 458.5 1338.8 460.5 1339.5 462.2 1340.2 463.9 1340.7 465.3 1340.7 465.3 1340.7 465.3 1341.8 465.4 1343.2 465.5 1344.6 465.5 1346.2 465.5 1347.2 465.3 1348.2 465 1349.3 464.4 1350.2 463.9 1351.1 463.3 1351.7 462.8 1351.7 462.8 1351.7 462.8 1352.3 462.5 1353.2 462.6 1353.7 462.6 1354.3 462.8 1354.8 463 1355.4 463.3 1356.1 463.7 1356.7 464.3 1357.3 464.9 1358.2 465.6 1359.2 466.1 1360.1 466.7 1361.2 467.3 1362.1 467.7 1364.1 468.7 1365.7 469.3 1365.7 469.3 1365.7 469.3 1366.3 470.4 1367.3 471.4 1367.8 471.8 1368.4 472.2 1369.1 472.5 1369.7 472.7 1370.4 472.7 1371.2 472.3 1371.9 471.9 1372.6 471.8 1373.2 471.8 1373.8 471.8 1374.4 472 1374.8 472.4 1375.2 472.7 1375.6 473.2 1375.8 473.8 1376 474.3 1376.2 475 1376.2 475.8 1376.2 477.3 1376.2 478.8 1376.4 480.2 1376.5 480.9 1376.6 481.5 1376.8 482.1 1377 482.7 1377.3 483.3 1377.7 483.8 1378.1 484.3 1378.9 484.8 1379.9 485.2 1380.9 485.6 1382.2 485.9 1383.6 486.2 1384.9 486.4 1386.2 486.6 1387.4 486.6 1388.5 486.6 1389.6 486.5 1390.2 486.3 1391.4 485.8 1393.6 485.4 1395.4 485.2 1397.2 484.9 1398.7 484.8 1398.7 484.8 1398.7 484.8 1399.6 484.5 1400.7 484.5 1401.3 484.5 1402 484.5 1402.7 484.6 1403.4 484.7 1404.1 484.9 1404.7 485.3 1405.9 486 1406.7 486.5 1407.4 486.9 1408.2 487.2 1408.9 487.3 1410.2 487.3 1411.4 487.3 1412.4 487.4 1413.2 487.9 1413.6 488.1 1413.9 488.4 1414.1 488.8 1414.4 489.2 1414.6 489.7 1414.7 490.3 1415.2 492.8 1416.2 495.8 1416.2 495.8 1416.2 495.8 1417.1 495.9 1418.2 495.9 1419.3 495.9 1420.7 495.8 1421.7 495.3 1422.2 495 1422.7 494.9 1423.2 494.8 1423.6 494.8 1424.1 494.8 1424.5 494.9 1424.9 495 1425.3 495.3 1425.6 495.6 1425.8 495.9 1426.1 496.3 1426.2 496.8 1426.3 497.3 1426.5 497.8 1426.7 498.2 1426.9 498.6 1427.1 498.9 1427.4 499.1 1427.7 499.3 1428.1 499.4 1428.6 499.4 1429 499.3 1429.6 499.2 1430.2 498.8 1430.8 498.4 1431.5 498 1432.1 497.8 1432.8 497.5 1433.5 497.3 1434.2 497.4 1434.9 497.4 1435.5 497.6 1436.2 498.2 1436.9 498.7 1437.6 499.5 1438.2 500.8L1439.1 502.6 1439.2 502.6C1438.8 501.9 1438.3 501.3 1438.2 500.9 1438.2 500.5 1438.4 499.6 1438.6 499.2L1440.1 498.3 1440.8 496.7 1440.6 496 1441.2 495.1 1442.5 495.3 1443.3 494.2 1445.4 494.9 1447 494.5 1447.3 494.1 1446.7 492.5 1447.3 491.6 1449.2 490.6 1449.2 489.7C1448.2 489.2 1446.9 487.8 1446.7 486.7L1446.9 486 1447.6 485.7 1447.3 484.9 1445.5 484.9C1444.2 483.6 1445.8 481.2 1444.7 479.8L1444.9 479.5 1445.7 479.3 1447.1 477.6C1447.2 476.5 1447.4 474 1446.9 472.9L1442.9 471.3 1443.5 469.2C1443.2 468.2 1442.2 465.8 1441.2 465.3 1440.4 465.3 1438.7 467.6 1438.2 468.3L1437.3 468.6 1437 468 1437.1 466.5C1437 466.3 1436.2 465.4 1436.2 465.3 1435.3 463.5 1435.1 460.8 1432.7 460.2L1432.1 460.3 1430.6 462.6 1429.7 462.8 1429.3 462.6 1428.6 460.8 1425.1 460 1424.9 459.7 1425.5 456.3C1424.7 454.5 1424.2 453.5 1422.3 453.1L1422.1 451.3 1421.7 450.8 1421.2 450.7 1420 451.2 1418.7 453.1 1417.6 452.9 1416.8 453.4 1416 453.4C1415.8 452.3 1415.3 450.1 1414.5 449.3 1413.6 449 1411.8 449.3 1410.9 449.5L1406.8 446.6C1406.3 446 1406.4 444.5 1406.6 443.8L1405.2 442C1405.6 441 1404.9 438.3 1404.5 437.3 1403.9 435.9 1402.8 434.6 1402.2 433.2 1401.9 432.4 1401.7 431.1 1401.5 430.2 1401.3 429.5 1399.5 424.4 1398.7 424.1 1395.2 423.2 1394.2 422.7 1390.8 424 1390 424.3 1389.4 424.7 1388.5 425L1387 425.4C1385.7 425.5 1383.9 425.1 1382.6 425 1381.8 424.9 1381 424.5 1380.3 424.3L1378.1 423.6C1374.8 422.1 1371.6 418.4 1368.7 416.1 1367.6 415.2 1366.1 414.6 1364.9 413.8L1361.3 411.3C1361.3 411.3 1358.1 409.1 1357.8 408.7 1357.5 408.4 1356.8 406.6 1356.8 406 1356.7 402.8 1357.1 399.5 1357.2 396.3 1357.4 388.7 1357.6 381 1357.8 373.4L1357.8 372.2 1358.2 371.8 1359.6 371.8 1361.8 373.9C1365.4 374.4 1364.3 374.6 1367.7 373.5L1369.6 374C1369.8 374.6 1370.7 375.6 1371.4 375.8L1372.1 375.5C1372.7 376.1 1375 375.7 1375.7 375.5L1376.4 374.1 1378 374.2 1378.4 372.6 1381.1 373.5 1383.9 372.5 1387 374.2C1388.8 374 1389.9 374 1391.7 374.5 1392.5 375.4 1393.7 376.3 1394.8 376.8L1396.2 379.2 1397 379.4 1397.9 378.8 1402 378.8C1403.1 379.8 1406.2 381.3 1407.6 381.6 1408.2 381.8 1411.1 381.7 1411.8 381.2L1413.2 381.7 1416.2 380 1416.6 376C1417.1 375.9 1418.3 375.9 1418.8 376.3 1419.2 377.2 1419.1 378.6 1418.9 379.4L1419.2 379.9 1419.9 380 1422.2 378.5 1423.8 379.1 1424.5 378.3C1424.9 378 1426.9 378.3 1427.5 378.4L1429.7 376 1430.7 376.2 1431.9 378.2 1432.9 378.1C1434 376.7 1433.5 375.9 1433.8 375.4 1435.6 372.7 1435.7 373.1 1436.4 369.8L1435.8 366.5C1433.9 366.4 1434 366.5 1432.5 365.8 1431.4 365.3 1429.9 365.2 1428.7 364.8 1426.2 364.1 1426 364.4 1424.3 364 1420.5 362.3 1415.2 360.6 1411.1 362.5 1410.1 362.7 1408.4 362.9 1407.3 362.7 1402.2 360.6 1397.4 358.5 1392.9 355.2 1390 353 1385.1 351.7 1383.7 350.2 1378.5 344.9 1373.8 349.2 1369.6 347.7 1369.6 347.6 1369.5 347.4 1369.5 347.3 1371.2 343.2 1371.8 340.8 1371.4 336 1371.1 332.5 1361.1 327.3 1359.2 327L1358.7 327C1355.2 327.3 1351.7 327.7 1348.3 328.7 1345.8 329.5 1343.1 328.6 1340.5 329.2 1337.7 329.8 1334.5 329.2 1331.7 329.2 1329.7 328.7 1327.7 328.3 1325.7 327.8 1322.1 326.1 1318.4 324.6 1315.5 321.8 1309.4 315.9 1306.7 312.7 1298.9 308.7 1295.1 306.8 1292.4 302.9 1289.9 299.7 1287.2 296.4 1284.9 293.1 1282.6 289.5L1280.5 286C1277.4 281.7 1273.8 281.4 1271.9 276.5 1269.7 270.9 1265 265.4 1260.2 262.2L1260 262C1259.9 262 1257.3 260.7 1256.7 260.5L1256.1 260.4 1253.9 260.4 1253.6 260.4C1251.6 260.7 1249.5 261.8 1247.7 262.7L1246.6 262.5C1245.3 259.5 1246.4 258.7 1243.5 255.1 1238.8 249.4 1232.9 251.5 1226.9 251.4 1215.6 251.3 1218.7 248.2 1215.2 246.8 1203.5 242.1 1208.9 236.5 1194.7 242.1 1190.5 243.7 1189.9 246.6 1187.5 249.2L1186.4 249.8C1183.4 250 1180 250 1177 250.6L1176.6 250.8 1173.8 252.1C1173.8 252.1 1173.5 255.5 1173.4 255.8 1172.9 257.3 1173.1 260.5 1173.2 261.9 1173.5 267.2 1173.9 272.4 1174.2 277.6 1174.5 280.5 1174.9 283.7 1174.3 286.6L1173 287.9C1171.2 287.8 1169.2 288 1167.5 288.3L1165.5 285.1 1164.4 284.6 1162.3 286.7C1160.7 286.8 1156.9 286.8 1155.5 287.1 1153.2 287.5 1153.1 288.1 1150.4 288 1150.1 288 1149.9 288.1 1149.6 288 1147.8 287.5 1146.1 286.3 1144.3 285.9L1141.7 285.6C1141.2 285.6 1140.9 285.5 1140.4 285.5 1140 285.5 1139.7 285.6 1139.3 285.7L1137.1 286.3C1135.1 287.1 1129.4 291.2 1127.9 291.5 1126.7 291.3 1126 290.4 1125 289.9 1123.4 289.1 1123.4 289.8 1121.9 288.3 1121.7 288.1 1121.6 288 1121.4 287.8 1121 287.1 1121 285.6 1120.2 285.2 1119.4 284.8 1117.2 283.3 1116.2 283.8L1113.9 285.5 1113.2 285.4 1112.7 285C1112.4 283.2 1111.7 282.1 1110.1 281.5 1109.7 281.4 1109.3 281.3 1108.9 281.3L1104.2 280.2C1102 279.6 1100.4 283.2 1097.6 279.2L1096.3 279C1094.1 280.8 1091.4 280.1 1089.4 281.6L1088.9 282.6C1089 283.1 1090 283.8 1090.4 284.1L1090.7 285 1090.2 286C1088.4 286.8 1084.6 287.4 1082.9 286.6L1082.6 285.4C1082.3 284.8 1081.3 284.7 1080.7 284.5 1080.1 284.3 1079.4 284 1078.8 283.9 1078.2 283.8 1076.4 284.3 1075.9 284.5 1075.7 284.7 1074.1 286 1073.5 286.3L1073 286.2 1071.9 286.5C1071.5 287.2 1070.4 288.9 1069.6 289.3 1068.9 289.5 1068 289.3 1067.5 289 1064.6 288 1065.7 288.7 1063.5 288.5 1063.3 288.4 1062.5 288 1062.3 288 1061.8 287.8 1058.9 287.8 1058.4 287.8 1057 287.9 1056 288.1 1054.6 287.7 1053.1 287.4 1051.4 286.9 1050 286.4 1048.9 286 1048 285.2 1046.9 284.9 1046.7 284.8 1041.8 283.4 1041.6 283.4 1039.3 283.1 1036.8 283.5 1034.6 283.2 1033.2 283 1030.1 281 1029 280.1L1027.7 280.4C1026.8 281.8 1025.4 282.5 1023.7 281.9 1023 280.9 1020.8 279.2 1019.5 279.1 1019 279.1 1018.7 279.2 1018.2 279.2 1015.6 279.5 1014.7 279.9 1012.8 278.1 1012.2 277.5 1011.8 277.2 1011.7 276.2 1011.6 275 1012.6 274.2 1012.8 273.1 1012.7 272.7 1012.6 272 1012.3 271.7 1011.6 270.9 1010.6 270.1 1010 269.3 1008.4 267.3 1007.5 264.7 1006.4 262.5 1006.3 262.2 1004 259.5 1003.7 259.1 1003.4 258.6 1002.7 258.3 1002.1 258.2 1000.8 258.8 997.6 258.6 996.4 257.8 993.9 258.5 991.1 257.5 988.6 258.1L987.8 258.8 986.3 260.2C986 260.4 985.7 260.4 985.3 260.5 983.1 261.3 981 261.8 978.7 262.1 976.5 262.5 974.4 262.7 972.4 263.5 970.9 262.9 969.4 262.4 967.9 261.9 965.8 261.3 963.4 261.1 961.3 260.4 959.4 259.8 957.7 258.8 955.8 258.2 953.7 257.6 951.5 257.1 949.4 256.5 947.9 256.1 945.6 255.2 944.2 255.1 944.1 255.1 943.1 255.2 943 255.2L942.6 255.7 941.7 256.5C941.1 257.9 941.2 259.7 940.2 260.9L939.1 261.5C935.8 261.5 934.5 258.3 932.5 256.4L931 255.5C930.7 255.3 930.6 255.1 930.3 255 929.2 254.7 927.6 255.1 926.5 254.8 925.2 254.5 923.7 253.7 922.6 253.2 921.1 248.8 918.8 241.4 918.4 236.9 918.2 234.2 918.6 231.3 918 228.6 917.6 227.1 916.5 225.3 916.2 223.9 915.3 220.1 916.6 214.7 917.4 211.1 918 208.9 919.2 207.2 918.8 204.8 918.5 202.3 916.3 201.4 914.8 199.5 914.7 199.3 914.2 197.7 914 197.4 912.7 195.5 908 193 905.6 192.8 904.8 192.7 902.1 193.7 901.4 194 899.6 192.7 897.4 191.8 895.3 191z" stroke="black" stroke-width="1" fill="transparent"/>
</svg>