<svg xmlns="http://www.w3.org/2000/svg" viewBox="576.2 582.8 193.79999999999995 120.5">
  <path d="M766.6 637.6L763.2 631.8 758.7 628.8C758.7 628.8 757.9 628.2 757.2 627.2 756.8 626.7 756.4 626.1 756.2 625.4 755.9 624.8 755.7 624 755.7 623.3 755.7 622.5 755.6 621.9 755.3 621.4 755.1 620.9 754.8 620.5 754.4 620.2 754 619.9 753.5 619.6 752.9 619.5 752.4 619.3 751.8 619.3 751.2 619.3 749.9 619.3 749.3 619.3 748.7 619 748.2 618.8 747.7 618.3 746.7 617.3 746.2 616.8 745.7 616.5 745.2 616.5 744.8 616.4 744.3 616.5 743.9 616.8 742.9 617.3 741.9 618.3 740.7 619.3 740.1 619.8 739.4 620.1 738.8 620.2 738.1 620.3 737.5 620.1 736.8 619.9 736.1 619.6 735.4 619.1 734.6 618.5 733.9 617.9 733.1 617.2 732.2 616.3 731.7 615.9 731.3 615.6 730.9 615.4 730.5 615.2 730.1 615.1 729.8 615 729.1 615 728.4 615.3 727.9 615.7 726.8 616.5 726.2 617.8 726.2 617.8 726.2 617.8 724.1 618.5 722.2 618.9 721.3 619 720.5 619.1 720.1 618.9 719.8 618.8 719.7 618.6 719.7 618.3 719.7 618.1 719.9 617.7 720.2 617.3 720.8 616.4 721.2 615.7 721.5 615.1 721.7 614.5 721.8 613.9 721.8 613.4 721.8 612.4 721.4 611.5 721.2 610.3 720.9 609 720.8 607.4 720.9 605.9 720.9 604.3 721.2 602.8 721.7 601.8 721.9 601.3 722.1 600.7 722.2 600 722.3 599.3 722.3 598.5 722.3 597.7 722.3 596.2 722.2 594.5 722.2 593.3 722.2 592 722.2 591.3 721.9 590.7 721.7 590 721.2 589.5 720.2 588.8 719.7 588.4 719.2 587.9 718.9 587.3 718.5 586.7 718.2 586.1 717.9 585.5 717.4 584.3 717.2 583.3 717.2 583.3L711.7 582.8 704.7 583.8 703.2 589.3C703.2 589.3 702.4 590.2 701.4 591.2 700.4 592.3 699.2 593.5 698.2 594.3 697.2 595 696.3 596.3 695.6 597.6 694.8 598.9 694.2 600.3 693.7 601.3 693.2 602.3 692.4 603 691.6 603.7 690.7 604.3 689.7 604.8 688.7 605.3 687.7 605.8 686.7 606.3 685.7 606.5 685.2 606.7 684.7 606.7 684.2 606.7 683.7 606.7 683.2 606.5 682.7 606.3 681.7 605.8 680.8 605 680.1 604.1 679.3 603.2 678.7 602 678.2 600.8 677.9 600.2 677.6 599.6 677.2 599.2 676.8 598.8 676.3 598.4 675.8 598.2 675.3 597.9 674.8 597.8 674.2 597.7 673.7 597.6 673.2 597.7 672.7 597.8 671.7 598 670.8 598 669.7 598 668.7 597.9 667.4 597.8 665.7 597.8 664.8 597.8 664.3 597.9 664 598.2 663.7 598.5 663.6 598.9 663.6 599.3 663.7 600.2 664.2 601.3 664.2 602.3 664.2 604.3 664.2 605.3 664.2 608.3 664.2 609 663.9 609.6 663.6 610 663.2 610.4 662.7 610.7 662.2 610.9 661.2 611.3 660.2 611.3 660.2 611.3L653.2 610.8C653.2 610.8 652.6 611.2 651.6 611.5 650.7 611.9 649.4 612.3 648.2 612.3 647.6 612.3 647 612.4 646.5 612.7 646 613 645.5 613.4 645.1 613.8 644.2 614.7 643.4 615.8 642.7 616.8 642.3 617.3 641.8 617.8 641.3 618.2 640.8 618.7 640.2 619 639.6 619.3 639 619.5 638.4 619.7 637.8 619.6 637.3 619.5 636.7 619.3 636.2 618.8 635.7 618.3 635.2 618 634.7 617.8 634.1 617.6 633.6 617.6 633.1 617.6 631.9 617.7 630.7 618 629.2 618.3 628.4 618.4 627.8 618.5 627.3 618.4 626.8 618.3 626.4 618.2 626.1 617.9 625.3 617.4 624.7 616.5 623.7 615.3 623.2 614.7 622.6 614.3 622.1 614 621.6 613.8 621.1 613.6 620.7 613.6 619.8 613.5 619.2 613.8 619.2 613.8 619.2 613.8 617.2 614.3 615.2 615.3 614.2 615.8 613.3 616 612.4 616.2 611.4 616.3 610.4 616.3 609.2 616.3 607.9 616.3 606.3 615.8 605 615.7 604.3 615.6 603.8 615.6 603.3 615.9 602.9 616.1 602.7 616.5 602.7 617.3 602.7 618.8 602.7 620.3 602.4 621.5 602.3 622.2 602.1 622.7 601.8 623.2 601.6 623.7 601.2 624 600.7 624.3 599.7 624.8 597.3 625.5 595.2 626.2 593.1 626.8 591.2 627.3 591.2 627.3 591.2 627.3 587.7 631.3 586.2 633.3 585.8 633.8 585.7 634.3 585.7 634.9 585.6 635.5 585.8 636 586 636.7 586.4 637.9 587.2 639.3 587.7 640.8 587.9 641.5 588 642.2 588 642.7 588 643.2 587.8 643.7 587.6 644 587.1 644.8 586.2 645.3 585.2 645.8 584.7 646 584.4 646.5 584.2 647 584 647.5 583.9 648.1 583.9 648.7 583.9 649.8 584.2 650.8 584.2 650.8 584.2 650.8 584.3 652.2 584.1 653.8 583.9 654.6 583.7 655.5 583.3 656.3 583 657.1 582.4 657.8 581.7 658.3 580.2 659.3 578.8 660.7 577.8 661.8 576.8 662.9 576.2 663.8 576.2 663.8L577.2 670.8 577.7 675.8 582.7 682.8 587.2 687.8 590.2 695.3 590.2 695.7 590.5 695.2 596.2 694.3C596.2 694.3 596.3 693.3 596.7 692.3 596.9 691.8 597.1 691.3 597.4 690.9 597.8 690.5 598.2 690.3 598.7 690.3 599.2 690.3 599.6 690.2 600 690.1 600.3 689.9 600.7 689.7 601 689.4 601.7 688.8 602.4 687.8 603.7 686.3 604.3 685.5 605 685.1 605.6 685 606.2 684.8 606.8 684.8 607.4 684.9 608.4 685.2 609.2 685.8 609.2 685.8 609.2 685.8 611.6 686.3 614.2 686.9 616.9 687.5 619.9 688.3 621.2 688.8 621.8 689 622.4 689.4 623 689.9 623.5 690.3 624 690.9 624.5 691.4 625.4 692.5 626.2 693.8 626.7 694.8 626.9 695.3 627.3 695.9 627.9 696.5 628.4 697.1 629.1 697.7 629.8 698.3 630.6 698.9 631.4 699.3 632.3 699.7 633.2 700.1 634.2 700.3 635.2 700.3 637.2 700.3 638.8 700.7 640.2 700.9 641 701 641.6 701 642.3 700.9 642.9 700.8 643.6 700.7 644.2 700.3 644.8 699.9 645.4 699.7 645.9 699.5 646.4 699.4 646.9 699.4 647.4 699.5 647.8 699.6 648.3 699.8 648.7 700.1 649.2 700.4 649.7 700.8 650.2 701.3 650.7 701.8 651.3 702 652 702 652.7 702.1 653.5 702 654.2 701.8 655.6 701.4 656.7 700.8 656.7 700.8L661.7 698.8C661.7 698.8 662.3 698.2 663.2 697.5 663.6 697.2 664.1 696.9 664.6 696.7 665.1 696.4 665.7 696.3 666.2 696.3 667.2 696.3 669.2 695.7 670.9 695 672.7 694.4 674.2 693.8 674.2 693.8 674.2 693.8 675.1 693.5 676.1 693 676.7 692.8 677.2 692.5 677.8 692.1 678.3 691.7 678.8 691.3 679.2 690.8 679.6 690.3 679.9 689.7 680.2 689.3 680.5 688.8 680.8 688.5 681.2 688.3 681.6 688.1 682 688.1 682.6 688.4 683.1 688.7 683.8 689.3 684.7 690.3 684.7 690.3 685.2 690.9 686.1 691.5 686.6 691.8 687.2 692 687.8 692.2 688.5 692.4 689.3 692.4 690.2 692.3 691.9 692 692.7 691.8 693.3 692.1 693.9 692.3 694.2 693 695 694.6 695.4 695.4 695.9 696 696.4 696.5 696.9 697 697.5 697.4 698 697.7 699.2 698.3 700.4 698.5 701.7 698.8 702.3 698.9 702.8 699.2 703.2 699.5 703.6 699.8 704 700.2 704.4 700.5 704.8 700.7 705.2 701 705.7 701.1 706.2 701.1 706.7 701.1 707.5 700.7 708.3 700.3 709.1 700.2 710 700.2 710.8 700.2 711.6 700.3 712.3 700.5 713.7 700.8 714.7 701.3 714.7 701.3 714.7 701.3 716.3 701.4 718.2 701.5 720.1 701.5 722.2 701.5 723.2 701.3 724.2 701 725.1 700.4 726 699.7 726.9 699 727.9 698.3 729.2 697.8 729.8 697.5 730.4 697.4 730.9 697.5 731.4 697.5 731.8 697.7 732.2 698 732.6 698.4 732.9 698.8 733.1 699.3 733.4 699.9 733.6 700.5 733.7 701.3 733.8 702 734.1 702.5 734.5 702.9 734.8 703.2 735.3 703.3 735.9 703.3 736.9 703.3 738.2 702.8 739.2 702.3 741.2 701.3 744.2 699.3 746.2 698.3 747.2 697.8 748.1 697.7 748.9 697.4 749.3 697.3 749.7 697.1 750.1 696.9 750.4 696.6 750.8 696.3 751.2 695.8 751.9 694.8 752.6 693.9 753.1 693 753.7 692 754.2 691 754.7 689.8 754.9 689.2 755.5 688.7 756.2 688.3 756.8 688 757.6 687.7 758.4 687.5 760 687.1 761.5 687.1 761.5 687.1L761.8 687 761.5 686.9 761.8 684.1 762 679.9 764.8 675.9 768.3 674.6 768.5 672.6 770 666.9 768.5 663.1 768 657.6 764.5 652.1 764 644.6 766.5 637.6 766.6 637.6z" stroke="black" stroke-width="1" fill="transparent"/>
</svg>