<svg xmlns="http://www.w3.org/2000/svg" viewBox="459.7 1137.3 254.40000000000003 390">
  <path d="M713.9 1183L713.2 1181.8 669.2 1182.3C669.2 1182.3 668.9 1182.7 668.4 1183.2 667.9 1183.8 667.2 1184.5 666.2 1185.3 665.7 1185.7 665.1 1185.9 664.4 1186.1 663.7 1186.3 662.9 1186.4 662.1 1186.4 660.6 1186.5 658.9 1186.5 657.7 1186.8 656.4 1187 655.3 1187.2 654.2 1187 653.2 1186.9 652.2 1186.5 651.2 1185.8 650.7 1185.4 650.2 1185.2 649.7 1185.1 649.1 1185 648.6 1185 648.1 1185 646.9 1185 645.7 1185.3 644.2 1185.3 643.4 1185.3 642.7 1185.4 641.9 1185.6 641.1 1185.8 640.3 1186.1 639.6 1186.5 638.1 1187.2 636.7 1188 635.7 1188.8 635.2 1189.2 634.7 1189.8 634.3 1190.5 633.9 1191.2 633.5 1192.1 633.2 1192.9 632.6 1194.4 632.2 1195.8 632.2 1195.8 632.2 1195.8 630.2 1195.8 628.2 1195.3 627.2 1195 626.1 1194.5 625.1 1193.8 624.6 1193.4 624.1 1193 623.7 1192.5 623.3 1192 622.9 1191.4 622.7 1190.8 622.4 1190.2 622.1 1189.8 621.7 1189.6 621.4 1189.4 621 1189.4 620.6 1189.5 619.7 1189.7 618.7 1190.3 617.7 1190.8 615.7 1191.8 614.2 1192.3 614.2 1192.3L609.7 1190.3C609.7 1190.3 608.9 1189.9 608.1 1189.2 607.6 1188.8 607.1 1188.3 606.7 1187.8 606.3 1187.2 605.9 1186.5 605.7 1185.8 605.4 1185 605 1184.6 604.6 1184.4 604.1 1184.2 603.6 1184.1 603.1 1184.2 602.1 1184.3 601.2 1184.8 601.2 1184.8 601.2 1184.8 598.2 1185.3 595.7 1185.3 595.1 1185.3 594.6 1185.2 594.2 1185 593.7 1184.8 593.4 1184.5 593.2 1184.1 592.7 1183.3 592.4 1182 592.2 1180.3 592.1 1179.4 591.8 1178.8 591.5 1178.3 591.1 1177.8 590.7 1177.4 590.2 1177.2 589.2 1176.7 587.9 1176.5 586.7 1176.3 586.1 1176.2 585.6 1175.9 585.3 1175.5 585 1175.1 584.8 1174.6 584.8 1174 584.8 1173.4 585 1172.7 585.3 1172 585.6 1171.3 586.1 1170.5 586.7 1169.8 587 1169.4 587.2 1169 587.3 1168.6 587.4 1168.1 587.4 1167.7 587.3 1167.2 587.2 1166.3 586.8 1165.3 586.4 1164.4 585.4 1162.7 584.2 1161.3 584.2 1161.3 584.2 1161.3 580.2 1157.8 578.2 1155.8 577.7 1155.3 577.3 1154.8 577 1154.2 576.7 1153.7 576.6 1153.1 576.4 1152.5 576.2 1151.4 576.2 1150.3 576.2 1149.3 576.2 1147.3 575.7 1144.3 575.7 1144.3 575.7 1144.3 575.9 1143.4 575.9 1142.4 575.8 1141.9 575.7 1141.4 575.5 1140.9 575.2 1140.5 574.8 1140 574.2 1139.8 571.7 1138.8 568.7 1137.3 568.7 1137.3 568.7 1137.3 567.6 1138 566.2 1138.8 565.5 1139.2 564.7 1139.5 564 1139.8 563.3 1140.1 562.7 1140.3 562.2 1140.3 560.2 1140.3 555.2 1141.3 555.2 1141.3 555.2 1141.3 553.1 1142.8 550.7 1144.6 549.6 1145.5 548.4 1146.5 547.4 1147.4 546.4 1148.3 545.6 1149.2 545.2 1149.8 544.4 1151 543.9 1152.9 543.6 1154.5 543.3 1156 543.2 1157.3 543.2 1157.3 543.2 1157.3 543.2 1158.2 543.4 1159.3 543.5 1159.9 543.6 1160.5 543.8 1161.1 544 1161.7 544.3 1162.3 544.7 1162.8 545.1 1163.3 545.4 1164 545.6 1164.7 545.8 1165.4 546 1166.2 546 1166.9 546 1167.7 546 1168.4 545.7 1169 545.5 1169.6 545.2 1170 544.7 1170.3 543.7 1170.8 542.7 1171.3 541.9 1172.1 541.5 1172.5 541.1 1173 540.8 1173.6 540.5 1174.2 540.3 1174.9 540.2 1175.8 539.9 1177.5 539.8 1178.7 539.9 1179.6 540.1 1180.5 540.4 1181.3 541.2 1182.3 541.9 1183.3 542.8 1184.4 543.5 1185.5 543.8 1186.1 544.1 1186.7 544.3 1187.2 544.6 1187.8 544.7 1188.3 544.7 1188.8 544.7 1190.8 544.7 1195.3 544.7 1195.3L541.2 1199.3 537.7 1201.3 534.2 1204.3 531.7 1210.3C531.7 1210.3 530.9 1210.8 529.7 1211.2 529.1 1211.4 528.3 1211.5 527.5 1211.6 526.6 1211.6 525.7 1211.5 524.7 1211.3 523.7 1211 523 1211.2 522.6 1211.5 522.2 1211.8 522.1 1212.4 522.1 1213 522.1 1214.4 522.7 1216.3 523.2 1217.8 523.4 1218.5 523.5 1219.2 523.4 1219.8 523.3 1220.3 523.1 1220.8 522.8 1221.2 522.3 1221.9 521.7 1222.3 521.7 1222.3 521.7 1222.3 518.7 1222.3 516.2 1222.3 515.6 1222.3 515.1 1222.4 514.8 1222.6 514.6 1222.8 514.4 1223 514.4 1223.4 514.4 1224 514.9 1225 515.7 1226.3 516.4 1227.5 517.3 1229.9 518.1 1232.2 518.8 1234.5 519.4 1236.8 519.7 1237.8 519.9 1238.8 520.7 1239.9 521.4 1240.8 522.1 1241.7 522.7 1242.3 522.7 1242.3 522.7 1242.3 523.6 1242.8 524.6 1243.6 525.7 1244.4 526.9 1245.5 527.7 1246.8 528.4 1248 529.2 1249.3 529.5 1250.5 529.7 1251.1 529.7 1251.6 529.6 1252.2 529.5 1252.8 529.2 1253.3 528.7 1253.8 528.2 1254.3 527.8 1254.8 527.6 1255.3 527.3 1255.9 527.2 1256.4 527.3 1257 527.4 1257.7 527.6 1258.4 528 1259.1 528.4 1259.9 528.9 1260.8 529.7 1261.8 530.4 1262.8 530.9 1263.6 531.2 1264.4 531.4 1265.1 531.4 1265.7 531.2 1266.3 531.1 1266.9 530.8 1267.4 530.3 1267.9 529.9 1268.3 529.3 1268.8 528.7 1269.3 528.1 1269.8 527.7 1270.3 527.4 1270.9 527.1 1271.4 527 1272 527 1272.5 526.9 1273.7 527.2 1274.8 527.2 1275.8 527.2 1277.8 527.2 1290.8 527.2 1290.8 527.2 1290.8 527.1 1291.8 527.2 1293.1 527.2 1293.8 527.4 1294.5 527.6 1295.2 527.8 1296 528.2 1296.7 528.7 1297.3 529.2 1297.9 529.5 1298.6 529.7 1299.3 529.9 1300 529.9 1300.6 529.9 1301.2 529.9 1302.4 529.7 1303.3 529.7 1303.3 529.7 1303.3 529.6 1304.5 529.1 1306 528.8 1306.8 528.5 1307.6 528 1308.4 527.5 1309.1 526.9 1309.8 526.2 1310.3 525.4 1310.8 524.9 1311.3 524.5 1311.9 524.1 1312.5 523.9 1313.2 523.7 1314 523.4 1315.7 523.4 1317.8 523.2 1320.8 523.1 1322.3 523.2 1323.6 523.6 1324.7 523.9 1325.9 524.5 1326.8 525 1327.5 526.1 1329 527.2 1329.8 527.2 1329.8 527.2 1329.8 530.2 1332.3 532.2 1333.8 534.2 1335.3 536.2 1337.3 536.2 1337.3 536.2 1337.3 536.2 1345.3 536.2 1347.8 536.2 1349 536.4 1350.4 536.5 1351.8 536.5 1352.5 536.5 1353.2 536.4 1353.9 536.3 1354.5 536.1 1355.2 535.7 1355.8 535.3 1356.4 535.1 1357.1 535.1 1357.7 535 1358.4 535.1 1359.1 535.2 1359.7 535.2 1360.4 535.3 1361 535.2 1361.6 535.2 1362.2 535.1 1362.8 534.7 1363.3 534.3 1363.8 534.1 1364.4 534 1365.1 533.8 1365.8 533.8 1366.6 533.9 1367.3 533.9 1368.7 534.2 1369.8 534.2 1369.8 534.2 1369.8 535.2 1384.3 535.2 1387.3 535.2 1388 535.1 1388.7 534.9 1389.3 534.7 1389.8 534.4 1390.3 534 1390.7 533.6 1391.1 533.1 1391.5 532.4 1391.7 531.8 1392 531.1 1392.2 530.2 1392.3 529.3 1392.4 528.5 1392.7 527.7 1393.1 527 1393.5 526.4 1394 525.8 1394.5 525.2 1395.1 524.8 1395.7 524.4 1396.4 524 1397 523.8 1397.7 523.7 1398.3 523.6 1398.9 523.3 1399.5 523 1400 522.6 1400.5 522.2 1400.9 521.7 1401.2 521.2 1401.6 520.6 1401.8 520 1402 519.4 1402.2 518.8 1402.3 518.2 1402.3 517.6 1402.3 516.9 1402.4 516.3 1402.7 515.7 1403 515.2 1403.5 514.7 1404 514.2 1404.5 513.7 1405.2 513.4 1405.9 513.1 1406.6 512.8 1407.4 512.7 1408.3 512.6 1409.2 512.2 1409.8 511.6 1410.3 511.1 1410.7 510.4 1411 509.7 1411 509.1 1411 508.4 1410.8 508 1410.5 507.5 1410.1 507.2 1409.5 507.2 1408.8 507.2 1408 507 1407.5 506.7 1407.1 506.4 1406.7 506.1 1406.4 505.7 1406.2 504.9 1405.8 504.2 1405.8 504.2 1405.8 504.2 1405.8 498.7 1404.8 495.7 1404.3 494.9 1404.2 494.3 1404.2 493.7 1404.4 493.1 1404.5 492.6 1404.8 492.2 1405.1 491.3 1405.8 490.7 1406.8 490.2 1407.8 489.7 1408.8 489.2 1409.7 488.4 1410.3 488.1 1410.6 487.6 1410.9 487.1 1411 486.6 1411.2 485.9 1411.3 485.2 1411.3 484.4 1411.3 483.9 1411.5 483.6 1412 483.2 1412.4 483.1 1412.9 482.9 1413.5 482.7 1414.8 482.7 1416.3 482.2 1417.3 481.7 1418.3 481.3 1419.3 481.2 1420.5 481.2 1421.1 481.3 1421.7 481.4 1422.4 481.6 1423.1 481.8 1423.9 482.2 1424.8 482.6 1425.7 482.9 1426.6 483.2 1427.5 483.4 1428.4 483.6 1429.3 483.6 1430.1 483.7 1431 483.6 1431.7 483.2 1432.5 482.9 1433.2 482.4 1433.8 481.7 1434.3 480.9 1434.8 480.3 1435.4 479.8 1436 479.4 1436.7 479 1437.4 478.7 1438 478.1 1439.4 477.7 1440.8 477.2 1441.8 476.7 1442.8 475.8 1444 474.7 1445.2 473.6 1446.4 472.2 1447.5 470.7 1448.3 469.9 1448.7 469.3 1449.2 468.8 1449.8 468.3 1450.4 467.9 1451.1 467.6 1451.9 467.2 1452.6 467 1453.5 466.9 1454.4 466.7 1455.3 466.7 1456.3 466.7 1457.3 466.7 1458.3 466.4 1459.1 465.9 1459.7 465.4 1460.3 464.8 1460.7 464.2 1461 462.9 1461.7 461.7 1461.8 461.7 1461.8L459.7 1468.6 461.5 1480 468.3 1488.2 469.2 1488.5 472.5 1488 475.4 1489.6C476.6 1491.5 476.6 1494.6 477.1 1496.7 477.4 1498.1 478.2 1499.2 479 1500.3 479 1500.3 479.7 1500.7 479.7 1500.7L479.9 1500.8C481.1 1500.8 482.5 1500.6 483.8 1500.7 484.7 1500.8 486.1 1502.1 486.8 1502.6 487.5 1503.1 488.3 1503.1 488.9 1503.5 490.2 1504.2 490.5 1506.4 490.2 1507.7 491.4 1510.2 493.3 1512.3 495.2 1514.4 495.7 1515 496.1 1515.4 496.6 1516 497.3 1517 497.8 1518.7 498.4 1519.9 499.8 1519.9 501.4 1520 502.7 1519.9 503.4 1519.8 504.3 1519.4 505 1519.2 505 1519.1 505.2 1519.1 505.2 1519.1 506.7 1519 508.2 1518.9 509.6 1518.9 510 1518.9 511.6 1519.3 511.7 1519.3 511.9 1519.2 513.4 1518.6 513.7 1518.5 514 1518.5 519 1518.4 519.1 1518.4 520.6 1518.5 522.1 1518.9 523.7 1519 524.6 1519.1 525.8 1518.3 526.8 1518.7 529.3 1519.7 532.4 1521.4 535 1521.7 535.1 1521.7 538.2 1521.7 538.3 1521.6 539 1521.5 539.8 1521 540.5 1520.8 541.6 1520.5 543.2 1520.3 544.2 1520.8 544 1521.5 543.8 1523.3 544.3 1523.9 544.9 1524 545.7 1524.4 546.3 1524.4 547.4 1524.5 549.2 1524 550.1 1524.9L551.2 1527.3C551.2 1527.3 551.9 1527.1 551.9 1527 553.1 1526.1 554.9 1524.3 556.3 1523.8 558.2 1523.1 558.8 1523.7 560.4 1522.2L561.5 1521.3C563.2 1518.7 564 1514.8 564.4 1511.8L564.9 1508.5C565.3 1507.1 566.2 1505.3 566.8 1504 568.7 1499.9 571.3 1496 574.3 1492.6 574.6 1492.3 575.1 1492 575.5 1491.7 577.2 1490.1 579 1488.3 580.5 1486.4 580.9 1484.2 578.6 1482.1 578.9 1480.1 579 1479.7 579.2 1479.2 579.3 1478.8 579.5 1478.1 579.7 1477.1 580 1476.5 580.8 1474.9 582.1 1473.6 582.9 1472 584.7 1468.5 585.8 1464.8 587.9 1461.5 588.8 1461.3 590.4 1458.4 591.1 1457.6 591.9 1456.7 592.9 1455.9 593.8 1455.1 593.8 1455.1 594.4 1455 594.4 1455 595.4 1454.2 596.3 1453.4 597.3 1452.6 598.3 1451.9 599.5 1451.7 600.6 1451.3 604.1 1449.8 608.2 1447.8 612.1 1447.4 615.8 1447.1 618.8 1447.7 622.2 1445.8 623.5 1445.1 629.5 1437.7 630.8 1436.1 632.5 1434 634.5 1432.2 636.1 1430.1 639.1 1426.2 641.8 1422 644.3 1417.9 645.8 1415.4 647.2 1412.9 648.6 1410.4 652.1 1403.4 653 1399.1 651.5 1391.2 651.4 1390.6 650.9 1389.9 650.7 1389.3 650.5 1388.6 650.5 1387.9 650.3 1387.2 649.7 1385.3 648.8 1383.4 648.2 1381.5 647.8 1380.4 647.8 1379.4 647.7 1378.3 647.4 1376 646.8 1374.1 647.1 1371.8 647.5 1368 648.4 1363 650.8 1360 650.9 1359.9 652.5 1358.5 652.5 1358.5 653.2 1358 655.4 1357.2 655.5 1356.4 656.7 1356 657.7 1355.2 658.6 1354.5 659.5 1353.7 660.5 1352.8 661 1351.7 661.2 1351.3 661.9 1347.9 661.8 1347.5 661.8 1345.5 661.3 1343.3 661.1 1341.3 660.8 1338.3 659.9 1331 660.2 1328.3 660.4 1326.2 660.8 1323.9 661.2 1321.9 661.6 1320.1 662.6 1318.3 663.2 1316.5 663.5 1315.5 663.6 1314.3 663.9 1313.3 664.7 1311.2 665.3 1308.9 666.2 1306.9L668.8 1301.5C670.2 1298.8 671.4 1296.1 672.6 1293.4 675.7 1286.4 677.7 1279 681.8 1272.5 683.3 1270.2 685.2 1268.3 687 1266.2 688 1265.1 688.9 1263.9 689.9 1262.8 691.1 1261.4 692.6 1260.2 693.8 1258.9 694.4 1258.2 694.9 1257.5 695.4 1256.9 696 1256.3 696.7 1255.8 697.2 1255.2 698.2 1254 699.1 1252.7 700.1 1251.5 700.6 1250.9 701.3 1250.4 701.7 1249.7 702.7 1248.5 703.5 1247.2 704.4 1246 704.5 1245.8 704.7 1245.6 704.7 1245.5 705.5 1244 706.4 1242.6 707.1 1241.1L707.8 1239.2C708.9 1235.7 709.7 1232.2 710.5 1228.6 712.2 1221.4 713.8 1214.6 714.1 1207.2 714.2 1204.9 713.9 1202.5 713.9 1200.2 713.9 1199.7 714.1 1199.1 714.1 1198.5 714.1 1198 713.8 1197.4 713.7 1196.8 713.6 1194.7 713.5 1192.6 713.4 1190.5 713.4 1190.3 713.7 1189.7 713.7 1189.5 713.7 1188.1 713.6 1186.6 713.7 1185.2 713.7 1184.5 713.8 1183.7 713.9 1183z" stroke="black" stroke-width="1" fill="transparent"/>
</svg>