
<svg fill="#FFFFFF" xmlns:dc="http://purl.org/dc/elements/1.1/" xmlns:cc="http://creativecommons.org/ns#" xmlns:rdf="http://www.w3.org/1999/02/22-rdf-syntax-ns#" xmlns:svg="http://www.w3.org/2000/svg" xmlns="http://www.w3.org/2000/svg" xmlns:sodipodi="http://sodipodi.sourceforge.net/DTD/sodipodi-0.dtd" xmlns:inkscape="http://www.inkscape.org/namespaces/inkscape" version="1.1" x="0px" y="0px"  viewBox="0 0 100 100"><g transform="translate(0,-952.36218)"><path style="font-size:medium;font-style:normal;font-variant:normal;font-weight:normal;font-stretch:normal;text-indent:0;text-align:start;text-decoration:none;line-height:normal;letter-spacing:normal;word-spacing:normal;text-transform:none;direction:ltr;block-progression:tb;writing-mode:lr-tb;text-anchor:start;baseline-shift:baseline;opacity:1;color:#000000;fill:#FFFFFF;fill-opacity:1;stroke:none;stroke-width:4;marker:none;visibility:visible;display:inline;overflow:visible;enable-background:accumulate;font-family:Sans;-inkscape-font-specification:Sans" d="M 27 19 C 21.6 18.99997 18.62394 20.82245 16.46875 22.34375 C 14.31356 23.86505 13.055556 25 9 25 A 2.0002 2.0002 0 0 0 7 27 L 7 43 A 2.0002 2.0002 0 0 0 9 45 C 14.287644 44.99997 17.593043 43.30994 20.03125 41.78125 C 21.882094 40.62082 23.299104 39.83728 25 39.40625 L 25 79 A 2.0002 2.0002 0 1 0 29 79 L 29 21 A 2.0002 2.0002 0 0 0 27 19 z M 50 19 C 45.605411 19 42 22.60541 42 27 C 42 31.39459 45.605411 35 50 35 C 54.394588 35 58 31.39459 58 27 C 58 22.60541 54.394588 19 50 19 z M 72.8125 19 A 2.0002 2.0002 0 0 0 71 21 L 71 79 A 2.0002 2.0002 0 1 0 75 79 L 75 39.40625 C 76.700896 39.83728 78.117906 40.62082 79.96875 41.78125 C 82.406957 43.30994 85.712356 44.99997 91 45 A 2.0002 2.0002 0 0 0 93 43 L 93 27 A 2.0002 2.0002 0 0 0 91 25 C 86.944444 25 85.68644 23.86505 83.53125 22.34375 C 81.37606 20.82245 78.4 18.99997 73 19 A 2.0002 2.0002 0 0 0 72.8125 19 z M 50 23 C 52.232828 23 54 24.76717 54 27 C 54 29.23283 52.232828 31 50 31 C 47.767172 31 46 29.23283 46 27 C 46 24.76717 47.767172 23 50 23 z M 25 23.125 L 25 35.21875 C 21.991075 35.71561 19.8342 37.16622 17.90625 38.375 C 16.083356 39.51791 14.012157 40.38244 11 40.71875 L 11 28.78125 C 14.662377 28.34172 17.00282 26.88036 18.78125 25.625 C 20.519526 24.39799 21.963445 23.4313 25 23.125 z M 75 23.125 C 78.036555 23.4313 79.480474 24.39799 81.21875 25.625 C 82.99718 26.88036 85.337623 28.34172 89 28.78125 L 89 40.71875 C 85.987843 40.38244 83.916644 39.51791 82.09375 38.375 C 80.1658 37.16622 78.008925 35.71561 75 35.21875 L 75 23.125 z M 50 37 C 41.988172 37 35.052744 42.06758 34.125 49.125 C 32.349952 49.530013 31 51.116105 31 53 L 31 57 C 31 59.129271 32.732212 60.91597 34.84375 61 L 38.03125 79.34375 A 2.0002 2.0002 0 0 0 40 81 L 60 81 A 2.0002 2.0002 0 0 0 61.96875 79.34375 L 65.15625 61 C 67.267788 60.91597 69 59.129271 69 57 L 69 53 C 69 51.116105 67.650048 49.530013 65.875 49.125 C 64.947255 42.06758 58.011824 37 50 37 z M 50 41 C 56.093064 41 60.803152 44.466103 61.78125 49 L 38.21875 49 C 39.196847 44.466103 43.906931 41 50 41 z M 35 53 L 65 53 L 65 57 L 35 57 L 35 53 z M 38.90625 61 L 61.09375 61 L 58.3125 77 L 41.6875 77 L 38.90625 61 z " transform="translate(0,952.36218)"></path></g></svg>