<svg fill="#FFFFFF" xmlns:dc="http://purl.org/dc/elements/1.1/" xmlns:cc="http://creativecommons.org/ns#" xmlns:rdf="http://www.w3.org/1999/02/22-rdf-syntax-ns#" xmlns:svg="http://www.w3.org/2000/svg" xmlns="http://www.w3.org/2000/svg" xmlns:sodipodi="http://sodipodi.sourceforge.net/DTD/sodipodi-0.dtd" xmlns:inkscape="http://www.inkscape.org/namespaces/inkscape" version="1.1" x="0px" y="0px" viewBox="0 0 100 100"><g transform="translate(0,-952.36218)"><path style="font-size:medium;font-style:normal;font-variant:normal;font-weight:normal;font-stretch:normal;text-indent:0;text-align:start;text-decoration:none;line-height:normal;letter-spacing:normal;word-spacing:normal;text-transform:none;direction:ltr;block-progression:tb;writing-mode:lr-tb;text-anchor:start;baseline-shift:baseline;opacity:1;color:#000000;fill:#FFFFFF;fill-opacity:1;stroke:none;stroke-width:2;marker:none;visibility:visible;display:inline;overflow:visible;enable-background:accumulate;font-family:Sans;-inkscape-font-specification:Sans" d="M 50 7 C 26.263602 7 7 26.2636 7 50 C 7 73.7364 26.263602 93 50 93 C 73.736399 93 93 73.7364 93 50 C 93 26.2636 73.736399 7 50 7 z M 49 9.03125 L 49 16 A 1.0001 1.0001 0 1 0 51 16 L 51 9.03125 C 61.575698 9.2830687 71.150816 13.518069 78.28125 20.3125 L 73.34375 25.25 A 1.0001 1.0001 0 1 0 74.75 26.65625 L 79.6875 21.71875 C 86.481931 28.849184 90.716931 38.424302 90.96875 49 L 84 49 A 1.0001 1.0001 0 0 0 83.8125 49 A 1.0043849 1.0043849 0 0 0 84 51 L 90.96875 51 C 90.642002 64.722506 83.615227 76.773733 73 83.96875 L 73 73 A 1.0001 1.0001 0 0 0 72 72 L 28 72 A 1.0001 1.0001 0 0 0 27.8125 72 A 1.0001 1.0001 0 0 0 27 73 L 27 83.96875 C 16.384772 76.773733 9.3579979 64.722506 9.03125 51 L 16 51 A 1.0001 1.0001 0 1 0 16 49 L 9.03125 49 C 9.2830688 38.424302 13.518069 28.849184 20.3125 21.71875 L 25.25 26.65625 A 1.0001 1.0001 0 1 0 26.65625 25.25 L 21.71875 20.3125 C 28.849184 13.518069 38.424305 9.2830687 49 9.03125 z M 49.84375 23 A 1.0001 1.0001 0 0 0 49.03125 23.75 L 44.03125 44.71875 C 41.822581 47.22725 41.305152 50.9562 43.0625 54 C 44.471253 56.44 47.038375 57.7997 49.65625 57.9375 C 49.772611 57.9475 49.883437 57.999 50 58 C 50.06345 57.9994 50.124098 57.97075 50.1875 57.96875 C 52.861046 57.88075 55.500215 56.4894 56.9375 54 C 58.694848 50.9562 58.177419 47.22725 55.96875 44.71875 L 50.96875 23.75 A 1.0001 1.0001 0 0 0 49.84375 23 z M 50 28.28125 L 54.0625 45.34375 A 1.0001 1.0001 0 0 0 54.3125 45.8125 C 56.131444 47.6862 56.56459 50.6148 55.1875 53 C 54.088368 54.9037 52.054845 55.9811 50 56 C 47.945155 55.981 45.911632 54.9037 44.8125 53 C 43.43541 50.6148 43.868556 47.6862 45.6875 45.8125 A 1.0001 1.0001 0 0 0 45.9375 45.34375 L 50 28.28125 z M 29 74 L 71 74 L 71 85.21875 C 64.856878 88.889813 57.682922 91 50 91 C 42.31708 91 35.143122 88.889813 29 85.21875 L 29 74 z " transform="translate(0,952.36218)"></path></g></svg>