<svg fill="#FFFFFF" xmlns="http://www.w3.org/2000/svg" xmlns:xlink="http://www.w3.org/1999/xlink" version="1.1" x="0px" y="0px" viewBox="0 0 100 100" enable-background="new 0 0 100 100" xml:space="preserve"><g><path d="M32.181,89.426c2.609,0,5.219,0,7.828,0c0.269,0,0.468-0.1,0.622-0.24c0.023-0.017,0.046-0.031,0.067-0.05   c0.019-0.021,0.033-0.044,0.05-0.067c0.14-0.154,0.24-0.353,0.24-0.622c0-18.455,0-36.911,0-55.366   c0-0.533-0.445-0.979-0.979-0.979c-2.609,0-5.219,0-7.828,0c-0.534,0-0.979,0.445-0.979,0.979c0,18.455,0,36.911,0,55.366   C31.203,88.981,31.648,89.426,32.181,89.426z"></path><path d="M46.268,89.426c2.609,0,5.219,0,7.828,0c0.269,0,0.468-0.1,0.622-0.24c0.023-0.017,0.046-0.031,0.067-0.05   c0.019-0.021,0.033-0.044,0.05-0.067c0.14-0.154,0.24-0.353,0.24-0.622c0-7.727,0-15.454,0-23.181c0-0.533-0.445-0.979-0.979-0.979   c-2.609,0-5.219,0-7.828,0c-0.533,0-0.979,0.445-0.979,0.979c0,7.727,0,15.454,0,23.181C45.289,88.981,45.735,89.426,46.268,89.426   z"></path><path d="M60.355,89.426c2.609,0,5.219,0,7.828,0c0.269,0,0.468-0.1,0.622-0.24c0.023-0.017,0.046-0.031,0.067-0.05   c0.019-0.021,0.033-0.044,0.05-0.067c0.14-0.154,0.24-0.353,0.24-0.622c0-13.634,0-27.267,0-40.901   c0-0.533-0.445-0.979-0.979-0.979c-2.609,0-5.219,0-7.828,0c-0.534,0-0.979,0.445-0.979,0.979c0,13.634,0,27.267,0,40.901   C59.376,88.981,59.821,89.426,60.355,89.426z"></path><path d="M74.441,89.426c2.609,0,5.219,0,7.828,0c0.269,0,0.468-0.1,0.622-0.24c0.023-0.017,0.046-0.031,0.067-0.05   c0.019-0.021,0.033-0.044,0.05-0.067c0.14-0.154,0.24-0.353,0.24-0.622c0-4.905,0-9.811,0-14.716c0-0.533-0.445-0.979-0.979-0.979   c-2.609,0-5.219,0-7.828,0c-0.534,0-0.979,0.445-0.979,0.979c0,4.905,0,9.811,0,14.716C73.463,88.981,73.908,89.426,74.441,89.426z   "></path><path d="M18.095,89.426c2.609,0,5.219,0,7.828,0c0.269,0,0.468-0.1,0.622-0.24c0.023-0.017,0.046-0.031,0.067-0.05   c0.019-0.021,0.033-0.044,0.05-0.067c0.14-0.154,0.24-0.353,0.24-0.622c0-23.192,0-46.384,0-69.576   c0-0.533-0.445-0.979-0.979-0.979c-2.609,0-5.219,0-7.828,0c-0.533,0-0.979,0.445-0.979,0.979c0,23.192,0,46.384,0,69.576   C17.116,88.981,17.561,89.426,18.095,89.426z"></path><path d="M86.88,93.043c-23.555,0-47.111,0-70.666,0c-0.689,0-1.377,0-2.066,0c-0.009-0.227-0.019-0.541-0.019-0.985   c0-4.752,0-9.505,0-14.257c0-15.456,0-30.912,0-46.368c0-8.495,0-16.99,0-25.485c0-1.262-1.957-1.262-1.957,0   c0,29.358,0,58.717,0,88.075c0,0.533,0.445,0.979,0.979,0.979c24.576,0,49.152,0,73.729,0C88.142,95,88.142,93.043,86.88,93.043z"></path></g></svg>