<svg fill="#FFFFFF" xmlns="http://www.w3.org/2000/svg" xmlns:xlink="http://www.w3.org/1999/xlink" version="1.1" x="0px" y="0px" viewBox="0 0 100 100" enable-background="new 0 0 100 100" xml:space="preserve"><path fill="#FFFFFF" d="M67,9v6h14.421L62.438,33.836c-5.669-4.766-12.975-7.718-20.943-7.718C23.522,26.118,8.9,40.704,8.9,58.679  c0,17.976,14.622,32.581,32.595,32.581c17.974,0,32.597-14.634,32.597-32.609c0-7.968-3.094-15.279-7.859-20.949L85,18.715V33h6V9  H67z M41.495,85.571c-14.847,0-26.926-12.08-26.926-26.93c0-14.848,12.079-26.928,26.926-26.928  c14.848,0,26.927,12.08,26.927,26.928C68.422,73.491,56.343,85.571,41.495,85.571z"></path></svg>