<svg fill="#FFFFFF" xmlns:dc="http://purl.org/dc/elements/1.1/" xmlns:cc="http://creativecommons.org/ns#" xmlns:rdf="http://www.w3.org/1999/02/22-rdf-syntax-ns#" xmlns:svg="http://www.w3.org/2000/svg" xmlns="http://www.w3.org/2000/svg" xmlns:sodipodi="http://sodipodi.sourceforge.net/DTD/sodipodi-0.dtd" xmlns:inkscape="http://www.inkscape.org/namespaces/inkscape" version="1.1" x="0px" y="0px" viewBox="0 0 100 100"><g transform="translate(0,-952.36218)"><path style="text-indent:0;text-transform:none;direction:ltr;block-progression:tb;baseline-shift:baseline;color:#000000;enable-background:accumulate;" d="m 50,961.36627 c -7.144168,0 -13,5.85554 -13,12.99935 0,3.48557 1.398695,6.65786 3.65625,8.99956 -3.450151,1.54289 -6.443597,3.93357 -8.75,6.87465 -0.5702,-0.41752 -1.171339,-0.7785 -1.78125,-1.09369 1.177,-1.64013 1.875,-3.62756 1.875,-5.78096 0,-5.48704 -4.512687,-9.99951 -10,-9.99951 -5.487313,0 -10,4.51247 -10,9.99951 0,2.24916 0.757638,4.32087 2.03125,5.9997 C 8.6667013,992.23142 5,997.88493 5,1004.3641 a 3.0003,3.0001502 0 0 0 3,2.9999 l 28,0 34,0 22,0 a 3.0003,3.0001502 0 0 0 3,-2.9999 C 95,997.88493 91.333299,992.23142 85.96875,989.36488 87.242362,987.68605 88,985.61434 88,983.36518 c 0,-5.48704 -4.512687,-9.99951 -10,-9.99951 -5.487313,0 -10,4.51247 -10,9.99951 0,2.1534 0.698,4.14083 1.875,5.78096 -0.609911,0.31519 -1.21105,0.67617 -1.78125,1.09369 -2.306403,-2.94108 -5.299849,-5.33176 -8.75,-6.87465 C 61.601305,981.02348 63,977.85119 63,974.36562 63,967.22181 57.144168,961.36627 50,961.36627 z m 0,5.9997 c 3.901527,0 7,3.09832 7,6.99965 0,3.90133 -3.098473,6.99966 -7,6.99966 -3.901528,0 -7,-3.09833 -7,-6.99966 0,-3.90133 3.098472,-6.99965 7,-6.99965 z m -28,11.9994 c 2.244672,0 4,1.75525 4,3.99981 0,2.24456 -1.755328,3.9998 -4,3.9998 -2.244673,0 -4,-1.75524 -4,-3.9998 0,-2.24456 1.755327,-3.99981 4,-3.99981 z m 56,0 c 2.244672,0 4,1.75525 4,3.99981 0,2.24456 -1.755328,3.9998 -4,3.9998 -2.244673,0 -4,-1.75524 -4,-3.9998 0,-2.24456 1.755327,-3.99981 4,-3.99981 z m -28,7.99961 c 8.395836,0 15.275182,6.02409 16.6875,13.99932 l -30.6875,0 -2.6875,0 C 34.724818,993.38907 41.604165,987.36498 50,987.36498 z m -28,5.9997 c 3.146773,0 4.988995,0.46309 6.8125,2.06239 -0.789866,1.86179 -1.320155,3.8659 -1.59375,5.93723 l -15.625,0 C 12.906059,996.75767 16.951028,993.36468 22,993.36468 z m 56,0 c 5.048972,0 9.093941,3.39299 10.40625,7.99962 l -15.625,0 c -0.273595,-2.07133 -0.803884,-4.07544 -1.59375,-5.93723 1.823505,-1.5993 3.665727,-2.06239 6.8125,-2.06239 z m -56,17.99912 c -5.48731,0 -10,4.5125 -10,9.9995 a 3.0003,3.0001502 0 1 0 6,0 c 0,-2.2446 1.755324,-3.9998 4,-3.9998 1.674331,0 2.690845,0.2756 3.09375,0.5937 0.402905,0.318 0.90625,0.9285 0.90625,3.4061 0,0.7499 -0.0455,0.6526 -0.34375,0.9062 -0.298253,0.2537 -1.063024,0.6259 -2.09375,0.9687 -1.030726,0.3428 -2.284869,0.6607 -3.625,1.4062 -1.340131,0.7455 -2.9375,2.594 -2.9375,4.7185 l 0,2.9998 a 3.0003,3.0001502 0 1 0 6,0 l 0,-2.5311 c 0.390061,-0.1965 1.275764,-0.4887 2.4375,-0.875 1.219274,-0.4054 2.704503,-0.9121 4.09375,-2.0936 1.389247,-1.1815 2.46875,-3.2498 2.46875,-5.4997 0,-3.5221 -1.056904,-6.4428 -3.1875,-8.1246 -2.130596,-1.6818 -4.620838,-1.8749 -6.8125,-1.8749 z m 17.6875,0 A 3.0040663,3.0039163 0 1 0 40,1017.3635 l 46,0 a 3.0003,3.0001502 0 1 0 0,-5.9997 l -46,0 a 3.0003,3.0001502 0 0 0 -0.3125,0 z m 0,12.9993 A 3.0040663,3.0039163 0 1 0 40,1030.3628 l 46,0 a 3.0003,3.0001502 0 1 0 0,-5.9997 l -46,0 a 3.0003,3.0001502 0 0 0 -0.3125,0 z M 20,1037.3625 c -1.656854,0 -3,1.3431 -3,2.9998 0,1.6568 1.343146,2.9999 3,2.9999 1.656854,0 3,-1.3431 3,-2.9999 0,-1.6567 -1.343146,-2.9998 -3,-2.9998 z m 19.6875,0 A 3.0040663,3.0039163 0 1 0 40,1043.3622 l 46,0 a 3.0003,3.0001502 0 1 0 0,-5.9997 l -46,0 a 3.0003,3.0001502 0 0 0 -0.3125,0 z" fill="#FFFFFF" fill-opacity="1" stroke="none" marker="none" visibility="visible" display="inline" overflow="visible"></path></g></svg>