<svg fill="#FFFFFF" xmlns="http://www.w3.org/2000/svg" xmlns:xlink="http://www.w3.org/1999/xlink" version="1.1" x="0px" y="0px" viewBox="0 0 100 100" style="enable-background:new 0 0 100 100;" xml:space="preserve"><circle cx="50.8" cy="16.3" r="1.9"></circle><path d="M77.5,19h-1.9c-1.1-2.9-3.5-5-6.5-5.8c-1.2-3.2-4.2-5.4-7.8-5.4h-21c-3.6,0-6.6,2.3-7.8,5.4c-3,0.8-5.4,3-6.5,5.8h-1.9  c-4.6,0-8.4,3.8-8.4,8.4v56.4c0,4.6,3.8,8.4,8.4,8.4h53.4c4.6,0,8.4-3.8,8.4-8.4V27.4C85.9,22.8,82.1,19,77.5,19z M20.6,83.8V27.4  c0-1.9,1.5-3.4,3.4-3.4h3.2v2.6c0,1.3,1,2.3,2.3,2.3h42.3c1.3,0,2.3-1,2.3-2.3V24h3.2c1.9,0,3.4,1.5,3.4,3.4v56.4  c0,1.9-1.5,3.4-3.4,3.4H24.1C22.2,87.2,20.6,85.7,20.6,83.8z M37,17.9v-1.8c0-1.8,1.5-3.4,3.4-3.4h20.9c1.8,0,3.4,1.5,3.4,3.4v1.8  h2.1c2.5,0,4.5,2,4.5,4.5V26h-41v-3.5c0-2.5,2-4.5,4.5-4.5H37V17.9z"></path><g><path d="M72.2,43.2H41.7c-0.8,0-1.5-0.7-1.5-1.5s0.7-1.5,1.5-1.5h30.5c0.8,0,1.5,0.7,1.5,1.5S73,43.2,72.2,43.2z"></path></g><g><path d="M72.2,58.2H41.7c-0.8,0-1.5-0.7-1.5-1.5s0.7-1.5,1.5-1.5h30.5c0.8,0,1.5,0.7,1.5,1.5S73,58.2,72.2,58.2z"></path></g><g><path d="M72.2,73.2H41.7c-0.8,0-1.5-0.7-1.5-1.5s0.7-1.5,1.5-1.5h30.5c0.8,0,1.5,0.7,1.5,1.5S73,73.2,72.2,73.2z"></path></g><g><path d="M32,43.5c-0.3,0-0.5-0.1-0.7-0.3L30,41.8c-0.4-0.4-0.4-1,0-1.4s1-0.4,1.4,0L32,41l2.5-2.5c0.4-0.4,1-0.4,1.4,0s0.4,1,0,1.4   l-3.2,3.2C32.6,43.4,32.3,43.5,32,43.5z"></path></g><g><path d="M34.3,43v0.6c0,0.4-0.3,0.7-0.7,0.7h-3.9c-0.4,0-0.7-0.3-0.7-0.7v-3.9c0-0.4,0.3-0.7,0.7-0.7h3l1.2-1.2   c0.1-0.1,0.4-0.4,0.7-0.7c-0.3-0.1-0.6-0.2-0.9-0.2h-3.9c-1.5,0-2.7,1.2-2.7,2.7v3.9c0,1.5,1.2,2.7,2.7,2.7h3.9   c1.5,0,2.7-1.2,2.7-2.7V41L34.3,43z"></path></g><g><path d="M32,58.5c-0.3,0-0.5-0.1-0.7-0.3L30,56.8c-0.4-0.4-0.4-1,0-1.4s1-0.4,1.4,0L32,56l2.5-2.5c0.4-0.4,1-0.4,1.4,0s0.4,1,0,1.4   l-3.2,3.2C32.6,58.4,32.3,58.5,32,58.5z"></path></g><g><path d="M34.3,58v0.6c0,0.4-0.3,0.7-0.7,0.7h-3.9c-0.4,0-0.7-0.3-0.7-0.7v-3.9c0-0.4,0.3-0.7,0.7-0.7h3l1.2-1.2   c0.1-0.1,0.4-0.4,0.7-0.7c-0.3-0.1-0.6-0.2-0.9-0.2h-3.9c-1.5,0-2.7,1.2-2.7,2.7v3.9c0,1.5,1.2,2.7,2.7,2.7h3.9   c1.5,0,2.7-1.2,2.7-2.7V56L34.3,58z"></path></g><g><path d="M32,73.5c-0.3,0-0.5-0.1-0.7-0.3L30,71.8c-0.4-0.4-0.4-1,0-1.4s1-0.4,1.4,0L32,71l2.5-2.5c0.4-0.4,1-0.4,1.4,0s0.4,1,0,1.4   l-3.2,3.2C32.6,73.4,32.3,73.5,32,73.5z"></path></g><g><path d="M34.3,73v0.6c0,0.4-0.3,0.7-0.7,0.7h-3.9c-0.4,0-0.7-0.3-0.7-0.7v-3.9c0-0.4,0.3-0.7,0.7-0.7h3l1.2-1.2   c0.1-0.1,0.4-0.4,0.7-0.7c-0.3-0.1-0.6-0.2-0.9-0.2h-3.9c-1.5,0-2.7,1.2-2.7,2.7v3.9c0,1.5,1.2,2.7,2.7,2.7h3.9   c1.5,0,2.7-1.2,2.7-2.7V71L34.3,73z"></path></g></svg>